%TF.GenerationSoftware,KiCad,Pcbnew,9.0.2*%
%TF.CreationDate,2025-07-07T17:27:58-04:00*%
%TF.ProjectId,Cain_V1.0,4361696e-5f56-4312-9e30-2e6b69636164,rev?*%
%TF.SameCoordinates,Original*%
%TF.FileFunction,Copper,L2,Inr*%
%TF.FilePolarity,Positive*%
%FSLAX46Y46*%
G04 Gerber Fmt 4.6, Leading zero omitted, Abs format (unit mm)*
G04 Created by KiCad (PCBNEW 9.0.2) date 2025-07-07 17:27:58*
%MOMM*%
%LPD*%
G01*
G04 APERTURE LIST*
G04 Aperture macros list*
%AMRoundRect*
0 Rectangle with rounded corners*
0 $1 Rounding radius*
0 $2 $3 $4 $5 $6 $7 $8 $9 X,Y pos of 4 corners*
0 Add a 4 corners polygon primitive as box body*
4,1,4,$2,$3,$4,$5,$6,$7,$8,$9,$2,$3,0*
0 Add four circle primitives for the rounded corners*
1,1,$1+$1,$2,$3*
1,1,$1+$1,$4,$5*
1,1,$1+$1,$6,$7*
1,1,$1+$1,$8,$9*
0 Add four rect primitives between the rounded corners*
20,1,$1+$1,$2,$3,$4,$5,0*
20,1,$1+$1,$4,$5,$6,$7,0*
20,1,$1+$1,$6,$7,$8,$9,0*
20,1,$1+$1,$8,$9,$2,$3,0*%
G04 Aperture macros list end*
%TA.AperFunction,ComponentPad*%
%ADD10C,1.320800*%
%TD*%
%TA.AperFunction,ComponentPad*%
%ADD11R,1.000000X1.000000*%
%TD*%
%TA.AperFunction,ComponentPad*%
%ADD12C,1.000000*%
%TD*%
%TA.AperFunction,ComponentPad*%
%ADD13R,0.850000X0.850000*%
%TD*%
%TA.AperFunction,ComponentPad*%
%ADD14C,0.850000*%
%TD*%
%TA.AperFunction,ComponentPad*%
%ADD15RoundRect,0.250000X-0.600000X-0.750000X0.600000X-0.750000X0.600000X0.750000X-0.600000X0.750000X0*%
%TD*%
%TA.AperFunction,ComponentPad*%
%ADD16O,1.700000X2.000000*%
%TD*%
%TA.AperFunction,ViaPad*%
%ADD17C,0.700000*%
%TD*%
%TA.AperFunction,ViaPad*%
%ADD18C,0.600000*%
%TD*%
G04 APERTURE END LIST*
D10*
%TO.N,/CAN2.0/Power/3.3IN*%
%TO.C,J3*%
X159422500Y-105950000D03*
%TO.N,/CAN2.0/Power/24IN*%
X159422500Y-107950001D03*
%TO.N,GND*%
X161422499Y-105950000D03*
X161422499Y-107950001D03*
%TO.N,/CAN2.0/Power/CAN+*%
X163422500Y-105950000D03*
%TO.N,/MCU/BOOT0*%
X163422500Y-107950001D03*
%TO.N,/CAN2.0/Power/CAN-*%
X165422498Y-105950000D03*
%TO.N,/CAN2.0/Power/NRST*%
X165422498Y-107950001D03*
%TD*%
D11*
%TO.N,+3.3V*%
%TO.C,J1*%
X144700000Y-90330000D03*
D12*
%TO.N,/MCU/SWDIO*%
X144700000Y-91600000D03*
%TO.N,GND*%
X143430000Y-90330000D03*
%TO.N,/MCU/SWCLK*%
X143430000Y-91600000D03*
%TO.N,GND*%
X142160000Y-90330000D03*
%TO.N,/MCU/SWO*%
X142160000Y-91600000D03*
%TO.N,unconnected-(J1-KEY-Pad7)*%
X140890000Y-90330000D03*
%TO.N,unconnected-(J1-NC{slash}TDI-Pad8)*%
X140890000Y-91600000D03*
%TO.N,GND*%
X139620000Y-90330000D03*
%TO.N,/CAN2.0/Power/NRST*%
X139620000Y-91600000D03*
%TD*%
D10*
%TO.N,/CAN2.0/Power/3.3IN*%
%TO.C,J4*%
X165400000Y-86000000D03*
%TO.N,/CAN2.0/Power/24IN*%
X165400000Y-83999999D03*
%TO.N,unconnected-(J4-Pin_3-Pad3)*%
X163400001Y-86000000D03*
%TO.N,GND*%
X163400001Y-83999999D03*
%TO.N,/CAN2.0/Power/CAN-*%
X161400000Y-86000000D03*
%TO.N,/MCU/BOOT0*%
X161400000Y-83999999D03*
%TO.N,/CAN2.0/Power/CAN+*%
X159400002Y-86000000D03*
%TO.N,/CAN2.0/Power/NRST*%
X159400002Y-83999999D03*
%TD*%
D13*
%TO.N,GND*%
%TO.C,J5*%
X139400000Y-109600000D03*
D14*
%TO.N,/EEPROM/EEPROM_SCL*%
X139400000Y-108600000D03*
%TO.N,/EEPROM/EEPROM_SDA*%
X139400000Y-107600000D03*
%TO.N,+3.3V*%
X139400000Y-106600000D03*
%TD*%
D13*
%TO.N,+3.3V*%
%TO.C,J6*%
X139200000Y-83400000D03*
D14*
%TO.N,/MCU/UART_TX*%
X139200000Y-84400000D03*
%TO.N,/MCU/UART_RX*%
X139200000Y-85400000D03*
%TO.N,GND*%
X139200000Y-86400000D03*
%TD*%
D15*
%TO.N,+24V*%
%TO.C,J2*%
X143500000Y-84385000D03*
D16*
%TO.N,Net-(D2-A)*%
X146000000Y-84385000D03*
%TD*%
D17*
%TO.N,+3.3V*%
X147280000Y-109320000D03*
X140400000Y-111400000D03*
D18*
X157500000Y-92600000D03*
D17*
X158403580Y-98007995D03*
X154200000Y-100500000D03*
X157000000Y-81800000D03*
X141739411Y-95139411D03*
X153900000Y-88600000D03*
X141600000Y-99000000D03*
X156400000Y-103200000D03*
X140650000Y-96850000D03*
X141500000Y-96800000D03*
X167450000Y-89400000D03*
X153300000Y-96000000D03*
D18*
%TO.N,+3.3VA*%
X147850000Y-112700000D03*
X150400000Y-105800000D03*
D17*
%TO.N,Net-(D2-A)*%
X153199000Y-87000000D03*
%TO.N,+24V*%
X155400000Y-87200000D03*
X163400000Y-88700000D03*
%TO.N,/MCU/SWCLK*%
X149000000Y-89700000D03*
D18*
%TO.N,Net-(D7-A)*%
X146400000Y-99200000D03*
X140600000Y-99800000D03*
D17*
%TO.N,/CAN2.0/Power/CAN2_RX*%
X158360882Y-96760882D03*
%TO.N,/CAN2.0/Power/CAN2_TX*%
X157800000Y-100900000D03*
X156200000Y-96700000D03*
%TO.N,/EEPROM/EEPROM_SCL*%
X155300000Y-98700000D03*
%TO.N,/EEPROM/EEPROM_SDA*%
X155350000Y-97350000D03*
D18*
%TO.N,+24V Pre*%
X163600000Y-94600000D03*
X164200000Y-95200000D03*
X162000000Y-92800000D03*
X161740380Y-93340380D03*
D17*
X161200000Y-92800000D03*
X163600000Y-95200000D03*
%TO.N,/Current Sense/ADC2{slash}Current*%
X155400000Y-91700000D03*
X158000000Y-91673130D03*
X156692004Y-101700000D03*
%TO.N,GND*%
X159600000Y-117350000D03*
X156500000Y-106000000D03*
X142800000Y-100200000D03*
X151020000Y-94830000D03*
X139600000Y-117200000D03*
X159000000Y-101380000D03*
X141520000Y-97720000D03*
X154800000Y-89500000D03*
X159200000Y-111300000D03*
X146100000Y-103500000D03*
X142700000Y-94100000D03*
X158200000Y-94800000D03*
D18*
X138900000Y-98000000D03*
X138800000Y-102100000D03*
D17*
X152970000Y-94970000D03*
D18*
X148400000Y-104800000D03*
D17*
X153500000Y-85000000D03*
X166600000Y-117300000D03*
X164500000Y-111000000D03*
X143800000Y-108800000D03*
D18*
X166000000Y-91650000D03*
X147200000Y-105700000D03*
D17*
X167300000Y-94800000D03*
X141000000Y-117000000D03*
X146300000Y-104900000D03*
D18*
X164000000Y-101400000D03*
D17*
X147899000Y-89722409D03*
D18*
X161200000Y-98000000D03*
X152800000Y-100800000D03*
D17*
X146400000Y-117300000D03*
X152100000Y-102400000D03*
X139000000Y-104500000D03*
X158748008Y-90048008D03*
X148800000Y-110100000D03*
X150600000Y-108100000D03*
X150600000Y-107200000D03*
%TO.N,/CAN2.0/Power/NRST*%
X155600000Y-90400000D03*
X145000000Y-97600000D03*
X150350000Y-96550000D03*
X147500000Y-99900000D03*
%TO.N,/CAN2.0/Power/24IN*%
X161300000Y-101000000D03*
X161864121Y-100464121D03*
%TO.N,/MCU/BOOT0*%
X152400000Y-89100000D03*
X146600000Y-95800000D03*
X149600000Y-95200000D03*
X153400000Y-109000000D03*
X156600000Y-108400000D03*
%TO.N,/MCU/Solenoid*%
X154000000Y-94900000D03*
%TO.N,/MCU/ADC1{slash}Pressure*%
X155029605Y-103860589D03*
%TO.N,/MCU/LED_GREEN*%
X141137693Y-93299999D03*
X145000000Y-93300000D03*
%TO.N,/MCU/UART_RX*%
X148448691Y-94448061D03*
X141550000Y-87950000D03*
%TO.N,/MCU/UART_TX*%
X141803950Y-87086569D03*
X149280184Y-94103645D03*
D18*
%TO.N,Net-(D7-K)*%
X140300000Y-100700000D03*
%TD*%
%TA.AperFunction,Conductor*%
%TO.N,GND*%
G36*
X161016099Y-106003504D02*
G01*
X161043794Y-106106865D01*
X161097298Y-106199536D01*
X161172963Y-106275201D01*
X161265634Y-106328705D01*
X161368995Y-106356400D01*
X161369652Y-106356400D01*
X160796518Y-106929531D01*
X160797364Y-106940275D01*
X160797364Y-106959734D01*
X160796518Y-106970468D01*
X161369653Y-107543601D01*
X161368995Y-107543601D01*
X161265634Y-107571296D01*
X161172963Y-107624800D01*
X161097298Y-107700465D01*
X161043794Y-107793136D01*
X161016099Y-107896497D01*
X161016099Y-107897153D01*
X160442967Y-107324021D01*
X160442964Y-107324021D01*
X160430042Y-107341809D01*
X160430035Y-107341819D01*
X160388338Y-107423654D01*
X160340363Y-107474449D01*
X160272542Y-107491244D01*
X160206407Y-107468706D01*
X160174752Y-107436249D01*
X160130042Y-107369335D01*
X160003168Y-107242461D01*
X160003164Y-107242458D01*
X159853979Y-107142775D01*
X159853969Y-107142770D01*
X159830129Y-107132895D01*
X159830110Y-107132887D01*
X159688200Y-107074107D01*
X159665295Y-107069550D01*
X159655397Y-107065747D01*
X159635719Y-107050710D01*
X159613773Y-107039230D01*
X159608441Y-107029866D01*
X159599881Y-107023325D01*
X159591455Y-107000034D01*
X159579201Y-106978513D01*
X159579777Y-106967755D01*
X159576112Y-106957622D01*
X159581615Y-106933473D01*
X159582942Y-106908744D01*
X159589244Y-106900004D01*
X159591639Y-106889499D01*
X159609323Y-106872161D01*
X159623810Y-106852073D01*
X159635047Y-106846941D01*
X159641531Y-106840585D01*
X159655143Y-106837764D01*
X159675688Y-106828382D01*
X159688200Y-106825894D01*
X159853973Y-106757229D01*
X160003165Y-106657542D01*
X160130042Y-106530665D01*
X160174752Y-106463750D01*
X160228363Y-106418947D01*
X160297688Y-106410239D01*
X160360716Y-106440393D01*
X160388339Y-106476347D01*
X160430034Y-106558178D01*
X160442966Y-106575978D01*
X161016099Y-106002845D01*
X161016099Y-106003504D01*
G37*
%TD.AperFunction*%
%TA.AperFunction,Conductor*%
G36*
X162402030Y-106575978D02*
G01*
X162414965Y-106558176D01*
X162456659Y-106476347D01*
X162504633Y-106425551D01*
X162572454Y-106408755D01*
X162638589Y-106431292D01*
X162670246Y-106463750D01*
X162714957Y-106530664D01*
X162714960Y-106530668D01*
X162841831Y-106657539D01*
X162841835Y-106657542D01*
X162991020Y-106757225D01*
X162991033Y-106757232D01*
X163156795Y-106825892D01*
X163156800Y-106825894D01*
X163169311Y-106828382D01*
X163231222Y-106860766D01*
X163265797Y-106921482D01*
X163262058Y-106991251D01*
X163221193Y-107047924D01*
X163169317Y-107071616D01*
X163156809Y-107074104D01*
X163156795Y-107074108D01*
X162991033Y-107142768D01*
X162991020Y-107142775D01*
X162841835Y-107242458D01*
X162841831Y-107242461D01*
X162714960Y-107369332D01*
X162714955Y-107369338D01*
X162670245Y-107436251D01*
X162616633Y-107481055D01*
X162547308Y-107489762D01*
X162484280Y-107459607D01*
X162456659Y-107423654D01*
X162414961Y-107341818D01*
X162402030Y-107324021D01*
X162402030Y-107324020D01*
X161828899Y-107897152D01*
X161828899Y-107896497D01*
X161801204Y-107793136D01*
X161747700Y-107700465D01*
X161672035Y-107624800D01*
X161579364Y-107571296D01*
X161476003Y-107543601D01*
X161475346Y-107543601D01*
X162048477Y-106970469D01*
X162047632Y-106959734D01*
X162047632Y-106940275D01*
X162048477Y-106929531D01*
X161475347Y-106356400D01*
X161476003Y-106356400D01*
X161579364Y-106328705D01*
X161672035Y-106275201D01*
X161747700Y-106199536D01*
X161801204Y-106106865D01*
X161828899Y-106003504D01*
X161828899Y-106002847D01*
X162402030Y-106575978D01*
G37*
%TD.AperFunction*%
%TA.AperFunction,Conductor*%
G36*
X162993601Y-84053503D02*
G01*
X163021296Y-84156864D01*
X163074800Y-84249535D01*
X163150465Y-84325200D01*
X163243136Y-84378704D01*
X163346497Y-84406399D01*
X163347154Y-84406399D01*
X162774020Y-84979530D01*
X162791818Y-84992461D01*
X162873654Y-85034159D01*
X162924450Y-85082134D01*
X162941245Y-85149955D01*
X162918708Y-85216090D01*
X162886251Y-85247745D01*
X162819338Y-85292455D01*
X162819332Y-85292460D01*
X162692461Y-85419331D01*
X162692458Y-85419335D01*
X162592775Y-85568520D01*
X162592768Y-85568533D01*
X162524108Y-85734295D01*
X162524104Y-85734309D01*
X162521616Y-85746817D01*
X162489229Y-85808727D01*
X162428512Y-85843298D01*
X162358743Y-85839556D01*
X162302072Y-85798688D01*
X162278382Y-85746810D01*
X162275894Y-85734300D01*
X162234969Y-85635498D01*
X162207232Y-85568533D01*
X162207225Y-85568520D01*
X162107542Y-85419335D01*
X162107539Y-85419331D01*
X161980668Y-85292460D01*
X161980664Y-85292457D01*
X161831479Y-85192774D01*
X161831466Y-85192767D01*
X161665704Y-85124107D01*
X161665696Y-85124105D01*
X161653184Y-85121616D01*
X161591273Y-85089229D01*
X161556701Y-85028512D01*
X161560442Y-84958743D01*
X161601310Y-84902072D01*
X161653188Y-84878381D01*
X161665700Y-84875893D01*
X161831473Y-84807228D01*
X161980665Y-84707541D01*
X162107542Y-84580664D01*
X162152253Y-84513748D01*
X162205864Y-84468944D01*
X162275189Y-84460237D01*
X162338217Y-84490391D01*
X162365839Y-84526345D01*
X162407531Y-84608169D01*
X162407534Y-84608174D01*
X162420468Y-84625977D01*
X162993601Y-84052844D01*
X162993601Y-84053503D01*
G37*
%TD.AperFunction*%
%TA.AperFunction,Conductor*%
G36*
X164379532Y-84625977D02*
G01*
X164392467Y-84608175D01*
X164434160Y-84526348D01*
X164482134Y-84475552D01*
X164549955Y-84458756D01*
X164616090Y-84481293D01*
X164647747Y-84513750D01*
X164692460Y-84580667D01*
X164819331Y-84707538D01*
X164819335Y-84707541D01*
X164968520Y-84807224D01*
X164968533Y-84807231D01*
X165134295Y-84875891D01*
X165134300Y-84875893D01*
X165146811Y-84878381D01*
X165208722Y-84910765D01*
X165243297Y-84971481D01*
X165239558Y-85041250D01*
X165198693Y-85097923D01*
X165146817Y-85121615D01*
X165134309Y-85124103D01*
X165134295Y-85124107D01*
X164968533Y-85192767D01*
X164968520Y-85192774D01*
X164819335Y-85292457D01*
X164819331Y-85292460D01*
X164692460Y-85419331D01*
X164692457Y-85419335D01*
X164592774Y-85568520D01*
X164592767Y-85568533D01*
X164524107Y-85734295D01*
X164524103Y-85734309D01*
X164521616Y-85746812D01*
X164489229Y-85808722D01*
X164428512Y-85843293D01*
X164358743Y-85839551D01*
X164302072Y-85798683D01*
X164278382Y-85746806D01*
X164275895Y-85734300D01*
X164234970Y-85635498D01*
X164207233Y-85568533D01*
X164207226Y-85568520D01*
X164107543Y-85419335D01*
X164107540Y-85419331D01*
X163980669Y-85292460D01*
X163980665Y-85292457D01*
X163913751Y-85247746D01*
X163868946Y-85194133D01*
X163860239Y-85124808D01*
X163890394Y-85061781D01*
X163926348Y-85034159D01*
X164008177Y-84992465D01*
X164025980Y-84979530D01*
X163452849Y-84406399D01*
X163453505Y-84406399D01*
X163556866Y-84378704D01*
X163649537Y-84325200D01*
X163725202Y-84249535D01*
X163778706Y-84156864D01*
X163806401Y-84053503D01*
X163806401Y-84052846D01*
X164379532Y-84625977D01*
G37*
%TD.AperFunction*%
%TA.AperFunction,Conductor*%
G36*
X156517941Y-81220185D02*
G01*
X156563696Y-81272989D01*
X156573640Y-81342147D01*
X156544615Y-81405703D01*
X156538583Y-81412181D01*
X156519481Y-81431282D01*
X156519475Y-81431290D01*
X156440426Y-81568209D01*
X156440423Y-81568216D01*
X156399500Y-81720943D01*
X156399500Y-81879057D01*
X156430283Y-81993939D01*
X156440423Y-82031783D01*
X156440426Y-82031790D01*
X156519475Y-82168709D01*
X156519479Y-82168714D01*
X156519480Y-82168716D01*
X156631284Y-82280520D01*
X156631286Y-82280521D01*
X156631290Y-82280524D01*
X156768209Y-82359573D01*
X156768216Y-82359577D01*
X156920943Y-82400500D01*
X156920945Y-82400500D01*
X157079055Y-82400500D01*
X157079057Y-82400500D01*
X157231784Y-82359577D01*
X157368716Y-82280520D01*
X157480520Y-82168716D01*
X157559577Y-82031784D01*
X157600500Y-81879057D01*
X157600500Y-81720943D01*
X157559577Y-81568216D01*
X157482474Y-81434668D01*
X157480524Y-81431290D01*
X157480518Y-81431282D01*
X157461417Y-81412181D01*
X157427932Y-81350858D01*
X157432916Y-81281166D01*
X157474788Y-81225233D01*
X157540252Y-81200816D01*
X157549098Y-81200500D01*
X166960118Y-81200500D01*
X166993908Y-81200500D01*
X167006061Y-81201097D01*
X167016051Y-81202080D01*
X167143824Y-81214665D01*
X167167652Y-81219404D01*
X167294277Y-81257815D01*
X167316725Y-81267114D01*
X167433406Y-81329482D01*
X167453616Y-81342986D01*
X167530038Y-81405703D01*
X167555891Y-81426920D01*
X167573079Y-81444108D01*
X167657012Y-81546381D01*
X167670517Y-81566593D01*
X167732883Y-81683271D01*
X167742186Y-81705728D01*
X167780593Y-81832338D01*
X167785335Y-81856180D01*
X167798903Y-81993938D01*
X167799500Y-82006092D01*
X167799500Y-88710365D01*
X167779815Y-88777404D01*
X167727011Y-88823159D01*
X167657853Y-88833103D01*
X167643407Y-88830140D01*
X167529057Y-88799500D01*
X167370943Y-88799500D01*
X167218216Y-88840423D01*
X167218209Y-88840426D01*
X167081290Y-88919475D01*
X167081282Y-88919481D01*
X166969481Y-89031282D01*
X166969475Y-89031290D01*
X166890426Y-89168209D01*
X166890423Y-89168216D01*
X166849500Y-89320943D01*
X166849500Y-89479057D01*
X166890210Y-89630987D01*
X166890423Y-89631783D01*
X166890426Y-89631790D01*
X166969475Y-89768709D01*
X166969479Y-89768714D01*
X166969480Y-89768716D01*
X167081284Y-89880520D01*
X167081286Y-89880521D01*
X167081290Y-89880524D01*
X167170087Y-89931790D01*
X167218216Y-89959577D01*
X167370943Y-90000500D01*
X167370945Y-90000500D01*
X167529054Y-90000500D01*
X167529057Y-90000500D01*
X167643410Y-89969859D01*
X167713256Y-89971522D01*
X167771118Y-90010684D01*
X167798623Y-90074912D01*
X167799500Y-90089634D01*
X167799500Y-116993907D01*
X167798903Y-117006060D01*
X167798903Y-117006061D01*
X167785335Y-117143819D01*
X167780593Y-117167661D01*
X167742186Y-117294271D01*
X167732883Y-117316728D01*
X167670517Y-117433406D01*
X167657012Y-117453618D01*
X167573079Y-117555891D01*
X167555891Y-117573079D01*
X167453618Y-117657012D01*
X167433406Y-117670517D01*
X167316728Y-117732883D01*
X167294271Y-117742186D01*
X167167661Y-117780593D01*
X167143819Y-117785335D01*
X167006062Y-117798903D01*
X166993908Y-117799500D01*
X139006092Y-117799500D01*
X138993938Y-117798903D01*
X138856180Y-117785335D01*
X138832340Y-117780593D01*
X138705728Y-117742186D01*
X138683271Y-117732883D01*
X138566593Y-117670517D01*
X138546381Y-117657012D01*
X138444108Y-117573079D01*
X138426920Y-117555891D01*
X138342986Y-117453616D01*
X138329482Y-117433406D01*
X138267114Y-117316725D01*
X138257815Y-117294277D01*
X138219404Y-117167652D01*
X138214665Y-117143824D01*
X138201097Y-117006060D01*
X138200500Y-116993907D01*
X138200500Y-113881995D01*
X142199500Y-113881995D01*
X142199500Y-114118004D01*
X142199501Y-114118020D01*
X142230306Y-114352010D01*
X142291394Y-114579993D01*
X142381714Y-114798045D01*
X142381719Y-114798056D01*
X142400375Y-114830368D01*
X142499727Y-115002450D01*
X142499729Y-115002453D01*
X142499730Y-115002454D01*
X142643406Y-115189697D01*
X142643412Y-115189704D01*
X142810295Y-115356587D01*
X142810301Y-115356592D01*
X142997550Y-115500273D01*
X143128918Y-115576118D01*
X143201943Y-115618280D01*
X143201948Y-115618282D01*
X143201951Y-115618284D01*
X143420007Y-115708606D01*
X143647986Y-115769693D01*
X143881989Y-115800500D01*
X143881996Y-115800500D01*
X144118004Y-115800500D01*
X144118011Y-115800500D01*
X144352014Y-115769693D01*
X144579993Y-115708606D01*
X144798049Y-115618284D01*
X145002450Y-115500273D01*
X145189699Y-115356592D01*
X145356592Y-115189699D01*
X145500273Y-115002450D01*
X145618284Y-114798049D01*
X145708606Y-114579993D01*
X145769693Y-114352014D01*
X145800500Y-114118011D01*
X145800500Y-113881989D01*
X145794043Y-113832945D01*
X149599500Y-113832945D01*
X149599500Y-114167052D01*
X149632247Y-114499548D01*
X149632250Y-114499565D01*
X149697425Y-114827230D01*
X149697428Y-114827241D01*
X149794418Y-115146977D01*
X149922278Y-115455656D01*
X149922280Y-115455661D01*
X150079769Y-115750303D01*
X150079780Y-115750321D01*
X150265393Y-116028109D01*
X150265403Y-116028123D01*
X150477361Y-116286395D01*
X150713604Y-116522638D01*
X150713609Y-116522642D01*
X150713610Y-116522643D01*
X150971882Y-116734601D01*
X151249685Y-116920224D01*
X151249694Y-116920229D01*
X151249696Y-116920230D01*
X151544338Y-117077719D01*
X151544340Y-117077719D01*
X151544346Y-117077723D01*
X151853024Y-117205582D01*
X152172749Y-117302569D01*
X152172755Y-117302570D01*
X152172758Y-117302571D01*
X152172769Y-117302574D01*
X152378243Y-117343444D01*
X152500441Y-117367751D01*
X152832944Y-117400500D01*
X152832947Y-117400500D01*
X153167053Y-117400500D01*
X153167056Y-117400500D01*
X153499559Y-117367751D01*
X153661757Y-117335487D01*
X153827230Y-117302574D01*
X153827241Y-117302571D01*
X153827241Y-117302570D01*
X153827251Y-117302569D01*
X154146976Y-117205582D01*
X154455654Y-117077723D01*
X154750315Y-116920224D01*
X155028118Y-116734601D01*
X155286390Y-116522643D01*
X155522643Y-116286390D01*
X155734601Y-116028118D01*
X155920224Y-115750315D01*
X156077723Y-115455654D01*
X156205582Y-115146976D01*
X156302569Y-114827251D01*
X156302571Y-114827241D01*
X156302574Y-114827230D01*
X156335487Y-114661757D01*
X156367751Y-114499559D01*
X156400500Y-114167056D01*
X156400500Y-113881995D01*
X160199500Y-113881995D01*
X160199500Y-114118004D01*
X160199501Y-114118020D01*
X160230306Y-114352010D01*
X160291394Y-114579993D01*
X160381714Y-114798045D01*
X160381719Y-114798056D01*
X160400375Y-114830368D01*
X160499727Y-115002450D01*
X160499729Y-115002453D01*
X160499730Y-115002454D01*
X160643406Y-115189697D01*
X160643412Y-115189704D01*
X160810295Y-115356587D01*
X160810301Y-115356592D01*
X160997550Y-115500273D01*
X161128918Y-115576118D01*
X161201943Y-115618280D01*
X161201948Y-115618282D01*
X161201951Y-115618284D01*
X161420007Y-115708606D01*
X161647986Y-115769693D01*
X161881989Y-115800500D01*
X161881996Y-115800500D01*
X162118004Y-115800500D01*
X162118011Y-115800500D01*
X162352014Y-115769693D01*
X162579993Y-115708606D01*
X162798049Y-115618284D01*
X163002450Y-115500273D01*
X163189699Y-115356592D01*
X163356592Y-115189699D01*
X163500273Y-115002450D01*
X163618284Y-114798049D01*
X163708606Y-114579993D01*
X163769693Y-114352014D01*
X163800500Y-114118011D01*
X163800500Y-113881989D01*
X163769693Y-113647986D01*
X163708606Y-113420007D01*
X163618284Y-113201951D01*
X163618282Y-113201948D01*
X163618280Y-113201943D01*
X163576118Y-113128918D01*
X163500273Y-112997550D01*
X163435000Y-112912485D01*
X163356593Y-112810302D01*
X163356587Y-112810295D01*
X163189704Y-112643412D01*
X163189697Y-112643406D01*
X163002454Y-112499730D01*
X163002453Y-112499729D01*
X163002450Y-112499727D01*
X162920957Y-112452677D01*
X162798056Y-112381719D01*
X162798045Y-112381714D01*
X162579993Y-112291394D01*
X162460930Y-112259491D01*
X162352014Y-112230307D01*
X162352013Y-112230306D01*
X162352010Y-112230306D01*
X162118020Y-112199501D01*
X162118017Y-112199500D01*
X162118011Y-112199500D01*
X161881989Y-112199500D01*
X161881983Y-112199500D01*
X161881979Y-112199501D01*
X161647989Y-112230306D01*
X161420006Y-112291394D01*
X161201954Y-112381714D01*
X161201943Y-112381719D01*
X160997545Y-112499730D01*
X160810302Y-112643406D01*
X160810295Y-112643412D01*
X160643412Y-112810295D01*
X160643406Y-112810302D01*
X160499730Y-112997545D01*
X160381719Y-113201943D01*
X160381714Y-113201954D01*
X160291394Y-113420006D01*
X160230306Y-113647989D01*
X160199501Y-113881979D01*
X160199500Y-113881995D01*
X156400500Y-113881995D01*
X156400500Y-113832944D01*
X156367751Y-113500441D01*
X156318035Y-113250500D01*
X156302574Y-113172769D01*
X156302571Y-113172758D01*
X156302570Y-113172755D01*
X156302569Y-113172749D01*
X156205582Y-112853024D01*
X156077723Y-112544346D01*
X156053875Y-112499730D01*
X155920230Y-112249696D01*
X155920229Y-112249694D01*
X155920224Y-112249685D01*
X155734601Y-111971882D01*
X155522643Y-111713610D01*
X155522642Y-111713609D01*
X155522638Y-111713604D01*
X155286395Y-111477361D01*
X155028123Y-111265403D01*
X155028122Y-111265402D01*
X155028118Y-111265399D01*
X154750315Y-111079776D01*
X154750310Y-111079773D01*
X154750303Y-111079769D01*
X154455661Y-110922280D01*
X154455656Y-110922278D01*
X154448903Y-110919481D01*
X154258042Y-110840423D01*
X154146977Y-110794418D01*
X153827241Y-110697428D01*
X153827230Y-110697425D01*
X153499565Y-110632250D01*
X153499548Y-110632247D01*
X153248108Y-110607483D01*
X153167056Y-110599500D01*
X152832944Y-110599500D01*
X152757982Y-110606883D01*
X152500451Y-110632247D01*
X152500434Y-110632250D01*
X152172769Y-110697425D01*
X152172758Y-110697428D01*
X151853022Y-110794418D01*
X151544343Y-110922278D01*
X151544338Y-110922280D01*
X151249696Y-111079769D01*
X151249678Y-111079780D01*
X150971890Y-111265393D01*
X150971876Y-111265403D01*
X150713604Y-111477361D01*
X150477361Y-111713604D01*
X150265403Y-111971876D01*
X150265393Y-111971890D01*
X150079780Y-112249678D01*
X150079769Y-112249696D01*
X149922280Y-112544338D01*
X149922278Y-112544343D01*
X149794418Y-112853022D01*
X149697428Y-113172758D01*
X149697425Y-113172769D01*
X149632250Y-113500434D01*
X149632247Y-113500451D01*
X149599611Y-113831806D01*
X149599612Y-113831807D01*
X149599500Y-113832945D01*
X145794043Y-113832945D01*
X145769693Y-113647986D01*
X145708606Y-113420007D01*
X145618284Y-113201951D01*
X145618282Y-113201948D01*
X145618280Y-113201943D01*
X145576118Y-113128918D01*
X145500273Y-112997550D01*
X145435000Y-112912485D01*
X145356593Y-112810302D01*
X145356587Y-112810295D01*
X145189704Y-112643412D01*
X145189697Y-112643406D01*
X145169000Y-112627525D01*
X147299500Y-112627525D01*
X147299500Y-112772475D01*
X147337016Y-112912485D01*
X147337017Y-112912488D01*
X147409488Y-113038011D01*
X147409490Y-113038013D01*
X147409491Y-113038015D01*
X147511985Y-113140509D01*
X147511986Y-113140510D01*
X147511988Y-113140511D01*
X147637511Y-113212982D01*
X147637512Y-113212982D01*
X147637515Y-113212984D01*
X147777525Y-113250500D01*
X147777528Y-113250500D01*
X147922472Y-113250500D01*
X147922475Y-113250500D01*
X148062485Y-113212984D01*
X148188015Y-113140509D01*
X148290509Y-113038015D01*
X148362984Y-112912485D01*
X148400500Y-112772475D01*
X148400500Y-112627525D01*
X148362984Y-112487515D01*
X148301902Y-112381719D01*
X148290511Y-112361988D01*
X148290506Y-112361982D01*
X148188017Y-112259493D01*
X148188011Y-112259488D01*
X148062488Y-112187017D01*
X148062489Y-112187017D01*
X148051006Y-112183940D01*
X147922475Y-112149500D01*
X147777525Y-112149500D01*
X147648993Y-112183940D01*
X147637511Y-112187017D01*
X147511988Y-112259488D01*
X147511982Y-112259493D01*
X147409493Y-112361982D01*
X147409488Y-112361988D01*
X147337017Y-112487511D01*
X147337016Y-112487515D01*
X147299500Y-112627525D01*
X145169000Y-112627525D01*
X145002454Y-112499730D01*
X145002453Y-112499729D01*
X145002450Y-112499727D01*
X144920957Y-112452677D01*
X144798056Y-112381719D01*
X144798045Y-112381714D01*
X144579993Y-112291394D01*
X144460930Y-112259491D01*
X144352014Y-112230307D01*
X144352013Y-112230306D01*
X144352010Y-112230306D01*
X144118020Y-112199501D01*
X144118017Y-112199500D01*
X144118011Y-112199500D01*
X143881989Y-112199500D01*
X143881983Y-112199500D01*
X143881979Y-112199501D01*
X143647989Y-112230306D01*
X143420006Y-112291394D01*
X143201954Y-112381714D01*
X143201943Y-112381719D01*
X142997545Y-112499730D01*
X142810302Y-112643406D01*
X142810295Y-112643412D01*
X142643412Y-112810295D01*
X142643406Y-112810302D01*
X142499730Y-112997545D01*
X142381719Y-113201943D01*
X142381714Y-113201954D01*
X142291394Y-113420006D01*
X142230306Y-113647989D01*
X142199501Y-113881979D01*
X142199500Y-113881995D01*
X138200500Y-113881995D01*
X138200500Y-111320943D01*
X139799500Y-111320943D01*
X139799500Y-111479056D01*
X139840423Y-111631783D01*
X139840426Y-111631790D01*
X139919475Y-111768709D01*
X139919479Y-111768714D01*
X139919480Y-111768716D01*
X140031284Y-111880520D01*
X140031286Y-111880521D01*
X140031290Y-111880524D01*
X140168209Y-111959573D01*
X140168216Y-111959577D01*
X140320943Y-112000500D01*
X140320945Y-112000500D01*
X140479055Y-112000500D01*
X140479057Y-112000500D01*
X140631784Y-111959577D01*
X140768716Y-111880520D01*
X140880520Y-111768716D01*
X140959577Y-111631784D01*
X141000500Y-111479057D01*
X141000500Y-111320943D01*
X140959577Y-111168216D01*
X140887215Y-111042880D01*
X140880524Y-111031290D01*
X140880518Y-111031282D01*
X140768717Y-110919481D01*
X140768709Y-110919475D01*
X140631790Y-110840426D01*
X140631786Y-110840424D01*
X140631784Y-110840423D01*
X140479057Y-110799500D01*
X140320943Y-110799500D01*
X140168216Y-110840423D01*
X140168209Y-110840426D01*
X140031290Y-110919475D01*
X140031282Y-110919481D01*
X139919481Y-111031282D01*
X139919475Y-111031290D01*
X139840426Y-111168209D01*
X139840423Y-111168216D01*
X139799500Y-111320943D01*
X138200500Y-111320943D01*
X138200500Y-110072844D01*
X138475000Y-110072844D01*
X138481401Y-110132372D01*
X138481403Y-110132379D01*
X138531645Y-110267086D01*
X138531649Y-110267093D01*
X138617809Y-110382187D01*
X138617812Y-110382190D01*
X138732906Y-110468350D01*
X138732913Y-110468354D01*
X138867620Y-110518596D01*
X138867627Y-110518598D01*
X138927155Y-110524999D01*
X138927172Y-110525000D01*
X139150000Y-110525000D01*
X139650000Y-110525000D01*
X139872828Y-110525000D01*
X139872844Y-110524999D01*
X139932372Y-110518598D01*
X139932379Y-110518596D01*
X140067086Y-110468354D01*
X140067093Y-110468350D01*
X140182187Y-110382190D01*
X140182190Y-110382187D01*
X140268350Y-110267093D01*
X140268354Y-110267086D01*
X140318596Y-110132379D01*
X140318598Y-110132372D01*
X140324999Y-110072844D01*
X140325000Y-110072827D01*
X140325000Y-109850000D01*
X139650000Y-109850000D01*
X139650000Y-110525000D01*
X139150000Y-110525000D01*
X139150000Y-109850000D01*
X138475000Y-109850000D01*
X138475000Y-110072844D01*
X138200500Y-110072844D01*
X138200500Y-109127155D01*
X138475000Y-109127155D01*
X138475000Y-109350000D01*
X139350272Y-109350000D01*
X139258386Y-109388060D01*
X139188060Y-109458386D01*
X139150000Y-109550272D01*
X139150000Y-109649728D01*
X139188060Y-109741614D01*
X139258386Y-109811940D01*
X139350272Y-109850000D01*
X139449728Y-109850000D01*
X139541614Y-109811940D01*
X139611940Y-109741614D01*
X139650000Y-109649728D01*
X139650000Y-109550272D01*
X139611940Y-109458386D01*
X139541614Y-109388060D01*
X139449728Y-109350000D01*
X140325000Y-109350000D01*
X140325000Y-109240943D01*
X146679500Y-109240943D01*
X146679500Y-109399057D01*
X146701328Y-109480518D01*
X146720423Y-109551783D01*
X146720426Y-109551790D01*
X146799475Y-109688709D01*
X146799479Y-109688714D01*
X146799480Y-109688716D01*
X146911284Y-109800520D01*
X146911286Y-109800521D01*
X146911290Y-109800524D01*
X147048209Y-109879573D01*
X147048216Y-109879577D01*
X147200943Y-109920500D01*
X147200945Y-109920500D01*
X147359055Y-109920500D01*
X147359057Y-109920500D01*
X147511784Y-109879577D01*
X147648716Y-109800520D01*
X147760520Y-109688716D01*
X147839577Y-109551784D01*
X147880500Y-109399057D01*
X147880500Y-109240943D01*
X147839577Y-109088216D01*
X147765308Y-108959577D01*
X147760522Y-108951287D01*
X147760518Y-108951282D01*
X147730179Y-108920943D01*
X152799500Y-108920943D01*
X152799500Y-109079057D01*
X152812393Y-109127172D01*
X152840423Y-109231783D01*
X152840426Y-109231790D01*
X152919475Y-109368709D01*
X152919479Y-109368714D01*
X152919480Y-109368716D01*
X153031284Y-109480520D01*
X153031286Y-109480521D01*
X153031290Y-109480524D01*
X153152099Y-109550272D01*
X153168216Y-109559577D01*
X153320943Y-109600500D01*
X153320945Y-109600500D01*
X153479055Y-109600500D01*
X153479057Y-109600500D01*
X153631784Y-109559577D01*
X153768716Y-109480520D01*
X153880520Y-109368716D01*
X153959577Y-109231784D01*
X154000500Y-109079057D01*
X154000500Y-108920943D01*
X153959577Y-108768216D01*
X153959286Y-108767712D01*
X153880524Y-108631290D01*
X153880518Y-108631282D01*
X153768717Y-108519481D01*
X153768709Y-108519475D01*
X153631790Y-108440426D01*
X153631786Y-108440424D01*
X153631784Y-108440423D01*
X153479057Y-108399500D01*
X153320943Y-108399500D01*
X153168216Y-108440423D01*
X153168209Y-108440426D01*
X153031290Y-108519475D01*
X153031282Y-108519481D01*
X152919481Y-108631282D01*
X152919475Y-108631290D01*
X152840426Y-108768209D01*
X152840423Y-108768216D01*
X152799500Y-108920943D01*
X147730179Y-108920943D01*
X147648717Y-108839481D01*
X147648709Y-108839475D01*
X147511790Y-108760426D01*
X147511786Y-108760424D01*
X147511784Y-108760423D01*
X147359057Y-108719500D01*
X147200943Y-108719500D01*
X147048216Y-108760423D01*
X147048209Y-108760426D01*
X146911290Y-108839475D01*
X146911282Y-108839481D01*
X146799481Y-108951282D01*
X146799475Y-108951290D01*
X146720426Y-109088209D01*
X146720423Y-109088216D01*
X146679500Y-109240943D01*
X140325000Y-109240943D01*
X140325000Y-109127172D01*
X140324999Y-109127155D01*
X140318598Y-109067627D01*
X140318596Y-109067620D01*
X140268354Y-108932913D01*
X140268350Y-108932906D01*
X140182190Y-108817812D01*
X140124889Y-108774916D01*
X140083019Y-108718982D01*
X140076993Y-108672623D01*
X140075500Y-108672623D01*
X140075500Y-108533466D01*
X140049541Y-108402969D01*
X140049540Y-108402968D01*
X140049540Y-108402964D01*
X140015566Y-108320943D01*
X155999500Y-108320943D01*
X155999500Y-108479057D01*
X156040289Y-108631282D01*
X156040423Y-108631783D01*
X156040426Y-108631790D01*
X156119475Y-108768709D01*
X156119479Y-108768714D01*
X156119480Y-108768716D01*
X156231284Y-108880520D01*
X156231286Y-108880521D01*
X156231290Y-108880524D01*
X156353852Y-108951284D01*
X156368216Y-108959577D01*
X156520943Y-109000500D01*
X156520945Y-109000500D01*
X156679055Y-109000500D01*
X156679057Y-109000500D01*
X156831784Y-108959577D01*
X156968716Y-108880520D01*
X157080520Y-108768716D01*
X157159577Y-108631784D01*
X157200500Y-108479057D01*
X157200500Y-108320943D01*
X157159577Y-108168216D01*
X157085389Y-108039717D01*
X157080524Y-108031290D01*
X157080518Y-108031282D01*
X156968717Y-107919481D01*
X156968709Y-107919475D01*
X156831790Y-107840426D01*
X156831786Y-107840424D01*
X156831784Y-107840423D01*
X156679057Y-107799500D01*
X156520943Y-107799500D01*
X156368216Y-107840423D01*
X156368209Y-107840426D01*
X156231290Y-107919475D01*
X156231282Y-107919481D01*
X156119481Y-108031282D01*
X156119475Y-108031290D01*
X156040426Y-108168209D01*
X156040423Y-108168216D01*
X155999500Y-108320943D01*
X140015566Y-108320943D01*
X139998623Y-108280038D01*
X139998622Y-108280037D01*
X139998620Y-108280031D01*
X139998613Y-108280020D01*
X139924359Y-108168890D01*
X139903481Y-108102213D01*
X139921966Y-108034833D01*
X139924359Y-108031110D01*
X139998613Y-107919979D01*
X139998620Y-107919969D01*
X140049540Y-107797036D01*
X140069478Y-107696807D01*
X140075500Y-107666533D01*
X140075500Y-107533466D01*
X140049541Y-107402969D01*
X140049540Y-107402968D01*
X140049540Y-107402964D01*
X139998620Y-107280031D01*
X139973517Y-107242461D01*
X139924359Y-107168890D01*
X139903481Y-107102213D01*
X139921966Y-107034833D01*
X139924359Y-107031110D01*
X139998613Y-106919979D01*
X139998620Y-106919969D01*
X140049540Y-106797036D01*
X140075500Y-106666531D01*
X140075500Y-106533469D01*
X140075500Y-106533466D01*
X140049541Y-106402969D01*
X140049540Y-106402968D01*
X140049540Y-106402964D01*
X140018781Y-106328705D01*
X139998623Y-106280038D01*
X139998622Y-106280037D01*
X139998620Y-106280031D01*
X139972212Y-106240509D01*
X139924698Y-106169398D01*
X139924692Y-106169390D01*
X139830609Y-106075307D01*
X139830601Y-106075301D01*
X139719979Y-106001386D01*
X139719972Y-106001382D01*
X139719969Y-106001380D01*
X139719965Y-106001378D01*
X139719961Y-106001376D01*
X139597040Y-105950461D01*
X139597030Y-105950458D01*
X139466533Y-105924500D01*
X139466531Y-105924500D01*
X139333469Y-105924500D01*
X139333467Y-105924500D01*
X139202969Y-105950458D01*
X139202959Y-105950461D01*
X139080038Y-106001376D01*
X139080020Y-106001386D01*
X138969398Y-106075301D01*
X138969390Y-106075307D01*
X138875307Y-106169390D01*
X138875301Y-106169398D01*
X138801386Y-106280020D01*
X138801376Y-106280038D01*
X138750461Y-106402959D01*
X138750458Y-106402969D01*
X138724500Y-106533466D01*
X138724500Y-106533469D01*
X138724500Y-106666531D01*
X138724500Y-106666533D01*
X138724499Y-106666533D01*
X138750458Y-106797030D01*
X138750461Y-106797040D01*
X138801376Y-106919961D01*
X138801382Y-106919972D01*
X138875641Y-107031110D01*
X138896518Y-107097788D01*
X138878033Y-107165168D01*
X138875641Y-107168890D01*
X138801382Y-107280027D01*
X138801376Y-107280038D01*
X138750461Y-107402959D01*
X138750458Y-107402969D01*
X138724500Y-107533466D01*
X138724500Y-107533469D01*
X138724500Y-107666531D01*
X138724500Y-107666533D01*
X138724499Y-107666533D01*
X138750458Y-107797030D01*
X138750461Y-107797040D01*
X138801376Y-107919961D01*
X138801382Y-107919972D01*
X138875641Y-108031110D01*
X138896518Y-108097788D01*
X138878033Y-108165168D01*
X138875641Y-108168890D01*
X138801382Y-108280027D01*
X138801376Y-108280038D01*
X138750461Y-108402959D01*
X138750458Y-108402969D01*
X138724500Y-108533466D01*
X138724500Y-108672623D01*
X138722471Y-108672623D01*
X138711180Y-108732147D01*
X138675110Y-108774916D01*
X138617809Y-108817812D01*
X138531649Y-108932906D01*
X138531645Y-108932913D01*
X138481403Y-109067620D01*
X138481401Y-109067627D01*
X138475000Y-109127155D01*
X138200500Y-109127155D01*
X138200500Y-105727525D01*
X149849500Y-105727525D01*
X149849500Y-105872475D01*
X149884042Y-106001386D01*
X149887017Y-106012488D01*
X149959488Y-106138011D01*
X149959490Y-106138013D01*
X149959491Y-106138015D01*
X150061985Y-106240509D01*
X150061986Y-106240510D01*
X150061988Y-106240511D01*
X150187511Y-106312982D01*
X150187512Y-106312982D01*
X150187515Y-106312984D01*
X150327525Y-106350500D01*
X150327528Y-106350500D01*
X150472472Y-106350500D01*
X150472475Y-106350500D01*
X150612485Y-106312984D01*
X150738015Y-106240509D01*
X150840509Y-106138015D01*
X150897261Y-106039718D01*
X158511599Y-106039718D01*
X158546604Y-106215694D01*
X158546607Y-106215704D01*
X158615267Y-106381466D01*
X158615274Y-106381479D01*
X158714957Y-106530664D01*
X158714960Y-106530668D01*
X158841831Y-106657539D01*
X158841835Y-106657542D01*
X158991020Y-106757225D01*
X158991033Y-106757232D01*
X159156795Y-106825892D01*
X159156800Y-106825894D01*
X159169311Y-106828382D01*
X159231222Y-106860766D01*
X159265797Y-106921482D01*
X159262058Y-106991251D01*
X159221193Y-107047924D01*
X159169317Y-107071616D01*
X159156809Y-107074104D01*
X159156795Y-107074108D01*
X158991033Y-107142768D01*
X158991020Y-107142775D01*
X158841835Y-107242458D01*
X158841831Y-107242461D01*
X158714960Y-107369332D01*
X158714957Y-107369336D01*
X158615274Y-107518521D01*
X158615267Y-107518534D01*
X158546607Y-107684296D01*
X158546604Y-107684306D01*
X158511600Y-107860282D01*
X158511600Y-107860285D01*
X158511600Y-108039717D01*
X158511600Y-108039719D01*
X158511599Y-108039719D01*
X158546604Y-108215695D01*
X158546607Y-108215705D01*
X158615267Y-108381467D01*
X158615274Y-108381480D01*
X158714957Y-108530665D01*
X158714960Y-108530669D01*
X158841831Y-108657540D01*
X158841835Y-108657543D01*
X158991020Y-108757226D01*
X158991033Y-108757233D01*
X159156795Y-108825893D01*
X159156800Y-108825895D01*
X159156804Y-108825895D01*
X159156805Y-108825896D01*
X159332781Y-108860901D01*
X159332784Y-108860901D01*
X159512218Y-108860901D01*
X159630610Y-108837350D01*
X159688200Y-108825895D01*
X159757872Y-108797036D01*
X159828668Y-108767712D01*
X159853967Y-108757233D01*
X159853970Y-108757231D01*
X159853973Y-108757230D01*
X160003165Y-108657543D01*
X160130042Y-108530666D01*
X160174752Y-108463751D01*
X160228363Y-108418948D01*
X160297688Y-108410240D01*
X160360716Y-108440394D01*
X160388339Y-108476348D01*
X160430034Y-108558179D01*
X160442966Y-108575979D01*
X161016099Y-108002846D01*
X161016099Y-108003505D01*
X161043794Y-108106866D01*
X161097298Y-108199537D01*
X161172963Y-108275202D01*
X161265634Y-108328706D01*
X161368995Y-108356401D01*
X161369652Y-108356401D01*
X160796518Y-108929532D01*
X160814316Y-108942463D01*
X160977055Y-109025384D01*
X161150770Y-109081828D01*
X161331169Y-109110401D01*
X161513829Y-109110401D01*
X161694227Y-109081828D01*
X161867942Y-109025384D01*
X162030677Y-108942466D01*
X162048478Y-108929532D01*
X161475347Y-108356401D01*
X161476003Y-108356401D01*
X161579364Y-108328706D01*
X161672035Y-108275202D01*
X161747700Y-108199537D01*
X161801204Y-108106866D01*
X161828899Y-108003505D01*
X161828899Y-108002848D01*
X162402030Y-108575979D01*
X162414965Y-108558177D01*
X162456659Y-108476348D01*
X162504633Y-108425552D01*
X162572454Y-108408756D01*
X162638589Y-108431293D01*
X162670246Y-108463751D01*
X162714957Y-108530665D01*
X162714960Y-108530669D01*
X162841831Y-108657540D01*
X162841835Y-108657543D01*
X162991020Y-108757226D01*
X162991033Y-108757233D01*
X163156795Y-108825893D01*
X163156800Y-108825895D01*
X163156804Y-108825895D01*
X163156805Y-108825896D01*
X163332781Y-108860901D01*
X163332784Y-108860901D01*
X163512218Y-108860901D01*
X163630610Y-108837350D01*
X163688200Y-108825895D01*
X163846257Y-108760426D01*
X163853966Y-108757233D01*
X163853966Y-108757232D01*
X163853973Y-108757230D01*
X164003165Y-108657543D01*
X164130042Y-108530666D01*
X164229729Y-108381474D01*
X164298394Y-108215701D01*
X164300882Y-108203193D01*
X164333266Y-108141284D01*
X164393982Y-108106710D01*
X164463751Y-108110449D01*
X164520424Y-108151315D01*
X164544115Y-108203192D01*
X164546604Y-108215701D01*
X164546605Y-108215703D01*
X164546605Y-108215705D01*
X164615265Y-108381467D01*
X164615272Y-108381480D01*
X164714955Y-108530665D01*
X164714958Y-108530669D01*
X164841829Y-108657540D01*
X164841833Y-108657543D01*
X164991018Y-108757226D01*
X164991031Y-108757233D01*
X165156793Y-108825893D01*
X165156798Y-108825895D01*
X165156802Y-108825895D01*
X165156803Y-108825896D01*
X165332779Y-108860901D01*
X165332782Y-108860901D01*
X165512216Y-108860901D01*
X165630608Y-108837350D01*
X165688198Y-108825895D01*
X165846255Y-108760426D01*
X165853964Y-108757233D01*
X165853964Y-108757232D01*
X165853971Y-108757230D01*
X166003163Y-108657543D01*
X166130040Y-108530666D01*
X166229727Y-108381474D01*
X166298392Y-108215701D01*
X166333398Y-108039717D01*
X166333398Y-107860285D01*
X166333398Y-107860282D01*
X166298393Y-107684306D01*
X166298392Y-107684305D01*
X166298392Y-107684301D01*
X166291032Y-107666533D01*
X166229730Y-107518534D01*
X166229723Y-107518521D01*
X166130040Y-107369336D01*
X166130037Y-107369332D01*
X166003166Y-107242461D01*
X166003162Y-107242458D01*
X165853977Y-107142775D01*
X165853964Y-107142768D01*
X165688202Y-107074108D01*
X165688194Y-107074106D01*
X165675682Y-107071617D01*
X165613771Y-107039230D01*
X165579199Y-106978513D01*
X165582940Y-106908744D01*
X165623808Y-106852073D01*
X165675686Y-106828382D01*
X165688198Y-106825894D01*
X165853971Y-106757229D01*
X166003163Y-106657542D01*
X166130040Y-106530665D01*
X166229727Y-106381473D01*
X166298392Y-106215700D01*
X166320072Y-106106709D01*
X166333398Y-106039718D01*
X166333398Y-105860281D01*
X166298393Y-105684305D01*
X166298392Y-105684304D01*
X166298392Y-105684300D01*
X166240113Y-105543600D01*
X166229730Y-105518533D01*
X166229723Y-105518520D01*
X166130040Y-105369335D01*
X166130037Y-105369331D01*
X166003166Y-105242460D01*
X166003162Y-105242457D01*
X165853977Y-105142774D01*
X165853964Y-105142767D01*
X165688202Y-105074107D01*
X165688192Y-105074104D01*
X165512216Y-105039100D01*
X165512214Y-105039100D01*
X165332782Y-105039100D01*
X165332780Y-105039100D01*
X165156803Y-105074104D01*
X165156793Y-105074107D01*
X164991031Y-105142767D01*
X164991018Y-105142774D01*
X164841833Y-105242457D01*
X164841829Y-105242460D01*
X164714958Y-105369331D01*
X164714955Y-105369335D01*
X164615272Y-105518520D01*
X164615265Y-105518533D01*
X164546605Y-105684295D01*
X164546602Y-105684305D01*
X164544116Y-105696806D01*
X164511731Y-105758717D01*
X164451015Y-105793291D01*
X164381245Y-105789551D01*
X164324574Y-105748684D01*
X164300882Y-105696806D01*
X164298395Y-105684305D01*
X164298394Y-105684304D01*
X164298394Y-105684300D01*
X164240115Y-105543600D01*
X164229732Y-105518533D01*
X164229725Y-105518520D01*
X164130042Y-105369335D01*
X164130039Y-105369331D01*
X164003168Y-105242460D01*
X164003164Y-105242457D01*
X163853979Y-105142774D01*
X163853966Y-105142767D01*
X163688204Y-105074107D01*
X163688194Y-105074104D01*
X163512218Y-105039100D01*
X163512216Y-105039100D01*
X163332784Y-105039100D01*
X163332782Y-105039100D01*
X163156805Y-105074104D01*
X163156795Y-105074107D01*
X162991033Y-105142767D01*
X162991020Y-105142774D01*
X162841835Y-105242457D01*
X162841831Y-105242460D01*
X162714960Y-105369331D01*
X162714955Y-105369337D01*
X162670245Y-105436250D01*
X162616633Y-105481054D01*
X162547308Y-105489761D01*
X162484280Y-105459606D01*
X162456659Y-105423653D01*
X162414961Y-105341817D01*
X162402030Y-105324020D01*
X162402030Y-105324019D01*
X161828899Y-105897151D01*
X161828899Y-105896496D01*
X161801204Y-105793135D01*
X161747700Y-105700464D01*
X161672035Y-105624799D01*
X161579364Y-105571295D01*
X161476003Y-105543600D01*
X161475346Y-105543600D01*
X162048477Y-104970467D01*
X162030677Y-104957535D01*
X161867942Y-104874616D01*
X161694227Y-104818172D01*
X161513829Y-104789600D01*
X161331169Y-104789600D01*
X161150770Y-104818172D01*
X160977055Y-104874616D01*
X160814312Y-104957539D01*
X160814307Y-104957543D01*
X160796519Y-104970465D01*
X160796519Y-104970468D01*
X161369653Y-105543600D01*
X161368995Y-105543600D01*
X161265634Y-105571295D01*
X161172963Y-105624799D01*
X161097298Y-105700464D01*
X161043794Y-105793135D01*
X161016099Y-105896496D01*
X161016099Y-105897152D01*
X160442967Y-105324020D01*
X160442964Y-105324020D01*
X160430042Y-105341808D01*
X160430035Y-105341818D01*
X160388338Y-105423653D01*
X160340363Y-105474448D01*
X160272542Y-105491243D01*
X160206407Y-105468705D01*
X160174752Y-105436248D01*
X160130042Y-105369334D01*
X160003168Y-105242460D01*
X160003164Y-105242457D01*
X159853979Y-105142774D01*
X159853969Y-105142769D01*
X159828663Y-105132287D01*
X159828661Y-105132286D01*
X159688204Y-105074107D01*
X159688194Y-105074104D01*
X159512218Y-105039100D01*
X159512216Y-105039100D01*
X159332784Y-105039100D01*
X159332782Y-105039100D01*
X159156805Y-105074104D01*
X159156795Y-105074107D01*
X158991033Y-105142767D01*
X158991020Y-105142774D01*
X158841835Y-105242457D01*
X158841831Y-105242460D01*
X158714960Y-105369331D01*
X158714957Y-105369335D01*
X158615274Y-105518520D01*
X158615267Y-105518533D01*
X158546607Y-105684295D01*
X158546604Y-105684305D01*
X158511600Y-105860281D01*
X158511600Y-105860284D01*
X158511600Y-106039716D01*
X158511600Y-106039718D01*
X158511599Y-106039718D01*
X150897261Y-106039718D01*
X150912984Y-106012485D01*
X150950500Y-105872475D01*
X150950500Y-105727525D01*
X150912984Y-105587515D01*
X150903619Y-105571295D01*
X150840511Y-105461988D01*
X150840506Y-105461982D01*
X150738017Y-105359493D01*
X150738011Y-105359488D01*
X150612488Y-105287017D01*
X150612489Y-105287017D01*
X150601006Y-105283940D01*
X150472475Y-105249500D01*
X150327525Y-105249500D01*
X150198993Y-105283940D01*
X150187511Y-105287017D01*
X150061988Y-105359488D01*
X150061982Y-105359493D01*
X149959493Y-105461982D01*
X149959488Y-105461988D01*
X149887017Y-105587511D01*
X149887016Y-105587515D01*
X149849500Y-105727525D01*
X138200500Y-105727525D01*
X138200500Y-103781532D01*
X154429105Y-103781532D01*
X154429105Y-103939645D01*
X154470028Y-104092372D01*
X154470031Y-104092379D01*
X154549080Y-104229298D01*
X154549084Y-104229303D01*
X154549085Y-104229305D01*
X154660889Y-104341109D01*
X154660891Y-104341110D01*
X154660895Y-104341113D01*
X154797814Y-104420162D01*
X154797821Y-104420166D01*
X154950548Y-104461089D01*
X154950550Y-104461089D01*
X155108660Y-104461089D01*
X155108662Y-104461089D01*
X155261389Y-104420166D01*
X155398321Y-104341109D01*
X155510125Y-104229305D01*
X155589182Y-104092373D01*
X155630105Y-103939646D01*
X155630105Y-103781532D01*
X155589182Y-103628805D01*
X155589178Y-103628798D01*
X155510129Y-103491879D01*
X155510123Y-103491871D01*
X155398322Y-103380070D01*
X155398314Y-103380064D01*
X155261395Y-103301015D01*
X155261391Y-103301013D01*
X155261389Y-103301012D01*
X155108662Y-103260089D01*
X154950548Y-103260089D01*
X154797821Y-103301012D01*
X154797814Y-103301015D01*
X154660895Y-103380064D01*
X154660887Y-103380070D01*
X154549086Y-103491871D01*
X154549080Y-103491879D01*
X154470031Y-103628798D01*
X154470028Y-103628805D01*
X154429105Y-103781532D01*
X138200500Y-103781532D01*
X138200500Y-103120943D01*
X155799500Y-103120943D01*
X155799500Y-103279057D01*
X155826567Y-103380070D01*
X155840423Y-103431783D01*
X155840426Y-103431790D01*
X155919475Y-103568709D01*
X155919479Y-103568714D01*
X155919480Y-103568716D01*
X156031284Y-103680520D01*
X156031286Y-103680521D01*
X156031290Y-103680524D01*
X156168209Y-103759573D01*
X156168216Y-103759577D01*
X156320943Y-103800500D01*
X156320945Y-103800500D01*
X156479055Y-103800500D01*
X156479057Y-103800500D01*
X156631784Y-103759577D01*
X156768716Y-103680520D01*
X156880520Y-103568716D01*
X156959577Y-103431784D01*
X157000500Y-103279057D01*
X157000500Y-103120943D01*
X156959577Y-102968216D01*
X156959573Y-102968209D01*
X156880524Y-102831290D01*
X156880518Y-102831282D01*
X156768717Y-102719481D01*
X156768709Y-102719475D01*
X156631790Y-102640426D01*
X156631786Y-102640424D01*
X156631784Y-102640423D01*
X156479057Y-102599500D01*
X156320943Y-102599500D01*
X156168216Y-102640423D01*
X156168209Y-102640426D01*
X156031290Y-102719475D01*
X156031282Y-102719481D01*
X155919481Y-102831282D01*
X155919475Y-102831290D01*
X155840426Y-102968209D01*
X155840423Y-102968216D01*
X155799500Y-103120943D01*
X138200500Y-103120943D01*
X138200500Y-101620943D01*
X156091504Y-101620943D01*
X156091504Y-101779056D01*
X156132427Y-101931783D01*
X156132430Y-101931790D01*
X156211479Y-102068709D01*
X156211483Y-102068714D01*
X156211484Y-102068716D01*
X156323288Y-102180520D01*
X156323290Y-102180521D01*
X156323294Y-102180524D01*
X156460213Y-102259573D01*
X156460220Y-102259577D01*
X156612947Y-102300500D01*
X156612949Y-102300500D01*
X156771059Y-102300500D01*
X156771061Y-102300500D01*
X156923788Y-102259577D01*
X157060720Y-102180520D01*
X157172524Y-102068716D01*
X157251581Y-101931784D01*
X157292504Y-101779057D01*
X157292504Y-101620943D01*
X157268374Y-101530888D01*
X157270037Y-101461043D01*
X157309199Y-101403181D01*
X157373427Y-101375676D01*
X157442330Y-101387262D01*
X157450147Y-101391410D01*
X157568216Y-101459577D01*
X157720943Y-101500500D01*
X157720945Y-101500500D01*
X157879055Y-101500500D01*
X157879057Y-101500500D01*
X158031784Y-101459577D01*
X158168716Y-101380520D01*
X158280520Y-101268716D01*
X158359577Y-101131784D01*
X158400500Y-100979057D01*
X158400500Y-100920943D01*
X160699500Y-100920943D01*
X160699500Y-101079057D01*
X160737127Y-101219481D01*
X160740423Y-101231783D01*
X160740426Y-101231790D01*
X160819475Y-101368709D01*
X160819479Y-101368714D01*
X160819480Y-101368716D01*
X160931284Y-101480520D01*
X160931286Y-101480521D01*
X160931290Y-101480524D01*
X161018533Y-101530893D01*
X161068216Y-101559577D01*
X161220943Y-101600500D01*
X161220945Y-101600500D01*
X161379055Y-101600500D01*
X161379057Y-101600500D01*
X161531784Y-101559577D01*
X161668716Y-101480520D01*
X161780520Y-101368716D01*
X161859577Y-101231784D01*
X161882837Y-101144972D01*
X161919200Y-101085316D01*
X161970513Y-101057296D01*
X162095905Y-101023698D01*
X162232837Y-100944641D01*
X162344641Y-100832837D01*
X162423698Y-100695905D01*
X162464621Y-100543178D01*
X162464621Y-100385064D01*
X162423698Y-100232337D01*
X162369242Y-100138015D01*
X162344645Y-100095411D01*
X162344639Y-100095403D01*
X162232838Y-99983602D01*
X162232830Y-99983596D01*
X162095911Y-99904547D01*
X162095907Y-99904545D01*
X162095905Y-99904544D01*
X161943178Y-99863621D01*
X161785064Y-99863621D01*
X161632337Y-99904544D01*
X161632330Y-99904547D01*
X161495411Y-99983596D01*
X161495403Y-99983602D01*
X161383602Y-100095403D01*
X161383596Y-100095411D01*
X161304547Y-100232330D01*
X161304544Y-100232335D01*
X161281284Y-100319145D01*
X161244918Y-100378805D01*
X161193604Y-100406825D01*
X161150296Y-100418429D01*
X161068214Y-100440423D01*
X161068209Y-100440426D01*
X160931290Y-100519475D01*
X160931282Y-100519481D01*
X160819481Y-100631282D01*
X160819475Y-100631290D01*
X160740426Y-100768209D01*
X160740423Y-100768216D01*
X160699500Y-100920943D01*
X158400500Y-100920943D01*
X158400500Y-100820943D01*
X158359577Y-100668216D01*
X158338258Y-100631290D01*
X158280524Y-100531290D01*
X158280518Y-100531282D01*
X158168717Y-100419481D01*
X158168709Y-100419475D01*
X158031790Y-100340426D01*
X158031786Y-100340424D01*
X158031784Y-100340423D01*
X157879057Y-100299500D01*
X157720943Y-100299500D01*
X157568216Y-100340423D01*
X157568209Y-100340426D01*
X157431290Y-100419475D01*
X157431282Y-100419481D01*
X157319481Y-100531282D01*
X157319475Y-100531290D01*
X157240426Y-100668209D01*
X157240423Y-100668216D01*
X157199500Y-100820943D01*
X157199500Y-100979057D01*
X157215297Y-101038011D01*
X157223629Y-101069107D01*
X157221966Y-101138957D01*
X157182803Y-101196819D01*
X157118575Y-101224323D01*
X157049673Y-101212736D01*
X157041855Y-101208588D01*
X156923788Y-101140423D01*
X156891543Y-101131783D01*
X156771061Y-101099500D01*
X156612947Y-101099500D01*
X156460220Y-101140423D01*
X156460213Y-101140426D01*
X156323294Y-101219475D01*
X156323286Y-101219481D01*
X156211485Y-101331282D01*
X156211479Y-101331290D01*
X156132430Y-101468209D01*
X156132427Y-101468216D01*
X156091504Y-101620943D01*
X138200500Y-101620943D01*
X138200500Y-100627525D01*
X139749500Y-100627525D01*
X139749500Y-100772475D01*
X139787016Y-100912485D01*
X139787017Y-100912488D01*
X139859488Y-101038011D01*
X139859490Y-101038013D01*
X139859491Y-101038015D01*
X139961985Y-101140509D01*
X139961986Y-101140510D01*
X139961988Y-101140511D01*
X140087511Y-101212982D01*
X140087512Y-101212982D01*
X140087515Y-101212984D01*
X140227525Y-101250500D01*
X140227528Y-101250500D01*
X140372472Y-101250500D01*
X140372475Y-101250500D01*
X140512485Y-101212984D01*
X140638015Y-101140509D01*
X140740509Y-101038015D01*
X140812984Y-100912485D01*
X140850500Y-100772475D01*
X140850500Y-100627525D01*
X140812984Y-100487515D01*
X140799284Y-100463787D01*
X140782812Y-100395888D01*
X140805664Y-100329861D01*
X140844669Y-100294402D01*
X140938015Y-100240509D01*
X141040509Y-100138015D01*
X141112984Y-100012485D01*
X141150500Y-99872475D01*
X141150500Y-99727525D01*
X141134898Y-99669298D01*
X141136560Y-99599450D01*
X141175721Y-99541587D01*
X141239950Y-99514082D01*
X141308852Y-99525668D01*
X141316664Y-99529814D01*
X141368216Y-99559577D01*
X141520943Y-99600500D01*
X141520945Y-99600500D01*
X141679055Y-99600500D01*
X141679057Y-99600500D01*
X141831784Y-99559577D01*
X141968716Y-99480520D01*
X142080520Y-99368716D01*
X142159577Y-99231784D01*
X142187513Y-99127525D01*
X145849500Y-99127525D01*
X145849500Y-99272475D01*
X145887016Y-99412485D01*
X145887017Y-99412488D01*
X145959488Y-99538011D01*
X145959490Y-99538013D01*
X145959491Y-99538015D01*
X146061985Y-99640509D01*
X146061986Y-99640510D01*
X146061988Y-99640511D01*
X146187511Y-99712982D01*
X146187512Y-99712982D01*
X146187515Y-99712984D01*
X146327525Y-99750500D01*
X146327528Y-99750500D01*
X146472472Y-99750500D01*
X146472475Y-99750500D01*
X146612485Y-99712984D01*
X146726995Y-99646871D01*
X146794892Y-99630399D01*
X146860919Y-99653251D01*
X146904110Y-99708172D01*
X146910752Y-99777725D01*
X146908769Y-99786350D01*
X146899500Y-99820943D01*
X146899500Y-99979057D01*
X146940289Y-100131282D01*
X146940423Y-100131783D01*
X146940426Y-100131790D01*
X147019475Y-100268709D01*
X147019479Y-100268714D01*
X147019480Y-100268716D01*
X147131284Y-100380520D01*
X147131286Y-100380521D01*
X147131290Y-100380524D01*
X147235040Y-100440423D01*
X147268216Y-100459577D01*
X147420943Y-100500500D01*
X147420945Y-100500500D01*
X147579055Y-100500500D01*
X147579057Y-100500500D01*
X147731784Y-100459577D01*
X147798701Y-100420943D01*
X153599500Y-100420943D01*
X153599500Y-100579057D01*
X153630810Y-100695905D01*
X153640423Y-100731783D01*
X153640426Y-100731790D01*
X153719475Y-100868709D01*
X153719479Y-100868714D01*
X153719480Y-100868716D01*
X153831284Y-100980520D01*
X153831286Y-100980521D01*
X153831290Y-100980524D01*
X153964262Y-101057294D01*
X153968216Y-101059577D01*
X154120943Y-101100500D01*
X154120945Y-101100500D01*
X154279055Y-101100500D01*
X154279057Y-101100500D01*
X154431784Y-101059577D01*
X154568716Y-100980520D01*
X154680520Y-100868716D01*
X154759577Y-100731784D01*
X154800500Y-100579057D01*
X154800500Y-100420943D01*
X154759577Y-100268216D01*
X154743579Y-100240506D01*
X154680524Y-100131290D01*
X154680518Y-100131282D01*
X154568717Y-100019481D01*
X154568709Y-100019475D01*
X154431790Y-99940426D01*
X154431786Y-99940424D01*
X154431784Y-99940423D01*
X154279057Y-99899500D01*
X154120943Y-99899500D01*
X153968216Y-99940423D01*
X153968209Y-99940426D01*
X153831290Y-100019475D01*
X153831282Y-100019481D01*
X153719481Y-100131282D01*
X153719475Y-100131290D01*
X153640426Y-100268209D01*
X153640423Y-100268216D01*
X153599500Y-100420943D01*
X147798701Y-100420943D01*
X147868716Y-100380520D01*
X147980520Y-100268716D01*
X148059577Y-100131784D01*
X148100500Y-99979057D01*
X148100500Y-99820943D01*
X148059577Y-99668216D01*
X148020481Y-99600499D01*
X147980524Y-99531290D01*
X147980518Y-99531282D01*
X147868717Y-99419481D01*
X147868709Y-99419475D01*
X147731790Y-99340426D01*
X147731786Y-99340424D01*
X147731784Y-99340423D01*
X147579057Y-99299500D01*
X147420943Y-99299500D01*
X147268216Y-99340423D01*
X147268215Y-99340423D01*
X147130069Y-99420181D01*
X147062169Y-99436653D01*
X146996142Y-99413800D01*
X146952952Y-99358878D01*
X146946311Y-99289325D01*
X146948292Y-99280712D01*
X146950500Y-99272475D01*
X146950500Y-99127525D01*
X146912984Y-98987515D01*
X146840509Y-98861985D01*
X146738015Y-98759491D01*
X146669965Y-98720202D01*
X146669964Y-98720201D01*
X146612488Y-98687017D01*
X146612489Y-98687017D01*
X146601006Y-98683940D01*
X146472475Y-98649500D01*
X146327525Y-98649500D01*
X146198993Y-98683940D01*
X146187511Y-98687017D01*
X146061988Y-98759488D01*
X146061982Y-98759493D01*
X145959493Y-98861982D01*
X145959488Y-98861988D01*
X145887017Y-98987511D01*
X145887016Y-98987515D01*
X145849500Y-99127525D01*
X142187513Y-99127525D01*
X142200500Y-99079057D01*
X142200500Y-98920943D01*
X142159577Y-98768216D01*
X142131856Y-98720201D01*
X142080524Y-98631290D01*
X142080518Y-98631282D01*
X142070179Y-98620943D01*
X154699500Y-98620943D01*
X154699500Y-98779057D01*
X154721722Y-98861988D01*
X154740423Y-98931783D01*
X154740426Y-98931790D01*
X154819475Y-99068709D01*
X154819479Y-99068714D01*
X154819480Y-99068716D01*
X154931284Y-99180520D01*
X154931286Y-99180521D01*
X154931290Y-99180524D01*
X155050762Y-99249500D01*
X155068216Y-99259577D01*
X155220943Y-99300500D01*
X155220945Y-99300500D01*
X155379055Y-99300500D01*
X155379057Y-99300500D01*
X155531784Y-99259577D01*
X155668716Y-99180520D01*
X155780520Y-99068716D01*
X155859577Y-98931784D01*
X155900500Y-98779057D01*
X155900500Y-98620943D01*
X155859577Y-98468216D01*
X155806743Y-98376704D01*
X155780524Y-98331290D01*
X155780518Y-98331282D01*
X155668717Y-98219481D01*
X155668712Y-98219477D01*
X155533794Y-98141583D01*
X155485579Y-98091016D01*
X155472355Y-98022409D01*
X155498323Y-97957545D01*
X155555237Y-97917016D01*
X155563672Y-97914429D01*
X155581784Y-97909577D01*
X155718716Y-97830520D01*
X155830520Y-97718716D01*
X155909577Y-97581784D01*
X155950500Y-97429057D01*
X155950500Y-97416429D01*
X155970185Y-97349390D01*
X156022989Y-97303635D01*
X156092147Y-97293691D01*
X156106584Y-97296652D01*
X156120943Y-97300500D01*
X156120945Y-97300500D01*
X156279055Y-97300500D01*
X156279057Y-97300500D01*
X156431784Y-97259577D01*
X156568716Y-97180520D01*
X156680520Y-97068716D01*
X156759577Y-96931784D01*
X156800500Y-96779057D01*
X156800500Y-96681825D01*
X157760382Y-96681825D01*
X157760382Y-96839939D01*
X157784994Y-96931790D01*
X157801305Y-96992665D01*
X157801308Y-96992672D01*
X157880357Y-97129591D01*
X157880361Y-97129596D01*
X157880362Y-97129598D01*
X157992166Y-97241402D01*
X157992167Y-97241403D01*
X157992169Y-97241404D01*
X158075261Y-97289377D01*
X158123476Y-97339944D01*
X158136700Y-97408551D01*
X158110732Y-97473415D01*
X158075262Y-97504151D01*
X158034864Y-97527474D01*
X157923061Y-97639277D01*
X157923055Y-97639285D01*
X157844006Y-97776204D01*
X157844003Y-97776211D01*
X157803080Y-97928938D01*
X157803080Y-98087052D01*
X157833479Y-98200500D01*
X157844003Y-98239778D01*
X157844006Y-98239785D01*
X157923055Y-98376704D01*
X157923059Y-98376709D01*
X157923060Y-98376711D01*
X158034864Y-98488515D01*
X158034866Y-98488516D01*
X158034870Y-98488519D01*
X158088497Y-98519480D01*
X158171796Y-98567572D01*
X158324523Y-98608495D01*
X158324525Y-98608495D01*
X158482635Y-98608495D01*
X158482637Y-98608495D01*
X158635364Y-98567572D01*
X158772296Y-98488515D01*
X158884100Y-98376711D01*
X158963157Y-98239779D01*
X159004080Y-98087052D01*
X159004080Y-97928938D01*
X158963157Y-97776211D01*
X158907065Y-97679056D01*
X158884104Y-97639285D01*
X158884098Y-97639277D01*
X158772297Y-97527476D01*
X158772292Y-97527472D01*
X158689200Y-97479499D01*
X158640984Y-97428932D01*
X158627761Y-97360325D01*
X158653729Y-97295460D01*
X158689200Y-97264725D01*
X158729598Y-97241402D01*
X158841402Y-97129598D01*
X158920459Y-96992666D01*
X158961382Y-96839939D01*
X158961382Y-96681825D01*
X158920459Y-96529098D01*
X158920455Y-96529091D01*
X158841406Y-96392172D01*
X158841400Y-96392164D01*
X158729599Y-96280363D01*
X158729591Y-96280357D01*
X158592672Y-96201308D01*
X158592668Y-96201306D01*
X158592666Y-96201305D01*
X158439939Y-96160382D01*
X158281825Y-96160382D01*
X158129098Y-96201305D01*
X158129091Y-96201308D01*
X157992172Y-96280357D01*
X157992164Y-96280363D01*
X157880363Y-96392164D01*
X157880357Y-96392172D01*
X157801308Y-96529091D01*
X157801305Y-96529098D01*
X157760382Y-96681825D01*
X156800500Y-96681825D01*
X156800500Y-96620943D01*
X156759577Y-96468216D01*
X156738258Y-96431290D01*
X156680524Y-96331290D01*
X156680518Y-96331282D01*
X156568717Y-96219481D01*
X156568709Y-96219475D01*
X156431790Y-96140426D01*
X156431786Y-96140424D01*
X156431784Y-96140423D01*
X156279057Y-96099500D01*
X156120943Y-96099500D01*
X155968216Y-96140423D01*
X155968209Y-96140426D01*
X155831290Y-96219475D01*
X155831282Y-96219481D01*
X155719481Y-96331282D01*
X155719475Y-96331290D01*
X155640426Y-96468209D01*
X155640423Y-96468216D01*
X155599500Y-96620943D01*
X155599500Y-96633570D01*
X155579815Y-96700609D01*
X155527011Y-96746364D01*
X155457853Y-96756308D01*
X155443409Y-96753345D01*
X155429061Y-96749500D01*
X155429057Y-96749500D01*
X155270943Y-96749500D01*
X155118216Y-96790423D01*
X155118209Y-96790426D01*
X154981290Y-96869475D01*
X154981282Y-96869481D01*
X154869481Y-96981282D01*
X154869475Y-96981290D01*
X154790426Y-97118209D01*
X154790423Y-97118216D01*
X154749500Y-97270943D01*
X154749500Y-97429057D01*
X154775872Y-97527476D01*
X154790423Y-97581783D01*
X154790426Y-97581790D01*
X154869475Y-97718709D01*
X154869479Y-97718714D01*
X154869480Y-97718716D01*
X154981284Y-97830520D01*
X154981286Y-97830521D01*
X154981290Y-97830524D01*
X155116204Y-97908416D01*
X155164420Y-97958982D01*
X155177644Y-98027589D01*
X155151676Y-98092454D01*
X155094762Y-98132983D01*
X155086300Y-98135577D01*
X155068220Y-98140421D01*
X155068209Y-98140426D01*
X154931290Y-98219475D01*
X154931282Y-98219481D01*
X154819481Y-98331282D01*
X154819475Y-98331290D01*
X154740426Y-98468209D01*
X154740423Y-98468216D01*
X154699500Y-98620943D01*
X142070179Y-98620943D01*
X141968717Y-98519481D01*
X141968709Y-98519475D01*
X141831790Y-98440426D01*
X141831786Y-98440424D01*
X141831784Y-98440423D01*
X141679057Y-98399500D01*
X141520943Y-98399500D01*
X141368216Y-98440423D01*
X141368209Y-98440426D01*
X141231290Y-98519475D01*
X141231282Y-98519481D01*
X141119481Y-98631282D01*
X141119475Y-98631290D01*
X141040426Y-98768209D01*
X141040423Y-98768216D01*
X140999500Y-98920943D01*
X140999500Y-99079057D01*
X141022166Y-99163647D01*
X141020503Y-99233497D01*
X140981340Y-99291359D01*
X140917112Y-99318863D01*
X140848210Y-99307276D01*
X140840391Y-99303127D01*
X140812488Y-99287017D01*
X140812489Y-99287017D01*
X140788891Y-99280694D01*
X140672475Y-99249500D01*
X140527525Y-99249500D01*
X140411109Y-99280694D01*
X140387511Y-99287017D01*
X140261988Y-99359488D01*
X140261982Y-99359493D01*
X140159493Y-99461982D01*
X140159488Y-99461988D01*
X140087017Y-99587511D01*
X140087016Y-99587515D01*
X140049500Y-99727525D01*
X140049500Y-99872475D01*
X140079277Y-99983602D01*
X140087017Y-100012488D01*
X140100714Y-100036212D01*
X140117187Y-100104113D01*
X140094334Y-100170140D01*
X140055328Y-100205599D01*
X139961985Y-100259491D01*
X139961982Y-100259493D01*
X139859493Y-100361982D01*
X139859488Y-100361988D01*
X139787017Y-100487511D01*
X139787016Y-100487515D01*
X139749500Y-100627525D01*
X138200500Y-100627525D01*
X138200500Y-97520943D01*
X144399500Y-97520943D01*
X144399500Y-97679057D01*
X144440086Y-97830524D01*
X144440423Y-97831783D01*
X144440426Y-97831790D01*
X144519475Y-97968709D01*
X144519479Y-97968714D01*
X144519480Y-97968716D01*
X144631284Y-98080520D01*
X144631286Y-98080521D01*
X144631290Y-98080524D01*
X144735040Y-98140423D01*
X144768216Y-98159577D01*
X144920943Y-98200500D01*
X144920945Y-98200500D01*
X145079055Y-98200500D01*
X145079057Y-98200500D01*
X145231784Y-98159577D01*
X145368716Y-98080520D01*
X145480520Y-97968716D01*
X145559577Y-97831784D01*
X145600500Y-97679057D01*
X145600500Y-97520943D01*
X145559577Y-97368216D01*
X145537816Y-97330524D01*
X145480524Y-97231290D01*
X145480518Y-97231282D01*
X145368717Y-97119481D01*
X145368709Y-97119475D01*
X145231790Y-97040426D01*
X145231786Y-97040424D01*
X145231784Y-97040423D01*
X145079057Y-96999500D01*
X144920943Y-96999500D01*
X144768216Y-97040423D01*
X144768209Y-97040426D01*
X144631290Y-97119475D01*
X144631282Y-97119481D01*
X144519481Y-97231282D01*
X144519475Y-97231290D01*
X144440426Y-97368209D01*
X144440423Y-97368216D01*
X144399500Y-97520943D01*
X138200500Y-97520943D01*
X138200500Y-96770943D01*
X140049500Y-96770943D01*
X140049500Y-96929057D01*
X140086922Y-97068716D01*
X140090423Y-97081783D01*
X140090426Y-97081790D01*
X140169475Y-97218709D01*
X140169479Y-97218714D01*
X140169480Y-97218716D01*
X140281284Y-97330520D01*
X140281286Y-97330521D01*
X140281290Y-97330524D01*
X140402492Y-97400499D01*
X140418216Y-97409577D01*
X140570943Y-97450500D01*
X140570945Y-97450500D01*
X140729055Y-97450500D01*
X140729057Y-97450500D01*
X140881784Y-97409577D01*
X141018716Y-97330520D01*
X141024335Y-97324900D01*
X141085655Y-97291414D01*
X141155346Y-97296395D01*
X141174015Y-97305190D01*
X141268216Y-97359577D01*
X141420943Y-97400500D01*
X141420945Y-97400500D01*
X141579055Y-97400500D01*
X141579057Y-97400500D01*
X141731784Y-97359577D01*
X141868716Y-97280520D01*
X141980520Y-97168716D01*
X142059577Y-97031784D01*
X142100500Y-96879057D01*
X142100500Y-96720943D01*
X142059577Y-96568216D01*
X142054587Y-96559573D01*
X142003417Y-96470943D01*
X149749500Y-96470943D01*
X149749500Y-96629057D01*
X149789693Y-96779057D01*
X149790423Y-96781783D01*
X149790426Y-96781790D01*
X149869475Y-96918709D01*
X149869479Y-96918714D01*
X149869480Y-96918716D01*
X149981284Y-97030520D01*
X149981286Y-97030521D01*
X149981290Y-97030524D01*
X150070087Y-97081790D01*
X150118216Y-97109577D01*
X150270943Y-97150500D01*
X150270945Y-97150500D01*
X150429055Y-97150500D01*
X150429057Y-97150500D01*
X150581784Y-97109577D01*
X150718716Y-97030520D01*
X150830520Y-96918716D01*
X150909577Y-96781784D01*
X150950500Y-96629057D01*
X150950500Y-96470943D01*
X150909577Y-96318216D01*
X150887816Y-96280524D01*
X150830524Y-96181290D01*
X150830518Y-96181282D01*
X150718717Y-96069481D01*
X150718716Y-96069480D01*
X150581784Y-95990423D01*
X150429057Y-95949500D01*
X150270943Y-95949500D01*
X150118216Y-95990423D01*
X150118209Y-95990426D01*
X149981290Y-96069475D01*
X149981282Y-96069481D01*
X149869481Y-96181282D01*
X149869475Y-96181290D01*
X149790426Y-96318209D01*
X149790423Y-96318216D01*
X149749500Y-96470943D01*
X142003417Y-96470943D01*
X141980524Y-96431290D01*
X141980518Y-96431282D01*
X141868717Y-96319481D01*
X141868709Y-96319475D01*
X141731790Y-96240426D01*
X141731786Y-96240424D01*
X141731784Y-96240423D01*
X141579057Y-96199500D01*
X141420943Y-96199500D01*
X141268216Y-96240423D01*
X141268209Y-96240426D01*
X141131290Y-96319475D01*
X141131280Y-96319482D01*
X141125658Y-96325105D01*
X141064334Y-96358587D01*
X140994642Y-96353600D01*
X140975982Y-96344807D01*
X140881790Y-96290425D01*
X140881784Y-96290423D01*
X140729057Y-96249500D01*
X140570943Y-96249500D01*
X140418216Y-96290423D01*
X140418209Y-96290426D01*
X140281290Y-96369475D01*
X140281282Y-96369481D01*
X140169481Y-96481282D01*
X140169475Y-96481290D01*
X140090426Y-96618209D01*
X140090423Y-96618216D01*
X140049500Y-96770943D01*
X138200500Y-96770943D01*
X138200500Y-95060354D01*
X141138911Y-95060354D01*
X141138911Y-95218468D01*
X141165978Y-95319481D01*
X141179834Y-95371194D01*
X141179837Y-95371201D01*
X141258886Y-95508120D01*
X141258890Y-95508125D01*
X141258891Y-95508127D01*
X141370695Y-95619931D01*
X141370697Y-95619932D01*
X141370701Y-95619935D01*
X141475639Y-95680520D01*
X141507627Y-95698988D01*
X141660354Y-95739911D01*
X141660356Y-95739911D01*
X141818466Y-95739911D01*
X141818468Y-95739911D01*
X141889258Y-95720943D01*
X145999500Y-95720943D01*
X145999500Y-95879057D01*
X146029341Y-95990423D01*
X146040423Y-96031783D01*
X146040426Y-96031790D01*
X146119475Y-96168709D01*
X146119479Y-96168714D01*
X146119480Y-96168716D01*
X146231284Y-96280520D01*
X146231286Y-96280521D01*
X146231290Y-96280524D01*
X146319221Y-96331290D01*
X146368216Y-96359577D01*
X146520943Y-96400500D01*
X146520945Y-96400500D01*
X146679055Y-96400500D01*
X146679057Y-96400500D01*
X146831784Y-96359577D01*
X146838970Y-96355427D01*
X146838973Y-96355427D01*
X146968709Y-96280524D01*
X146968708Y-96280524D01*
X146968716Y-96280520D01*
X147080520Y-96168716D01*
X147159577Y-96031784D01*
X147189277Y-95920943D01*
X152699500Y-95920943D01*
X152699500Y-96079057D01*
X152737127Y-96219481D01*
X152740423Y-96231783D01*
X152740426Y-96231790D01*
X152819475Y-96368709D01*
X152819479Y-96368714D01*
X152819480Y-96368716D01*
X152931284Y-96480520D01*
X152931286Y-96480521D01*
X152931290Y-96480524D01*
X153015412Y-96529091D01*
X153068216Y-96559577D01*
X153220943Y-96600500D01*
X153220945Y-96600500D01*
X153379055Y-96600500D01*
X153379057Y-96600500D01*
X153531784Y-96559577D01*
X153668716Y-96480520D01*
X153780520Y-96368716D01*
X153859577Y-96231784D01*
X153900500Y-96079057D01*
X153900500Y-95920943D01*
X153859577Y-95768216D01*
X153812397Y-95686498D01*
X153795926Y-95618599D01*
X153818779Y-95552572D01*
X153873701Y-95509382D01*
X153919786Y-95500500D01*
X154079055Y-95500500D01*
X154079057Y-95500500D01*
X154231784Y-95459577D01*
X154368716Y-95380520D01*
X154480520Y-95268716D01*
X154559577Y-95131784D01*
X154562482Y-95120943D01*
X162999500Y-95120943D01*
X162999500Y-95279057D01*
X163040289Y-95431282D01*
X163040423Y-95431783D01*
X163040426Y-95431790D01*
X163119475Y-95568709D01*
X163119479Y-95568714D01*
X163119480Y-95568716D01*
X163231284Y-95680520D01*
X163231286Y-95680521D01*
X163231290Y-95680524D01*
X163308212Y-95724934D01*
X163368216Y-95759577D01*
X163520943Y-95800500D01*
X163520945Y-95800500D01*
X163679055Y-95800500D01*
X163679057Y-95800500D01*
X163831784Y-95759577D01*
X163891789Y-95724932D01*
X163959685Y-95708460D01*
X163985881Y-95712545D01*
X163987511Y-95712981D01*
X163987515Y-95712984D01*
X164127525Y-95750500D01*
X164127528Y-95750500D01*
X164272472Y-95750500D01*
X164272475Y-95750500D01*
X164412485Y-95712984D01*
X164538015Y-95640509D01*
X164640509Y-95538015D01*
X164712984Y-95412485D01*
X164750500Y-95272475D01*
X164750500Y-95127525D01*
X164712984Y-94987515D01*
X164678962Y-94928588D01*
X164640511Y-94861988D01*
X164640506Y-94861982D01*
X164538017Y-94759493D01*
X164538011Y-94759488D01*
X164412488Y-94687017D01*
X164412489Y-94687017D01*
X164307522Y-94658891D01*
X164272475Y-94649500D01*
X164272471Y-94649499D01*
X164264415Y-94648439D01*
X164264655Y-94646609D01*
X164207461Y-94629815D01*
X164161706Y-94577011D01*
X164152662Y-94535439D01*
X164151561Y-94535585D01*
X164150500Y-94527528D01*
X164150500Y-94527527D01*
X164150500Y-94527525D01*
X164112984Y-94387515D01*
X164085795Y-94340423D01*
X164040511Y-94261988D01*
X164040506Y-94261982D01*
X163938017Y-94159493D01*
X163938011Y-94159488D01*
X163812488Y-94087017D01*
X163812489Y-94087017D01*
X163783879Y-94079351D01*
X163672475Y-94049500D01*
X163527525Y-94049500D01*
X163416121Y-94079351D01*
X163387511Y-94087017D01*
X163261988Y-94159488D01*
X163261982Y-94159493D01*
X163159493Y-94261982D01*
X163159488Y-94261988D01*
X163087017Y-94387511D01*
X163087016Y-94387515D01*
X163049500Y-94527525D01*
X163049500Y-94672475D01*
X163053397Y-94687017D01*
X163087453Y-94814117D01*
X163085790Y-94883967D01*
X163075067Y-94908207D01*
X163040424Y-94968213D01*
X163040423Y-94968216D01*
X162999500Y-95120943D01*
X154562482Y-95120943D01*
X154600500Y-94979057D01*
X154600500Y-94820943D01*
X154559577Y-94668216D01*
X154554190Y-94658886D01*
X154480524Y-94531290D01*
X154480518Y-94531282D01*
X154368717Y-94419481D01*
X154368709Y-94419475D01*
X154231790Y-94340426D01*
X154231786Y-94340424D01*
X154231784Y-94340423D01*
X154079057Y-94299500D01*
X153920943Y-94299500D01*
X153768216Y-94340423D01*
X153768209Y-94340426D01*
X153631290Y-94419475D01*
X153631282Y-94419481D01*
X153519481Y-94531282D01*
X153519475Y-94531290D01*
X153440426Y-94668209D01*
X153440423Y-94668216D01*
X153399500Y-94820943D01*
X153399500Y-94979057D01*
X153440423Y-95131784D01*
X153479518Y-95199500D01*
X153487602Y-95213501D01*
X153504074Y-95281401D01*
X153481221Y-95347428D01*
X153426299Y-95390618D01*
X153380214Y-95399500D01*
X153220943Y-95399500D01*
X153068216Y-95440423D01*
X153068209Y-95440426D01*
X152931290Y-95519475D01*
X152931282Y-95519481D01*
X152819481Y-95631282D01*
X152819475Y-95631290D01*
X152740426Y-95768209D01*
X152740423Y-95768216D01*
X152699500Y-95920943D01*
X147189277Y-95920943D01*
X147200500Y-95879057D01*
X147200500Y-95720943D01*
X147159577Y-95568216D01*
X147131437Y-95519475D01*
X147080524Y-95431290D01*
X147080518Y-95431282D01*
X146968717Y-95319481D01*
X146968709Y-95319475D01*
X146831790Y-95240426D01*
X146831786Y-95240424D01*
X146831784Y-95240423D01*
X146679057Y-95199500D01*
X146520943Y-95199500D01*
X146368216Y-95240423D01*
X146368209Y-95240426D01*
X146231290Y-95319475D01*
X146231282Y-95319481D01*
X146119481Y-95431282D01*
X146119475Y-95431290D01*
X146040426Y-95568209D01*
X146040423Y-95568216D01*
X145999500Y-95720943D01*
X141889258Y-95720943D01*
X141971195Y-95698988D01*
X142108127Y-95619931D01*
X142219931Y-95508127D01*
X142298988Y-95371195D01*
X142339911Y-95218468D01*
X142339911Y-95060354D01*
X142298988Y-94907627D01*
X142265717Y-94849999D01*
X142219935Y-94770701D01*
X142219929Y-94770693D01*
X142108128Y-94658892D01*
X142108120Y-94658886D01*
X141971201Y-94579837D01*
X141971197Y-94579835D01*
X141971195Y-94579834D01*
X141818468Y-94538911D01*
X141660354Y-94538911D01*
X141507627Y-94579834D01*
X141507620Y-94579837D01*
X141370701Y-94658886D01*
X141370693Y-94658892D01*
X141258892Y-94770693D01*
X141258886Y-94770701D01*
X141179837Y-94907620D01*
X141179834Y-94907627D01*
X141138911Y-95060354D01*
X138200500Y-95060354D01*
X138200500Y-94369004D01*
X147848191Y-94369004D01*
X147848191Y-94527118D01*
X147883500Y-94658891D01*
X147889114Y-94679844D01*
X147889117Y-94679851D01*
X147968166Y-94816770D01*
X147968170Y-94816775D01*
X147968171Y-94816777D01*
X148079975Y-94928581D01*
X148079977Y-94928582D01*
X148079981Y-94928585D01*
X148216900Y-95007634D01*
X148216907Y-95007638D01*
X148369634Y-95048561D01*
X148369636Y-95048561D01*
X148527746Y-95048561D01*
X148527748Y-95048561D01*
X148680475Y-95007638D01*
X148817407Y-94928581D01*
X148817416Y-94928571D01*
X148821696Y-94925288D01*
X148886863Y-94900087D01*
X148955309Y-94914118D01*
X149005304Y-94962927D01*
X149020974Y-95031017D01*
X149016968Y-95055748D01*
X148999500Y-95120941D01*
X148999500Y-95120943D01*
X148999500Y-95279057D01*
X149040289Y-95431282D01*
X149040423Y-95431783D01*
X149040426Y-95431790D01*
X149119475Y-95568709D01*
X149119479Y-95568714D01*
X149119480Y-95568716D01*
X149231284Y-95680520D01*
X149231286Y-95680521D01*
X149231290Y-95680524D01*
X149308212Y-95724934D01*
X149368216Y-95759577D01*
X149520943Y-95800500D01*
X149520945Y-95800500D01*
X149679055Y-95800500D01*
X149679057Y-95800500D01*
X149831784Y-95759577D01*
X149968716Y-95680520D01*
X150080520Y-95568716D01*
X150159577Y-95431784D01*
X150200500Y-95279057D01*
X150200500Y-95120943D01*
X150159577Y-94968216D01*
X150124931Y-94908207D01*
X150080524Y-94831290D01*
X150080518Y-94831282D01*
X149968717Y-94719481D01*
X149968709Y-94719475D01*
X149831784Y-94640422D01*
X149826745Y-94638335D01*
X149772343Y-94594492D01*
X149750281Y-94528197D01*
X149766815Y-94461776D01*
X149791234Y-94419481D01*
X149839761Y-94335429D01*
X149880684Y-94182702D01*
X149880684Y-94024588D01*
X149839761Y-93871861D01*
X149787028Y-93780524D01*
X149760708Y-93734935D01*
X149760702Y-93734927D01*
X149648901Y-93623126D01*
X149648893Y-93623120D01*
X149511974Y-93544071D01*
X149511970Y-93544069D01*
X149511968Y-93544068D01*
X149359241Y-93503145D01*
X149201127Y-93503145D01*
X149048400Y-93544068D01*
X149048393Y-93544071D01*
X148911474Y-93623120D01*
X148911466Y-93623126D01*
X148799665Y-93734927D01*
X148799661Y-93734932D01*
X148754492Y-93813168D01*
X148703925Y-93861384D01*
X148635318Y-93874606D01*
X148615012Y-93870943D01*
X148549405Y-93853364D01*
X148527748Y-93847561D01*
X148369634Y-93847561D01*
X148216907Y-93888484D01*
X148216900Y-93888487D01*
X148079981Y-93967536D01*
X148079973Y-93967542D01*
X147968172Y-94079343D01*
X147968166Y-94079351D01*
X147889117Y-94216270D01*
X147889114Y-94216277D01*
X147848191Y-94369004D01*
X138200500Y-94369004D01*
X138200500Y-93220942D01*
X140537193Y-93220942D01*
X140537193Y-93379056D01*
X140570443Y-93503145D01*
X140578116Y-93531782D01*
X140578119Y-93531789D01*
X140657168Y-93668708D01*
X140657172Y-93668713D01*
X140657173Y-93668715D01*
X140768977Y-93780519D01*
X140768979Y-93780520D01*
X140768983Y-93780523D01*
X140825527Y-93813168D01*
X140905909Y-93859576D01*
X141058636Y-93900499D01*
X141058638Y-93900499D01*
X141216748Y-93900499D01*
X141216750Y-93900499D01*
X141369477Y-93859576D01*
X141506409Y-93780519D01*
X141618213Y-93668715D01*
X141697270Y-93531783D01*
X141738193Y-93379056D01*
X141738193Y-93220943D01*
X144399500Y-93220943D01*
X144399500Y-93379057D01*
X144440423Y-93531782D01*
X144440423Y-93531783D01*
X144440426Y-93531790D01*
X144519475Y-93668709D01*
X144519479Y-93668714D01*
X144519480Y-93668716D01*
X144631284Y-93780520D01*
X144631286Y-93780521D01*
X144631290Y-93780524D01*
X144747403Y-93847561D01*
X144768216Y-93859577D01*
X144920943Y-93900500D01*
X144920945Y-93900500D01*
X145079055Y-93900500D01*
X145079057Y-93900500D01*
X145231784Y-93859577D01*
X145368716Y-93780520D01*
X145480520Y-93668716D01*
X145559577Y-93531784D01*
X145600500Y-93379057D01*
X145600500Y-93220943D01*
X145559577Y-93068216D01*
X145527401Y-93012485D01*
X145480524Y-92931290D01*
X145480518Y-92931282D01*
X145368717Y-92819481D01*
X145368709Y-92819475D01*
X145231790Y-92740426D01*
X145231786Y-92740424D01*
X145231784Y-92740423D01*
X145079057Y-92699500D01*
X144920943Y-92699500D01*
X144768216Y-92740423D01*
X144768209Y-92740426D01*
X144631290Y-92819475D01*
X144631282Y-92819481D01*
X144519481Y-92931282D01*
X144519475Y-92931290D01*
X144440426Y-93068209D01*
X144440423Y-93068216D01*
X144399500Y-93220943D01*
X141738193Y-93220943D01*
X141738193Y-93220942D01*
X141697270Y-93068215D01*
X141676236Y-93031783D01*
X141618217Y-92931289D01*
X141618214Y-92931285D01*
X141618213Y-92931283D01*
X141506409Y-92819479D01*
X141506407Y-92819478D01*
X141506402Y-92819474D01*
X141369483Y-92740425D01*
X141369479Y-92740423D01*
X141369477Y-92740422D01*
X141216750Y-92699499D01*
X141058636Y-92699499D01*
X140905909Y-92740422D01*
X140905902Y-92740425D01*
X140768983Y-92819474D01*
X140768975Y-92819480D01*
X140657174Y-92931281D01*
X140657168Y-92931289D01*
X140578119Y-93068208D01*
X140578119Y-93068209D01*
X140578116Y-93068215D01*
X140537193Y-93220942D01*
X138200500Y-93220942D01*
X138200500Y-92527525D01*
X156949500Y-92527525D01*
X156949500Y-92672475D01*
X156967708Y-92740426D01*
X156987017Y-92812488D01*
X157059488Y-92938011D01*
X157059490Y-92938013D01*
X157059491Y-92938015D01*
X157161985Y-93040509D01*
X157161986Y-93040510D01*
X157161988Y-93040511D01*
X157287511Y-93112982D01*
X157287512Y-93112982D01*
X157287515Y-93112984D01*
X157427525Y-93150500D01*
X157427528Y-93150500D01*
X157572472Y-93150500D01*
X157572475Y-93150500D01*
X157712485Y-93112984D01*
X157838015Y-93040509D01*
X157940509Y-92938015D01*
X158012984Y-92812485D01*
X158037513Y-92720943D01*
X160599500Y-92720943D01*
X160599500Y-92879057D01*
X160615299Y-92938017D01*
X160640423Y-93031783D01*
X160640426Y-93031790D01*
X160719475Y-93168709D01*
X160719479Y-93168714D01*
X160719480Y-93168716D01*
X160831284Y-93280520D01*
X160831286Y-93280521D01*
X160831290Y-93280524D01*
X160968209Y-93359573D01*
X160968216Y-93359577D01*
X161120943Y-93400500D01*
X161120945Y-93400500D01*
X161122494Y-93400915D01*
X161182154Y-93437280D01*
X161210174Y-93488595D01*
X161227395Y-93552863D01*
X161227397Y-93552868D01*
X161299868Y-93678391D01*
X161299870Y-93678393D01*
X161299871Y-93678395D01*
X161402365Y-93780889D01*
X161402366Y-93780890D01*
X161402368Y-93780891D01*
X161527891Y-93853362D01*
X161527892Y-93853362D01*
X161527895Y-93853364D01*
X161667905Y-93890880D01*
X161667908Y-93890880D01*
X161812852Y-93890880D01*
X161812855Y-93890880D01*
X161952865Y-93853364D01*
X162078395Y-93780889D01*
X162180889Y-93678395D01*
X162253364Y-93552865D01*
X162290880Y-93412855D01*
X162290880Y-93337827D01*
X162310565Y-93270788D01*
X162332718Y-93246708D01*
X162332267Y-93246257D01*
X162357582Y-93220942D01*
X162440509Y-93138015D01*
X162512984Y-93012485D01*
X162550500Y-92872475D01*
X162550500Y-92727525D01*
X162512984Y-92587515D01*
X162478350Y-92527528D01*
X162440511Y-92461988D01*
X162440506Y-92461982D01*
X162338017Y-92359493D01*
X162338011Y-92359488D01*
X162212488Y-92287017D01*
X162212489Y-92287017D01*
X162201006Y-92283940D01*
X162072475Y-92249500D01*
X161927525Y-92249500D01*
X161798993Y-92283940D01*
X161787511Y-92287017D01*
X161710270Y-92331613D01*
X161642370Y-92348086D01*
X161576343Y-92325234D01*
X161572779Y-92322598D01*
X161568717Y-92319481D01*
X161568716Y-92319480D01*
X161568712Y-92319478D01*
X161568710Y-92319476D01*
X161431790Y-92240426D01*
X161431786Y-92240424D01*
X161431784Y-92240423D01*
X161279057Y-92199500D01*
X161120943Y-92199500D01*
X160968216Y-92240423D01*
X160968209Y-92240426D01*
X160831290Y-92319475D01*
X160831282Y-92319481D01*
X160719481Y-92431282D01*
X160719475Y-92431290D01*
X160640426Y-92568209D01*
X160640423Y-92568216D01*
X160599500Y-92720943D01*
X158037513Y-92720943D01*
X158050500Y-92672475D01*
X158050500Y-92527525D01*
X158021031Y-92417546D01*
X158022694Y-92347703D01*
X158061856Y-92289840D01*
X158108710Y-92265684D01*
X158231784Y-92232707D01*
X158368716Y-92153650D01*
X158480520Y-92041846D01*
X158559577Y-91904914D01*
X158600500Y-91752187D01*
X158600500Y-91594073D01*
X158559577Y-91441346D01*
X158496037Y-91331290D01*
X158480524Y-91304420D01*
X158480518Y-91304412D01*
X158368717Y-91192611D01*
X158368709Y-91192605D01*
X158231790Y-91113556D01*
X158231786Y-91113554D01*
X158231784Y-91113553D01*
X158079057Y-91072630D01*
X157920943Y-91072630D01*
X157768216Y-91113553D01*
X157768209Y-91113556D01*
X157631290Y-91192605D01*
X157631282Y-91192611D01*
X157519481Y-91304412D01*
X157519475Y-91304420D01*
X157440426Y-91441339D01*
X157440423Y-91441346D01*
X157399500Y-91594073D01*
X157399500Y-91752187D01*
X157417380Y-91818917D01*
X157442527Y-91912765D01*
X157440232Y-91913379D01*
X157446396Y-91970802D01*
X157415111Y-92033277D01*
X157356465Y-92068540D01*
X157323548Y-92077360D01*
X157287510Y-92087017D01*
X157161988Y-92159488D01*
X157161982Y-92159493D01*
X157059493Y-92261982D01*
X157059488Y-92261988D01*
X156987017Y-92387511D01*
X156987016Y-92387515D01*
X156949500Y-92527525D01*
X138200500Y-92527525D01*
X138200500Y-91673920D01*
X138869499Y-91673920D01*
X138898340Y-91818907D01*
X138898343Y-91818917D01*
X138954912Y-91955488D01*
X138954919Y-91955501D01*
X139037048Y-92078415D01*
X139037051Y-92078419D01*
X139141580Y-92182948D01*
X139141584Y-92182951D01*
X139264498Y-92265080D01*
X139264511Y-92265087D01*
X139395817Y-92319475D01*
X139401087Y-92321658D01*
X139401091Y-92321658D01*
X139401092Y-92321659D01*
X139546079Y-92350500D01*
X139546082Y-92350500D01*
X139693920Y-92350500D01*
X139791462Y-92331096D01*
X139838913Y-92321658D01*
X139975495Y-92265084D01*
X140098416Y-92182951D01*
X140127719Y-92153648D01*
X140167319Y-92114049D01*
X140228642Y-92080564D01*
X140298334Y-92085548D01*
X140342681Y-92114049D01*
X140411580Y-92182948D01*
X140411584Y-92182951D01*
X140534498Y-92265080D01*
X140534511Y-92265087D01*
X140665817Y-92319475D01*
X140671087Y-92321658D01*
X140671091Y-92321658D01*
X140671092Y-92321659D01*
X140816079Y-92350500D01*
X140816082Y-92350500D01*
X140963920Y-92350500D01*
X141061462Y-92331096D01*
X141108913Y-92321658D01*
X141245495Y-92265084D01*
X141368416Y-92182951D01*
X141397719Y-92153648D01*
X141437319Y-92114049D01*
X141498642Y-92080564D01*
X141568334Y-92085548D01*
X141612681Y-92114049D01*
X141681580Y-92182948D01*
X141681584Y-92182951D01*
X141804498Y-92265080D01*
X141804511Y-92265087D01*
X141935817Y-92319475D01*
X141941087Y-92321658D01*
X141941091Y-92321658D01*
X141941092Y-92321659D01*
X142086079Y-92350500D01*
X142086082Y-92350500D01*
X142233920Y-92350500D01*
X142331462Y-92331096D01*
X142378913Y-92321658D01*
X142515495Y-92265084D01*
X142638416Y-92182951D01*
X142667719Y-92153648D01*
X142707319Y-92114049D01*
X142768642Y-92080564D01*
X142838334Y-92085548D01*
X142882681Y-92114049D01*
X142951580Y-92182948D01*
X142951584Y-92182951D01*
X143074498Y-92265080D01*
X143074511Y-92265087D01*
X143205817Y-92319475D01*
X143211087Y-92321658D01*
X143211091Y-92321658D01*
X143211092Y-92321659D01*
X143356079Y-92350500D01*
X143356082Y-92350500D01*
X143503920Y-92350500D01*
X143601462Y-92331096D01*
X143648913Y-92321658D01*
X143785495Y-92265084D01*
X143908416Y-92182951D01*
X143937719Y-92153648D01*
X143977319Y-92114049D01*
X144038642Y-92080564D01*
X144108334Y-92085548D01*
X144152681Y-92114049D01*
X144221580Y-92182948D01*
X144221584Y-92182951D01*
X144344498Y-92265080D01*
X144344511Y-92265087D01*
X144475817Y-92319475D01*
X144481087Y-92321658D01*
X144481091Y-92321658D01*
X144481092Y-92321659D01*
X144626079Y-92350500D01*
X144626082Y-92350500D01*
X144773920Y-92350500D01*
X144871462Y-92331096D01*
X144918913Y-92321658D01*
X145055495Y-92265084D01*
X145178416Y-92182951D01*
X145282951Y-92078416D01*
X145365084Y-91955495D01*
X145421658Y-91818913D01*
X145450500Y-91673918D01*
X145450500Y-91620943D01*
X154799500Y-91620943D01*
X154799500Y-91779057D01*
X154835492Y-91913379D01*
X154840423Y-91931783D01*
X154840426Y-91931790D01*
X154919475Y-92068709D01*
X154919479Y-92068714D01*
X154919480Y-92068716D01*
X155031284Y-92180520D01*
X155031286Y-92180521D01*
X155031290Y-92180524D01*
X155121675Y-92232707D01*
X155168216Y-92259577D01*
X155320943Y-92300500D01*
X155320945Y-92300500D01*
X155479055Y-92300500D01*
X155479057Y-92300500D01*
X155631784Y-92259577D01*
X155768716Y-92180520D01*
X155880520Y-92068716D01*
X155959577Y-91931784D01*
X156000500Y-91779057D01*
X156000500Y-91620943D01*
X155959577Y-91468216D01*
X155944060Y-91441339D01*
X155880524Y-91331290D01*
X155880518Y-91331282D01*
X155768717Y-91219481D01*
X155768716Y-91219480D01*
X155740494Y-91203186D01*
X155692279Y-91152620D01*
X155679055Y-91084013D01*
X155705023Y-91019148D01*
X155761937Y-90978619D01*
X155770388Y-90976027D01*
X155831784Y-90959577D01*
X155968716Y-90880520D01*
X156080520Y-90768716D01*
X156159577Y-90631784D01*
X156200500Y-90479057D01*
X156200500Y-90320943D01*
X156159577Y-90168216D01*
X156114208Y-90089634D01*
X156080524Y-90031290D01*
X156080518Y-90031282D01*
X155968717Y-89919481D01*
X155968709Y-89919475D01*
X155831790Y-89840426D01*
X155831786Y-89840424D01*
X155831784Y-89840423D01*
X155679057Y-89799500D01*
X155520943Y-89799500D01*
X155368216Y-89840423D01*
X155368209Y-89840426D01*
X155231290Y-89919475D01*
X155231282Y-89919481D01*
X155119481Y-90031282D01*
X155119475Y-90031290D01*
X155040426Y-90168209D01*
X155040423Y-90168216D01*
X154999500Y-90320943D01*
X154999500Y-90479057D01*
X155034974Y-90611446D01*
X155040423Y-90631783D01*
X155040426Y-90631790D01*
X155119475Y-90768709D01*
X155119479Y-90768714D01*
X155119480Y-90768716D01*
X155231284Y-90880520D01*
X155231285Y-90880521D01*
X155231287Y-90880522D01*
X155259503Y-90896812D01*
X155307720Y-90947378D01*
X155320944Y-91015985D01*
X155294977Y-91080850D01*
X155238063Y-91121379D01*
X155229600Y-91123974D01*
X155168220Y-91140421D01*
X155168209Y-91140426D01*
X155031290Y-91219475D01*
X155031282Y-91219481D01*
X154919481Y-91331282D01*
X154919475Y-91331290D01*
X154840426Y-91468209D01*
X154840423Y-91468216D01*
X154799500Y-91620943D01*
X145450500Y-91620943D01*
X145450500Y-91526082D01*
X145450500Y-91526079D01*
X145421659Y-91381092D01*
X145421658Y-91381091D01*
X145421658Y-91381087D01*
X145421656Y-91381082D01*
X145365087Y-91244511D01*
X145365079Y-91244496D01*
X145330715Y-91193068D01*
X145309836Y-91126391D01*
X145328320Y-91059010D01*
X145364924Y-91021075D01*
X145380601Y-91010601D01*
X145435966Y-90927740D01*
X145450500Y-90854674D01*
X145450500Y-89805326D01*
X145450500Y-89805323D01*
X145450499Y-89805321D01*
X145435967Y-89732264D01*
X145435966Y-89732260D01*
X145402187Y-89681706D01*
X145402186Y-89681703D01*
X145380602Y-89649400D01*
X145338013Y-89620943D01*
X148399500Y-89620943D01*
X148399500Y-89779057D01*
X148437127Y-89919481D01*
X148440423Y-89931783D01*
X148440426Y-89931790D01*
X148519475Y-90068709D01*
X148519479Y-90068714D01*
X148519480Y-90068716D01*
X148631284Y-90180520D01*
X148631286Y-90180521D01*
X148631290Y-90180524D01*
X148762162Y-90256082D01*
X148768216Y-90259577D01*
X148920943Y-90300500D01*
X148920945Y-90300500D01*
X149079055Y-90300500D01*
X149079057Y-90300500D01*
X149231784Y-90259577D01*
X149368716Y-90180520D01*
X149480520Y-90068716D01*
X149559577Y-89931784D01*
X149600500Y-89779057D01*
X149600500Y-89620943D01*
X149559577Y-89468216D01*
X149501966Y-89368430D01*
X149480524Y-89331290D01*
X149480518Y-89331282D01*
X149368717Y-89219481D01*
X149368709Y-89219475D01*
X149231790Y-89140426D01*
X149231786Y-89140424D01*
X149231784Y-89140423D01*
X149079057Y-89099500D01*
X148920943Y-89099500D01*
X148768216Y-89140423D01*
X148768209Y-89140426D01*
X148631290Y-89219475D01*
X148631282Y-89219481D01*
X148519481Y-89331282D01*
X148519475Y-89331290D01*
X148440426Y-89468209D01*
X148440423Y-89468216D01*
X148399500Y-89620943D01*
X145338013Y-89620943D01*
X145297739Y-89594033D01*
X145297735Y-89594032D01*
X145224677Y-89579500D01*
X145224674Y-89579500D01*
X144175326Y-89579500D01*
X144175323Y-89579500D01*
X144090281Y-89596416D01*
X144089494Y-89592460D01*
X144042384Y-89597520D01*
X143979908Y-89566238D01*
X143944262Y-89506145D01*
X143941011Y-89487645D01*
X143939019Y-89467425D01*
X143903675Y-89443809D01*
X143903673Y-89443808D01*
X143721693Y-89368430D01*
X143721681Y-89368427D01*
X143528495Y-89330000D01*
X143331504Y-89330000D01*
X143138318Y-89368427D01*
X143138310Y-89368429D01*
X142956325Y-89443809D01*
X142956318Y-89443813D01*
X142920979Y-89467426D01*
X143430000Y-89976446D01*
X143430001Y-89976446D01*
X143746957Y-89659488D01*
X143808280Y-89626003D01*
X143877971Y-89630987D01*
X143933905Y-89672858D01*
X143958322Y-89738323D01*
X143956256Y-89771359D01*
X143949500Y-89805326D01*
X143949500Y-90112691D01*
X143929815Y-90179730D01*
X143913181Y-90200372D01*
X143755000Y-90358553D01*
X143755000Y-90287213D01*
X143732851Y-90204555D01*
X143690064Y-90130446D01*
X143629554Y-90069936D01*
X143555445Y-90027149D01*
X143472787Y-90005000D01*
X143387213Y-90005000D01*
X143304555Y-90027149D01*
X143230446Y-90069936D01*
X143169936Y-90130446D01*
X143127149Y-90204555D01*
X143105000Y-90287213D01*
X143105000Y-90372787D01*
X143127149Y-90455445D01*
X143169936Y-90529554D01*
X143230446Y-90590064D01*
X143304555Y-90632851D01*
X143387213Y-90655000D01*
X143458554Y-90655000D01*
X143267677Y-90845875D01*
X143215997Y-90876852D01*
X143211087Y-90878341D01*
X143074507Y-90934914D01*
X143074498Y-90934919D01*
X142951584Y-91017048D01*
X142951580Y-91017051D01*
X142882681Y-91085951D01*
X142821358Y-91119436D01*
X142751666Y-91114452D01*
X142707319Y-91085951D01*
X142638419Y-91017051D01*
X142638415Y-91017048D01*
X142515501Y-90934919D01*
X142515488Y-90934912D01*
X142378917Y-90878343D01*
X142374004Y-90876853D01*
X142322321Y-90845874D01*
X142131446Y-90655000D01*
X142202787Y-90655000D01*
X142285445Y-90632851D01*
X142359554Y-90590064D01*
X142420064Y-90529554D01*
X142462851Y-90455445D01*
X142485000Y-90372787D01*
X142485000Y-90330000D01*
X142513553Y-90330000D01*
X142795000Y-90611446D01*
X142795001Y-90611446D01*
X143076446Y-90330001D01*
X143076446Y-90329999D01*
X142795001Y-90048553D01*
X142795000Y-90048553D01*
X142513553Y-90330000D01*
X142485000Y-90330000D01*
X142485000Y-90287213D01*
X142462851Y-90204555D01*
X142420064Y-90130446D01*
X142359554Y-90069936D01*
X142285445Y-90027149D01*
X142202787Y-90005000D01*
X142117213Y-90005000D01*
X142034555Y-90027149D01*
X141960446Y-90069936D01*
X141899936Y-90130446D01*
X141857149Y-90204555D01*
X141835000Y-90287213D01*
X141835000Y-90358553D01*
X141644126Y-90167679D01*
X141613147Y-90115996D01*
X141611656Y-90111082D01*
X141555087Y-89974511D01*
X141555080Y-89974498D01*
X141472951Y-89851584D01*
X141472948Y-89851580D01*
X141368419Y-89747051D01*
X141368415Y-89747048D01*
X141245501Y-89664919D01*
X141245488Y-89664912D01*
X141108917Y-89608343D01*
X141108907Y-89608340D01*
X140963920Y-89579500D01*
X140963918Y-89579500D01*
X140816082Y-89579500D01*
X140816080Y-89579500D01*
X140671092Y-89608340D01*
X140671082Y-89608343D01*
X140534511Y-89664912D01*
X140534498Y-89664919D01*
X140411584Y-89747048D01*
X140411580Y-89747051D01*
X140307051Y-89851580D01*
X140307048Y-89851584D01*
X140224919Y-89974498D01*
X140224914Y-89974507D01*
X140168341Y-90111087D01*
X140166852Y-90115997D01*
X140135875Y-90167677D01*
X139945000Y-90358553D01*
X139945000Y-90287213D01*
X139922851Y-90204555D01*
X139880064Y-90130446D01*
X139819554Y-90069936D01*
X139745445Y-90027149D01*
X139662787Y-90005000D01*
X139577213Y-90005000D01*
X139494555Y-90027149D01*
X139420446Y-90069936D01*
X139359936Y-90130446D01*
X139317149Y-90204555D01*
X139295000Y-90287213D01*
X139295000Y-90372787D01*
X139317149Y-90455445D01*
X139359936Y-90529554D01*
X139420446Y-90590064D01*
X139494555Y-90632851D01*
X139577213Y-90655000D01*
X139648554Y-90655000D01*
X139457677Y-90845875D01*
X139405997Y-90876852D01*
X139401087Y-90878341D01*
X139264507Y-90934914D01*
X139264498Y-90934919D01*
X139141584Y-91017048D01*
X139141580Y-91017051D01*
X139037051Y-91121580D01*
X139037048Y-91121584D01*
X138954919Y-91244498D01*
X138954912Y-91244511D01*
X138898343Y-91381082D01*
X138898340Y-91381092D01*
X138869500Y-91526079D01*
X138869500Y-91526082D01*
X138869500Y-91673918D01*
X138869500Y-91673920D01*
X138869499Y-91673920D01*
X138200500Y-91673920D01*
X138200500Y-90231504D01*
X138620000Y-90231504D01*
X138620000Y-90428495D01*
X138658427Y-90621681D01*
X138658430Y-90621693D01*
X138733808Y-90803673D01*
X138733809Y-90803675D01*
X138757425Y-90839019D01*
X139266446Y-90330000D01*
X139266446Y-90329999D01*
X138757426Y-89820978D01*
X138757426Y-89820979D01*
X138733813Y-89856318D01*
X138733809Y-89856325D01*
X138658429Y-90038310D01*
X138658427Y-90038318D01*
X138620000Y-90231504D01*
X138200500Y-90231504D01*
X138200500Y-89467426D01*
X139110978Y-89467426D01*
X139620000Y-89976446D01*
X139620001Y-89976446D01*
X140129020Y-89467426D01*
X141650978Y-89467426D01*
X142160000Y-89976446D01*
X142160001Y-89976446D01*
X142669019Y-89467425D01*
X142633675Y-89443809D01*
X142633673Y-89443808D01*
X142451693Y-89368430D01*
X142451681Y-89368427D01*
X142258495Y-89330000D01*
X142061504Y-89330000D01*
X141868318Y-89368427D01*
X141868310Y-89368429D01*
X141686325Y-89443809D01*
X141686318Y-89443813D01*
X141650979Y-89467426D01*
X141650978Y-89467426D01*
X140129020Y-89467426D01*
X140093675Y-89443809D01*
X140093673Y-89443808D01*
X139911693Y-89368430D01*
X139911681Y-89368427D01*
X139718495Y-89330000D01*
X139521504Y-89330000D01*
X139328318Y-89368427D01*
X139328310Y-89368429D01*
X139146325Y-89443809D01*
X139146318Y-89443813D01*
X139110979Y-89467426D01*
X139110978Y-89467426D01*
X138200500Y-89467426D01*
X138200500Y-89020943D01*
X151799500Y-89020943D01*
X151799500Y-89179057D01*
X151840289Y-89331282D01*
X151840423Y-89331783D01*
X151840426Y-89331790D01*
X151919475Y-89468709D01*
X151919479Y-89468714D01*
X151919480Y-89468716D01*
X152031284Y-89580520D01*
X152031286Y-89580521D01*
X152031290Y-89580524D01*
X152120087Y-89631790D01*
X152168216Y-89659577D01*
X152320943Y-89700500D01*
X152320945Y-89700500D01*
X152479055Y-89700500D01*
X152479057Y-89700500D01*
X152631784Y-89659577D01*
X152768716Y-89580520D01*
X152880520Y-89468716D01*
X152959577Y-89331784D01*
X153000500Y-89179057D01*
X153000500Y-89020943D01*
X152959577Y-88868216D01*
X152908101Y-88779056D01*
X152880524Y-88731290D01*
X152880518Y-88731282D01*
X152768717Y-88619481D01*
X152768716Y-88619480D01*
X152631784Y-88540423D01*
X152559084Y-88520943D01*
X153299500Y-88520943D01*
X153299500Y-88679057D01*
X153339983Y-88830140D01*
X153340423Y-88831783D01*
X153340426Y-88831790D01*
X153419475Y-88968709D01*
X153419479Y-88968714D01*
X153419480Y-88968716D01*
X153531284Y-89080520D01*
X153531286Y-89080521D01*
X153531290Y-89080524D01*
X153621474Y-89132591D01*
X153668216Y-89159577D01*
X153820943Y-89200500D01*
X153820945Y-89200500D01*
X153979055Y-89200500D01*
X153979057Y-89200500D01*
X154131784Y-89159577D01*
X154268716Y-89080520D01*
X154380520Y-88968716D01*
X154459577Y-88831784D01*
X154500500Y-88679057D01*
X154500500Y-88620943D01*
X162799500Y-88620943D01*
X162799500Y-88779057D01*
X162837127Y-88919481D01*
X162840423Y-88931783D01*
X162840426Y-88931790D01*
X162919475Y-89068709D01*
X162919479Y-89068714D01*
X162919480Y-89068716D01*
X163031284Y-89180520D01*
X163031286Y-89180521D01*
X163031290Y-89180524D01*
X163098765Y-89219480D01*
X163168216Y-89259577D01*
X163320943Y-89300500D01*
X163320945Y-89300500D01*
X163479055Y-89300500D01*
X163479057Y-89300500D01*
X163631784Y-89259577D01*
X163768716Y-89180520D01*
X163880520Y-89068716D01*
X163959577Y-88931784D01*
X164000500Y-88779057D01*
X164000500Y-88620943D01*
X163959577Y-88468216D01*
X163937816Y-88430524D01*
X163880524Y-88331290D01*
X163880518Y-88331282D01*
X163768717Y-88219481D01*
X163768709Y-88219475D01*
X163631790Y-88140426D01*
X163631786Y-88140424D01*
X163631784Y-88140423D01*
X163479057Y-88099500D01*
X163320943Y-88099500D01*
X163168216Y-88140423D01*
X163168209Y-88140426D01*
X163031290Y-88219475D01*
X163031282Y-88219481D01*
X162919481Y-88331282D01*
X162919475Y-88331290D01*
X162840426Y-88468209D01*
X162840423Y-88468216D01*
X162799500Y-88620943D01*
X154500500Y-88620943D01*
X154500500Y-88520943D01*
X154459577Y-88368216D01*
X154438258Y-88331290D01*
X154380524Y-88231290D01*
X154380518Y-88231282D01*
X154268717Y-88119481D01*
X154268709Y-88119475D01*
X154131790Y-88040426D01*
X154131786Y-88040424D01*
X154131784Y-88040423D01*
X153979057Y-87999500D01*
X153820943Y-87999500D01*
X153668216Y-88040423D01*
X153668209Y-88040426D01*
X153531290Y-88119475D01*
X153531282Y-88119481D01*
X153419481Y-88231282D01*
X153419475Y-88231290D01*
X153340426Y-88368209D01*
X153340423Y-88368216D01*
X153299500Y-88520943D01*
X152559084Y-88520943D01*
X152479057Y-88499500D01*
X152320943Y-88499500D01*
X152168216Y-88540423D01*
X152168209Y-88540426D01*
X152031290Y-88619475D01*
X152031282Y-88619481D01*
X151919481Y-88731282D01*
X151919475Y-88731290D01*
X151840426Y-88868209D01*
X151840423Y-88868216D01*
X151799500Y-89020943D01*
X138200500Y-89020943D01*
X138200500Y-87870943D01*
X140949500Y-87870943D01*
X140949500Y-88029057D01*
X140979341Y-88140423D01*
X140990423Y-88181783D01*
X140990426Y-88181790D01*
X141069475Y-88318709D01*
X141069479Y-88318714D01*
X141069480Y-88318716D01*
X141181284Y-88430520D01*
X141181286Y-88430521D01*
X141181290Y-88430524D01*
X141300762Y-88499500D01*
X141318216Y-88509577D01*
X141470943Y-88550500D01*
X141470945Y-88550500D01*
X141629055Y-88550500D01*
X141629057Y-88550500D01*
X141781784Y-88509577D01*
X141918716Y-88430520D01*
X142030520Y-88318716D01*
X142109577Y-88181784D01*
X142150500Y-88029057D01*
X142150500Y-87870943D01*
X142109577Y-87718216D01*
X142109576Y-87718215D01*
X142107586Y-87710786D01*
X142109249Y-87640936D01*
X142148412Y-87583074D01*
X142165361Y-87571306D01*
X142172666Y-87567089D01*
X142284470Y-87455285D01*
X142363527Y-87318353D01*
X142404450Y-87165626D01*
X142404450Y-87007512D01*
X142381254Y-86920943D01*
X152598500Y-86920943D01*
X152598500Y-87079057D01*
X152636192Y-87219723D01*
X152639423Y-87231783D01*
X152639426Y-87231790D01*
X152718475Y-87368709D01*
X152718479Y-87368714D01*
X152718480Y-87368716D01*
X152830284Y-87480520D01*
X152830286Y-87480521D01*
X152830290Y-87480524D01*
X152967209Y-87559573D01*
X152967216Y-87559577D01*
X153119943Y-87600500D01*
X153119945Y-87600500D01*
X153278055Y-87600500D01*
X153278057Y-87600500D01*
X153430784Y-87559577D01*
X153567716Y-87480520D01*
X153679520Y-87368716D01*
X153758577Y-87231784D01*
X153788277Y-87120943D01*
X154799500Y-87120943D01*
X154799500Y-87279057D01*
X154823525Y-87368717D01*
X154840423Y-87431783D01*
X154840426Y-87431790D01*
X154919475Y-87568709D01*
X154919479Y-87568714D01*
X154919480Y-87568716D01*
X155031284Y-87680520D01*
X155031286Y-87680521D01*
X155031290Y-87680524D01*
X155168209Y-87759573D01*
X155168216Y-87759577D01*
X155320943Y-87800500D01*
X155320945Y-87800500D01*
X155479055Y-87800500D01*
X155479057Y-87800500D01*
X155631784Y-87759577D01*
X155768716Y-87680520D01*
X155880520Y-87568716D01*
X155959577Y-87431784D01*
X156000500Y-87279057D01*
X156000500Y-87120943D01*
X155959577Y-86968216D01*
X155959573Y-86968209D01*
X155880524Y-86831290D01*
X155880518Y-86831282D01*
X155768717Y-86719481D01*
X155768709Y-86719475D01*
X155631790Y-86640426D01*
X155631786Y-86640424D01*
X155631784Y-86640423D01*
X155479057Y-86599500D01*
X155320943Y-86599500D01*
X155168216Y-86640423D01*
X155168209Y-86640426D01*
X155031290Y-86719475D01*
X155031282Y-86719481D01*
X154919481Y-86831282D01*
X154919475Y-86831290D01*
X154840426Y-86968209D01*
X154840423Y-86968216D01*
X154799500Y-87120943D01*
X153788277Y-87120943D01*
X153799500Y-87079057D01*
X153799500Y-86920943D01*
X153758577Y-86768216D01*
X153723547Y-86707542D01*
X153679524Y-86631290D01*
X153679518Y-86631282D01*
X153567717Y-86519481D01*
X153567709Y-86519475D01*
X153430790Y-86440426D01*
X153430786Y-86440424D01*
X153430784Y-86440423D01*
X153278057Y-86399500D01*
X153119943Y-86399500D01*
X152967216Y-86440423D01*
X152967209Y-86440426D01*
X152830290Y-86519475D01*
X152830282Y-86519481D01*
X152718481Y-86631282D01*
X152718475Y-86631290D01*
X152639426Y-86768209D01*
X152639423Y-86768216D01*
X152598500Y-86920943D01*
X142381254Y-86920943D01*
X142363527Y-86854785D01*
X142353925Y-86838154D01*
X142284474Y-86717859D01*
X142284468Y-86717851D01*
X142172667Y-86606050D01*
X142172659Y-86606044D01*
X142035740Y-86526995D01*
X142035736Y-86526993D01*
X142035734Y-86526992D01*
X141883007Y-86486069D01*
X141724893Y-86486069D01*
X141572166Y-86526992D01*
X141572159Y-86526995D01*
X141435240Y-86606044D01*
X141435232Y-86606050D01*
X141323431Y-86717851D01*
X141323425Y-86717859D01*
X141244376Y-86854778D01*
X141244373Y-86854785D01*
X141203450Y-87007512D01*
X141203450Y-87165626D01*
X141244373Y-87318353D01*
X141244374Y-87318355D01*
X141246364Y-87325781D01*
X141244701Y-87395631D01*
X141205539Y-87453494D01*
X141188594Y-87465259D01*
X141181284Y-87469480D01*
X141181281Y-87469482D01*
X141069481Y-87581282D01*
X141069475Y-87581290D01*
X140990426Y-87718209D01*
X140990423Y-87718216D01*
X140949500Y-87870943D01*
X138200500Y-87870943D01*
X138200500Y-87208500D01*
X138745050Y-87208500D01*
X138761849Y-87219725D01*
X138761855Y-87219728D01*
X138930182Y-87289451D01*
X138930194Y-87289454D01*
X139108890Y-87324999D01*
X139108894Y-87325000D01*
X139291106Y-87325000D01*
X139291109Y-87324999D01*
X139469805Y-87289454D01*
X139469813Y-87289452D01*
X139638151Y-87219724D01*
X139638154Y-87219723D01*
X139654947Y-87208500D01*
X139654948Y-87208500D01*
X139200001Y-86753553D01*
X139200000Y-86753553D01*
X138745050Y-87208500D01*
X138200500Y-87208500D01*
X138200500Y-86972949D01*
X138220185Y-86905910D01*
X138272989Y-86860155D01*
X138336654Y-86849546D01*
X138391498Y-86854947D01*
X138846446Y-86400000D01*
X138846446Y-86399999D01*
X138796719Y-86350272D01*
X138950000Y-86350272D01*
X138950000Y-86449728D01*
X138988060Y-86541614D01*
X139058386Y-86611940D01*
X139150272Y-86650000D01*
X139249728Y-86650000D01*
X139341614Y-86611940D01*
X139411940Y-86541614D01*
X139450000Y-86449728D01*
X139450000Y-86399999D01*
X139553553Y-86399999D01*
X139553553Y-86400001D01*
X140008500Y-86854948D01*
X140008500Y-86854947D01*
X140019723Y-86838154D01*
X140019724Y-86838151D01*
X140089452Y-86669813D01*
X140089454Y-86669805D01*
X140124999Y-86491109D01*
X140125000Y-86491106D01*
X140125000Y-86308894D01*
X140124999Y-86308890D01*
X140089454Y-86130194D01*
X140089451Y-86130182D01*
X140019728Y-85961855D01*
X140019725Y-85961849D01*
X140008500Y-85945050D01*
X139553553Y-86399999D01*
X139450000Y-86399999D01*
X139450000Y-86350272D01*
X139411940Y-86258386D01*
X139341614Y-86188060D01*
X139249728Y-86150000D01*
X139150272Y-86150000D01*
X139058386Y-86188060D01*
X138988060Y-86258386D01*
X138950000Y-86350272D01*
X138796719Y-86350272D01*
X138391498Y-85945050D01*
X138336654Y-85950452D01*
X138268008Y-85937433D01*
X138217298Y-85889368D01*
X138200500Y-85827049D01*
X138200500Y-84466533D01*
X138524499Y-84466533D01*
X138550458Y-84597030D01*
X138550461Y-84597040D01*
X138601376Y-84719961D01*
X138601382Y-84719972D01*
X138675641Y-84831110D01*
X138696518Y-84897788D01*
X138678033Y-84965168D01*
X138675641Y-84968890D01*
X138601382Y-85080027D01*
X138601376Y-85080038D01*
X138550461Y-85202959D01*
X138550458Y-85202969D01*
X138524500Y-85333466D01*
X138524500Y-85333469D01*
X138524500Y-85466531D01*
X138524500Y-85466533D01*
X138524499Y-85466533D01*
X138550458Y-85597030D01*
X138550461Y-85597040D01*
X138601376Y-85719961D01*
X138601386Y-85719979D01*
X138675301Y-85830601D01*
X138675307Y-85830609D01*
X138769390Y-85924692D01*
X138769398Y-85924698D01*
X138880020Y-85998613D01*
X138880023Y-85998614D01*
X138880031Y-85998620D01*
X139002964Y-86049540D01*
X139002968Y-86049540D01*
X139002969Y-86049541D01*
X139133466Y-86075500D01*
X139133469Y-86075500D01*
X139266533Y-86075500D01*
X139354325Y-86058035D01*
X139397036Y-86049540D01*
X139519969Y-85998620D01*
X139630606Y-85924695D01*
X139724695Y-85830606D01*
X139798620Y-85719969D01*
X139849540Y-85597036D01*
X139870326Y-85492544D01*
X139875500Y-85466533D01*
X139875500Y-85333466D01*
X139849541Y-85202969D01*
X139849540Y-85202968D01*
X139849540Y-85202964D01*
X139815845Y-85121616D01*
X139798623Y-85080038D01*
X139798622Y-85080037D01*
X139798620Y-85080031D01*
X139786426Y-85061781D01*
X139724359Y-84968890D01*
X139703481Y-84902213D01*
X139721966Y-84834833D01*
X139724359Y-84831110D01*
X139798613Y-84719979D01*
X139798620Y-84719969D01*
X139849540Y-84597036D01*
X139875500Y-84466531D01*
X139875500Y-84333469D01*
X139875500Y-84333466D01*
X139849541Y-84202969D01*
X139849540Y-84202968D01*
X139849540Y-84202964D01*
X139807622Y-84101765D01*
X139800154Y-84032298D01*
X139819081Y-83985426D01*
X139860966Y-83922740D01*
X139875500Y-83849674D01*
X139875500Y-83587135D01*
X142399500Y-83587135D01*
X142399500Y-85182870D01*
X142399501Y-85182876D01*
X142405908Y-85242483D01*
X142456202Y-85377328D01*
X142456206Y-85377335D01*
X142542452Y-85492544D01*
X142542455Y-85492547D01*
X142657664Y-85578793D01*
X142657671Y-85578797D01*
X142792517Y-85629091D01*
X142792516Y-85629091D01*
X142799444Y-85629835D01*
X142852127Y-85635500D01*
X144147872Y-85635499D01*
X144207483Y-85629091D01*
X144342331Y-85578796D01*
X144457546Y-85492546D01*
X144543796Y-85377331D01*
X144594091Y-85242483D01*
X144600500Y-85182873D01*
X144600499Y-84148389D01*
X144899500Y-84148389D01*
X144899500Y-84621610D01*
X144913109Y-84707538D01*
X144926598Y-84792701D01*
X144980127Y-84957445D01*
X145058768Y-85111788D01*
X145160586Y-85251928D01*
X145283072Y-85374414D01*
X145423212Y-85476232D01*
X145577555Y-85554873D01*
X145742299Y-85608402D01*
X145913389Y-85635500D01*
X145913390Y-85635500D01*
X146086610Y-85635500D01*
X146086611Y-85635500D01*
X146257701Y-85608402D01*
X146422445Y-85554873D01*
X146576788Y-85476232D01*
X146716928Y-85374414D01*
X146839414Y-85251928D01*
X146941232Y-85111788D01*
X147019873Y-84957445D01*
X147073402Y-84792701D01*
X147100500Y-84621611D01*
X147100500Y-84148389D01*
X147091207Y-84089717D01*
X158489101Y-84089717D01*
X158524106Y-84265693D01*
X158524109Y-84265703D01*
X158592769Y-84431465D01*
X158592776Y-84431478D01*
X158692459Y-84580663D01*
X158692462Y-84580667D01*
X158819333Y-84707538D01*
X158819337Y-84707541D01*
X158968522Y-84807224D01*
X158968535Y-84807231D01*
X159134297Y-84875891D01*
X159134302Y-84875893D01*
X159146813Y-84878381D01*
X159208724Y-84910765D01*
X159243299Y-84971481D01*
X159239560Y-85041250D01*
X159198695Y-85097923D01*
X159146819Y-85121615D01*
X159134311Y-85124103D01*
X159134297Y-85124107D01*
X158968535Y-85192767D01*
X158968522Y-85192774D01*
X158819337Y-85292457D01*
X158819333Y-85292460D01*
X158692462Y-85419331D01*
X158692459Y-85419335D01*
X158592776Y-85568520D01*
X158592769Y-85568533D01*
X158524109Y-85734295D01*
X158524106Y-85734305D01*
X158489102Y-85910281D01*
X158489102Y-85910284D01*
X158489102Y-86089716D01*
X158489102Y-86089718D01*
X158489101Y-86089718D01*
X158524106Y-86265694D01*
X158524109Y-86265704D01*
X158592769Y-86431466D01*
X158592776Y-86431479D01*
X158692459Y-86580664D01*
X158692462Y-86580668D01*
X158819333Y-86707539D01*
X158819337Y-86707542D01*
X158968522Y-86807225D01*
X158968535Y-86807232D01*
X159096304Y-86860155D01*
X159134302Y-86875894D01*
X159134306Y-86875894D01*
X159134307Y-86875895D01*
X159310283Y-86910900D01*
X159310286Y-86910900D01*
X159489720Y-86910900D01*
X159608112Y-86887349D01*
X159665702Y-86875894D01*
X159831475Y-86807229D01*
X159980667Y-86707542D01*
X160107544Y-86580665D01*
X160207231Y-86431473D01*
X160275896Y-86265700D01*
X160278384Y-86253192D01*
X160310768Y-86191283D01*
X160371484Y-86156709D01*
X160441253Y-86160448D01*
X160497926Y-86201314D01*
X160521617Y-86253191D01*
X160524106Y-86265700D01*
X160524107Y-86265702D01*
X160524107Y-86265704D01*
X160592767Y-86431466D01*
X160592774Y-86431479D01*
X160692457Y-86580664D01*
X160692460Y-86580668D01*
X160819331Y-86707539D01*
X160819335Y-86707542D01*
X160968520Y-86807225D01*
X160968533Y-86807232D01*
X161096302Y-86860155D01*
X161134300Y-86875894D01*
X161134304Y-86875894D01*
X161134305Y-86875895D01*
X161310281Y-86910900D01*
X161310284Y-86910900D01*
X161489718Y-86910900D01*
X161608110Y-86887349D01*
X161665700Y-86875894D01*
X161831473Y-86807229D01*
X161980665Y-86707542D01*
X162107542Y-86580665D01*
X162207229Y-86431473D01*
X162275894Y-86265700D01*
X162278382Y-86253188D01*
X162310766Y-86191278D01*
X162371480Y-86156702D01*
X162441250Y-86160440D01*
X162497923Y-86201305D01*
X162521617Y-86253184D01*
X162524106Y-86265696D01*
X162524108Y-86265704D01*
X162592768Y-86431466D01*
X162592775Y-86431479D01*
X162692458Y-86580664D01*
X162692461Y-86580668D01*
X162819332Y-86707539D01*
X162819336Y-86707542D01*
X162968521Y-86807225D01*
X162968534Y-86807232D01*
X163096303Y-86860155D01*
X163134301Y-86875894D01*
X163134305Y-86875894D01*
X163134306Y-86875895D01*
X163310282Y-86910900D01*
X163310285Y-86910900D01*
X163489719Y-86910900D01*
X163608111Y-86887349D01*
X163665701Y-86875894D01*
X163831474Y-86807229D01*
X163980666Y-86707542D01*
X164107543Y-86580665D01*
X164207230Y-86431473D01*
X164275895Y-86265700D01*
X164278382Y-86253193D01*
X164310765Y-86191283D01*
X164371480Y-86156707D01*
X164441250Y-86160445D01*
X164497923Y-86201310D01*
X164521617Y-86253189D01*
X164524105Y-86265696D01*
X164524107Y-86265704D01*
X164592767Y-86431466D01*
X164592774Y-86431479D01*
X164692457Y-86580664D01*
X164692460Y-86580668D01*
X164819331Y-86707539D01*
X164819335Y-86707542D01*
X164968520Y-86807225D01*
X164968533Y-86807232D01*
X165096302Y-86860155D01*
X165134300Y-86875894D01*
X165134304Y-86875894D01*
X165134305Y-86875895D01*
X165310281Y-86910900D01*
X165310284Y-86910900D01*
X165489718Y-86910900D01*
X165608110Y-86887349D01*
X165665700Y-86875894D01*
X165831473Y-86807229D01*
X165980665Y-86707542D01*
X166107542Y-86580665D01*
X166207229Y-86431473D01*
X166275894Y-86265700D01*
X166297574Y-86156709D01*
X166310900Y-86089718D01*
X166310900Y-85910281D01*
X166275895Y-85734305D01*
X166275894Y-85734304D01*
X166275894Y-85734300D01*
X166234969Y-85635498D01*
X166207232Y-85568533D01*
X166207225Y-85568520D01*
X166107542Y-85419335D01*
X166107539Y-85419331D01*
X165980668Y-85292460D01*
X165980664Y-85292457D01*
X165831479Y-85192774D01*
X165831466Y-85192767D01*
X165665704Y-85124107D01*
X165665696Y-85124105D01*
X165653184Y-85121616D01*
X165591273Y-85089229D01*
X165556701Y-85028512D01*
X165560442Y-84958743D01*
X165601310Y-84902072D01*
X165653188Y-84878381D01*
X165665700Y-84875893D01*
X165831473Y-84807228D01*
X165980665Y-84707541D01*
X166107542Y-84580664D01*
X166207229Y-84431472D01*
X166275894Y-84265699D01*
X166295004Y-84169630D01*
X166310900Y-84089717D01*
X166310900Y-83910280D01*
X166275895Y-83734304D01*
X166275894Y-83734303D01*
X166275894Y-83734299D01*
X166217615Y-83593599D01*
X166207232Y-83568532D01*
X166207225Y-83568519D01*
X166107542Y-83419334D01*
X166107539Y-83419330D01*
X165980668Y-83292459D01*
X165980664Y-83292456D01*
X165831479Y-83192773D01*
X165831466Y-83192766D01*
X165665704Y-83124106D01*
X165665694Y-83124103D01*
X165489718Y-83089099D01*
X165489716Y-83089099D01*
X165310284Y-83089099D01*
X165310282Y-83089099D01*
X165134305Y-83124103D01*
X165134295Y-83124106D01*
X164968533Y-83192766D01*
X164968520Y-83192773D01*
X164819335Y-83292456D01*
X164819331Y-83292459D01*
X164692460Y-83419330D01*
X164692455Y-83419336D01*
X164647746Y-83486247D01*
X164594133Y-83531052D01*
X164524808Y-83539758D01*
X164461781Y-83509602D01*
X164434160Y-83473650D01*
X164392463Y-83391816D01*
X164379532Y-83374019D01*
X164379532Y-83374018D01*
X163806401Y-83947150D01*
X163806401Y-83946495D01*
X163778706Y-83843134D01*
X163725202Y-83750463D01*
X163649537Y-83674798D01*
X163556866Y-83621294D01*
X163453505Y-83593599D01*
X163452848Y-83593599D01*
X164025979Y-83020466D01*
X164008179Y-83007534D01*
X163845444Y-82924615D01*
X163671729Y-82868171D01*
X163491331Y-82839599D01*
X163308671Y-82839599D01*
X163128272Y-82868171D01*
X162954557Y-82924615D01*
X162791814Y-83007538D01*
X162791809Y-83007542D01*
X162774021Y-83020464D01*
X162774021Y-83020467D01*
X163347155Y-83593599D01*
X163346497Y-83593599D01*
X163243136Y-83621294D01*
X163150465Y-83674798D01*
X163074800Y-83750463D01*
X163021296Y-83843134D01*
X162993601Y-83946495D01*
X162993601Y-83947151D01*
X162420469Y-83374019D01*
X162420466Y-83374019D01*
X162407544Y-83391807D01*
X162407537Y-83391818D01*
X162365839Y-83473653D01*
X162317864Y-83524449D01*
X162250043Y-83541243D01*
X162183908Y-83518705D01*
X162152253Y-83486248D01*
X162107542Y-83419334D01*
X162107539Y-83419330D01*
X161980668Y-83292459D01*
X161980664Y-83292456D01*
X161831479Y-83192773D01*
X161831469Y-83192768D01*
X161806163Y-83182286D01*
X161806161Y-83182285D01*
X161665704Y-83124106D01*
X161665694Y-83124103D01*
X161489718Y-83089099D01*
X161489716Y-83089099D01*
X161310284Y-83089099D01*
X161310282Y-83089099D01*
X161134305Y-83124103D01*
X161134295Y-83124106D01*
X160968533Y-83192766D01*
X160968520Y-83192773D01*
X160819335Y-83292456D01*
X160819331Y-83292459D01*
X160692460Y-83419330D01*
X160692457Y-83419334D01*
X160592774Y-83568519D01*
X160592767Y-83568532D01*
X160524107Y-83734294D01*
X160524104Y-83734304D01*
X160521618Y-83746805D01*
X160489233Y-83808716D01*
X160428517Y-83843290D01*
X160358747Y-83839550D01*
X160302076Y-83798683D01*
X160278384Y-83746805D01*
X160275897Y-83734304D01*
X160275896Y-83734303D01*
X160275896Y-83734299D01*
X160217617Y-83593599D01*
X160207234Y-83568532D01*
X160207227Y-83568519D01*
X160107544Y-83419334D01*
X160107541Y-83419330D01*
X159980670Y-83292459D01*
X159980666Y-83292456D01*
X159831481Y-83192773D01*
X159831468Y-83192766D01*
X159665706Y-83124106D01*
X159665696Y-83124103D01*
X159489720Y-83089099D01*
X159489718Y-83089099D01*
X159310286Y-83089099D01*
X159310284Y-83089099D01*
X159134307Y-83124103D01*
X159134297Y-83124106D01*
X158968535Y-83192766D01*
X158968522Y-83192773D01*
X158819337Y-83292456D01*
X158819333Y-83292459D01*
X158692462Y-83419330D01*
X158692459Y-83419334D01*
X158592776Y-83568519D01*
X158592769Y-83568532D01*
X158524109Y-83734294D01*
X158524106Y-83734304D01*
X158489102Y-83910280D01*
X158489102Y-83910283D01*
X158489102Y-84089715D01*
X158489102Y-84089717D01*
X158489101Y-84089717D01*
X147091207Y-84089717D01*
X147073402Y-83977299D01*
X147019873Y-83812555D01*
X146941232Y-83658212D01*
X146839414Y-83518072D01*
X146716928Y-83395586D01*
X146576788Y-83293768D01*
X146422445Y-83215127D01*
X146257701Y-83161598D01*
X146257699Y-83161597D01*
X146257698Y-83161597D01*
X146126271Y-83140781D01*
X146086611Y-83134500D01*
X145913389Y-83134500D01*
X145873728Y-83140781D01*
X145742302Y-83161597D01*
X145577552Y-83215128D01*
X145423211Y-83293768D01*
X145343256Y-83351859D01*
X145283072Y-83395586D01*
X145283070Y-83395588D01*
X145283069Y-83395588D01*
X145160588Y-83518069D01*
X145160588Y-83518070D01*
X145160586Y-83518072D01*
X145123934Y-83568519D01*
X145058768Y-83658211D01*
X144980128Y-83812552D01*
X144926597Y-83977302D01*
X144899500Y-84148389D01*
X144600499Y-84148389D01*
X144600499Y-83587128D01*
X144594091Y-83527517D01*
X144590804Y-83518705D01*
X144543797Y-83392671D01*
X144543793Y-83392664D01*
X144457547Y-83277455D01*
X144457544Y-83277452D01*
X144342335Y-83191206D01*
X144342328Y-83191202D01*
X144207482Y-83140908D01*
X144207483Y-83140908D01*
X144147883Y-83134501D01*
X144147881Y-83134500D01*
X144147873Y-83134500D01*
X144147864Y-83134500D01*
X142852129Y-83134500D01*
X142852123Y-83134501D01*
X142792516Y-83140908D01*
X142657671Y-83191202D01*
X142657664Y-83191206D01*
X142542455Y-83277452D01*
X142542452Y-83277455D01*
X142456206Y-83392664D01*
X142456202Y-83392671D01*
X142405908Y-83527517D01*
X142401499Y-83568532D01*
X142399501Y-83587123D01*
X142399500Y-83587135D01*
X139875500Y-83587135D01*
X139875500Y-82950326D01*
X139875500Y-82950323D01*
X139875499Y-82950321D01*
X139860967Y-82877264D01*
X139860966Y-82877260D01*
X139835802Y-82839599D01*
X139805601Y-82794399D01*
X139722740Y-82739034D01*
X139722739Y-82739033D01*
X139722735Y-82739032D01*
X139649677Y-82724500D01*
X139649674Y-82724500D01*
X138750326Y-82724500D01*
X138750323Y-82724500D01*
X138677264Y-82739032D01*
X138677260Y-82739033D01*
X138594399Y-82794399D01*
X138539033Y-82877260D01*
X138539032Y-82877264D01*
X138524500Y-82950321D01*
X138524500Y-83849678D01*
X138539032Y-83922735D01*
X138539033Y-83922739D01*
X138539034Y-83922740D01*
X138580918Y-83985425D01*
X138601795Y-84052101D01*
X138592377Y-84101765D01*
X138550460Y-84202964D01*
X138550458Y-84202969D01*
X138524500Y-84333466D01*
X138524500Y-84333469D01*
X138524500Y-84466531D01*
X138524500Y-84466533D01*
X138524499Y-84466533D01*
X138200500Y-84466533D01*
X138200500Y-82006092D01*
X138201097Y-81993939D01*
X138209805Y-81905519D01*
X138214665Y-81856173D01*
X138219403Y-81832349D01*
X138257816Y-81705719D01*
X138267113Y-81683278D01*
X138329485Y-81566587D01*
X138342982Y-81546387D01*
X138426924Y-81444103D01*
X138444103Y-81426924D01*
X138546387Y-81342982D01*
X138566587Y-81329485D01*
X138683278Y-81267113D01*
X138705719Y-81257816D01*
X138832349Y-81219403D01*
X138856173Y-81214665D01*
X138985170Y-81201960D01*
X138993939Y-81201097D01*
X139006092Y-81200500D01*
X139039882Y-81200500D01*
X156450902Y-81200500D01*
X156517941Y-81220185D01*
G37*
%TD.AperFunction*%
%TD*%
M02*
