M48
; DRILL file {KiCad 9.0.2} date 2025-07-07T17:27:54-0400
; FORMAT={-:-/ absolute / metric / decimal}
; #@! TF.CreationDate,2025-07-07T17:27:54-04:00
; #@! TF.GenerationSoftware,Kicad,Pcbnew,9.0.2
; #@! TF.FileFunction,Plated,1,4,PTH
FMAT,2
METRIC
; #@! TA.AperFunction,Plated,PTH,ViaDrill
T1C0.300
; #@! TA.AperFunction,Plated,PTH,ComponentDrill
T2C0.500
; #@! TA.AperFunction,Plated,PTH,ComponentDrill
T3C0.650
; #@! TA.AperFunction,Plated,PTH,ComponentDrill
T4C0.813
; #@! TA.AperFunction,Plated,PTH,ComponentDrill
T5C1.000
%
G90
G05
T1
X138.8Y-102.1
X138.9Y-98.0
X139.0Y-104.5
X139.6Y-117.2
X140.3Y-100.7
X140.4Y-111.4
X140.6Y-99.8
X140.65Y-96.85
X141.0Y-117.0
X141.138Y-93.3
X141.5Y-96.8
X141.52Y-97.72
X141.55Y-87.95
X141.6Y-99.0
X141.739Y-95.139
X141.804Y-87.087
X142.7Y-94.1
X142.8Y-100.2
X143.8Y-108.8
X145.0Y-93.3
X145.0Y-97.6
X146.1Y-103.5
X146.3Y-104.9
X146.4Y-99.2
X146.4Y-117.3
X146.6Y-95.8
X147.2Y-105.7
X147.28Y-109.32
X147.5Y-99.9
X147.85Y-112.7
X147.899Y-89.722
X148.4Y-104.8
X148.449Y-94.448
X148.8Y-110.1
X149.0Y-89.7
X149.28Y-94.104
X149.6Y-95.2
X150.35Y-96.55
X150.4Y-105.8
X150.6Y-107.2
X150.6Y-108.1
X151.02Y-94.83
X152.1Y-102.4
X152.4Y-89.1
X152.8Y-100.8
X152.97Y-94.97
X153.199Y-87.0
X153.3Y-96.0
X153.4Y-109.0
X153.5Y-85.0
X153.9Y-88.6
X154.0Y-94.9
X154.2Y-100.5
X154.8Y-89.5
X155.03Y-103.861
X155.3Y-98.7
X155.35Y-97.35
X155.4Y-87.2
X155.4Y-91.7
X155.6Y-90.4
X156.2Y-96.7
X156.4Y-103.2
X156.5Y-106.0
X156.6Y-108.4
X156.692Y-101.7
X157.0Y-81.8
X157.5Y-92.6
X157.8Y-100.9
X158.0Y-91.673
X158.2Y-94.8
X158.361Y-96.761
X158.404Y-98.008
X158.748Y-90.048
X159.0Y-101.38
X159.2Y-111.3
X159.6Y-117.35
X161.2Y-92.8
X161.2Y-98.0
X161.3Y-101.0
X161.74Y-93.34
X161.864Y-100.464
X162.0Y-92.8
X163.4Y-88.7
X163.6Y-94.6
X163.6Y-95.2
X164.0Y-101.4
X164.2Y-95.2
X164.5Y-111.0
X166.0Y-91.65
X166.6Y-117.3
X167.3Y-94.8
X167.45Y-89.4
T2
X139.2Y-83.4
X139.2Y-84.4
X139.2Y-85.4
X139.2Y-86.4
X139.4Y-106.6
X139.4Y-107.6
X139.4Y-108.6
X139.4Y-109.6
T3
X139.62Y-90.33
X139.62Y-91.6
X140.89Y-90.33
X140.89Y-91.6
X142.16Y-90.33
X142.16Y-91.6
X143.43Y-90.33
X143.43Y-91.6
X144.7Y-90.33
X144.7Y-91.6
T4
X159.4Y-84.0
X159.4Y-86.0
X159.422Y-105.95
X159.422Y-107.95
X161.4Y-84.0
X161.4Y-86.0
X161.422Y-105.95
X161.422Y-107.95
X163.4Y-84.0
X163.4Y-86.0
X163.422Y-105.95
X163.422Y-107.95
X165.4Y-84.0
X165.4Y-86.0
X165.422Y-105.95
X165.422Y-107.95
T5
X143.5Y-84.385
X146.0Y-84.385
M30
