%TF.GenerationSoftware,KiCad,Pcbnew,9.0.2*%
%TF.CreationDate,2025-07-07T17:27:58-04:00*%
%TF.ProjectId,Cain_V1.0,4361696e-5f56-4312-9e30-2e6b69636164,rev?*%
%TF.SameCoordinates,Original*%
%TF.FileFunction,Paste,Bot*%
%TF.FilePolarity,Positive*%
%FSLAX46Y46*%
G04 Gerber Fmt 4.6, Leading zero omitted, Abs format (unit mm)*
G04 Created by KiCad (PCBNEW 9.0.2) date 2025-07-07 17:27:58*
%MOMM*%
%LPD*%
G01*
G04 APERTURE LIST*
G04 Aperture macros list*
%AMRoundRect*
0 Rectangle with rounded corners*
0 $1 Rounding radius*
0 $2 $3 $4 $5 $6 $7 $8 $9 X,Y pos of 4 corners*
0 Add a 4 corners polygon primitive as box body*
4,1,4,$2,$3,$4,$5,$6,$7,$8,$9,$2,$3,0*
0 Add four circle primitives for the rounded corners*
1,1,$1+$1,$2,$3*
1,1,$1+$1,$4,$5*
1,1,$1+$1,$6,$7*
1,1,$1+$1,$8,$9*
0 Add four rect primitives between the rounded corners*
20,1,$1+$1,$2,$3,$4,$5,0*
20,1,$1+$1,$4,$5,$6,$7,0*
20,1,$1+$1,$6,$7,$8,$9,0*
20,1,$1+$1,$8,$9,$2,$3,0*%
G04 Aperture macros list end*
%ADD10RoundRect,0.125000X-0.687500X-0.125000X0.687500X-0.125000X0.687500X0.125000X-0.687500X0.125000X0*%
%ADD11RoundRect,0.140000X-0.170000X0.140000X-0.170000X-0.140000X0.170000X-0.140000X0.170000X0.140000X0*%
%ADD12RoundRect,0.135000X-0.135000X-0.185000X0.135000X-0.185000X0.135000X0.185000X-0.135000X0.185000X0*%
%ADD13RoundRect,0.140000X0.170000X-0.140000X0.170000X0.140000X-0.170000X0.140000X-0.170000X-0.140000X0*%
%ADD14RoundRect,0.250000X0.625000X-0.312500X0.625000X0.312500X-0.625000X0.312500X-0.625000X-0.312500X0*%
%ADD15RoundRect,0.140000X0.140000X0.170000X-0.140000X0.170000X-0.140000X-0.170000X0.140000X-0.170000X0*%
%ADD16RoundRect,0.225000X-0.225000X-0.250000X0.225000X-0.250000X0.225000X0.250000X-0.225000X0.250000X0*%
%ADD17RoundRect,0.250000X-0.375000X-1.075000X0.375000X-1.075000X0.375000X1.075000X-0.375000X1.075000X0*%
%ADD18RoundRect,0.135000X0.135000X0.185000X-0.135000X0.185000X-0.135000X-0.185000X0.135000X-0.185000X0*%
%ADD19RoundRect,0.135000X-0.185000X0.135000X-0.185000X-0.135000X0.185000X-0.135000X0.185000X0.135000X0*%
%ADD20RoundRect,0.135000X0.185000X-0.135000X0.185000X0.135000X-0.185000X0.135000X-0.185000X-0.135000X0*%
%ADD21RoundRect,0.135000X0.035355X-0.226274X0.226274X-0.035355X-0.035355X0.226274X-0.226274X0.035355X0*%
%ADD22RoundRect,0.150000X-0.825000X-0.150000X0.825000X-0.150000X0.825000X0.150000X-0.825000X0.150000X0*%
%ADD23RoundRect,0.225000X0.250000X-0.225000X0.250000X0.225000X-0.250000X0.225000X-0.250000X-0.225000X0*%
%ADD24RoundRect,0.140000X-0.140000X-0.170000X0.140000X-0.170000X0.140000X0.170000X-0.140000X0.170000X0*%
%ADD25RoundRect,0.150000X0.150000X-0.512500X0.150000X0.512500X-0.150000X0.512500X-0.150000X-0.512500X0*%
%ADD26R,2.000000X1.000000*%
%ADD27RoundRect,0.112500X0.112500X0.237500X-0.112500X0.237500X-0.112500X-0.237500X0.112500X-0.237500X0*%
%ADD28RoundRect,0.375000X0.375000X-0.625000X0.375000X0.625000X-0.375000X0.625000X-0.375000X-0.625000X0*%
%ADD29RoundRect,0.500000X1.400000X-0.500000X1.400000X0.500000X-1.400000X0.500000X-1.400000X-0.500000X0*%
%ADD30RoundRect,0.112500X-0.112500X-0.237500X0.112500X-0.237500X0.112500X0.237500X-0.112500X0.237500X0*%
G04 APERTURE END LIST*
D10*
%TO.C,U4*%
X148487500Y-107775000D03*
X148487500Y-107125000D03*
X148487500Y-106475000D03*
X148487500Y-105825000D03*
X152712500Y-105825000D03*
X152712500Y-106475000D03*
X152712500Y-107125000D03*
X152712500Y-107775000D03*
%TD*%
D11*
%TO.C,C18*%
X154600000Y-107320000D03*
X154600000Y-108280000D03*
%TD*%
D12*
%TO.C,R5*%
X150090000Y-93800000D03*
X151110000Y-93800000D03*
%TD*%
D13*
%TO.C,C15*%
X167200000Y-96980000D03*
X167200000Y-96020000D03*
%TD*%
%TO.C,C13*%
X157500000Y-96580000D03*
X157500000Y-95620000D03*
%TD*%
D14*
%TO.C,R15*%
X163000000Y-93600000D03*
X163000000Y-90675000D03*
%TD*%
D15*
%TO.C,C20*%
X153280000Y-104400000D03*
X152320000Y-104400000D03*
%TD*%
D16*
%TO.C,C16*%
X144225000Y-86600000D03*
X145775000Y-86600000D03*
%TD*%
D17*
%TO.C,F1*%
X157800000Y-103200000D03*
X160600000Y-103200000D03*
%TD*%
D18*
%TO.C,R4*%
X153710000Y-93800000D03*
X152690000Y-93800000D03*
%TD*%
D19*
%TO.C,R17*%
X139100000Y-99390000D03*
X139100000Y-100410000D03*
%TD*%
D20*
%TO.C,R8*%
X154600000Y-105910000D03*
X154600000Y-104890000D03*
%TD*%
D21*
%TO.C,R1*%
X146439376Y-97160624D03*
X147160624Y-96439376D03*
%TD*%
D22*
%TO.C,U5*%
X144525000Y-103105000D03*
X144525000Y-101835000D03*
X144525000Y-100565000D03*
X144525000Y-99295000D03*
X149475000Y-99295000D03*
X149475000Y-100565000D03*
X149475000Y-101835000D03*
X149475000Y-103105000D03*
%TD*%
D23*
%TO.C,C1*%
X142800000Y-97375000D03*
X142800000Y-95825000D03*
%TD*%
D24*
%TO.C,C12*%
X148320000Y-97800000D03*
X149280000Y-97800000D03*
%TD*%
D11*
%TO.C,C14*%
X157500000Y-97620000D03*
X157500000Y-98580000D03*
%TD*%
D25*
%TO.C,U6*%
X166950000Y-93337500D03*
X166000000Y-93337500D03*
X165050000Y-93337500D03*
X165050000Y-91062500D03*
X166950000Y-91062500D03*
%TD*%
D26*
%TO.C,U3*%
X157590000Y-111460000D03*
X157590000Y-114000000D03*
X157590000Y-116540000D03*
X148410000Y-116540000D03*
X148410000Y-114000000D03*
X148410000Y-111460000D03*
%TD*%
D19*
%TO.C,R6*%
X154400000Y-96040000D03*
X154400000Y-97060000D03*
%TD*%
D27*
%TO.C,D5*%
X165750000Y-103700000D03*
X164450000Y-103700000D03*
X165100000Y-101700000D03*
%TD*%
D12*
%TO.C,R7*%
X150090000Y-109200000D03*
X151110000Y-109200000D03*
%TD*%
D22*
%TO.C,U2*%
X159625000Y-100005000D03*
X159625000Y-98735000D03*
X159625000Y-97465000D03*
X159625000Y-96195000D03*
X164575000Y-96195000D03*
X164575000Y-97465000D03*
X164575000Y-98735000D03*
X164575000Y-100005000D03*
%TD*%
D18*
%TO.C,R3*%
X163110000Y-101800000D03*
X162090000Y-101800000D03*
%TD*%
D15*
%TO.C,C19*%
X151080000Y-104400000D03*
X150120000Y-104400000D03*
%TD*%
%TO.C,C22*%
X166480000Y-89400000D03*
X165520000Y-89400000D03*
%TD*%
D28*
%TO.C,Q1*%
X152900000Y-91550000D03*
X150600000Y-91550000D03*
D29*
X150600000Y-85250000D03*
D28*
X148300000Y-91550000D03*
%TD*%
D13*
%TO.C,C21*%
X151400000Y-103080000D03*
X151400000Y-102120000D03*
%TD*%
D20*
%TO.C,R14*%
X154400000Y-99260000D03*
X154400000Y-98240000D03*
%TD*%
D30*
%TO.C,D1*%
X159750000Y-87900000D03*
X161050000Y-87900000D03*
X160400000Y-89900000D03*
%TD*%
M02*
