%TF.GenerationSoftware,KiCad,Pcbnew,9.0.2*%
%TF.CreationDate,2025-07-07T17:27:58-04:00*%
%TF.ProjectId,Cain_V1.0,4361696e-5f56-4312-9e30-2e6b69636164,rev?*%
%TF.SameCoordinates,Original*%
%TF.FileFunction,Legend,Top*%
%TF.FilePolarity,Positive*%
%FSLAX46Y46*%
G04 Gerber Fmt 4.6, Leading zero omitted, Abs format (unit mm)*
G04 Created by KiCad (PCBNEW 9.0.2) date 2025-07-07 17:27:58*
%MOMM*%
%LPD*%
G01*
G04 APERTURE LIST*
G04 Aperture macros list*
%AMRoundRect*
0 Rectangle with rounded corners*
0 $1 Rounding radius*
0 $2 $3 $4 $5 $6 $7 $8 $9 X,Y pos of 4 corners*
0 Add a 4 corners polygon primitive as box body*
4,1,4,$2,$3,$4,$5,$6,$7,$8,$9,$2,$3,0*
0 Add four circle primitives for the rounded corners*
1,1,$1+$1,$2,$3*
1,1,$1+$1,$4,$5*
1,1,$1+$1,$6,$7*
1,1,$1+$1,$8,$9*
0 Add four rect primitives between the rounded corners*
20,1,$1+$1,$2,$3,$4,$5,0*
20,1,$1+$1,$4,$5,$6,$7,0*
20,1,$1+$1,$6,$7,$8,$9,0*
20,1,$1+$1,$8,$9,$2,$3,0*%
G04 Aperture macros list end*
%ADD10C,0.153000*%
%ADD11C,0.300000*%
%ADD12C,0.120000*%
%ADD13C,0.152400*%
%ADD14C,0.100000*%
%ADD15C,0.150000*%
%ADD16RoundRect,0.218750X0.256250X-0.218750X0.256250X0.218750X-0.256250X0.218750X-0.256250X-0.218750X0*%
%ADD17RoundRect,0.250000X-1.202082X-0.141421X-0.141421X-1.202082X1.202082X0.141421X0.141421X1.202082X0*%
%ADD18RoundRect,0.218750X-0.256250X0.218750X-0.256250X-0.218750X0.256250X-0.218750X0.256250X0.218750X0*%
%ADD19C,1.000000*%
%ADD20RoundRect,0.140000X-0.219203X-0.021213X-0.021213X-0.219203X0.219203X0.021213X0.021213X0.219203X0*%
%ADD21RoundRect,0.135000X-0.185000X0.135000X-0.185000X-0.135000X0.185000X-0.135000X0.185000X0.135000X0*%
%ADD22RoundRect,0.075000X-0.441942X-0.548008X0.548008X0.441942X0.441942X0.548008X-0.548008X-0.441942X0*%
%ADD23RoundRect,0.075000X0.441942X-0.548008X0.548008X-0.441942X-0.441942X0.548008X-0.548008X0.441942X0*%
%ADD24C,3.200000*%
%ADD25RoundRect,0.135000X-0.135000X-0.185000X0.135000X-0.185000X0.135000X0.185000X-0.135000X0.185000X0*%
%ADD26C,1.320800*%
%ADD27RoundRect,0.250000X-0.312500X-1.450000X0.312500X-1.450000X0.312500X1.450000X-0.312500X1.450000X0*%
%ADD28R,1.000000X1.000000*%
%ADD29RoundRect,0.135000X0.185000X-0.135000X0.185000X0.135000X-0.185000X0.135000X-0.185000X-0.135000X0*%
%ADD30R,0.850000X0.850000*%
%ADD31C,0.850000*%
%ADD32RoundRect,0.140000X-0.140000X-0.170000X0.140000X-0.170000X0.140000X0.170000X-0.140000X0.170000X0*%
%ADD33RoundRect,0.135000X0.035355X-0.226274X0.226274X-0.035355X-0.035355X0.226274X-0.226274X0.035355X0*%
%ADD34R,2.500000X1.270000*%
%ADD35RoundRect,0.140000X-0.021213X0.219203X-0.219203X0.021213X0.021213X-0.219203X0.219203X-0.021213X0*%
%ADD36RoundRect,0.135000X0.226274X0.035355X0.035355X0.226274X-0.226274X-0.035355X-0.035355X-0.226274X0*%
%ADD37RoundRect,0.250000X-0.650000X1.000000X-0.650000X-1.000000X0.650000X-1.000000X0.650000X1.000000X0*%
%ADD38RoundRect,0.250000X-0.600000X-0.750000X0.600000X-0.750000X0.600000X0.750000X-0.600000X0.750000X0*%
%ADD39O,1.700000X2.000000*%
%ADD40RoundRect,0.140000X0.219203X0.021213X0.021213X0.219203X-0.219203X-0.021213X-0.021213X-0.219203X0*%
%ADD41R,0.450000X0.450000*%
%ADD42RoundRect,0.140000X0.170000X-0.140000X0.170000X0.140000X-0.170000X0.140000X-0.170000X-0.140000X0*%
%ADD43RoundRect,0.140000X0.021213X-0.219203X0.219203X-0.021213X-0.021213X0.219203X-0.219203X0.021213X0*%
G04 APERTURE END LIST*
D10*
X140691133Y-107942044D02*
X140833990Y-107989663D01*
X140833990Y-107989663D02*
X141072085Y-107989663D01*
X141072085Y-107989663D02*
X141167323Y-107942044D01*
X141167323Y-107942044D02*
X141214942Y-107894424D01*
X141214942Y-107894424D02*
X141262561Y-107799186D01*
X141262561Y-107799186D02*
X141262561Y-107703948D01*
X141262561Y-107703948D02*
X141214942Y-107608710D01*
X141214942Y-107608710D02*
X141167323Y-107561091D01*
X141167323Y-107561091D02*
X141072085Y-107513472D01*
X141072085Y-107513472D02*
X140881609Y-107465853D01*
X140881609Y-107465853D02*
X140786371Y-107418234D01*
X140786371Y-107418234D02*
X140738752Y-107370615D01*
X140738752Y-107370615D02*
X140691133Y-107275377D01*
X140691133Y-107275377D02*
X140691133Y-107180139D01*
X140691133Y-107180139D02*
X140738752Y-107084901D01*
X140738752Y-107084901D02*
X140786371Y-107037282D01*
X140786371Y-107037282D02*
X140881609Y-106989663D01*
X140881609Y-106989663D02*
X141119704Y-106989663D01*
X141119704Y-106989663D02*
X141262561Y-107037282D01*
X142262561Y-107894424D02*
X142214942Y-107942044D01*
X142214942Y-107942044D02*
X142072085Y-107989663D01*
X142072085Y-107989663D02*
X141976847Y-107989663D01*
X141976847Y-107989663D02*
X141833990Y-107942044D01*
X141833990Y-107942044D02*
X141738752Y-107846805D01*
X141738752Y-107846805D02*
X141691133Y-107751567D01*
X141691133Y-107751567D02*
X141643514Y-107561091D01*
X141643514Y-107561091D02*
X141643514Y-107418234D01*
X141643514Y-107418234D02*
X141691133Y-107227758D01*
X141691133Y-107227758D02*
X141738752Y-107132520D01*
X141738752Y-107132520D02*
X141833990Y-107037282D01*
X141833990Y-107037282D02*
X141976847Y-106989663D01*
X141976847Y-106989663D02*
X142072085Y-106989663D01*
X142072085Y-106989663D02*
X142214942Y-107037282D01*
X142214942Y-107037282D02*
X142262561Y-107084901D01*
X143167323Y-107989663D02*
X142691133Y-107989663D01*
X142691133Y-107989663D02*
X142691133Y-106989663D01*
X140691133Y-109272044D02*
X140833990Y-109319663D01*
X140833990Y-109319663D02*
X141072085Y-109319663D01*
X141072085Y-109319663D02*
X141167323Y-109272044D01*
X141167323Y-109272044D02*
X141214942Y-109224424D01*
X141214942Y-109224424D02*
X141262561Y-109129186D01*
X141262561Y-109129186D02*
X141262561Y-109033948D01*
X141262561Y-109033948D02*
X141214942Y-108938710D01*
X141214942Y-108938710D02*
X141167323Y-108891091D01*
X141167323Y-108891091D02*
X141072085Y-108843472D01*
X141072085Y-108843472D02*
X140881609Y-108795853D01*
X140881609Y-108795853D02*
X140786371Y-108748234D01*
X140786371Y-108748234D02*
X140738752Y-108700615D01*
X140738752Y-108700615D02*
X140691133Y-108605377D01*
X140691133Y-108605377D02*
X140691133Y-108510139D01*
X140691133Y-108510139D02*
X140738752Y-108414901D01*
X140738752Y-108414901D02*
X140786371Y-108367282D01*
X140786371Y-108367282D02*
X140881609Y-108319663D01*
X140881609Y-108319663D02*
X141119704Y-108319663D01*
X141119704Y-108319663D02*
X141262561Y-108367282D01*
X141691133Y-109319663D02*
X141691133Y-108319663D01*
X141691133Y-108319663D02*
X141929228Y-108319663D01*
X141929228Y-108319663D02*
X142072085Y-108367282D01*
X142072085Y-108367282D02*
X142167323Y-108462520D01*
X142167323Y-108462520D02*
X142214942Y-108557758D01*
X142214942Y-108557758D02*
X142262561Y-108748234D01*
X142262561Y-108748234D02*
X142262561Y-108891091D01*
X142262561Y-108891091D02*
X142214942Y-109081567D01*
X142214942Y-109081567D02*
X142167323Y-109176805D01*
X142167323Y-109176805D02*
X142072085Y-109272044D01*
X142072085Y-109272044D02*
X141929228Y-109319663D01*
X141929228Y-109319663D02*
X141691133Y-109319663D01*
X142643514Y-109033948D02*
X143119704Y-109033948D01*
X142548276Y-109319663D02*
X142881609Y-108319663D01*
X142881609Y-108319663D02*
X143214942Y-109319663D01*
X157838752Y-110869663D02*
X157838752Y-109869663D01*
X157838752Y-109869663D02*
X158410180Y-110869663D01*
X158410180Y-110869663D02*
X158410180Y-109869663D01*
X159457799Y-110869663D02*
X159124466Y-110393472D01*
X158886371Y-110869663D02*
X158886371Y-109869663D01*
X158886371Y-109869663D02*
X159267323Y-109869663D01*
X159267323Y-109869663D02*
X159362561Y-109917282D01*
X159362561Y-109917282D02*
X159410180Y-109964901D01*
X159410180Y-109964901D02*
X159457799Y-110060139D01*
X159457799Y-110060139D02*
X159457799Y-110202996D01*
X159457799Y-110202996D02*
X159410180Y-110298234D01*
X159410180Y-110298234D02*
X159362561Y-110345853D01*
X159362561Y-110345853D02*
X159267323Y-110393472D01*
X159267323Y-110393472D02*
X158886371Y-110393472D01*
X159838752Y-110822044D02*
X159981609Y-110869663D01*
X159981609Y-110869663D02*
X160219704Y-110869663D01*
X160219704Y-110869663D02*
X160314942Y-110822044D01*
X160314942Y-110822044D02*
X160362561Y-110774424D01*
X160362561Y-110774424D02*
X160410180Y-110679186D01*
X160410180Y-110679186D02*
X160410180Y-110583948D01*
X160410180Y-110583948D02*
X160362561Y-110488710D01*
X160362561Y-110488710D02*
X160314942Y-110441091D01*
X160314942Y-110441091D02*
X160219704Y-110393472D01*
X160219704Y-110393472D02*
X160029228Y-110345853D01*
X160029228Y-110345853D02*
X159933990Y-110298234D01*
X159933990Y-110298234D02*
X159886371Y-110250615D01*
X159886371Y-110250615D02*
X159838752Y-110155377D01*
X159838752Y-110155377D02*
X159838752Y-110060139D01*
X159838752Y-110060139D02*
X159886371Y-109964901D01*
X159886371Y-109964901D02*
X159933990Y-109917282D01*
X159933990Y-109917282D02*
X160029228Y-109869663D01*
X160029228Y-109869663D02*
X160267323Y-109869663D01*
X160267323Y-109869663D02*
X160410180Y-109917282D01*
X160695895Y-109869663D02*
X161267323Y-109869663D01*
X160981609Y-110869663D02*
X160981609Y-109869663D01*
X165643514Y-89069663D02*
X166262561Y-89069663D01*
X166262561Y-89069663D02*
X165929228Y-89450615D01*
X165929228Y-89450615D02*
X166072085Y-89450615D01*
X166072085Y-89450615D02*
X166167323Y-89498234D01*
X166167323Y-89498234D02*
X166214942Y-89545853D01*
X166214942Y-89545853D02*
X166262561Y-89641091D01*
X166262561Y-89641091D02*
X166262561Y-89879186D01*
X166262561Y-89879186D02*
X166214942Y-89974424D01*
X166214942Y-89974424D02*
X166167323Y-90022044D01*
X166167323Y-90022044D02*
X166072085Y-90069663D01*
X166072085Y-90069663D02*
X165786371Y-90069663D01*
X165786371Y-90069663D02*
X165691133Y-90022044D01*
X165691133Y-90022044D02*
X165643514Y-89974424D01*
X166548276Y-89069663D02*
X166881609Y-90069663D01*
X166881609Y-90069663D02*
X167214942Y-89069663D01*
D11*
G36*
X164155658Y-102565535D02*
G01*
X164192662Y-102602539D01*
X164237368Y-102691951D01*
X164237368Y-102835418D01*
X164192661Y-102924831D01*
X164155656Y-102961836D01*
X164066244Y-103006542D01*
X163680225Y-103006542D01*
X163680225Y-102520828D01*
X164066244Y-102520828D01*
X164155658Y-102565535D01*
G37*
G36*
X167558297Y-104187495D02*
G01*
X160927843Y-104187495D01*
X160927843Y-102370828D01*
X161094510Y-102370828D01*
X161094510Y-103870828D01*
X161097392Y-103900092D01*
X161119790Y-103954164D01*
X161161174Y-103995548D01*
X161215246Y-104017946D01*
X161273774Y-104017946D01*
X161327846Y-103995548D01*
X161369230Y-103954164D01*
X161391628Y-103900092D01*
X161394510Y-103870828D01*
X161394510Y-102370828D01*
X161808796Y-102370828D01*
X161808796Y-103870828D01*
X161811678Y-103900092D01*
X161834076Y-103954164D01*
X161875460Y-103995548D01*
X161929532Y-104017946D01*
X161988060Y-104017946D01*
X162042132Y-103995548D01*
X162083516Y-103954164D01*
X162105914Y-103900092D01*
X162108796Y-103870828D01*
X162108796Y-102935661D01*
X162685703Y-103945249D01*
X162690080Y-103951416D01*
X162691219Y-103954164D01*
X162694018Y-103956963D01*
X162702724Y-103969227D01*
X162718497Y-103981442D01*
X162732603Y-103995548D01*
X162741436Y-103999206D01*
X162748998Y-104005063D01*
X162768246Y-104010312D01*
X162786675Y-104017946D01*
X162796237Y-104017946D01*
X162805462Y-104020462D01*
X162825253Y-104017946D01*
X162845203Y-104017946D01*
X162854036Y-104014286D01*
X162863522Y-104013081D01*
X162880844Y-104003182D01*
X162899275Y-103995548D01*
X162906035Y-103988787D01*
X162914338Y-103984043D01*
X162926551Y-103968271D01*
X162940659Y-103954164D01*
X162944318Y-103945328D01*
X162950173Y-103937769D01*
X162955421Y-103918524D01*
X162963057Y-103900092D01*
X162964530Y-103885127D01*
X162965573Y-103881306D01*
X162965197Y-103878354D01*
X162965939Y-103870828D01*
X162965939Y-102370828D01*
X163380225Y-102370828D01*
X163380225Y-103870828D01*
X163383107Y-103900092D01*
X163405505Y-103954164D01*
X163446889Y-103995548D01*
X163500961Y-104017946D01*
X163559489Y-104017946D01*
X163613561Y-103995548D01*
X163654945Y-103954164D01*
X163677343Y-103900092D01*
X163680225Y-103870828D01*
X163680225Y-103306542D01*
X164101654Y-103306542D01*
X164130918Y-103303660D01*
X164135896Y-103301597D01*
X164141272Y-103301216D01*
X164168736Y-103290706D01*
X164311593Y-103219278D01*
X164324186Y-103211350D01*
X164327846Y-103209835D01*
X164331965Y-103206453D01*
X164336479Y-103203613D01*
X164339075Y-103200619D01*
X164350577Y-103191180D01*
X164422006Y-103119751D01*
X164431447Y-103108246D01*
X164434439Y-103105652D01*
X164437277Y-103101142D01*
X164440661Y-103097020D01*
X164442177Y-103093358D01*
X164450104Y-103080767D01*
X164521532Y-102937909D01*
X164532042Y-102910446D01*
X164532423Y-102905070D01*
X164534486Y-102900092D01*
X164537368Y-102870828D01*
X164537368Y-102656542D01*
X164534486Y-102627278D01*
X164532423Y-102622299D01*
X164532042Y-102616924D01*
X164521532Y-102589461D01*
X164450104Y-102446603D01*
X164442175Y-102434008D01*
X164440660Y-102430349D01*
X164437278Y-102426228D01*
X164434439Y-102421718D01*
X164431447Y-102419123D01*
X164422005Y-102407618D01*
X164385214Y-102370828D01*
X164880225Y-102370828D01*
X164880225Y-103585114D01*
X164883107Y-103614378D01*
X164885170Y-103619358D01*
X164885552Y-103624733D01*
X164896061Y-103652196D01*
X164967490Y-103795053D01*
X164975417Y-103807646D01*
X164976933Y-103811306D01*
X164980314Y-103815425D01*
X164983155Y-103819939D01*
X164986148Y-103822535D01*
X164995588Y-103834037D01*
X165067017Y-103905466D01*
X165078521Y-103914907D01*
X165081116Y-103917899D01*
X165085625Y-103920737D01*
X165089748Y-103924121D01*
X165093409Y-103925637D01*
X165106001Y-103933564D01*
X165248859Y-104004992D01*
X165276322Y-104015502D01*
X165281697Y-104015883D01*
X165286676Y-104017946D01*
X165315940Y-104020828D01*
X165601654Y-104020828D01*
X165630918Y-104017946D01*
X165635896Y-104015883D01*
X165641272Y-104015502D01*
X165668736Y-104004992D01*
X165811593Y-103933564D01*
X165824186Y-103925636D01*
X165827846Y-103924121D01*
X165831965Y-103920739D01*
X165836479Y-103917899D01*
X165839075Y-103914905D01*
X165850577Y-103905466D01*
X165922006Y-103834037D01*
X165931447Y-103822532D01*
X165934439Y-103819938D01*
X165937277Y-103815428D01*
X165940661Y-103811306D01*
X165942177Y-103807644D01*
X165950104Y-103795053D01*
X166021532Y-103652195D01*
X166032042Y-103624732D01*
X166032423Y-103619356D01*
X166034486Y-103614378D01*
X166037368Y-103585114D01*
X166037368Y-102370828D01*
X166034486Y-102341564D01*
X166240251Y-102341564D01*
X166240251Y-102400092D01*
X166262649Y-102454164D01*
X166304033Y-102495548D01*
X166358105Y-102517946D01*
X166387369Y-102520828D01*
X166665940Y-102520828D01*
X166665940Y-103870828D01*
X166668822Y-103900092D01*
X166691220Y-103954164D01*
X166732604Y-103995548D01*
X166786676Y-104017946D01*
X166845204Y-104017946D01*
X166899276Y-103995548D01*
X166940660Y-103954164D01*
X166963058Y-103900092D01*
X166965940Y-103870828D01*
X166965940Y-102520828D01*
X167244512Y-102520828D01*
X167273776Y-102517946D01*
X167327848Y-102495548D01*
X167369232Y-102454164D01*
X167391630Y-102400092D01*
X167391630Y-102341564D01*
X167369232Y-102287492D01*
X167327848Y-102246108D01*
X167273776Y-102223710D01*
X167244512Y-102220828D01*
X166387369Y-102220828D01*
X166358105Y-102223710D01*
X166304033Y-102246108D01*
X166262649Y-102287492D01*
X166240251Y-102341564D01*
X166034486Y-102341564D01*
X166012088Y-102287492D01*
X165970704Y-102246108D01*
X165916632Y-102223710D01*
X165858104Y-102223710D01*
X165804032Y-102246108D01*
X165762648Y-102287492D01*
X165740250Y-102341564D01*
X165737368Y-102370828D01*
X165737368Y-103549704D01*
X165692661Y-103639117D01*
X165655656Y-103676122D01*
X165566244Y-103720828D01*
X165351350Y-103720828D01*
X165261936Y-103676121D01*
X165224932Y-103639117D01*
X165180225Y-103549703D01*
X165180225Y-102370828D01*
X165177343Y-102341564D01*
X165154945Y-102287492D01*
X165113561Y-102246108D01*
X165059489Y-102223710D01*
X165000961Y-102223710D01*
X164946889Y-102246108D01*
X164905505Y-102287492D01*
X164883107Y-102341564D01*
X164880225Y-102370828D01*
X164385214Y-102370828D01*
X164350576Y-102336190D01*
X164339076Y-102326752D01*
X164336479Y-102323758D01*
X164331962Y-102320915D01*
X164327845Y-102317536D01*
X164324188Y-102316021D01*
X164311593Y-102308093D01*
X164168736Y-102236664D01*
X164141273Y-102226155D01*
X164135898Y-102225773D01*
X164130918Y-102223710D01*
X164101654Y-102220828D01*
X163530225Y-102220828D01*
X163500961Y-102223710D01*
X163446889Y-102246108D01*
X163405505Y-102287492D01*
X163383107Y-102341564D01*
X163380225Y-102370828D01*
X162965939Y-102370828D01*
X162963057Y-102341564D01*
X162940659Y-102287492D01*
X162899275Y-102246108D01*
X162845203Y-102223710D01*
X162786675Y-102223710D01*
X162732603Y-102246108D01*
X162691219Y-102287492D01*
X162668821Y-102341564D01*
X162665939Y-102370828D01*
X162665939Y-103305992D01*
X162089032Y-102296407D01*
X162084654Y-102290239D01*
X162083516Y-102287492D01*
X162080716Y-102284692D01*
X162072011Y-102272429D01*
X162056239Y-102260215D01*
X162042132Y-102246108D01*
X162033296Y-102242448D01*
X162025737Y-102236594D01*
X162006492Y-102231345D01*
X161988060Y-102223710D01*
X161978498Y-102223710D01*
X161969273Y-102221194D01*
X161949482Y-102223710D01*
X161929532Y-102223710D01*
X161920698Y-102227369D01*
X161911213Y-102228575D01*
X161893890Y-102238473D01*
X161875460Y-102246108D01*
X161868699Y-102252868D01*
X161860397Y-102257613D01*
X161848183Y-102273384D01*
X161834076Y-102287492D01*
X161830416Y-102296327D01*
X161824562Y-102303887D01*
X161819313Y-102323131D01*
X161811678Y-102341564D01*
X161810204Y-102356530D01*
X161809162Y-102360351D01*
X161809537Y-102363302D01*
X161808796Y-102370828D01*
X161394510Y-102370828D01*
X161391628Y-102341564D01*
X161369230Y-102287492D01*
X161327846Y-102246108D01*
X161273774Y-102223710D01*
X161215246Y-102223710D01*
X161161174Y-102246108D01*
X161119790Y-102287492D01*
X161097392Y-102341564D01*
X161094510Y-102370828D01*
X160927843Y-102370828D01*
X160927843Y-102054161D01*
X167558297Y-102054161D01*
X167558297Y-104187495D01*
G37*
D10*
X165391133Y-110164901D02*
X165438752Y-110117282D01*
X165438752Y-110117282D02*
X165533990Y-110069663D01*
X165533990Y-110069663D02*
X165772085Y-110069663D01*
X165772085Y-110069663D02*
X165867323Y-110117282D01*
X165867323Y-110117282D02*
X165914942Y-110164901D01*
X165914942Y-110164901D02*
X165962561Y-110260139D01*
X165962561Y-110260139D02*
X165962561Y-110355377D01*
X165962561Y-110355377D02*
X165914942Y-110498234D01*
X165914942Y-110498234D02*
X165343514Y-111069663D01*
X165343514Y-111069663D02*
X165962561Y-111069663D01*
X166819704Y-110402996D02*
X166819704Y-111069663D01*
X166581609Y-110022044D02*
X166343514Y-110736329D01*
X166343514Y-110736329D02*
X166962561Y-110736329D01*
X167200657Y-110069663D02*
X167533990Y-111069663D01*
X167533990Y-111069663D02*
X167867323Y-110069663D01*
X151672085Y-106345853D02*
X151814942Y-106393472D01*
X151814942Y-106393472D02*
X151862561Y-106441091D01*
X151862561Y-106441091D02*
X151910180Y-106536329D01*
X151910180Y-106536329D02*
X151910180Y-106679186D01*
X151910180Y-106679186D02*
X151862561Y-106774424D01*
X151862561Y-106774424D02*
X151814942Y-106822044D01*
X151814942Y-106822044D02*
X151719704Y-106869663D01*
X151719704Y-106869663D02*
X151338752Y-106869663D01*
X151338752Y-106869663D02*
X151338752Y-105869663D01*
X151338752Y-105869663D02*
X151672085Y-105869663D01*
X151672085Y-105869663D02*
X151767323Y-105917282D01*
X151767323Y-105917282D02*
X151814942Y-105964901D01*
X151814942Y-105964901D02*
X151862561Y-106060139D01*
X151862561Y-106060139D02*
X151862561Y-106155377D01*
X151862561Y-106155377D02*
X151814942Y-106250615D01*
X151814942Y-106250615D02*
X151767323Y-106298234D01*
X151767323Y-106298234D02*
X151672085Y-106345853D01*
X151672085Y-106345853D02*
X151338752Y-106345853D01*
X152529228Y-105869663D02*
X152719704Y-105869663D01*
X152719704Y-105869663D02*
X152814942Y-105917282D01*
X152814942Y-105917282D02*
X152910180Y-106012520D01*
X152910180Y-106012520D02*
X152957799Y-106202996D01*
X152957799Y-106202996D02*
X152957799Y-106536329D01*
X152957799Y-106536329D02*
X152910180Y-106726805D01*
X152910180Y-106726805D02*
X152814942Y-106822044D01*
X152814942Y-106822044D02*
X152719704Y-106869663D01*
X152719704Y-106869663D02*
X152529228Y-106869663D01*
X152529228Y-106869663D02*
X152433990Y-106822044D01*
X152433990Y-106822044D02*
X152338752Y-106726805D01*
X152338752Y-106726805D02*
X152291133Y-106536329D01*
X152291133Y-106536329D02*
X152291133Y-106202996D01*
X152291133Y-106202996D02*
X152338752Y-106012520D01*
X152338752Y-106012520D02*
X152433990Y-105917282D01*
X152433990Y-105917282D02*
X152529228Y-105869663D01*
X153576847Y-105869663D02*
X153767323Y-105869663D01*
X153767323Y-105869663D02*
X153862561Y-105917282D01*
X153862561Y-105917282D02*
X153957799Y-106012520D01*
X153957799Y-106012520D02*
X154005418Y-106202996D01*
X154005418Y-106202996D02*
X154005418Y-106536329D01*
X154005418Y-106536329D02*
X153957799Y-106726805D01*
X153957799Y-106726805D02*
X153862561Y-106822044D01*
X153862561Y-106822044D02*
X153767323Y-106869663D01*
X153767323Y-106869663D02*
X153576847Y-106869663D01*
X153576847Y-106869663D02*
X153481609Y-106822044D01*
X153481609Y-106822044D02*
X153386371Y-106726805D01*
X153386371Y-106726805D02*
X153338752Y-106536329D01*
X153338752Y-106536329D02*
X153338752Y-106202996D01*
X153338752Y-106202996D02*
X153386371Y-106012520D01*
X153386371Y-106012520D02*
X153481609Y-105917282D01*
X153481609Y-105917282D02*
X153576847Y-105869663D01*
X154291133Y-105869663D02*
X154862561Y-105869663D01*
X154576847Y-106869663D02*
X154576847Y-105869663D01*
X155386371Y-105869663D02*
X155481609Y-105869663D01*
X155481609Y-105869663D02*
X155576847Y-105917282D01*
X155576847Y-105917282D02*
X155624466Y-105964901D01*
X155624466Y-105964901D02*
X155672085Y-106060139D01*
X155672085Y-106060139D02*
X155719704Y-106250615D01*
X155719704Y-106250615D02*
X155719704Y-106488710D01*
X155719704Y-106488710D02*
X155672085Y-106679186D01*
X155672085Y-106679186D02*
X155624466Y-106774424D01*
X155624466Y-106774424D02*
X155576847Y-106822044D01*
X155576847Y-106822044D02*
X155481609Y-106869663D01*
X155481609Y-106869663D02*
X155386371Y-106869663D01*
X155386371Y-106869663D02*
X155291133Y-106822044D01*
X155291133Y-106822044D02*
X155243514Y-106774424D01*
X155243514Y-106774424D02*
X155195895Y-106679186D01*
X155195895Y-106679186D02*
X155148276Y-106488710D01*
X155148276Y-106488710D02*
X155148276Y-106250615D01*
X155148276Y-106250615D02*
X155195895Y-106060139D01*
X155195895Y-106060139D02*
X155243514Y-105964901D01*
X155243514Y-105964901D02*
X155291133Y-105917282D01*
X155291133Y-105917282D02*
X155386371Y-105869663D01*
X138713514Y-81249663D02*
X139332561Y-81249663D01*
X139332561Y-81249663D02*
X138999228Y-81630615D01*
X138999228Y-81630615D02*
X139142085Y-81630615D01*
X139142085Y-81630615D02*
X139237323Y-81678234D01*
X139237323Y-81678234D02*
X139284942Y-81725853D01*
X139284942Y-81725853D02*
X139332561Y-81821091D01*
X139332561Y-81821091D02*
X139332561Y-82059186D01*
X139332561Y-82059186D02*
X139284942Y-82154424D01*
X139284942Y-82154424D02*
X139237323Y-82202044D01*
X139237323Y-82202044D02*
X139142085Y-82249663D01*
X139142085Y-82249663D02*
X138856371Y-82249663D01*
X138856371Y-82249663D02*
X138761133Y-82202044D01*
X138761133Y-82202044D02*
X138713514Y-82154424D01*
X139618276Y-81249663D02*
X139951609Y-82249663D01*
X139951609Y-82249663D02*
X140284942Y-81249663D01*
X139472561Y-87587282D02*
X139377323Y-87539663D01*
X139377323Y-87539663D02*
X139234466Y-87539663D01*
X139234466Y-87539663D02*
X139091609Y-87587282D01*
X139091609Y-87587282D02*
X138996371Y-87682520D01*
X138996371Y-87682520D02*
X138948752Y-87777758D01*
X138948752Y-87777758D02*
X138901133Y-87968234D01*
X138901133Y-87968234D02*
X138901133Y-88111091D01*
X138901133Y-88111091D02*
X138948752Y-88301567D01*
X138948752Y-88301567D02*
X138996371Y-88396805D01*
X138996371Y-88396805D02*
X139091609Y-88492044D01*
X139091609Y-88492044D02*
X139234466Y-88539663D01*
X139234466Y-88539663D02*
X139329704Y-88539663D01*
X139329704Y-88539663D02*
X139472561Y-88492044D01*
X139472561Y-88492044D02*
X139520180Y-88444424D01*
X139520180Y-88444424D02*
X139520180Y-88111091D01*
X139520180Y-88111091D02*
X139329704Y-88111091D01*
X144091133Y-109222044D02*
X144233990Y-109269663D01*
X144233990Y-109269663D02*
X144472085Y-109269663D01*
X144472085Y-109269663D02*
X144567323Y-109222044D01*
X144567323Y-109222044D02*
X144614942Y-109174424D01*
X144614942Y-109174424D02*
X144662561Y-109079186D01*
X144662561Y-109079186D02*
X144662561Y-108983948D01*
X144662561Y-108983948D02*
X144614942Y-108888710D01*
X144614942Y-108888710D02*
X144567323Y-108841091D01*
X144567323Y-108841091D02*
X144472085Y-108793472D01*
X144472085Y-108793472D02*
X144281609Y-108745853D01*
X144281609Y-108745853D02*
X144186371Y-108698234D01*
X144186371Y-108698234D02*
X144138752Y-108650615D01*
X144138752Y-108650615D02*
X144091133Y-108555377D01*
X144091133Y-108555377D02*
X144091133Y-108460139D01*
X144091133Y-108460139D02*
X144138752Y-108364901D01*
X144138752Y-108364901D02*
X144186371Y-108317282D01*
X144186371Y-108317282D02*
X144281609Y-108269663D01*
X144281609Y-108269663D02*
X144519704Y-108269663D01*
X144519704Y-108269663D02*
X144662561Y-108317282D01*
X145091133Y-109269663D02*
X145091133Y-108269663D01*
X145091133Y-108269663D02*
X145329228Y-108269663D01*
X145329228Y-108269663D02*
X145472085Y-108317282D01*
X145472085Y-108317282D02*
X145567323Y-108412520D01*
X145567323Y-108412520D02*
X145614942Y-108507758D01*
X145614942Y-108507758D02*
X145662561Y-108698234D01*
X145662561Y-108698234D02*
X145662561Y-108841091D01*
X145662561Y-108841091D02*
X145614942Y-109031567D01*
X145614942Y-109031567D02*
X145567323Y-109126805D01*
X145567323Y-109126805D02*
X145472085Y-109222044D01*
X145472085Y-109222044D02*
X145329228Y-109269663D01*
X145329228Y-109269663D02*
X145091133Y-109269663D01*
X146043514Y-108983948D02*
X146519704Y-108983948D01*
X145948276Y-109269663D02*
X146281609Y-108269663D01*
X146281609Y-108269663D02*
X146614942Y-109269663D01*
X162062561Y-116917282D02*
X161967323Y-116869663D01*
X161967323Y-116869663D02*
X161824466Y-116869663D01*
X161824466Y-116869663D02*
X161681609Y-116917282D01*
X161681609Y-116917282D02*
X161586371Y-117012520D01*
X161586371Y-117012520D02*
X161538752Y-117107758D01*
X161538752Y-117107758D02*
X161491133Y-117298234D01*
X161491133Y-117298234D02*
X161491133Y-117441091D01*
X161491133Y-117441091D02*
X161538752Y-117631567D01*
X161538752Y-117631567D02*
X161586371Y-117726805D01*
X161586371Y-117726805D02*
X161681609Y-117822044D01*
X161681609Y-117822044D02*
X161824466Y-117869663D01*
X161824466Y-117869663D02*
X161919704Y-117869663D01*
X161919704Y-117869663D02*
X162062561Y-117822044D01*
X162062561Y-117822044D02*
X162110180Y-117774424D01*
X162110180Y-117774424D02*
X162110180Y-117441091D01*
X162110180Y-117441091D02*
X161919704Y-117441091D01*
X162538752Y-117869663D02*
X162538752Y-116869663D01*
X162538752Y-116869663D02*
X163110180Y-117869663D01*
X163110180Y-117869663D02*
X163110180Y-116869663D01*
X163586371Y-117869663D02*
X163586371Y-116869663D01*
X163586371Y-116869663D02*
X163824466Y-116869663D01*
X163824466Y-116869663D02*
X163967323Y-116917282D01*
X163967323Y-116917282D02*
X164062561Y-117012520D01*
X164062561Y-117012520D02*
X164110180Y-117107758D01*
X164110180Y-117107758D02*
X164157799Y-117298234D01*
X164157799Y-117298234D02*
X164157799Y-117441091D01*
X164157799Y-117441091D02*
X164110180Y-117631567D01*
X164110180Y-117631567D02*
X164062561Y-117726805D01*
X164062561Y-117726805D02*
X163967323Y-117822044D01*
X163967323Y-117822044D02*
X163824466Y-117869663D01*
X163824466Y-117869663D02*
X163586371Y-117869663D01*
X139243514Y-104269663D02*
X139862561Y-104269663D01*
X139862561Y-104269663D02*
X139529228Y-104650615D01*
X139529228Y-104650615D02*
X139672085Y-104650615D01*
X139672085Y-104650615D02*
X139767323Y-104698234D01*
X139767323Y-104698234D02*
X139814942Y-104745853D01*
X139814942Y-104745853D02*
X139862561Y-104841091D01*
X139862561Y-104841091D02*
X139862561Y-105079186D01*
X139862561Y-105079186D02*
X139814942Y-105174424D01*
X139814942Y-105174424D02*
X139767323Y-105222044D01*
X139767323Y-105222044D02*
X139672085Y-105269663D01*
X139672085Y-105269663D02*
X139386371Y-105269663D01*
X139386371Y-105269663D02*
X139291133Y-105222044D01*
X139291133Y-105222044D02*
X139243514Y-105174424D01*
X140643514Y-111169663D02*
X141262561Y-111169663D01*
X141262561Y-111169663D02*
X140929228Y-111550615D01*
X140929228Y-111550615D02*
X141072085Y-111550615D01*
X141072085Y-111550615D02*
X141167323Y-111598234D01*
X141167323Y-111598234D02*
X141214942Y-111645853D01*
X141214942Y-111645853D02*
X141262561Y-111741091D01*
X141262561Y-111741091D02*
X141262561Y-111979186D01*
X141262561Y-111979186D02*
X141214942Y-112074424D01*
X141214942Y-112074424D02*
X141167323Y-112122044D01*
X141167323Y-112122044D02*
X141072085Y-112169663D01*
X141072085Y-112169663D02*
X140786371Y-112169663D01*
X140786371Y-112169663D02*
X140691133Y-112122044D01*
X140691133Y-112122044D02*
X140643514Y-112074424D01*
X141548276Y-111169663D02*
X141881609Y-112169663D01*
X141881609Y-112169663D02*
X142214942Y-111169663D01*
X159138752Y-102869663D02*
X159138752Y-101869663D01*
X159138752Y-101869663D02*
X159519704Y-101869663D01*
X159519704Y-101869663D02*
X159614942Y-101917282D01*
X159614942Y-101917282D02*
X159662561Y-101964901D01*
X159662561Y-101964901D02*
X159710180Y-102060139D01*
X159710180Y-102060139D02*
X159710180Y-102202996D01*
X159710180Y-102202996D02*
X159662561Y-102298234D01*
X159662561Y-102298234D02*
X159614942Y-102345853D01*
X159614942Y-102345853D02*
X159519704Y-102393472D01*
X159519704Y-102393472D02*
X159138752Y-102393472D01*
X140155895Y-83809663D02*
X140727323Y-83809663D01*
X140441609Y-84809663D02*
X140441609Y-83809663D01*
D11*
G36*
X156579854Y-85673790D02*
G01*
X156676121Y-85770057D01*
X156720828Y-85859469D01*
X156720828Y-86074364D01*
X156676122Y-86163777D01*
X156579854Y-86260044D01*
X156352364Y-86316917D01*
X155889292Y-86316917D01*
X155661801Y-86260044D01*
X155565535Y-86163778D01*
X155520828Y-86074364D01*
X155520828Y-85859470D01*
X155565535Y-85770056D01*
X155661801Y-85673790D01*
X155889292Y-85616917D01*
X156352363Y-85616917D01*
X156579854Y-85673790D01*
G37*
G36*
X157187495Y-86783584D02*
G01*
X155054161Y-86783584D01*
X155054161Y-85824060D01*
X155220828Y-85824060D01*
X155220828Y-86109774D01*
X155223710Y-86139038D01*
X155225771Y-86144015D01*
X155226154Y-86149393D01*
X155236664Y-86176856D01*
X155308093Y-86319714D01*
X155316020Y-86332307D01*
X155317536Y-86335967D01*
X155320917Y-86340086D01*
X155323758Y-86344600D01*
X155326751Y-86347196D01*
X155336191Y-86358698D01*
X155479048Y-86501555D01*
X155501778Y-86520210D01*
X155512083Y-86524478D01*
X155521043Y-86531117D01*
X155548734Y-86541010D01*
X155834448Y-86612438D01*
X155839519Y-86613187D01*
X155841564Y-86614035D01*
X155852586Y-86615120D01*
X155863537Y-86616740D01*
X155865724Y-86616414D01*
X155870828Y-86616917D01*
X156370828Y-86616917D01*
X156375931Y-86616414D01*
X156378119Y-86616740D01*
X156389069Y-86615120D01*
X156400092Y-86614035D01*
X156402136Y-86613187D01*
X156407208Y-86612438D01*
X156692922Y-86541010D01*
X156720613Y-86531117D01*
X156729573Y-86524477D01*
X156739877Y-86520210D01*
X156762608Y-86501555D01*
X156905466Y-86358698D01*
X156914906Y-86347194D01*
X156917900Y-86344599D01*
X156920738Y-86340089D01*
X156924121Y-86335968D01*
X156925638Y-86332305D01*
X156933564Y-86319713D01*
X157004993Y-86176855D01*
X157015502Y-86149392D01*
X157015883Y-86144016D01*
X157017946Y-86139038D01*
X157020828Y-86109774D01*
X157020828Y-85824060D01*
X157017946Y-85794796D01*
X157015883Y-85789817D01*
X157015502Y-85784442D01*
X157004992Y-85756979D01*
X156933564Y-85614121D01*
X156925638Y-85601530D01*
X156924121Y-85597867D01*
X156920735Y-85593741D01*
X156917899Y-85589236D01*
X156914909Y-85586643D01*
X156905466Y-85575137D01*
X156762608Y-85432280D01*
X156739877Y-85413625D01*
X156729573Y-85409357D01*
X156720613Y-85402718D01*
X156692922Y-85392825D01*
X156407209Y-85321396D01*
X156402136Y-85320645D01*
X156400092Y-85319799D01*
X156389070Y-85318713D01*
X156378119Y-85317094D01*
X156375931Y-85317419D01*
X156370828Y-85316917D01*
X155870828Y-85316917D01*
X155865724Y-85317419D01*
X155863536Y-85317094D01*
X155852583Y-85318713D01*
X155841564Y-85319799D01*
X155839519Y-85320645D01*
X155834447Y-85321396D01*
X155548733Y-85392825D01*
X155521042Y-85402718D01*
X155512081Y-85409357D01*
X155501778Y-85413625D01*
X155479048Y-85432280D01*
X155336191Y-85575137D01*
X155326751Y-85586638D01*
X155323758Y-85589235D01*
X155320917Y-85593748D01*
X155317536Y-85597868D01*
X155316020Y-85601527D01*
X155308093Y-85614121D01*
X155236664Y-85756978D01*
X155226155Y-85784441D01*
X155225773Y-85789815D01*
X155223710Y-85794796D01*
X155220828Y-85824060D01*
X155054161Y-85824060D01*
X155054161Y-83937653D01*
X155223710Y-83937653D01*
X155223710Y-83996181D01*
X155246108Y-84050253D01*
X155287492Y-84091637D01*
X155341564Y-84114035D01*
X155370828Y-84116917D01*
X156549704Y-84116917D01*
X156639116Y-84161622D01*
X156676121Y-84198627D01*
X156720828Y-84288040D01*
X156720828Y-84502935D01*
X156676122Y-84592347D01*
X156639118Y-84629352D01*
X156549704Y-84674060D01*
X155370828Y-84674060D01*
X155341564Y-84676942D01*
X155287492Y-84699340D01*
X155246108Y-84740724D01*
X155223710Y-84794796D01*
X155223710Y-84853324D01*
X155246108Y-84907396D01*
X155287492Y-84948780D01*
X155341564Y-84971178D01*
X155370828Y-84974060D01*
X156585114Y-84974060D01*
X156614378Y-84971178D01*
X156619358Y-84969114D01*
X156624733Y-84968733D01*
X156652196Y-84958224D01*
X156795053Y-84886795D01*
X156807648Y-84878866D01*
X156811305Y-84877352D01*
X156815422Y-84873972D01*
X156819939Y-84871130D01*
X156822536Y-84868135D01*
X156834036Y-84858698D01*
X156905465Y-84787270D01*
X156914904Y-84775767D01*
X156917900Y-84773170D01*
X156920741Y-84768655D01*
X156924120Y-84764539D01*
X156925635Y-84760880D01*
X156933564Y-84748284D01*
X157004993Y-84605426D01*
X157015502Y-84577963D01*
X157015883Y-84572587D01*
X157017946Y-84567609D01*
X157020828Y-84538345D01*
X157020828Y-84252631D01*
X157017946Y-84223367D01*
X157015883Y-84218388D01*
X157015502Y-84213013D01*
X157004992Y-84185550D01*
X156933564Y-84042692D01*
X156925637Y-84030100D01*
X156924121Y-84026439D01*
X156920737Y-84022316D01*
X156917899Y-84017807D01*
X156914907Y-84015212D01*
X156905466Y-84003708D01*
X156834037Y-83932279D01*
X156822535Y-83922839D01*
X156819939Y-83919846D01*
X156815425Y-83917005D01*
X156811306Y-83913624D01*
X156807646Y-83912108D01*
X156795053Y-83904181D01*
X156652196Y-83832753D01*
X156624732Y-83822243D01*
X156619356Y-83821861D01*
X156614378Y-83819799D01*
X156585114Y-83816917D01*
X155370828Y-83816917D01*
X155341564Y-83819799D01*
X155287492Y-83842197D01*
X155246108Y-83883581D01*
X155223710Y-83937653D01*
X155054161Y-83937653D01*
X155054161Y-82609774D01*
X155220828Y-82609774D01*
X155220828Y-83466916D01*
X155223710Y-83496180D01*
X155246108Y-83550252D01*
X155287492Y-83591636D01*
X155341564Y-83614034D01*
X155400092Y-83614034D01*
X155454164Y-83591636D01*
X155495548Y-83550252D01*
X155517946Y-83496180D01*
X155520828Y-83466916D01*
X155520828Y-83188345D01*
X156870828Y-83188345D01*
X156900092Y-83185463D01*
X156954164Y-83163065D01*
X156995548Y-83121681D01*
X157017946Y-83067609D01*
X157017946Y-83009081D01*
X156995548Y-82955009D01*
X156954164Y-82913625D01*
X156900092Y-82891227D01*
X156870828Y-82888345D01*
X155520828Y-82888345D01*
X155520828Y-82609774D01*
X155517946Y-82580510D01*
X155495548Y-82526438D01*
X155454164Y-82485054D01*
X155400092Y-82462656D01*
X155341564Y-82462656D01*
X155287492Y-82485054D01*
X155246108Y-82526438D01*
X155223710Y-82580510D01*
X155220828Y-82609774D01*
X155054161Y-82609774D01*
X155054161Y-82295989D01*
X157187495Y-82295989D01*
X157187495Y-86783584D01*
G37*
D10*
X161191133Y-89864901D02*
X161238752Y-89817282D01*
X161238752Y-89817282D02*
X161333990Y-89769663D01*
X161333990Y-89769663D02*
X161572085Y-89769663D01*
X161572085Y-89769663D02*
X161667323Y-89817282D01*
X161667323Y-89817282D02*
X161714942Y-89864901D01*
X161714942Y-89864901D02*
X161762561Y-89960139D01*
X161762561Y-89960139D02*
X161762561Y-90055377D01*
X161762561Y-90055377D02*
X161714942Y-90198234D01*
X161714942Y-90198234D02*
X161143514Y-90769663D01*
X161143514Y-90769663D02*
X161762561Y-90769663D01*
X162619704Y-90102996D02*
X162619704Y-90769663D01*
X162381609Y-89722044D02*
X162143514Y-90436329D01*
X162143514Y-90436329D02*
X162762561Y-90436329D01*
X163000657Y-89769663D02*
X163333990Y-90769663D01*
X163333990Y-90769663D02*
X163667323Y-89769663D01*
X140750180Y-86069663D02*
X140416847Y-85593472D01*
X140178752Y-86069663D02*
X140178752Y-85069663D01*
X140178752Y-85069663D02*
X140559704Y-85069663D01*
X140559704Y-85069663D02*
X140654942Y-85117282D01*
X140654942Y-85117282D02*
X140702561Y-85164901D01*
X140702561Y-85164901D02*
X140750180Y-85260139D01*
X140750180Y-85260139D02*
X140750180Y-85402996D01*
X140750180Y-85402996D02*
X140702561Y-85498234D01*
X140702561Y-85498234D02*
X140654942Y-85545853D01*
X140654942Y-85545853D02*
X140559704Y-85593472D01*
X140559704Y-85593472D02*
X140178752Y-85593472D01*
X155910180Y-89374424D02*
X155862561Y-89422044D01*
X155862561Y-89422044D02*
X155719704Y-89469663D01*
X155719704Y-89469663D02*
X155624466Y-89469663D01*
X155624466Y-89469663D02*
X155481609Y-89422044D01*
X155481609Y-89422044D02*
X155386371Y-89326805D01*
X155386371Y-89326805D02*
X155338752Y-89231567D01*
X155338752Y-89231567D02*
X155291133Y-89041091D01*
X155291133Y-89041091D02*
X155291133Y-88898234D01*
X155291133Y-88898234D02*
X155338752Y-88707758D01*
X155338752Y-88707758D02*
X155386371Y-88612520D01*
X155386371Y-88612520D02*
X155481609Y-88517282D01*
X155481609Y-88517282D02*
X155624466Y-88469663D01*
X155624466Y-88469663D02*
X155719704Y-88469663D01*
X155719704Y-88469663D02*
X155862561Y-88517282D01*
X155862561Y-88517282D02*
X155910180Y-88564901D01*
X156338752Y-88469663D02*
X156338752Y-89279186D01*
X156338752Y-89279186D02*
X156386371Y-89374424D01*
X156386371Y-89374424D02*
X156433990Y-89422044D01*
X156433990Y-89422044D02*
X156529228Y-89469663D01*
X156529228Y-89469663D02*
X156719704Y-89469663D01*
X156719704Y-89469663D02*
X156814942Y-89422044D01*
X156814942Y-89422044D02*
X156862561Y-89374424D01*
X156862561Y-89374424D02*
X156910180Y-89279186D01*
X156910180Y-89279186D02*
X156910180Y-88469663D01*
X157957799Y-89469663D02*
X157624466Y-88993472D01*
X157386371Y-89469663D02*
X157386371Y-88469663D01*
X157386371Y-88469663D02*
X157767323Y-88469663D01*
X157767323Y-88469663D02*
X157862561Y-88517282D01*
X157862561Y-88517282D02*
X157910180Y-88564901D01*
X157910180Y-88564901D02*
X157957799Y-88660139D01*
X157957799Y-88660139D02*
X157957799Y-88802996D01*
X157957799Y-88802996D02*
X157910180Y-88898234D01*
X157910180Y-88898234D02*
X157862561Y-88945853D01*
X157862561Y-88945853D02*
X157767323Y-88993472D01*
X157767323Y-88993472D02*
X157386371Y-88993472D01*
X158957799Y-89469663D02*
X158624466Y-88993472D01*
X158386371Y-89469663D02*
X158386371Y-88469663D01*
X158386371Y-88469663D02*
X158767323Y-88469663D01*
X158767323Y-88469663D02*
X158862561Y-88517282D01*
X158862561Y-88517282D02*
X158910180Y-88564901D01*
X158910180Y-88564901D02*
X158957799Y-88660139D01*
X158957799Y-88660139D02*
X158957799Y-88802996D01*
X158957799Y-88802996D02*
X158910180Y-88898234D01*
X158910180Y-88898234D02*
X158862561Y-88945853D01*
X158862561Y-88945853D02*
X158767323Y-88993472D01*
X158767323Y-88993472D02*
X158386371Y-88993472D01*
X143691133Y-111022044D02*
X143833990Y-111069663D01*
X143833990Y-111069663D02*
X144072085Y-111069663D01*
X144072085Y-111069663D02*
X144167323Y-111022044D01*
X144167323Y-111022044D02*
X144214942Y-110974424D01*
X144214942Y-110974424D02*
X144262561Y-110879186D01*
X144262561Y-110879186D02*
X144262561Y-110783948D01*
X144262561Y-110783948D02*
X144214942Y-110688710D01*
X144214942Y-110688710D02*
X144167323Y-110641091D01*
X144167323Y-110641091D02*
X144072085Y-110593472D01*
X144072085Y-110593472D02*
X143881609Y-110545853D01*
X143881609Y-110545853D02*
X143786371Y-110498234D01*
X143786371Y-110498234D02*
X143738752Y-110450615D01*
X143738752Y-110450615D02*
X143691133Y-110355377D01*
X143691133Y-110355377D02*
X143691133Y-110260139D01*
X143691133Y-110260139D02*
X143738752Y-110164901D01*
X143738752Y-110164901D02*
X143786371Y-110117282D01*
X143786371Y-110117282D02*
X143881609Y-110069663D01*
X143881609Y-110069663D02*
X144119704Y-110069663D01*
X144119704Y-110069663D02*
X144262561Y-110117282D01*
X145262561Y-110974424D02*
X145214942Y-111022044D01*
X145214942Y-111022044D02*
X145072085Y-111069663D01*
X145072085Y-111069663D02*
X144976847Y-111069663D01*
X144976847Y-111069663D02*
X144833990Y-111022044D01*
X144833990Y-111022044D02*
X144738752Y-110926805D01*
X144738752Y-110926805D02*
X144691133Y-110831567D01*
X144691133Y-110831567D02*
X144643514Y-110641091D01*
X144643514Y-110641091D02*
X144643514Y-110498234D01*
X144643514Y-110498234D02*
X144691133Y-110307758D01*
X144691133Y-110307758D02*
X144738752Y-110212520D01*
X144738752Y-110212520D02*
X144833990Y-110117282D01*
X144833990Y-110117282D02*
X144976847Y-110069663D01*
X144976847Y-110069663D02*
X145072085Y-110069663D01*
X145072085Y-110069663D02*
X145214942Y-110117282D01*
X145214942Y-110117282D02*
X145262561Y-110164901D01*
X146167323Y-111069663D02*
X145691133Y-111069663D01*
X145691133Y-111069663D02*
X145691133Y-110069663D01*
X141262561Y-109717282D02*
X141167323Y-109669663D01*
X141167323Y-109669663D02*
X141024466Y-109669663D01*
X141024466Y-109669663D02*
X140881609Y-109717282D01*
X140881609Y-109717282D02*
X140786371Y-109812520D01*
X140786371Y-109812520D02*
X140738752Y-109907758D01*
X140738752Y-109907758D02*
X140691133Y-110098234D01*
X140691133Y-110098234D02*
X140691133Y-110241091D01*
X140691133Y-110241091D02*
X140738752Y-110431567D01*
X140738752Y-110431567D02*
X140786371Y-110526805D01*
X140786371Y-110526805D02*
X140881609Y-110622044D01*
X140881609Y-110622044D02*
X141024466Y-110669663D01*
X141024466Y-110669663D02*
X141119704Y-110669663D01*
X141119704Y-110669663D02*
X141262561Y-110622044D01*
X141262561Y-110622044D02*
X141310180Y-110574424D01*
X141310180Y-110574424D02*
X141310180Y-110241091D01*
X141310180Y-110241091D02*
X141119704Y-110241091D01*
D12*
%TO.C,D6*%
X165865000Y-112000000D02*
X165865000Y-114285000D01*
X165865000Y-114285000D02*
X167335000Y-114285000D01*
X167335000Y-114285000D02*
X167335000Y-112000000D01*
%TO.C,Y1*%
X138885679Y-102916117D02*
X143036396Y-107066833D01*
X141516117Y-100285679D02*
X138885679Y-102916117D01*
X145666833Y-104436396D02*
X141516117Y-100285679D01*
%TO.C,FB1*%
X146770000Y-107224721D02*
X146770000Y-107550279D01*
X147790000Y-107224721D02*
X147790000Y-107550279D01*
%TO.C,TP8*%
X157900000Y-90400000D02*
G75*
G02*
X156500000Y-90400000I-700000J0D01*
G01*
X156500000Y-90400000D02*
G75*
G02*
X157900000Y-90400000I700000J0D01*
G01*
%TO.C,C11*%
X144869190Y-102778307D02*
X145021693Y-102930810D01*
X145378307Y-102269190D02*
X145530810Y-102421693D01*
%TO.C,TP7*%
X145700000Y-107400000D02*
G75*
G02*
X144300000Y-107400000I-700000J0D01*
G01*
X144300000Y-107400000D02*
G75*
G02*
X145700000Y-107400000I700000J0D01*
G01*
%TO.C,R13*%
X166220000Y-115646359D02*
X166220000Y-115953641D01*
X166980000Y-115646359D02*
X166980000Y-115953641D01*
%TO.C,U1*%
X143773369Y-97600000D02*
X144445120Y-98271751D01*
X144445120Y-96928249D02*
X143773369Y-97600000D01*
X150328249Y-91045120D02*
X151000000Y-90373369D01*
X151000000Y-90373369D02*
X151671751Y-91045120D01*
X151000000Y-104826631D02*
X150328249Y-104154880D01*
X151671751Y-104154880D02*
X151000000Y-104826631D01*
X157554880Y-98271751D02*
X158226631Y-97600000D01*
X158226631Y-97600000D02*
X157554880Y-96928249D01*
X144010249Y-98706622D02*
X143437493Y-98614698D01*
X143918326Y-98133866D01*
X144010249Y-98706622D01*
G36*
X144010249Y-98706622D02*
G01*
X143437493Y-98614698D01*
X143918326Y-98133866D01*
X144010249Y-98706622D01*
G37*
%TO.C,R11*%
X138445000Y-96371359D02*
X138445000Y-96678641D01*
X139205000Y-96371359D02*
X139205000Y-96678641D01*
%TO.C,TP3*%
X162700000Y-88800000D02*
G75*
G02*
X161300000Y-88800000I-700000J0D01*
G01*
X161300000Y-88800000D02*
G75*
G02*
X162700000Y-88800000I700000J0D01*
G01*
%TO.C,D7*%
X138365000Y-99100000D02*
X138365000Y-101385000D01*
X138365000Y-101385000D02*
X139835000Y-101385000D01*
X139835000Y-101385000D02*
X139835000Y-99100000D01*
%TO.C,R9*%
X141071359Y-93745000D02*
X141378641Y-93745000D01*
X141071359Y-94505000D02*
X141378641Y-94505000D01*
D13*
%TO.C,J3*%
X157342499Y-104323000D02*
X157342499Y-109580800D01*
X157342499Y-109580800D02*
X167502499Y-109580800D01*
X167502499Y-104323000D02*
X157342499Y-104323000D01*
X167502499Y-109580800D02*
X167502499Y-104323000D01*
D14*
X159422500Y-103950000D02*
X158822500Y-103550000D01*
X160022500Y-103550000D01*
X159422500Y-103950000D01*
G36*
X159422500Y-103950000D02*
G01*
X158822500Y-103550000D01*
X160022500Y-103550000D01*
X159422500Y-103950000D01*
G37*
D12*
%TO.C,F2*%
X163213748Y-97490000D02*
X165986252Y-97490000D01*
X163213748Y-100910000D02*
X165986252Y-100910000D01*
%TO.C,J1*%
X138875000Y-89150000D02*
X138875000Y-90012077D01*
X138875000Y-90647923D02*
X138875000Y-91282077D01*
X138875000Y-91917923D02*
X138875000Y-92780000D01*
X143890000Y-89150000D02*
X138875000Y-89150000D01*
X143890000Y-89150000D02*
X143890000Y-89663292D01*
X144700000Y-89150000D02*
X145510000Y-89150000D01*
X145445000Y-91917923D02*
X145445000Y-92780000D01*
X145445000Y-92780000D02*
X138875000Y-92780000D01*
X145510000Y-89150000D02*
X145510000Y-90330000D01*
%TO.C,D3*%
X138865000Y-111800000D02*
X138865000Y-114085000D01*
X138865000Y-114085000D02*
X140335000Y-114085000D01*
X140335000Y-114085000D02*
X140335000Y-111800000D01*
%TO.C,TP1*%
X158700000Y-102400000D02*
G75*
G02*
X157300000Y-102400000I-700000J0D01*
G01*
X157300000Y-102400000D02*
G75*
G02*
X158700000Y-102400000I700000J0D01*
G01*
D13*
%TO.C,J4*%
X157320001Y-82369200D02*
X157320001Y-87627000D01*
X157320001Y-87627000D02*
X167480001Y-87627000D01*
X167480001Y-82369200D02*
X157320001Y-82369200D01*
X167480001Y-87627000D02*
X167480001Y-82369200D01*
D14*
X166000000Y-88400000D02*
X164800000Y-88400000D01*
X165400000Y-88000000D01*
X166000000Y-88400000D01*
G36*
X166000000Y-88400000D02*
G01*
X164800000Y-88400000D01*
X165400000Y-88000000D01*
X166000000Y-88400000D01*
G37*
D12*
%TO.C,R10*%
X138445000Y-94678641D02*
X138445000Y-94371359D01*
X139205000Y-94678641D02*
X139205000Y-94371359D01*
%TO.C,J5*%
X138655000Y-108865000D02*
X138655000Y-105990000D01*
X138714435Y-108865000D02*
X138655000Y-108865000D01*
X138989970Y-105990000D02*
X138655000Y-105990000D01*
X140145000Y-105990000D02*
X139810030Y-105990000D01*
X140145000Y-108865000D02*
X140085565Y-108865000D01*
X140145000Y-108865000D02*
X140145000Y-105990000D01*
X140145000Y-109600000D02*
X140145000Y-110335000D01*
X140145000Y-110335000D02*
X139400000Y-110335000D01*
%TO.C,C8*%
X149172164Y-106240000D02*
X149387836Y-106240000D01*
X149172164Y-106960000D02*
X149387836Y-106960000D01*
%TO.C,R2*%
X146622659Y-90839940D02*
X146839940Y-90622659D01*
X147160060Y-91377341D02*
X147377341Y-91160060D01*
D14*
%TO.C,SW1*%
X159200000Y-92250000D02*
X159200000Y-91350000D01*
X159200000Y-94750000D02*
X159200000Y-93850000D01*
X165700000Y-91350000D02*
X159200000Y-91350000D01*
X165700000Y-92250000D02*
X165700000Y-91350000D01*
X165700000Y-94750000D02*
X159200000Y-94750000D01*
X165700000Y-94750000D02*
X165700000Y-93850000D01*
D12*
%TO.C,C3*%
X154021693Y-104669190D02*
X153869190Y-104821693D01*
X154530810Y-105178307D02*
X154378307Y-105330810D01*
%TO.C,J6*%
X138455000Y-82665000D02*
X139200000Y-82665000D01*
X138455000Y-83400000D02*
X138455000Y-82665000D01*
X138455000Y-84135000D02*
X138455000Y-87010000D01*
X138455000Y-84135000D02*
X138514435Y-84135000D01*
X138455000Y-87010000D02*
X138789970Y-87010000D01*
X139610030Y-87010000D02*
X139945000Y-87010000D01*
X139885565Y-84135000D02*
X139945000Y-84135000D01*
X139945000Y-84135000D02*
X139945000Y-87010000D01*
%TO.C,C2*%
X158821693Y-99869190D02*
X158669190Y-100021693D01*
X159330810Y-100378307D02*
X159178307Y-100530810D01*
%TO.C,R16*%
X156539940Y-93177341D02*
X156322659Y-92960060D01*
X157077341Y-92639940D02*
X156860060Y-92422659D01*
%TO.C,D2*%
X149550000Y-81490000D02*
X149550000Y-87000000D01*
X152850000Y-81490000D02*
X149550000Y-81490000D01*
X152850000Y-81490000D02*
X152850000Y-87000000D01*
%TO.C,TP4*%
X157500000Y-111400000D02*
G75*
G02*
X156100000Y-111400000I-700000J0D01*
G01*
X156100000Y-111400000D02*
G75*
G02*
X157500000Y-111400000I700000J0D01*
G01*
%TO.C,TP9*%
X165850000Y-117200000D02*
G75*
G02*
X164450000Y-117200000I-700000J0D01*
G01*
X164450000Y-117200000D02*
G75*
G02*
X165850000Y-117200000I700000J0D01*
G01*
%TO.C,TP5*%
X152700000Y-107800000D02*
G75*
G02*
X151300000Y-107800000I-700000J0D01*
G01*
X151300000Y-107800000D02*
G75*
G02*
X152700000Y-107800000I700000J0D01*
G01*
%TO.C,C9*%
X149172164Y-107840000D02*
X149387836Y-107840000D01*
X149172164Y-108560000D02*
X149387836Y-108560000D01*
%TO.C,TP2*%
X167600000Y-91000000D02*
G75*
G02*
X166200000Y-91000000I-700000J0D01*
G01*
X166200000Y-91000000D02*
G75*
G02*
X167600000Y-91000000I700000J0D01*
G01*
%TO.C,J2*%
X140650000Y-81635000D02*
X140650000Y-82885000D01*
X140940000Y-81925000D02*
X140940000Y-87895000D01*
X140940000Y-87895000D02*
X148560000Y-87895000D01*
X140950000Y-81935000D02*
X140950000Y-82685000D01*
X140950000Y-82685000D02*
X142750000Y-82685000D01*
X140950000Y-84185000D02*
X141700000Y-84185000D01*
X141700000Y-84185000D02*
X141700000Y-87135000D01*
X141700000Y-87135000D02*
X144750000Y-87135000D01*
X141900000Y-81635000D02*
X140650000Y-81635000D01*
X142750000Y-81935000D02*
X140950000Y-81935000D01*
X142750000Y-82685000D02*
X142750000Y-81935000D01*
X144250000Y-81935000D02*
X144250000Y-82685000D01*
X144250000Y-82685000D02*
X145250000Y-82685000D01*
X145250000Y-81935000D02*
X144250000Y-81935000D01*
X145250000Y-82685000D02*
X145250000Y-81935000D01*
X146750000Y-81935000D02*
X146750000Y-82685000D01*
X146750000Y-82685000D02*
X148550000Y-82685000D01*
X147800000Y-84185000D02*
X147800000Y-87135000D01*
X147800000Y-87135000D02*
X144750000Y-87135000D01*
X148550000Y-81935000D02*
X146750000Y-81935000D01*
X148550000Y-82685000D02*
X148550000Y-81935000D01*
X148550000Y-84185000D02*
X147800000Y-84185000D01*
X148560000Y-81925000D02*
X140940000Y-81925000D01*
X148560000Y-87895000D02*
X148560000Y-81925000D01*
%TO.C,R12*%
X139220000Y-115646359D02*
X139220000Y-115953641D01*
X139980000Y-115646359D02*
X139980000Y-115953641D01*
%TO.C,C10*%
X143621693Y-101530810D02*
X143469190Y-101378307D01*
X144130810Y-101021693D02*
X143978307Y-100869190D01*
%TO.C,D4*%
D15*
X141225000Y-96225000D02*
G75*
G02*
X141075000Y-96225000I-75000J0D01*
G01*
X141075000Y-96225000D02*
G75*
G02*
X141225000Y-96225000I75000J0D01*
G01*
D12*
%TO.C,C7*%
X146821693Y-104730810D02*
X146669190Y-104578307D01*
X147330810Y-104221693D02*
X147178307Y-104069190D01*
%TO.C,C4*%
X142240000Y-98307836D02*
X142240000Y-98092164D01*
X142960000Y-98307836D02*
X142960000Y-98092164D01*
%TO.C,C5*%
X142869190Y-94621693D02*
X143021693Y-94469190D01*
X143378307Y-95130810D02*
X143530810Y-94978307D01*
%TO.C,TP6*%
X143100000Y-110200000D02*
G75*
G02*
X141700000Y-110200000I-700000J0D01*
G01*
X141700000Y-110200000D02*
G75*
G02*
X143100000Y-110200000I700000J0D01*
G01*
%TO.C,C6*%
X153469190Y-89978307D02*
X153621693Y-90130810D01*
X153978307Y-89469190D02*
X154130810Y-89621693D01*
%TO.C,C17*%
X148440000Y-113507836D02*
X148440000Y-113292164D01*
X149160000Y-113507836D02*
X149160000Y-113292164D01*
%TD*%
%LPC*%
D16*
%TO.C,D6*%
X166600000Y-113587500D03*
X166600000Y-112012500D03*
%TD*%
D17*
%TO.C,Y1*%
X141091852Y-102491852D03*
X143708148Y-105108148D03*
%TD*%
D18*
%TO.C,FB1*%
X147280000Y-106600000D03*
X147280000Y-108175000D03*
%TD*%
D19*
%TO.C,TP8*%
X157200000Y-90400000D03*
%TD*%
D20*
%TO.C,C11*%
X144860589Y-102260589D03*
X145539411Y-102939411D03*
%TD*%
D19*
%TO.C,TP7*%
X145000000Y-107400000D03*
%TD*%
D21*
%TO.C,R13*%
X166600000Y-115290000D03*
X166600000Y-116310000D03*
%TD*%
D22*
%TO.C,U1*%
X144335519Y-98961181D03*
X144689072Y-99314734D03*
X145042625Y-99668287D03*
X145396179Y-100021841D03*
X145749732Y-100375394D03*
X146103286Y-100728948D03*
X146456839Y-101082501D03*
X146810392Y-101436054D03*
X147163946Y-101789608D03*
X147517499Y-102143161D03*
X147871052Y-102496714D03*
X148224606Y-102850268D03*
X148578159Y-103203821D03*
X148931713Y-103557375D03*
X149285266Y-103910928D03*
X149638819Y-104264481D03*
D23*
X152361181Y-104264481D03*
X152714734Y-103910928D03*
X153068287Y-103557375D03*
X153421841Y-103203821D03*
X153775394Y-102850268D03*
X154128948Y-102496714D03*
X154482501Y-102143161D03*
X154836054Y-101789608D03*
X155189608Y-101436054D03*
X155543161Y-101082501D03*
X155896714Y-100728948D03*
X156250268Y-100375394D03*
X156603821Y-100021841D03*
X156957375Y-99668287D03*
X157310928Y-99314734D03*
X157664481Y-98961181D03*
D22*
X157664481Y-96238819D03*
X157310928Y-95885266D03*
X156957375Y-95531713D03*
X156603821Y-95178159D03*
X156250268Y-94824606D03*
X155896714Y-94471052D03*
X155543161Y-94117499D03*
X155189608Y-93763946D03*
X154836054Y-93410392D03*
X154482501Y-93056839D03*
X154128948Y-92703286D03*
X153775394Y-92349732D03*
X153421841Y-91996179D03*
X153068287Y-91642625D03*
X152714734Y-91289072D03*
X152361181Y-90935519D03*
D23*
X149638819Y-90935519D03*
X149285266Y-91289072D03*
X148931713Y-91642625D03*
X148578159Y-91996179D03*
X148224606Y-92349732D03*
X147871052Y-92703286D03*
X147517499Y-93056839D03*
X147163946Y-93410392D03*
X146810392Y-93763946D03*
X146456839Y-94117499D03*
X146103286Y-94471052D03*
X145749732Y-94824606D03*
X145396179Y-95178159D03*
X145042625Y-95531713D03*
X144689072Y-95885266D03*
X144335519Y-96238819D03*
%TD*%
D24*
%TO.C,H1*%
X144000000Y-114000000D03*
%TD*%
D21*
%TO.C,R11*%
X138825000Y-96015000D03*
X138825000Y-97035000D03*
%TD*%
D19*
%TO.C,TP3*%
X162000000Y-88800000D03*
%TD*%
D16*
%TO.C,D7*%
X139100000Y-100687500D03*
X139100000Y-99112500D03*
%TD*%
D25*
%TO.C,R9*%
X140715000Y-94125000D03*
X141735000Y-94125000D03*
%TD*%
D24*
%TO.C,H2*%
X162000000Y-114000000D03*
%TD*%
D26*
%TO.C,J3*%
X159422500Y-105950000D03*
X159422500Y-107950001D03*
X161422499Y-105950000D03*
X161422499Y-107950001D03*
X163422500Y-105950000D03*
X163422500Y-107950001D03*
X165422498Y-105950000D03*
X165422498Y-107950001D03*
%TD*%
D27*
%TO.C,F2*%
X162462500Y-99200000D03*
X166737500Y-99200000D03*
%TD*%
D28*
%TO.C,J1*%
X144700000Y-90330000D03*
D19*
X144700000Y-91600000D03*
X143430000Y-90330000D03*
X143430000Y-91600000D03*
X142160000Y-90330000D03*
X142160000Y-91600000D03*
X140890000Y-90330000D03*
X140890000Y-91600000D03*
X139620000Y-90330000D03*
X139620000Y-91600000D03*
%TD*%
D16*
%TO.C,D3*%
X139600000Y-113387500D03*
X139600000Y-111812500D03*
%TD*%
D19*
%TO.C,TP1*%
X158000000Y-102400000D03*
%TD*%
D26*
%TO.C,J4*%
X165400000Y-86000000D03*
X165400000Y-83999999D03*
X163400001Y-86000000D03*
X163400001Y-83999999D03*
X161400000Y-86000000D03*
X161400000Y-83999999D03*
X159400002Y-86000000D03*
X159400002Y-83999999D03*
%TD*%
D29*
%TO.C,R10*%
X138825000Y-95035000D03*
X138825000Y-94015000D03*
%TD*%
D30*
%TO.C,J5*%
X139400000Y-109600000D03*
D31*
X139400000Y-108600000D03*
X139400000Y-107600000D03*
X139400000Y-106600000D03*
%TD*%
D32*
%TO.C,C8*%
X148800000Y-106600000D03*
X149760000Y-106600000D03*
%TD*%
D33*
%TO.C,R2*%
X146639376Y-91360624D03*
X147360624Y-90639376D03*
%TD*%
D34*
%TO.C,SW1*%
X159200000Y-93000000D03*
X165700000Y-93000000D03*
%TD*%
D35*
%TO.C,C3*%
X154539411Y-104660589D03*
X153860589Y-105339411D03*
%TD*%
D30*
%TO.C,J6*%
X139200000Y-83400000D03*
D31*
X139200000Y-84400000D03*
X139200000Y-85400000D03*
X139200000Y-86400000D03*
%TD*%
D35*
%TO.C,C2*%
X159339411Y-99860589D03*
X158660589Y-100539411D03*
%TD*%
D36*
%TO.C,R16*%
X157060624Y-93160624D03*
X156339376Y-92439376D03*
%TD*%
D37*
%TO.C,D2*%
X151200000Y-83000000D03*
X151200000Y-87000000D03*
%TD*%
D19*
%TO.C,TP4*%
X156800000Y-111400000D03*
%TD*%
%TO.C,TP9*%
X165150000Y-117200000D03*
%TD*%
%TO.C,TP5*%
X152000000Y-107800000D03*
%TD*%
D32*
%TO.C,C9*%
X148800000Y-108200000D03*
X149760000Y-108200000D03*
%TD*%
D19*
%TO.C,TP2*%
X166900000Y-91000000D03*
%TD*%
D38*
%TO.C,J2*%
X143500000Y-84385000D03*
D39*
X146000000Y-84385000D03*
%TD*%
D21*
%TO.C,R12*%
X139600000Y-115290000D03*
X139600000Y-116310000D03*
%TD*%
D40*
%TO.C,C10*%
X144139411Y-101539411D03*
X143460589Y-100860589D03*
%TD*%
D41*
%TO.C,D4*%
X140650000Y-96000000D03*
X140650000Y-95100000D03*
X139800000Y-96000000D03*
X139800000Y-95100000D03*
%TD*%
D40*
%TO.C,C7*%
X147339411Y-104739411D03*
X146660589Y-104060589D03*
%TD*%
D42*
%TO.C,C4*%
X142600000Y-98680000D03*
X142600000Y-97720000D03*
%TD*%
D43*
%TO.C,C5*%
X142860589Y-95139411D03*
X143539411Y-94460589D03*
%TD*%
D19*
%TO.C,TP6*%
X142400000Y-110200000D03*
%TD*%
D20*
%TO.C,C6*%
X153460589Y-89460589D03*
X154139411Y-90139411D03*
%TD*%
D42*
%TO.C,C17*%
X148800000Y-113880000D03*
X148800000Y-112920000D03*
%TD*%
%LPD*%
M02*
