%TF.GenerationSoftware,KiCad,Pcbnew,9.0.2*%
%TF.CreationDate,2025-07-07T17:27:58-04:00*%
%TF.ProjectId,Cain_V1.0,4361696e-5f56-4312-9e30-2e6b69636164,rev?*%
%TF.SameCoordinates,Original*%
%TF.FileFunction,Copper,L4,Bot*%
%TF.FilePolarity,Positive*%
%FSLAX46Y46*%
G04 Gerber Fmt 4.6, Leading zero omitted, Abs format (unit mm)*
G04 Created by KiCad (PCBNEW 9.0.2) date 2025-07-07 17:27:58*
%MOMM*%
%LPD*%
G01*
G04 APERTURE LIST*
G04 Aperture macros list*
%AMRoundRect*
0 Rectangle with rounded corners*
0 $1 Rounding radius*
0 $2 $3 $4 $5 $6 $7 $8 $9 X,Y pos of 4 corners*
0 Add a 4 corners polygon primitive as box body*
4,1,4,$2,$3,$4,$5,$6,$7,$8,$9,$2,$3,0*
0 Add four circle primitives for the rounded corners*
1,1,$1+$1,$2,$3*
1,1,$1+$1,$4,$5*
1,1,$1+$1,$6,$7*
1,1,$1+$1,$8,$9*
0 Add four rect primitives between the rounded corners*
20,1,$1+$1,$2,$3,$4,$5,0*
20,1,$1+$1,$4,$5,$6,$7,0*
20,1,$1+$1,$6,$7,$8,$9,0*
20,1,$1+$1,$8,$9,$2,$3,0*%
G04 Aperture macros list end*
%TA.AperFunction,ComponentPad*%
%ADD10C,1.320800*%
%TD*%
%TA.AperFunction,ComponentPad*%
%ADD11R,1.000000X1.000000*%
%TD*%
%TA.AperFunction,ComponentPad*%
%ADD12C,1.000000*%
%TD*%
%TA.AperFunction,ComponentPad*%
%ADD13R,0.850000X0.850000*%
%TD*%
%TA.AperFunction,ComponentPad*%
%ADD14C,0.850000*%
%TD*%
%TA.AperFunction,ComponentPad*%
%ADD15RoundRect,0.250000X-0.600000X-0.750000X0.600000X-0.750000X0.600000X0.750000X-0.600000X0.750000X0*%
%TD*%
%TA.AperFunction,ComponentPad*%
%ADD16O,1.700000X2.000000*%
%TD*%
%TA.AperFunction,SMDPad,CuDef*%
%ADD17RoundRect,0.125000X-0.687500X-0.125000X0.687500X-0.125000X0.687500X0.125000X-0.687500X0.125000X0*%
%TD*%
%TA.AperFunction,SMDPad,CuDef*%
%ADD18RoundRect,0.140000X-0.170000X0.140000X-0.170000X-0.140000X0.170000X-0.140000X0.170000X0.140000X0*%
%TD*%
%TA.AperFunction,SMDPad,CuDef*%
%ADD19RoundRect,0.135000X-0.135000X-0.185000X0.135000X-0.185000X0.135000X0.185000X-0.135000X0.185000X0*%
%TD*%
%TA.AperFunction,SMDPad,CuDef*%
%ADD20RoundRect,0.140000X0.170000X-0.140000X0.170000X0.140000X-0.170000X0.140000X-0.170000X-0.140000X0*%
%TD*%
%TA.AperFunction,SMDPad,CuDef*%
%ADD21RoundRect,0.250000X0.625000X-0.312500X0.625000X0.312500X-0.625000X0.312500X-0.625000X-0.312500X0*%
%TD*%
%TA.AperFunction,SMDPad,CuDef*%
%ADD22RoundRect,0.140000X0.140000X0.170000X-0.140000X0.170000X-0.140000X-0.170000X0.140000X-0.170000X0*%
%TD*%
%TA.AperFunction,SMDPad,CuDef*%
%ADD23RoundRect,0.225000X-0.225000X-0.250000X0.225000X-0.250000X0.225000X0.250000X-0.225000X0.250000X0*%
%TD*%
%TA.AperFunction,SMDPad,CuDef*%
%ADD24RoundRect,0.250000X-0.375000X-1.075000X0.375000X-1.075000X0.375000X1.075000X-0.375000X1.075000X0*%
%TD*%
%TA.AperFunction,SMDPad,CuDef*%
%ADD25RoundRect,0.135000X0.135000X0.185000X-0.135000X0.185000X-0.135000X-0.185000X0.135000X-0.185000X0*%
%TD*%
%TA.AperFunction,SMDPad,CuDef*%
%ADD26RoundRect,0.135000X-0.185000X0.135000X-0.185000X-0.135000X0.185000X-0.135000X0.185000X0.135000X0*%
%TD*%
%TA.AperFunction,SMDPad,CuDef*%
%ADD27RoundRect,0.135000X0.185000X-0.135000X0.185000X0.135000X-0.185000X0.135000X-0.185000X-0.135000X0*%
%TD*%
%TA.AperFunction,SMDPad,CuDef*%
%ADD28RoundRect,0.135000X0.035355X-0.226274X0.226274X-0.035355X-0.035355X0.226274X-0.226274X0.035355X0*%
%TD*%
%TA.AperFunction,SMDPad,CuDef*%
%ADD29RoundRect,0.150000X-0.825000X-0.150000X0.825000X-0.150000X0.825000X0.150000X-0.825000X0.150000X0*%
%TD*%
%TA.AperFunction,SMDPad,CuDef*%
%ADD30RoundRect,0.225000X0.250000X-0.225000X0.250000X0.225000X-0.250000X0.225000X-0.250000X-0.225000X0*%
%TD*%
%TA.AperFunction,SMDPad,CuDef*%
%ADD31RoundRect,0.140000X-0.140000X-0.170000X0.140000X-0.170000X0.140000X0.170000X-0.140000X0.170000X0*%
%TD*%
%TA.AperFunction,SMDPad,CuDef*%
%ADD32RoundRect,0.150000X0.150000X-0.512500X0.150000X0.512500X-0.150000X0.512500X-0.150000X-0.512500X0*%
%TD*%
%TA.AperFunction,SMDPad,CuDef*%
%ADD33R,2.000000X1.000000*%
%TD*%
%TA.AperFunction,SMDPad,CuDef*%
%ADD34RoundRect,0.112500X0.112500X0.237500X-0.112500X0.237500X-0.112500X-0.237500X0.112500X-0.237500X0*%
%TD*%
%TA.AperFunction,SMDPad,CuDef*%
%ADD35RoundRect,0.375000X0.375000X-0.625000X0.375000X0.625000X-0.375000X0.625000X-0.375000X-0.625000X0*%
%TD*%
%TA.AperFunction,SMDPad,CuDef*%
%ADD36RoundRect,0.500000X1.400000X-0.500000X1.400000X0.500000X-1.400000X0.500000X-1.400000X-0.500000X0*%
%TD*%
%TA.AperFunction,SMDPad,CuDef*%
%ADD37RoundRect,0.112500X-0.112500X-0.237500X0.112500X-0.237500X0.112500X0.237500X-0.112500X0.237500X0*%
%TD*%
%TA.AperFunction,ViaPad*%
%ADD38C,0.700000*%
%TD*%
%TA.AperFunction,ViaPad*%
%ADD39C,0.600000*%
%TD*%
%TA.AperFunction,Conductor*%
%ADD40C,0.500000*%
%TD*%
%TA.AperFunction,Conductor*%
%ADD41C,0.300000*%
%TD*%
%TA.AperFunction,Conductor*%
%ADD42C,2.000000*%
%TD*%
%TA.AperFunction,Conductor*%
%ADD43C,0.200000*%
%TD*%
G04 APERTURE END LIST*
D10*
%TO.P,J3,1,Pin_1*%
%TO.N,/CAN2.0/Power/3.3IN*%
X159422500Y-105950000D03*
%TO.P,J3,2,Pin_2*%
%TO.N,/CAN2.0/Power/24IN*%
X159422500Y-107950001D03*
%TO.P,J3,3,Pin_3*%
%TO.N,GND*%
X161422499Y-105950000D03*
%TO.P,J3,4,Pin_4*%
X161422499Y-107950001D03*
%TO.P,J3,5,Pin_5*%
%TO.N,/CAN2.0/Power/CAN+*%
X163422500Y-105950000D03*
%TO.P,J3,6,Pin_6*%
%TO.N,/MCU/BOOT0*%
X163422500Y-107950001D03*
%TO.P,J3,7,Pin_7*%
%TO.N,/CAN2.0/Power/CAN-*%
X165422498Y-105950000D03*
%TO.P,J3,8,Pin_8*%
%TO.N,/CAN2.0/Power/NRST*%
X165422498Y-107950001D03*
%TD*%
D11*
%TO.P,J1,1,VTref*%
%TO.N,+3.3V*%
X144700000Y-90330000D03*
D12*
%TO.P,J1,2,SWDIO/TMS*%
%TO.N,/MCU/SWDIO*%
X144700000Y-91600000D03*
%TO.P,J1,3,GND*%
%TO.N,GND*%
X143430000Y-90330000D03*
%TO.P,J1,4,SWCLK/TCK*%
%TO.N,/MCU/SWCLK*%
X143430000Y-91600000D03*
%TO.P,J1,5,GND*%
%TO.N,GND*%
X142160000Y-90330000D03*
%TO.P,J1,6,SWO/TDO*%
%TO.N,/MCU/SWO*%
X142160000Y-91600000D03*
%TO.P,J1,7,KEY*%
%TO.N,unconnected-(J1-KEY-Pad7)*%
X140890000Y-90330000D03*
%TO.P,J1,8,NC/TDI*%
%TO.N,unconnected-(J1-NC{slash}TDI-Pad8)*%
X140890000Y-91600000D03*
%TO.P,J1,9,GNDDetect*%
%TO.N,GND*%
X139620000Y-90330000D03*
%TO.P,J1,10,~{RESET}*%
%TO.N,/CAN2.0/Power/NRST*%
X139620000Y-91600000D03*
%TD*%
D10*
%TO.P,J4,1,Pin_1*%
%TO.N,/CAN2.0/Power/3.3IN*%
X165400000Y-86000000D03*
%TO.P,J4,2,Pin_2*%
%TO.N,/CAN2.0/Power/24IN*%
X165400000Y-83999999D03*
%TO.P,J4,3,Pin_3*%
%TO.N,unconnected-(J4-Pin_3-Pad3)*%
X163400001Y-86000000D03*
%TO.P,J4,4,Pin_4*%
%TO.N,GND*%
X163400001Y-83999999D03*
%TO.P,J4,5,Pin_5*%
%TO.N,/CAN2.0/Power/CAN-*%
X161400000Y-86000000D03*
%TO.P,J4,6,Pin_6*%
%TO.N,/MCU/BOOT0*%
X161400000Y-83999999D03*
%TO.P,J4,7,Pin_7*%
%TO.N,/CAN2.0/Power/CAN+*%
X159400002Y-86000000D03*
%TO.P,J4,8,Pin_8*%
%TO.N,/CAN2.0/Power/NRST*%
X159400002Y-83999999D03*
%TD*%
D13*
%TO.P,J5,1,Pin_1*%
%TO.N,GND*%
X139400000Y-109600000D03*
D14*
%TO.P,J5,2,Pin_2*%
%TO.N,/EEPROM/EEPROM_SCL*%
X139400000Y-108600000D03*
%TO.P,J5,3,Pin_3*%
%TO.N,/EEPROM/EEPROM_SDA*%
X139400000Y-107600000D03*
%TO.P,J5,4,Pin_4*%
%TO.N,+3.3V*%
X139400000Y-106600000D03*
%TD*%
D13*
%TO.P,J6,1,Pin_1*%
%TO.N,+3.3V*%
X139200000Y-83400000D03*
D14*
%TO.P,J6,2,Pin_2*%
%TO.N,/MCU/UART_TX*%
X139200000Y-84400000D03*
%TO.P,J6,3,Pin_3*%
%TO.N,/MCU/UART_RX*%
X139200000Y-85400000D03*
%TO.P,J6,4,Pin_4*%
%TO.N,GND*%
X139200000Y-86400000D03*
%TD*%
D15*
%TO.P,J2,1,Pin_1*%
%TO.N,+24V*%
X143500000Y-84385000D03*
D16*
%TO.P,J2,2,Pin_2*%
%TO.N,Net-(D2-A)*%
X146000000Y-84385000D03*
%TD*%
D17*
%TO.P,U4,1,Rg*%
%TO.N,Net-(R7-Pad1)*%
X148487500Y-107775000D03*
%TO.P,U4,2,-*%
%TO.N,Net-(U4--)*%
X148487500Y-107125000D03*
%TO.P,U4,3,+*%
%TO.N,Net-(U3-Vo+)*%
X148487500Y-106475000D03*
%TO.P,U4,4,V-*%
%TO.N,GND*%
X148487500Y-105825000D03*
%TO.P,U4,5,Ref*%
%TO.N,Net-(U4-Ref)*%
X152712500Y-105825000D03*
%TO.P,U4,6*%
%TO.N,Net-(R8-Pad1)*%
X152712500Y-106475000D03*
%TO.P,U4,7,V+*%
%TO.N,+3.3VA*%
X152712500Y-107125000D03*
%TO.P,U4,8,Rg*%
%TO.N,Net-(R7-Pad2)*%
X152712500Y-107775000D03*
%TD*%
D18*
%TO.P,C18,1*%
%TO.N,+3.3VA*%
X154600000Y-107320000D03*
%TO.P,C18,2*%
%TO.N,GND*%
X154600000Y-108280000D03*
%TD*%
D19*
%TO.P,R5,1*%
%TO.N,GND*%
X150090000Y-93800000D03*
%TO.P,R5,2*%
%TO.N,Net-(Q1-G)*%
X151110000Y-93800000D03*
%TD*%
D20*
%TO.P,C15,1*%
%TO.N,Net-(U2-Vref)*%
X167200000Y-96980000D03*
%TO.P,C15,2*%
%TO.N,GND*%
X167200000Y-96020000D03*
%TD*%
%TO.P,C13,1*%
%TO.N,+3.3V*%
X157500000Y-96580000D03*
%TO.P,C13,2*%
%TO.N,GND*%
X157500000Y-95620000D03*
%TD*%
D21*
%TO.P,R15,1*%
%TO.N,+24V Pre*%
X163000000Y-93600000D03*
%TO.P,R15,2*%
%TO.N,+24V*%
X163000000Y-90675000D03*
%TD*%
D22*
%TO.P,C20,1*%
%TO.N,/MCU/ADC1{slash}Pressure*%
X153280000Y-104400000D03*
%TO.P,C20,2*%
%TO.N,GND*%
X152320000Y-104400000D03*
%TD*%
D23*
%TO.P,C16,1*%
%TO.N,+24V*%
X144225000Y-86600000D03*
%TO.P,C16,2*%
%TO.N,Net-(D2-A)*%
X145775000Y-86600000D03*
%TD*%
D24*
%TO.P,F1,1*%
%TO.N,+3.3V*%
X157800000Y-103200000D03*
%TO.P,F1,2*%
%TO.N,/CAN2.0/Power/3.3IN*%
X160600000Y-103200000D03*
%TD*%
D25*
%TO.P,R4,1*%
%TO.N,/MCU/Solenoid*%
X153710000Y-93800000D03*
%TO.P,R4,2*%
%TO.N,Net-(Q1-G)*%
X152690000Y-93800000D03*
%TD*%
D26*
%TO.P,R17,1*%
%TO.N,GND*%
X139100000Y-99390000D03*
%TO.P,R17,2*%
%TO.N,Net-(D7-K)*%
X139100000Y-100410000D03*
%TD*%
D27*
%TO.P,R8,1*%
%TO.N,Net-(R8-Pad1)*%
X154600000Y-105910000D03*
%TO.P,R8,2*%
%TO.N,/MCU/ADC1{slash}Pressure*%
X154600000Y-104890000D03*
%TD*%
D28*
%TO.P,R1,1*%
%TO.N,GND*%
X146439376Y-97160624D03*
%TO.P,R1,2*%
%TO.N,/MCU/BOOT0*%
X147160624Y-96439376D03*
%TD*%
D29*
%TO.P,U5,1,E0*%
%TO.N,GND*%
X144525000Y-103105000D03*
%TO.P,U5,2,E1*%
X144525000Y-101835000D03*
%TO.P,U5,3,E2*%
X144525000Y-100565000D03*
%TO.P,U5,4,VSS*%
X144525000Y-99295000D03*
%TO.P,U5,5,SDA*%
%TO.N,/EEPROM/EEPROM_SDA*%
X149475000Y-99295000D03*
%TO.P,U5,6,SCL*%
%TO.N,/EEPROM/EEPROM_SCL*%
X149475000Y-100565000D03*
%TO.P,U5,7,~{WC}*%
%TO.N,GND*%
X149475000Y-101835000D03*
%TO.P,U5,8,VCC*%
%TO.N,+3.3V*%
X149475000Y-103105000D03*
%TD*%
D30*
%TO.P,C1,1*%
%TO.N,+3.3V*%
X142800000Y-97375000D03*
%TO.P,C1,2*%
%TO.N,GND*%
X142800000Y-95825000D03*
%TD*%
D31*
%TO.P,C12,1*%
%TO.N,/CAN2.0/Power/NRST*%
X148320000Y-97800000D03*
%TO.P,C12,2*%
%TO.N,GND*%
X149280000Y-97800000D03*
%TD*%
D18*
%TO.P,C14,1*%
%TO.N,+3.3V*%
X157500000Y-97620000D03*
%TO.P,C14,2*%
%TO.N,GND*%
X157500000Y-98580000D03*
%TD*%
D32*
%TO.P,U6,1*%
%TO.N,/Current Sense/ADC2{slash}Current*%
X166950000Y-93337500D03*
%TO.P,U6,2,GND*%
%TO.N,GND*%
X166000000Y-93337500D03*
%TO.P,U6,3,+*%
%TO.N,+24V Pre*%
X165050000Y-93337500D03*
%TO.P,U6,4,-*%
%TO.N,+24V*%
X165050000Y-91062500D03*
%TO.P,U6,5,V+*%
%TO.N,+3.3V*%
X166950000Y-91062500D03*
%TD*%
D33*
%TO.P,U3,1,Vo-*%
%TO.N,Net-(U4--)*%
X157590000Y-111460000D03*
%TO.P,U3,2,GND*%
%TO.N,GND*%
X157590000Y-114000000D03*
%TO.P,U3,3,NC*%
%TO.N,unconnected-(U3-NC-Pad3)*%
X157590000Y-116540000D03*
%TO.P,U3,4,Vo+*%
%TO.N,Net-(U3-Vo+)*%
X148410000Y-116540000D03*
%TO.P,U3,5,Vs+*%
%TO.N,+3.3VA*%
X148410000Y-114000000D03*
%TO.P,U3,6,Vo-*%
%TO.N,Net-(U4--)*%
X148410000Y-111460000D03*
%TD*%
D26*
%TO.P,R6,1*%
%TO.N,+3.3V*%
X154400000Y-96040000D03*
%TO.P,R6,2*%
%TO.N,/EEPROM/EEPROM_SDA*%
X154400000Y-97060000D03*
%TD*%
D34*
%TO.P,D5,1,A1*%
%TO.N,/CAN2.0/Power/CAN-*%
X165750000Y-103700000D03*
%TO.P,D5,2,A2*%
%TO.N,/CAN2.0/Power/CAN+*%
X164450000Y-103700000D03*
%TO.P,D5,3,common*%
%TO.N,GND*%
X165100000Y-101700000D03*
%TD*%
D19*
%TO.P,R7,1*%
%TO.N,Net-(R7-Pad1)*%
X150090000Y-109200000D03*
%TO.P,R7,2*%
%TO.N,Net-(R7-Pad2)*%
X151110000Y-109200000D03*
%TD*%
D29*
%TO.P,U2,1,D*%
%TO.N,/CAN2.0/Power/CAN2_TX*%
X159625000Y-100005000D03*
%TO.P,U2,2,GND*%
%TO.N,GND*%
X159625000Y-98735000D03*
%TO.P,U2,3,VCC*%
%TO.N,+3.3V*%
X159625000Y-97465000D03*
%TO.P,U2,4,R*%
%TO.N,/CAN2.0/Power/CAN2_RX*%
X159625000Y-96195000D03*
%TO.P,U2,5,Vref*%
%TO.N,Net-(U2-Vref)*%
X164575000Y-96195000D03*
%TO.P,U2,6,CANL*%
%TO.N,/CAN2.0/Power/CAN-*%
X164575000Y-97465000D03*
%TO.P,U2,7,CANH*%
%TO.N,/CAN2.0/Power/CAN+*%
X164575000Y-98735000D03*
%TO.P,U2,8,Rs*%
%TO.N,Net-(U2-Rs)*%
X164575000Y-100005000D03*
%TD*%
D25*
%TO.P,R3,1*%
%TO.N,Net-(U2-Rs)*%
X163110000Y-101800000D03*
%TO.P,R3,2*%
%TO.N,GND*%
X162090000Y-101800000D03*
%TD*%
D22*
%TO.P,C19,1*%
%TO.N,Net-(U4-Ref)*%
X151080000Y-104400000D03*
%TO.P,C19,2*%
%TO.N,GND*%
X150120000Y-104400000D03*
%TD*%
%TO.P,C22,1*%
%TO.N,+3.3V*%
X166480000Y-89400000D03*
%TO.P,C22,2*%
%TO.N,GND*%
X165520000Y-89400000D03*
%TD*%
D35*
%TO.P,Q1,1,G*%
%TO.N,Net-(Q1-G)*%
X152900000Y-91550000D03*
%TO.P,Q1,2,D*%
%TO.N,Net-(D2-A)*%
X150600000Y-91550000D03*
D36*
X150600000Y-85250000D03*
D35*
%TO.P,Q1,3,S*%
%TO.N,GND*%
X148300000Y-91550000D03*
%TD*%
D20*
%TO.P,C21,1*%
%TO.N,+3.3V*%
X151400000Y-103080000D03*
%TO.P,C21,2*%
%TO.N,GND*%
X151400000Y-102120000D03*
%TD*%
D27*
%TO.P,R14,1*%
%TO.N,+3.3V*%
X154400000Y-99260000D03*
%TO.P,R14,2*%
%TO.N,/EEPROM/EEPROM_SCL*%
X154400000Y-98240000D03*
%TD*%
D37*
%TO.P,D1,1,A1*%
%TO.N,/CAN2.0/Power/CAN+*%
X159750000Y-87900000D03*
%TO.P,D1,2,A2*%
%TO.N,/CAN2.0/Power/CAN-*%
X161050000Y-87900000D03*
%TO.P,D1,3,common*%
%TO.N,GND*%
X160400000Y-89900000D03*
%TD*%
D38*
%TO.N,+3.3V*%
X147280000Y-109320000D03*
X140400000Y-111400000D03*
D39*
X157500000Y-92600000D03*
D38*
X158403580Y-98007995D03*
X154200000Y-100500000D03*
X157000000Y-81800000D03*
X141739411Y-95139411D03*
X153900000Y-88600000D03*
X141600000Y-99000000D03*
X156400000Y-103200000D03*
X140650000Y-96850000D03*
X141500000Y-96800000D03*
X167450000Y-89400000D03*
X153300000Y-96000000D03*
D39*
%TO.N,+3.3VA*%
X147850000Y-112700000D03*
X150400000Y-105800000D03*
D38*
%TO.N,Net-(D2-A)*%
X153199000Y-87000000D03*
%TO.N,+24V*%
X155400000Y-87200000D03*
X163400000Y-88700000D03*
%TO.N,/MCU/SWCLK*%
X149000000Y-89700000D03*
D39*
%TO.N,Net-(D7-A)*%
X146400000Y-99200000D03*
X140600000Y-99800000D03*
D38*
%TO.N,/CAN2.0/Power/CAN2_RX*%
X158360882Y-96760882D03*
%TO.N,/CAN2.0/Power/CAN2_TX*%
X157800000Y-100900000D03*
X156200000Y-96700000D03*
%TO.N,/EEPROM/EEPROM_SCL*%
X155300000Y-98700000D03*
%TO.N,/EEPROM/EEPROM_SDA*%
X155350000Y-97350000D03*
D39*
%TO.N,+24V Pre*%
X163600000Y-94600000D03*
X164200000Y-95200000D03*
X162000000Y-92800000D03*
X161740380Y-93340380D03*
D38*
X161200000Y-92800000D03*
X163600000Y-95200000D03*
%TO.N,/Current Sense/ADC2{slash}Current*%
X155400000Y-91700000D03*
X158000000Y-91673130D03*
X156692004Y-101700000D03*
%TO.N,GND*%
X159600000Y-117350000D03*
X156500000Y-106000000D03*
X142800000Y-100200000D03*
X151020000Y-94830000D03*
X139600000Y-117200000D03*
X159000000Y-101380000D03*
X141520000Y-97720000D03*
X154800000Y-89500000D03*
X159200000Y-111300000D03*
X146100000Y-103500000D03*
X142700000Y-94100000D03*
X158200000Y-94800000D03*
D39*
X138900000Y-98000000D03*
X138800000Y-102100000D03*
D38*
X152970000Y-94970000D03*
D39*
X148400000Y-104800000D03*
D38*
X153500000Y-85000000D03*
X166600000Y-117300000D03*
X164500000Y-111000000D03*
X143800000Y-108800000D03*
D39*
X166000000Y-91650000D03*
X147200000Y-105700000D03*
D38*
X167300000Y-94800000D03*
X141000000Y-117000000D03*
X146300000Y-104900000D03*
D39*
X164000000Y-101400000D03*
D38*
X147899000Y-89722409D03*
D39*
X161200000Y-98000000D03*
X152800000Y-100800000D03*
D38*
X146400000Y-117300000D03*
X152100000Y-102400000D03*
X139000000Y-104500000D03*
X158748008Y-90048008D03*
X148800000Y-110100000D03*
X150600000Y-108100000D03*
X150600000Y-107200000D03*
%TO.N,/CAN2.0/Power/NRST*%
X155600000Y-90400000D03*
X145000000Y-97600000D03*
X150350000Y-96550000D03*
X147500000Y-99900000D03*
%TO.N,/CAN2.0/Power/24IN*%
X161300000Y-101000000D03*
X161864121Y-100464121D03*
%TO.N,/MCU/BOOT0*%
X152400000Y-89100000D03*
X146600000Y-95800000D03*
X149600000Y-95200000D03*
X153400000Y-109000000D03*
X156600000Y-108400000D03*
%TO.N,/MCU/Solenoid*%
X154000000Y-94900000D03*
%TO.N,/MCU/ADC1{slash}Pressure*%
X155029605Y-103860589D03*
%TO.N,/MCU/LED_GREEN*%
X141137693Y-93299999D03*
X145000000Y-93300000D03*
%TO.N,/MCU/UART_RX*%
X148448691Y-94448061D03*
X141550000Y-87950000D03*
%TO.N,/MCU/UART_TX*%
X141803950Y-87086569D03*
X149280184Y-94103645D03*
D39*
%TO.N,Net-(D7-K)*%
X140300000Y-100700000D03*
%TD*%
D40*
%TO.N,+3.3V*%
X166480000Y-88720000D02*
X166800000Y-88400000D01*
X151421000Y-103101000D02*
X152390364Y-103101000D01*
X157500000Y-96580000D02*
X157500000Y-97620000D01*
D41*
X157500000Y-97620000D02*
X158015585Y-97620000D01*
X142225000Y-96800000D02*
X141500000Y-96800000D01*
D40*
X167400000Y-83000000D02*
X167400000Y-82400000D01*
X154400000Y-99260000D02*
X154400000Y-100300000D01*
D41*
X167400000Y-89350000D02*
X167400000Y-87800000D01*
D40*
X151375000Y-103105000D02*
X151400000Y-103080000D01*
X154200000Y-101291364D02*
X154200000Y-100500000D01*
X157800000Y-103200000D02*
X156400000Y-103200000D01*
X151400000Y-103080000D02*
X151421000Y-103101000D01*
X157310318Y-96580000D02*
X156048502Y-95318184D01*
X154400000Y-95856398D02*
X154400000Y-96040000D01*
X156048502Y-95318184D02*
X154938214Y-95318184D01*
D41*
X158946575Y-97465000D02*
X158403580Y-98007995D01*
D40*
X153340000Y-96040000D02*
X154400000Y-96040000D01*
D41*
X159625000Y-97465000D02*
X158946575Y-97465000D01*
D40*
X166950000Y-91062500D02*
X166950000Y-89870000D01*
D41*
X167450000Y-89400000D02*
X167400000Y-89350000D01*
X158015585Y-97620000D02*
X158403580Y-98007995D01*
D40*
X166800000Y-88400000D02*
X167400000Y-87800000D01*
X167400000Y-87800000D02*
X167400000Y-83000000D01*
X149475000Y-103105000D02*
X151375000Y-103105000D01*
X154938214Y-95318184D02*
X154400000Y-95856398D01*
X167400000Y-82400000D02*
X166800000Y-81800000D01*
X154400000Y-100300000D02*
X154200000Y-100500000D01*
X166800000Y-81800000D02*
X157000000Y-81800000D01*
X157500000Y-96580000D02*
X157310318Y-96580000D01*
X153300000Y-96000000D02*
X153340000Y-96040000D01*
X152390364Y-103101000D02*
X154200000Y-101291364D01*
X166480000Y-89400000D02*
X166480000Y-88720000D01*
D41*
X142800000Y-97375000D02*
X142225000Y-96800000D01*
D40*
X166950000Y-89870000D02*
X166480000Y-89400000D01*
%TO.N,+3.3VA*%
X151400000Y-106408636D02*
X151400000Y-106651630D01*
X150791364Y-105800000D02*
X151400000Y-106408636D01*
X151400000Y-106651630D02*
X151873370Y-107125000D01*
D41*
X152712500Y-107125000D02*
X154405000Y-107125000D01*
D40*
X148410000Y-113810000D02*
X148410000Y-114000000D01*
X151873370Y-107125000D02*
X152712500Y-107125000D01*
X150400000Y-105800000D02*
X150791364Y-105800000D01*
D41*
X154405000Y-107125000D02*
X154600000Y-107320000D01*
D40*
X147850000Y-113250000D02*
X148410000Y-113810000D01*
X147850000Y-112700000D02*
X147850000Y-113250000D01*
D41*
%TO.N,Net-(U2-Vref)*%
X166380000Y-96980000D02*
X167200000Y-96980000D01*
X165595000Y-96195000D02*
X166380000Y-96980000D01*
X164575000Y-96195000D02*
X165595000Y-96195000D01*
D42*
%TO.N,Net-(D2-A)*%
X150600000Y-91550000D02*
X150600000Y-85250000D01*
D41*
%TO.N,Net-(U4-Ref)*%
X151080000Y-105280000D02*
X151080000Y-104400000D01*
X151625000Y-105825000D02*
X151080000Y-105280000D01*
X152712500Y-105825000D02*
X151625000Y-105825000D01*
D42*
%TO.N,+24V*%
X163400000Y-88700000D02*
X163000000Y-89100000D01*
X163000000Y-89100000D02*
X163000000Y-90675000D01*
X143500000Y-84385000D02*
X143500000Y-85976000D01*
D40*
X163387500Y-91062500D02*
X163000000Y-90675000D01*
X165050000Y-91062500D02*
X163387500Y-91062500D01*
D42*
X143500000Y-85976000D02*
X144124000Y-86600000D01*
D41*
%TO.N,/MCU/SWCLK*%
X146400000Y-91188364D02*
X146400000Y-90200000D01*
X146400000Y-90200000D02*
X147500000Y-89100000D01*
X148400000Y-89100000D02*
X149000000Y-89700000D01*
X147500000Y-89100000D02*
X148400000Y-89100000D01*
X143430000Y-92230000D02*
X143800000Y-92600000D01*
X143800000Y-92600000D02*
X144988364Y-92600000D01*
X144988364Y-92600000D02*
X146400000Y-91188364D01*
X143430000Y-91600000D02*
X143430000Y-92230000D01*
%TO.N,Net-(Q1-G)*%
X151110000Y-93800000D02*
X152690000Y-93800000D01*
X152690000Y-93800000D02*
X152690000Y-91760000D01*
X152690000Y-91760000D02*
X152900000Y-91550000D01*
%TO.N,Net-(U2-Rs)*%
X163110000Y-101800000D02*
X163110000Y-100290000D01*
X163395000Y-100005000D02*
X164575000Y-100005000D01*
X163110000Y-100290000D02*
X163395000Y-100005000D01*
%TO.N,Net-(R7-Pad2)*%
X152712500Y-108687500D02*
X152712500Y-107775000D01*
X151110000Y-109200000D02*
X152200000Y-109200000D01*
X152200000Y-109200000D02*
X152712500Y-108687500D01*
%TO.N,Net-(R7-Pad1)*%
X149000000Y-109200000D02*
X148487500Y-108687500D01*
X150090000Y-109200000D02*
X149000000Y-109200000D01*
X148487500Y-108687500D02*
X148487500Y-107775000D01*
%TO.N,Net-(R8-Pad1)*%
X154035000Y-106475000D02*
X154600000Y-105910000D01*
X152712500Y-106475000D02*
X154035000Y-106475000D01*
%TO.N,Net-(D7-A)*%
X140600000Y-99800000D02*
X142350057Y-99800000D01*
X145754000Y-99846000D02*
X146400000Y-99200000D01*
X143282744Y-99599000D02*
X143529744Y-99846000D01*
X143529744Y-99846000D02*
X145754000Y-99846000D01*
X142551057Y-99599000D02*
X143282744Y-99599000D01*
X142350057Y-99800000D02*
X142551057Y-99599000D01*
%TO.N,Net-(U3-Vo+)*%
X145925000Y-106475000D02*
X148487500Y-106475000D01*
X144800000Y-107600000D02*
X145925000Y-106475000D01*
X146200000Y-112200000D02*
X144800000Y-110800000D01*
X146940000Y-116540000D02*
X146200000Y-115800000D01*
X148410000Y-116540000D02*
X146940000Y-116540000D01*
X144800000Y-110800000D02*
X144800000Y-107600000D01*
X146200000Y-115800000D02*
X146200000Y-112200000D01*
%TO.N,Net-(U4--)*%
X145800000Y-108000000D02*
X145800000Y-110200000D01*
X146675000Y-107125000D02*
X145800000Y-108000000D01*
X147060000Y-111460000D02*
X148410000Y-111460000D01*
X150140000Y-111460000D02*
X148410000Y-111460000D01*
X154700000Y-110200000D02*
X151400000Y-110200000D01*
X145800000Y-110200000D02*
X147060000Y-111460000D01*
X157590000Y-111460000D02*
X155960000Y-111460000D01*
X155960000Y-111460000D02*
X154700000Y-110200000D01*
X151400000Y-110200000D02*
X150140000Y-111460000D01*
X148487500Y-107125000D02*
X146675000Y-107125000D01*
%TO.N,/CAN2.0/Power/CAN2_RX*%
X158360882Y-96760882D02*
X158926764Y-96195000D01*
X158926764Y-96195000D02*
X159625000Y-96195000D01*
%TO.N,/CAN2.0/Power/CAN2_TX*%
X158695000Y-100005000D02*
X157800000Y-100900000D01*
X159625000Y-100005000D02*
X158695000Y-100005000D01*
%TO.N,/EEPROM/EEPROM_SCL*%
X149475000Y-100565000D02*
X151435000Y-100565000D01*
X151435000Y-100565000D02*
X153760000Y-98240000D01*
X145699000Y-105501000D02*
X146548943Y-105501000D01*
X155300000Y-98600000D02*
X154940000Y-98240000D01*
X148000000Y-104049943D02*
X148000000Y-101065001D01*
X146548943Y-105501000D02*
X148000000Y-104049943D01*
X148000000Y-101065001D02*
X148500001Y-100565000D01*
X139400000Y-108600000D02*
X142600000Y-108600000D01*
X154940000Y-98240000D02*
X154400000Y-98240000D01*
X153760000Y-98240000D02*
X154400000Y-98240000D01*
X148500001Y-100565000D02*
X149475000Y-100565000D01*
X142600000Y-108600000D02*
X145699000Y-105501000D01*
X155300000Y-98700000D02*
X155300000Y-98600000D01*
%TO.N,/EEPROM/EEPROM_SDA*%
X148101000Y-99694001D02*
X148500001Y-99295000D01*
X152740000Y-97060000D02*
X154400000Y-97060000D01*
X139400000Y-107600000D02*
X140200000Y-106800000D01*
X147200000Y-103800000D02*
X147200000Y-101049943D01*
X146000000Y-104200000D02*
X146800000Y-104200000D01*
X143400000Y-106800000D02*
X146000000Y-104200000D01*
X146800000Y-104200000D02*
X147200000Y-103800000D01*
X147200000Y-101049943D02*
X148101000Y-100148943D01*
X155060000Y-97060000D02*
X154400000Y-97060000D01*
X155350000Y-97350000D02*
X155060000Y-97060000D01*
X149475000Y-99295000D02*
X150505000Y-99295000D01*
X148500001Y-99295000D02*
X149475000Y-99295000D01*
X140200000Y-106800000D02*
X143400000Y-106800000D01*
X148101000Y-100148943D02*
X148101000Y-99694001D01*
X150505000Y-99295000D02*
X152740000Y-97060000D01*
D42*
%TO.N,+24V Pre*%
X161740380Y-93340380D02*
X162000000Y-93600000D01*
X162000000Y-93600000D02*
X163000000Y-93600000D01*
X161740380Y-93340380D02*
X161200000Y-92800000D01*
D40*
X165050000Y-93337500D02*
X163262500Y-93337500D01*
X163262500Y-93337500D02*
X163000000Y-93600000D01*
D41*
%TO.N,/Current Sense/ADC2{slash}Current*%
X158818234Y-91673130D02*
X159042364Y-91449000D01*
X158000000Y-91673130D02*
X158818234Y-91673130D01*
X162510602Y-92200000D02*
X166474999Y-92200000D01*
X166474999Y-92200000D02*
X166950000Y-92675001D01*
X166950000Y-92675001D02*
X166950000Y-93337500D01*
X159042364Y-91449000D02*
X161759602Y-91449000D01*
X161759602Y-91449000D02*
X162510602Y-92200000D01*
D40*
%TO.N,GND*%
X151115000Y-101835000D02*
X151400000Y-102120000D01*
X152320000Y-104280000D02*
X153000000Y-103600000D01*
X152320000Y-104400000D02*
X152320000Y-104280000D01*
X149475000Y-101835000D02*
X151115000Y-101835000D01*
D41*
%TO.N,/CAN2.0/Power/NRST*%
X157800000Y-85600001D02*
X159400002Y-83999999D01*
X157800000Y-86300000D02*
X157100000Y-87000000D01*
X143801000Y-93101000D02*
X142901000Y-93101000D01*
X142400000Y-92600000D02*
X140620000Y-92600000D01*
X140620000Y-92600000D02*
X139620000Y-91600000D01*
X148320000Y-98491872D02*
X147500000Y-99311872D01*
X145000000Y-94300000D02*
X143801000Y-93101000D01*
X142901000Y-93101000D02*
X142400000Y-92600000D01*
X147500000Y-99311872D02*
X147500000Y-99900000D01*
X145000000Y-97600000D02*
X145000000Y-94300000D01*
X157800000Y-86300000D02*
X157800000Y-85600001D01*
X157100000Y-88900000D02*
X155600000Y-90400000D01*
X157100000Y-87000000D02*
X157100000Y-88900000D01*
X148320000Y-97800000D02*
X148320000Y-98491872D01*
D40*
%TO.N,/CAN2.0/Power/3.3IN*%
X160600000Y-103200000D02*
X160600000Y-104772500D01*
X160600000Y-104772500D02*
X159422500Y-105950000D01*
D41*
%TO.N,/MCU/BOOT0*%
X158800000Y-82700000D02*
X160100001Y-82700000D01*
X160100001Y-82700000D02*
X161400000Y-83999999D01*
X152400000Y-89100000D02*
X158800000Y-82700000D01*
X147160624Y-96439376D02*
X147160624Y-96360624D01*
X147160624Y-96360624D02*
X146600000Y-95800000D01*
D43*
%TO.N,/CAN2.0/Power/CAN-*%
X158768198Y-89250000D02*
X159968198Y-89250000D01*
X164575000Y-97465000D02*
X163900000Y-97465000D01*
X163093198Y-97875000D02*
X161825000Y-96606802D01*
X166802589Y-97984391D02*
X166693198Y-97875000D01*
X165325000Y-104125000D02*
X165325000Y-104377320D01*
X160208198Y-93690000D02*
X156908198Y-93690000D01*
X161400000Y-86000000D02*
X160625000Y-86775000D01*
X161825000Y-96606802D02*
X161825000Y-95306802D01*
X161050000Y-87374999D02*
X161050000Y-87900000D01*
X165325000Y-104377320D02*
X164647501Y-105054819D01*
X165750000Y-103036397D02*
X166388265Y-102398132D01*
X156725000Y-91604203D02*
X156725000Y-91293198D01*
X164647501Y-105054819D02*
X164647501Y-105175001D01*
X166388265Y-102398132D02*
X167425000Y-101361397D01*
X157488674Y-90529520D02*
X157573528Y-90444669D01*
X157573528Y-90444669D02*
X158768198Y-89250000D01*
X160625001Y-88324999D02*
X161050000Y-87900000D01*
X163490000Y-97875000D02*
X163093198Y-97875000D01*
X165750000Y-103700000D02*
X165325000Y-104125000D01*
X161825000Y-95306802D02*
X160208198Y-93690000D01*
X167425000Y-98606802D02*
X166802589Y-97984391D01*
X159968198Y-89250000D02*
X160418498Y-88799700D01*
X160418498Y-88799700D02*
X160625001Y-88593197D01*
X166693198Y-97875000D02*
X166447501Y-97875000D01*
X156725000Y-93506802D02*
X156725000Y-92254203D01*
X157473690Y-91363065D02*
X157558542Y-91278212D01*
X160625001Y-88593197D02*
X160625001Y-88324999D01*
X167425000Y-101361397D02*
X167425000Y-98606802D01*
X157558542Y-90938800D02*
X157488674Y-90868932D01*
X156908198Y-93690000D02*
X156725000Y-93506802D01*
X163900000Y-97465000D02*
X163490000Y-97875000D01*
X157064411Y-91293198D02*
X157134278Y-91363065D01*
X166037501Y-97465000D02*
X164575000Y-97465000D01*
X166447501Y-97875000D02*
X166037501Y-97465000D01*
X160625000Y-86775000D02*
X160625000Y-86949999D01*
X164647501Y-105175001D02*
X165422500Y-105950000D01*
X160625000Y-86949999D02*
X161050000Y-87374999D01*
X156725000Y-92254203D02*
X156725000Y-91604203D01*
X165750000Y-103700000D02*
X165750000Y-103036397D01*
X156725000Y-91293198D02*
G75*
G02*
X157064411Y-91293197I169706J-169707D01*
G01*
X157558542Y-91278212D02*
G75*
G03*
X157558548Y-90938794I-169742J169712D01*
G01*
X157488674Y-90868932D02*
G75*
G02*
X157488648Y-90529494I169726J169732D01*
G01*
X157134278Y-91363065D02*
G75*
G03*
X157473690Y-91363065I169706J169704D01*
G01*
%TO.N,/CAN2.0/Power/CAN+*%
X156275000Y-93693198D02*
X156721802Y-94140000D01*
X160175000Y-86775000D02*
X160175000Y-86949999D01*
X166447501Y-98325000D02*
X166349575Y-98422926D01*
X159750000Y-87374999D02*
X159750000Y-87900000D01*
X162906802Y-98325000D02*
X163490000Y-98325000D01*
X156721802Y-94140000D02*
X160021802Y-94140000D01*
X160175000Y-86949999D02*
X159750000Y-87374999D01*
X166506802Y-98325000D02*
X166447501Y-98325000D01*
X164875000Y-104190924D02*
X164197499Y-104868425D01*
X166975000Y-101175000D02*
X166975000Y-100260514D01*
X159400000Y-86000000D02*
X160175000Y-86775000D01*
X160174999Y-88406803D02*
X159781802Y-88800000D01*
X166975000Y-99060514D02*
X166975000Y-98793198D01*
X156275000Y-91106802D02*
X156275000Y-93693198D01*
X164197499Y-104868425D02*
X164197499Y-105175001D01*
X160021802Y-94140000D02*
X161375000Y-95493198D01*
X164450000Y-103700000D02*
X166975000Y-101175000D01*
X166975000Y-99315852D02*
X166975000Y-99060514D01*
X163490000Y-98325000D02*
X163900000Y-98735000D01*
X164450000Y-103700000D02*
X164875000Y-104125000D01*
X160174999Y-88324999D02*
X160174999Y-88406803D01*
X166975000Y-98793198D02*
X166506802Y-98325000D01*
X159781802Y-88800000D02*
X158581802Y-88800000D01*
X166037501Y-98735000D02*
X164575000Y-98735000D01*
X158581802Y-88800000D02*
X156275000Y-91106802D01*
X166349575Y-98422926D02*
X166037501Y-98735000D01*
X164875000Y-104125000D02*
X164875000Y-104190924D01*
X159750000Y-87900000D02*
X160174999Y-88324999D01*
X166630338Y-99915852D02*
X166630338Y-99660514D01*
X161375000Y-96793198D02*
X162906802Y-98325000D01*
X163900000Y-98735000D02*
X164575000Y-98735000D01*
X164197499Y-105175001D02*
X163422500Y-105950000D01*
X161375000Y-95493198D02*
X161375000Y-96793198D01*
X166975000Y-100260514D02*
G75*
G03*
X166802669Y-100088200I-172300J14D01*
G01*
X166802669Y-99488183D02*
G75*
G03*
X166974983Y-99315852I31J172283D01*
G01*
X166802669Y-100088183D02*
G75*
G02*
X166630417Y-99915852I31J172283D01*
G01*
X166630338Y-99660514D02*
G75*
G02*
X166802669Y-99488138I172362J14D01*
G01*
D41*
%TO.N,/MCU/Solenoid*%
X153710000Y-94610000D02*
X154000000Y-94900000D01*
X153710000Y-93800000D02*
X153710000Y-94610000D01*
%TO.N,/MCU/ADC1{slash}Pressure*%
X154600000Y-104600000D02*
X154400000Y-104400000D01*
X154600000Y-104600000D02*
X155029605Y-104170395D01*
X155029605Y-104170395D02*
X155029605Y-103860589D01*
X154600000Y-104890000D02*
X154600000Y-104600000D01*
X154400000Y-104400000D02*
X153280000Y-104400000D01*
%TO.N,Net-(D7-K)*%
X140300000Y-100700000D02*
X139390000Y-100700000D01*
X139390000Y-100700000D02*
X139100000Y-100410000D01*
%TD*%
%TA.AperFunction,Conductor*%
%TO.N,Net-(D2-A)*%
G36*
X147410007Y-82419685D02*
G01*
X147437116Y-82443302D01*
X148600000Y-83800000D01*
X154076000Y-83800000D01*
X154143039Y-83819685D01*
X154188794Y-83872489D01*
X154200000Y-83924000D01*
X154200000Y-84212850D01*
X154180315Y-84279889D01*
X154127511Y-84325644D01*
X154058353Y-84335588D01*
X154007109Y-84315952D01*
X153902860Y-84246295D01*
X153748082Y-84182184D01*
X153748074Y-84182182D01*
X153583771Y-84149500D01*
X153583767Y-84149500D01*
X153416233Y-84149500D01*
X153416228Y-84149500D01*
X153251925Y-84182182D01*
X153251917Y-84182184D01*
X153097139Y-84246295D01*
X152957837Y-84339373D01*
X152839373Y-84457837D01*
X152746295Y-84597139D01*
X152682184Y-84751917D01*
X152682182Y-84751925D01*
X152649500Y-84916228D01*
X152649500Y-85083771D01*
X152682182Y-85248074D01*
X152682184Y-85248082D01*
X152746295Y-85402860D01*
X152839373Y-85542162D01*
X152957837Y-85660626D01*
X153050494Y-85722537D01*
X153097137Y-85753703D01*
X153251918Y-85817816D01*
X153416228Y-85850499D01*
X153416232Y-85850500D01*
X153416233Y-85850500D01*
X153583768Y-85850500D01*
X153583769Y-85850499D01*
X153748082Y-85817816D01*
X153902863Y-85753703D01*
X154007111Y-85684046D01*
X154073786Y-85663169D01*
X154141166Y-85681653D01*
X154187857Y-85733632D01*
X154200000Y-85787149D01*
X154200000Y-86328692D01*
X154180315Y-86395731D01*
X154163681Y-86416373D01*
X153016373Y-87563681D01*
X152955050Y-87597166D01*
X152928692Y-87600000D01*
X145495541Y-87600000D01*
X145428502Y-87580315D01*
X145382747Y-87527511D01*
X145372803Y-87458353D01*
X145395224Y-87403113D01*
X145407342Y-87386434D01*
X145514568Y-87175992D01*
X145514569Y-87175989D01*
X145517200Y-87167890D01*
X145587552Y-86951368D01*
X145617476Y-86762434D01*
X145624499Y-86718097D01*
X145624499Y-86481902D01*
X145600232Y-86328692D01*
X145587552Y-86248631D01*
X145514568Y-86024008D01*
X145407343Y-85813566D01*
X145268517Y-85622490D01*
X145036819Y-85390792D01*
X145003334Y-85329469D01*
X145000500Y-85303111D01*
X145000500Y-84266902D01*
X144963553Y-84033631D01*
X144890565Y-83809000D01*
X144864014Y-83756891D01*
X144850499Y-83700597D01*
X144850499Y-83584998D01*
X144850498Y-83584981D01*
X144839999Y-83482203D01*
X144839998Y-83482200D01*
X144784814Y-83315666D01*
X144692712Y-83166344D01*
X144568656Y-83042288D01*
X144568653Y-83042286D01*
X144558899Y-83036269D01*
X144512177Y-82984320D01*
X144500000Y-82930733D01*
X144500000Y-82524000D01*
X144519685Y-82456961D01*
X144572489Y-82411206D01*
X144624000Y-82400000D01*
X147342968Y-82400000D01*
X147410007Y-82419685D01*
G37*
%TD.AperFunction*%
%TD*%
%TA.AperFunction,Conductor*%
%TO.N,GND*%
G36*
X160971945Y-96514804D02*
G01*
X161015397Y-96569519D01*
X161024500Y-96616153D01*
X161024500Y-96839342D01*
X161031235Y-96864476D01*
X161048061Y-96927274D01*
X161048385Y-96928485D01*
X161094527Y-97008406D01*
X161094529Y-97008409D01*
X161094530Y-97008410D01*
X162691590Y-98605470D01*
X162691591Y-98605471D01*
X162691593Y-98605472D01*
X162721665Y-98622834D01*
X162771514Y-98651614D01*
X162860658Y-98675500D01*
X163225500Y-98675500D01*
X163292539Y-98695185D01*
X163338294Y-98747989D01*
X163349500Y-98799499D01*
X163349500Y-98916517D01*
X163355529Y-98954580D01*
X163364354Y-99010304D01*
X163421950Y-99123342D01*
X163421952Y-99123344D01*
X163421954Y-99123347D01*
X163511652Y-99213045D01*
X163511654Y-99213046D01*
X163511658Y-99213050D01*
X163602851Y-99259515D01*
X163606462Y-99262926D01*
X163611258Y-99264219D01*
X163631609Y-99286675D01*
X163653647Y-99307490D01*
X163654841Y-99312312D01*
X163658176Y-99315992D01*
X163663155Y-99345888D01*
X163670442Y-99375311D01*
X163668839Y-99380012D01*
X163669656Y-99384912D01*
X163657680Y-99412757D01*
X163647904Y-99441446D01*
X163643478Y-99445781D01*
X163642052Y-99449098D01*
X163631327Y-99457684D01*
X163615900Y-99472798D01*
X163609611Y-99477039D01*
X163511658Y-99526950D01*
X163461984Y-99576623D01*
X163452090Y-99583298D01*
X163429712Y-99590412D01*
X163409105Y-99601666D01*
X163386767Y-99604067D01*
X163385505Y-99604469D01*
X163384800Y-99604279D01*
X163382746Y-99604500D01*
X163342273Y-99604500D01*
X163240410Y-99631793D01*
X163149087Y-99684520D01*
X163149084Y-99684522D01*
X162789522Y-100044084D01*
X162789520Y-100044087D01*
X162738888Y-100131784D01*
X162736793Y-100135412D01*
X162723099Y-100186519D01*
X162723099Y-100186520D01*
X162723098Y-100186519D01*
X162709500Y-100237269D01*
X162709500Y-100946402D01*
X162689815Y-101013441D01*
X162637011Y-101059196D01*
X162567853Y-101069140D01*
X162522379Y-101053134D01*
X162479191Y-101027593D01*
X162479190Y-101027592D01*
X162419539Y-101010262D01*
X162360654Y-100972655D01*
X162331448Y-100909183D01*
X162341194Y-100839996D01*
X162346740Y-100829199D01*
X162423698Y-100695905D01*
X162464621Y-100543178D01*
X162464621Y-100385064D01*
X162423698Y-100232337D01*
X162416331Y-100219576D01*
X162344645Y-100095411D01*
X162344639Y-100095403D01*
X162232838Y-99983602D01*
X162232830Y-99983596D01*
X162095911Y-99904547D01*
X162095907Y-99904545D01*
X162095905Y-99904544D01*
X161943178Y-99863621D01*
X161785064Y-99863621D01*
X161632337Y-99904544D01*
X161632330Y-99904547D01*
X161495411Y-99983596D01*
X161495403Y-99983602D01*
X161383602Y-100095403D01*
X161383596Y-100095411D01*
X161304547Y-100232330D01*
X161304544Y-100232335D01*
X161297268Y-100259491D01*
X161283062Y-100312511D01*
X161281284Y-100319145D01*
X161244918Y-100378805D01*
X161193604Y-100406825D01*
X161180484Y-100410341D01*
X161068214Y-100440423D01*
X161068211Y-100440425D01*
X160985658Y-100488086D01*
X160917758Y-100504557D01*
X160851732Y-100481704D01*
X160808542Y-100426783D01*
X160801901Y-100357229D01*
X160813173Y-100324409D01*
X160835646Y-100280304D01*
X160835647Y-100280300D01*
X160850500Y-100186522D01*
X160850500Y-100186520D01*
X160850499Y-99823482D01*
X160846133Y-99795917D01*
X160835646Y-99729696D01*
X160778050Y-99616658D01*
X160778044Y-99616652D01*
X160772311Y-99608759D01*
X160775248Y-99606624D01*
X160750462Y-99561231D01*
X160755446Y-99491539D01*
X160797318Y-99435606D01*
X160808509Y-99428140D01*
X160851552Y-99402685D01*
X160851561Y-99402678D01*
X160967678Y-99286561D01*
X160967685Y-99286552D01*
X161051281Y-99145198D01*
X161097100Y-98987486D01*
X161097295Y-98985001D01*
X161097295Y-98985000D01*
X158144000Y-98985000D01*
X158076961Y-98965315D01*
X158031206Y-98912511D01*
X158020000Y-98861000D01*
X158020000Y-98830000D01*
X157750000Y-98830000D01*
X157750000Y-99358789D01*
X157770910Y-99357145D01*
X157926195Y-99312031D01*
X158065374Y-99229721D01*
X158065376Y-99229719D01*
X158067532Y-99227564D01*
X158069640Y-99226412D01*
X158071544Y-99224936D01*
X158071782Y-99225242D01*
X158128853Y-99194076D01*
X158198545Y-99199055D01*
X158254481Y-99240923D01*
X158261951Y-99252119D01*
X158282315Y-99286553D01*
X158282321Y-99286561D01*
X158398438Y-99402678D01*
X158398444Y-99402682D01*
X158441491Y-99428140D01*
X158489175Y-99479209D01*
X158501679Y-99547951D01*
X158487076Y-99594533D01*
X158478562Y-99610045D01*
X158471950Y-99616658D01*
X158433257Y-99692595D01*
X158432338Y-99694270D01*
X158429932Y-99696664D01*
X158411314Y-99722291D01*
X157870426Y-100263181D01*
X157809103Y-100296666D01*
X157782745Y-100299500D01*
X157720943Y-100299500D01*
X157568216Y-100340423D01*
X157568209Y-100340426D01*
X157431290Y-100419475D01*
X157431282Y-100419481D01*
X157319481Y-100531282D01*
X157319475Y-100531290D01*
X157240426Y-100668209D01*
X157240423Y-100668216D01*
X157199500Y-100820943D01*
X157199500Y-100979057D01*
X157215246Y-101037821D01*
X157223629Y-101069107D01*
X157221966Y-101138957D01*
X157182803Y-101196819D01*
X157118575Y-101224323D01*
X157049673Y-101212736D01*
X157041855Y-101208588D01*
X156923788Y-101140423D01*
X156864519Y-101124542D01*
X156771061Y-101099500D01*
X156612947Y-101099500D01*
X156460220Y-101140423D01*
X156460213Y-101140426D01*
X156323294Y-101219475D01*
X156323286Y-101219481D01*
X156211485Y-101331282D01*
X156211479Y-101331290D01*
X156132430Y-101468209D01*
X156132427Y-101468216D01*
X156091504Y-101620943D01*
X156091504Y-101779057D01*
X156130610Y-101925000D01*
X156132427Y-101931783D01*
X156132430Y-101931790D01*
X156211479Y-102068709D01*
X156211483Y-102068714D01*
X156211484Y-102068716D01*
X156323288Y-102180520D01*
X156323290Y-102180521D01*
X156323294Y-102180524D01*
X156436704Y-102246000D01*
X156460220Y-102259577D01*
X156612947Y-102300500D01*
X156612949Y-102300500D01*
X156771059Y-102300500D01*
X156771061Y-102300500D01*
X156771062Y-102300499D01*
X156779117Y-102299439D01*
X156779384Y-102301474D01*
X156793394Y-102301806D01*
X156818147Y-102298247D01*
X156827720Y-102302618D01*
X156838241Y-102302868D01*
X156858952Y-102316882D01*
X156881703Y-102327272D01*
X156887393Y-102336126D01*
X156896108Y-102342023D01*
X156905954Y-102365008D01*
X156919477Y-102386050D01*
X156921754Y-102401891D01*
X156923621Y-102406248D01*
X156924500Y-102420985D01*
X156924500Y-102575500D01*
X156904815Y-102642539D01*
X156852011Y-102688294D01*
X156800500Y-102699500D01*
X156767334Y-102699500D01*
X156705334Y-102682887D01*
X156631786Y-102640424D01*
X156631785Y-102640423D01*
X156631784Y-102640423D01*
X156479057Y-102599500D01*
X156320943Y-102599500D01*
X156168216Y-102640423D01*
X156168209Y-102640426D01*
X156031290Y-102719475D01*
X156031282Y-102719481D01*
X155919481Y-102831282D01*
X155919475Y-102831290D01*
X155840426Y-102968209D01*
X155840423Y-102968216D01*
X155799500Y-103120943D01*
X155799500Y-103279057D01*
X155826567Y-103380070D01*
X155840423Y-103431783D01*
X155840426Y-103431790D01*
X155919475Y-103568709D01*
X155919479Y-103568714D01*
X155919480Y-103568716D01*
X156031284Y-103680520D01*
X156031286Y-103680521D01*
X156031290Y-103680524D01*
X156113500Y-103727987D01*
X156168216Y-103759577D01*
X156320943Y-103800500D01*
X156320945Y-103800500D01*
X156479055Y-103800500D01*
X156479057Y-103800500D01*
X156631784Y-103759577D01*
X156705334Y-103717112D01*
X156720822Y-103712962D01*
X156732399Y-103705523D01*
X156767334Y-103700500D01*
X156800501Y-103700500D01*
X156867540Y-103720185D01*
X156913295Y-103772989D01*
X156924501Y-103824500D01*
X156924501Y-104322876D01*
X156930908Y-104382483D01*
X156981202Y-104517328D01*
X156981206Y-104517335D01*
X157067452Y-104632544D01*
X157067455Y-104632547D01*
X157182664Y-104718793D01*
X157182671Y-104718797D01*
X157317517Y-104769091D01*
X157317516Y-104769091D01*
X157324444Y-104769835D01*
X157377127Y-104775500D01*
X158222872Y-104775499D01*
X158282483Y-104769091D01*
X158417331Y-104718796D01*
X158532546Y-104632546D01*
X158618796Y-104517331D01*
X158669091Y-104382483D01*
X158675500Y-104322873D01*
X158675499Y-102077128D01*
X158669091Y-102017517D01*
X158637114Y-101931783D01*
X158618797Y-101882671D01*
X158618793Y-101882664D01*
X158532547Y-101767455D01*
X158532544Y-101767452D01*
X158417335Y-101681206D01*
X158417328Y-101681202D01*
X158282482Y-101630908D01*
X158282483Y-101630908D01*
X158222883Y-101624501D01*
X158222881Y-101624500D01*
X158222873Y-101624500D01*
X158222865Y-101624500D01*
X158208904Y-101624500D01*
X158141865Y-101604815D01*
X158096110Y-101552011D01*
X158086166Y-101482853D01*
X158115191Y-101419297D01*
X158146906Y-101393112D01*
X158152487Y-101389889D01*
X158168716Y-101380520D01*
X158280520Y-101268716D01*
X158359577Y-101131784D01*
X158400500Y-100979057D01*
X158400500Y-100917254D01*
X158420185Y-100850215D01*
X158436815Y-100829577D01*
X158674673Y-100591718D01*
X158735994Y-100558235D01*
X158763609Y-100556359D01*
X158763609Y-100555500D01*
X158768480Y-100555499D01*
X158768481Y-100555500D01*
X160481518Y-100555499D01*
X160575304Y-100540646D01*
X160622399Y-100516649D01*
X160691066Y-100503753D01*
X160755807Y-100530029D01*
X160796064Y-100587135D01*
X160799057Y-100656940D01*
X160786081Y-100689133D01*
X160740423Y-100768215D01*
X160740423Y-100768216D01*
X160699500Y-100920943D01*
X160699500Y-101079057D01*
X160738732Y-101225471D01*
X160740423Y-101231783D01*
X160740426Y-101231790D01*
X160819475Y-101368709D01*
X160819481Y-101368717D01*
X160863583Y-101412819D01*
X160897068Y-101474142D01*
X160892084Y-101543834D01*
X160850212Y-101599767D01*
X160784748Y-101624184D01*
X160775902Y-101624500D01*
X160177129Y-101624500D01*
X160177123Y-101624501D01*
X160117516Y-101630908D01*
X159982671Y-101681202D01*
X159982664Y-101681206D01*
X159867455Y-101767452D01*
X159867452Y-101767455D01*
X159781206Y-101882664D01*
X159781202Y-101882671D01*
X159730908Y-102017517D01*
X159729128Y-102034078D01*
X159724501Y-102077123D01*
X159724500Y-102077135D01*
X159724500Y-104322870D01*
X159724501Y-104322876D01*
X159730908Y-104382483D01*
X159781202Y-104517328D01*
X159781206Y-104517335D01*
X159872768Y-104639645D01*
X159870027Y-104641696D01*
X159895600Y-104688530D01*
X159890616Y-104758222D01*
X159862115Y-104802569D01*
X159653642Y-105011042D01*
X159592319Y-105044527D01*
X159541770Y-105044978D01*
X159512220Y-105039100D01*
X159512216Y-105039100D01*
X159332784Y-105039100D01*
X159332782Y-105039100D01*
X159156805Y-105074104D01*
X159156795Y-105074107D01*
X158991033Y-105142767D01*
X158991020Y-105142774D01*
X158841835Y-105242457D01*
X158841831Y-105242460D01*
X158714960Y-105369331D01*
X158714957Y-105369335D01*
X158615274Y-105518520D01*
X158615267Y-105518533D01*
X158546607Y-105684295D01*
X158546604Y-105684305D01*
X158511600Y-105860281D01*
X158511600Y-105860284D01*
X158511600Y-106039716D01*
X158511600Y-106039718D01*
X158511599Y-106039718D01*
X158546604Y-106215694D01*
X158546607Y-106215704D01*
X158615267Y-106381466D01*
X158615274Y-106381479D01*
X158714957Y-106530664D01*
X158714960Y-106530668D01*
X158841831Y-106657539D01*
X158841835Y-106657542D01*
X158991020Y-106757225D01*
X158991033Y-106757232D01*
X159156795Y-106825892D01*
X159156800Y-106825894D01*
X159169311Y-106828382D01*
X159231222Y-106860766D01*
X159265797Y-106921482D01*
X159262058Y-106991251D01*
X159221193Y-107047924D01*
X159169317Y-107071616D01*
X159156809Y-107074104D01*
X159156795Y-107074108D01*
X158991033Y-107142768D01*
X158991020Y-107142775D01*
X158841835Y-107242458D01*
X158841831Y-107242461D01*
X158714960Y-107369332D01*
X158714957Y-107369336D01*
X158615274Y-107518521D01*
X158615267Y-107518534D01*
X158546607Y-107684296D01*
X158546604Y-107684306D01*
X158511600Y-107860282D01*
X158511600Y-107860285D01*
X158511600Y-108039717D01*
X158511600Y-108039719D01*
X158511599Y-108039719D01*
X158546604Y-108215695D01*
X158546607Y-108215705D01*
X158615267Y-108381467D01*
X158615274Y-108381480D01*
X158714957Y-108530665D01*
X158714960Y-108530669D01*
X158841831Y-108657540D01*
X158841835Y-108657543D01*
X158991020Y-108757226D01*
X158991033Y-108757233D01*
X159156795Y-108825893D01*
X159156800Y-108825895D01*
X159156804Y-108825895D01*
X159156805Y-108825896D01*
X159332781Y-108860901D01*
X159332784Y-108860901D01*
X159512218Y-108860901D01*
X159630610Y-108837350D01*
X159688200Y-108825895D01*
X159757872Y-108797036D01*
X159828668Y-108767712D01*
X159853967Y-108757233D01*
X159853970Y-108757231D01*
X159853973Y-108757230D01*
X160003165Y-108657543D01*
X160130042Y-108530666D01*
X160174752Y-108463751D01*
X160228363Y-108418948D01*
X160297688Y-108410240D01*
X160360716Y-108440394D01*
X160388339Y-108476348D01*
X160430034Y-108558179D01*
X160442966Y-108575979D01*
X161016099Y-108002846D01*
X161016099Y-108003505D01*
X161043794Y-108106866D01*
X161097298Y-108199537D01*
X161172963Y-108275202D01*
X161265634Y-108328706D01*
X161368995Y-108356401D01*
X161369652Y-108356401D01*
X160796518Y-108929532D01*
X160814316Y-108942463D01*
X160977055Y-109025384D01*
X161150770Y-109081828D01*
X161331169Y-109110401D01*
X161513829Y-109110401D01*
X161694227Y-109081828D01*
X161867942Y-109025384D01*
X162030677Y-108942466D01*
X162048478Y-108929532D01*
X161475347Y-108356401D01*
X161476003Y-108356401D01*
X161579364Y-108328706D01*
X161672035Y-108275202D01*
X161747700Y-108199537D01*
X161801204Y-108106866D01*
X161828899Y-108003505D01*
X161828899Y-108002848D01*
X162402030Y-108575979D01*
X162414965Y-108558177D01*
X162456659Y-108476348D01*
X162504633Y-108425552D01*
X162572454Y-108408756D01*
X162638589Y-108431293D01*
X162670246Y-108463751D01*
X162714957Y-108530665D01*
X162714960Y-108530669D01*
X162841831Y-108657540D01*
X162841835Y-108657543D01*
X162991020Y-108757226D01*
X162991033Y-108757233D01*
X163156795Y-108825893D01*
X163156800Y-108825895D01*
X163156804Y-108825895D01*
X163156805Y-108825896D01*
X163332781Y-108860901D01*
X163332784Y-108860901D01*
X163512218Y-108860901D01*
X163630610Y-108837350D01*
X163688200Y-108825895D01*
X163846257Y-108760426D01*
X163853966Y-108757233D01*
X163853966Y-108757232D01*
X163853973Y-108757230D01*
X164003165Y-108657543D01*
X164130042Y-108530666D01*
X164229729Y-108381474D01*
X164298394Y-108215701D01*
X164300882Y-108203193D01*
X164333266Y-108141284D01*
X164393982Y-108106710D01*
X164463751Y-108110449D01*
X164520424Y-108151315D01*
X164544115Y-108203192D01*
X164546604Y-108215701D01*
X164546605Y-108215703D01*
X164546605Y-108215705D01*
X164615265Y-108381467D01*
X164615272Y-108381480D01*
X164714955Y-108530665D01*
X164714958Y-108530669D01*
X164841829Y-108657540D01*
X164841833Y-108657543D01*
X164991018Y-108757226D01*
X164991031Y-108757233D01*
X165156793Y-108825893D01*
X165156798Y-108825895D01*
X165156802Y-108825895D01*
X165156803Y-108825896D01*
X165332779Y-108860901D01*
X165332782Y-108860901D01*
X165512216Y-108860901D01*
X165630608Y-108837350D01*
X165688198Y-108825895D01*
X165846255Y-108760426D01*
X165853964Y-108757233D01*
X165853964Y-108757232D01*
X165853971Y-108757230D01*
X166003163Y-108657543D01*
X166130040Y-108530666D01*
X166229727Y-108381474D01*
X166298392Y-108215701D01*
X166321847Y-108097788D01*
X166333398Y-108039719D01*
X166333398Y-107860282D01*
X166298393Y-107684306D01*
X166298392Y-107684305D01*
X166298392Y-107684301D01*
X166291032Y-107666533D01*
X166229730Y-107518534D01*
X166229723Y-107518521D01*
X166130040Y-107369336D01*
X166130037Y-107369332D01*
X166003166Y-107242461D01*
X166003162Y-107242458D01*
X165853977Y-107142775D01*
X165853964Y-107142768D01*
X165688202Y-107074108D01*
X165688194Y-107074106D01*
X165675682Y-107071617D01*
X165613771Y-107039230D01*
X165579199Y-106978513D01*
X165582940Y-106908744D01*
X165623808Y-106852073D01*
X165675686Y-106828382D01*
X165688198Y-106825894D01*
X165853971Y-106757229D01*
X166003163Y-106657542D01*
X166130040Y-106530665D01*
X166229727Y-106381473D01*
X166298392Y-106215700D01*
X166313845Y-106138015D01*
X166333398Y-106039718D01*
X166333398Y-105860281D01*
X166298393Y-105684305D01*
X166298392Y-105684304D01*
X166298392Y-105684300D01*
X166260872Y-105593717D01*
X166229730Y-105518533D01*
X166229723Y-105518520D01*
X166130040Y-105369335D01*
X166130037Y-105369331D01*
X166003166Y-105242460D01*
X166003162Y-105242457D01*
X165853977Y-105142774D01*
X165853964Y-105142767D01*
X165688202Y-105074107D01*
X165688192Y-105074104D01*
X165512216Y-105039100D01*
X165512214Y-105039100D01*
X165458263Y-105039100D01*
X165391224Y-105019415D01*
X165345469Y-104966611D01*
X165335525Y-104897453D01*
X165364550Y-104833897D01*
X165370582Y-104827419D01*
X165480890Y-104717111D01*
X165605469Y-104592532D01*
X165619934Y-104567479D01*
X165651613Y-104512611D01*
X165651614Y-104512608D01*
X165662657Y-104471393D01*
X165675500Y-104423464D01*
X165675500Y-104411255D01*
X165678298Y-104398308D01*
X165688923Y-104378784D01*
X165695185Y-104357460D01*
X165705298Y-104348696D01*
X165711698Y-104336938D01*
X165731195Y-104326257D01*
X165747989Y-104311705D01*
X165764193Y-104308179D01*
X165772975Y-104303369D01*
X165783056Y-104304076D01*
X165799500Y-104300499D01*
X165896950Y-104300499D01*
X165928834Y-104295854D01*
X165967509Y-104290220D01*
X166076347Y-104237012D01*
X166162012Y-104151347D01*
X166215220Y-104042509D01*
X166225500Y-103971949D01*
X166225499Y-103428052D01*
X166215220Y-103357491D01*
X166162012Y-103248653D01*
X166162011Y-103248652D01*
X166158674Y-103241825D01*
X166146915Y-103172952D01*
X166174259Y-103108655D01*
X166182384Y-103099694D01*
X166668735Y-102613344D01*
X167587819Y-101694260D01*
X167649142Y-101660775D01*
X167718834Y-101665759D01*
X167774767Y-101707631D01*
X167799184Y-101773095D01*
X167799500Y-101781941D01*
X167799500Y-116993907D01*
X167798903Y-117006060D01*
X167798903Y-117006061D01*
X167785335Y-117143819D01*
X167780593Y-117167661D01*
X167742186Y-117294271D01*
X167732883Y-117316728D01*
X167670517Y-117433406D01*
X167657012Y-117453618D01*
X167573079Y-117555891D01*
X167555891Y-117573079D01*
X167453618Y-117657012D01*
X167433406Y-117670517D01*
X167316728Y-117732883D01*
X167294271Y-117742186D01*
X167167661Y-117780593D01*
X167143819Y-117785335D01*
X167006062Y-117798903D01*
X166993908Y-117799500D01*
X139006092Y-117799500D01*
X138993938Y-117798903D01*
X138856180Y-117785335D01*
X138832340Y-117780593D01*
X138705728Y-117742186D01*
X138683271Y-117732883D01*
X138566593Y-117670517D01*
X138546381Y-117657012D01*
X138444108Y-117573079D01*
X138426920Y-117555891D01*
X138342986Y-117453616D01*
X138329482Y-117433406D01*
X138267114Y-117316725D01*
X138257815Y-117294277D01*
X138219404Y-117167652D01*
X138214665Y-117143824D01*
X138201097Y-117006060D01*
X138200500Y-116993907D01*
X138200500Y-111320943D01*
X139799500Y-111320943D01*
X139799500Y-111479056D01*
X139840423Y-111631783D01*
X139840426Y-111631790D01*
X139919475Y-111768709D01*
X139919479Y-111768714D01*
X139919480Y-111768716D01*
X140031284Y-111880520D01*
X140031286Y-111880521D01*
X140031290Y-111880524D01*
X140158702Y-111954084D01*
X140168216Y-111959577D01*
X140320943Y-112000500D01*
X140320945Y-112000500D01*
X140479055Y-112000500D01*
X140479057Y-112000500D01*
X140631784Y-111959577D01*
X140768716Y-111880520D01*
X140880520Y-111768716D01*
X140959577Y-111631784D01*
X141000500Y-111479057D01*
X141000500Y-111320943D01*
X140959577Y-111168216D01*
X140908517Y-111079776D01*
X140880524Y-111031290D01*
X140880518Y-111031282D01*
X140768717Y-110919481D01*
X140768709Y-110919475D01*
X140631790Y-110840426D01*
X140631786Y-110840424D01*
X140631784Y-110840423D01*
X140479057Y-110799500D01*
X140320943Y-110799500D01*
X140168216Y-110840423D01*
X140168209Y-110840426D01*
X140031290Y-110919475D01*
X140031282Y-110919481D01*
X139919481Y-111031282D01*
X139919475Y-111031290D01*
X139840426Y-111168209D01*
X139840423Y-111168216D01*
X139799500Y-111320943D01*
X138200500Y-111320943D01*
X138200500Y-110072844D01*
X138475000Y-110072844D01*
X138481401Y-110132372D01*
X138481403Y-110132379D01*
X138531645Y-110267086D01*
X138531649Y-110267093D01*
X138617809Y-110382187D01*
X138617812Y-110382190D01*
X138732906Y-110468350D01*
X138732913Y-110468354D01*
X138867620Y-110518596D01*
X138867627Y-110518598D01*
X138927155Y-110524999D01*
X138927172Y-110525000D01*
X139150000Y-110525000D01*
X139650000Y-110525000D01*
X139872828Y-110525000D01*
X139872844Y-110524999D01*
X139932372Y-110518598D01*
X139932379Y-110518596D01*
X140067086Y-110468354D01*
X140067093Y-110468350D01*
X140182187Y-110382190D01*
X140182190Y-110382187D01*
X140268350Y-110267093D01*
X140268354Y-110267086D01*
X140318596Y-110132379D01*
X140318598Y-110132372D01*
X140324999Y-110072844D01*
X140325000Y-110072827D01*
X140325000Y-109850000D01*
X139650000Y-109850000D01*
X139650000Y-110525000D01*
X139150000Y-110525000D01*
X139150000Y-109850000D01*
X138475000Y-109850000D01*
X138475000Y-110072844D01*
X138200500Y-110072844D01*
X138200500Y-103355001D01*
X143052704Y-103355001D01*
X143052899Y-103357486D01*
X143098718Y-103515198D01*
X143182314Y-103656552D01*
X143182321Y-103656561D01*
X143298438Y-103772678D01*
X143298447Y-103772685D01*
X143439803Y-103856282D01*
X143439806Y-103856283D01*
X143597504Y-103902099D01*
X143597510Y-103902100D01*
X143634350Y-103904999D01*
X143634366Y-103905000D01*
X144275000Y-103905000D01*
X144275000Y-103355000D01*
X143052705Y-103355000D01*
X143052704Y-103355001D01*
X138200500Y-103355001D01*
X138200500Y-102085001D01*
X143052704Y-102085001D01*
X143052899Y-102087486D01*
X143098718Y-102245198D01*
X143182314Y-102386552D01*
X143187100Y-102392722D01*
X143184753Y-102394542D01*
X143211564Y-102443642D01*
X143206580Y-102513334D01*
X143185541Y-102546069D01*
X143187100Y-102547278D01*
X143182314Y-102553447D01*
X143098718Y-102694801D01*
X143052899Y-102852513D01*
X143052704Y-102854998D01*
X143052705Y-102855000D01*
X144275000Y-102855000D01*
X144775000Y-102855000D01*
X145997295Y-102855000D01*
X145997295Y-102854998D01*
X145997100Y-102852513D01*
X145951281Y-102694801D01*
X145867685Y-102553447D01*
X145862900Y-102547278D01*
X145865252Y-102545453D01*
X145838445Y-102496405D01*
X145843402Y-102426712D01*
X145864465Y-102393936D01*
X145862900Y-102392722D01*
X145867685Y-102386552D01*
X145951281Y-102245198D01*
X145997100Y-102087486D01*
X145997295Y-102085001D01*
X145997295Y-102085000D01*
X144775000Y-102085000D01*
X144775000Y-102855000D01*
X144275000Y-102855000D01*
X144275000Y-102085000D01*
X143052705Y-102085000D01*
X143052704Y-102085001D01*
X138200500Y-102085001D01*
X138200500Y-100007888D01*
X138220185Y-99940849D01*
X138272989Y-99895094D01*
X138342147Y-99885150D01*
X138405703Y-99914175D01*
X138412181Y-99920207D01*
X138515587Y-100023613D01*
X138549072Y-100084936D01*
X138544088Y-100154628D01*
X138540761Y-100162368D01*
X138540419Y-100163476D01*
X138540418Y-100163481D01*
X138540418Y-100163482D01*
X138529500Y-100238418D01*
X138529500Y-100581582D01*
X138540418Y-100656518D01*
X138540418Y-100656519D01*
X138540419Y-100656521D01*
X138596921Y-100772099D01*
X138596923Y-100772102D01*
X138687897Y-100863076D01*
X138687900Y-100863078D01*
X138788965Y-100912485D01*
X138803482Y-100919582D01*
X138878418Y-100930500D01*
X139002745Y-100930500D01*
X139069784Y-100950185D01*
X139090426Y-100966819D01*
X139144087Y-101020480D01*
X139235412Y-101073207D01*
X139337273Y-101100500D01*
X139442727Y-101100500D01*
X139870614Y-101100500D01*
X139937653Y-101120185D01*
X139958295Y-101136819D01*
X139961985Y-101140509D01*
X139961986Y-101140510D01*
X139961988Y-101140511D01*
X140087511Y-101212982D01*
X140087512Y-101212982D01*
X140087515Y-101212984D01*
X140227525Y-101250500D01*
X140227528Y-101250500D01*
X140372472Y-101250500D01*
X140372475Y-101250500D01*
X140512485Y-101212984D01*
X140638015Y-101140509D01*
X140740509Y-101038015D01*
X140812984Y-100912485D01*
X140839105Y-100815001D01*
X143052704Y-100815001D01*
X143052899Y-100817486D01*
X143098718Y-100975198D01*
X143182314Y-101116552D01*
X143187100Y-101122722D01*
X143184753Y-101124542D01*
X143211564Y-101173642D01*
X143206580Y-101243334D01*
X143185541Y-101276069D01*
X143187100Y-101277278D01*
X143182314Y-101283447D01*
X143098718Y-101424801D01*
X143052899Y-101582513D01*
X143052704Y-101584998D01*
X143052705Y-101585000D01*
X144275000Y-101585000D01*
X144775000Y-101585000D01*
X145997295Y-101585000D01*
X145997295Y-101584998D01*
X145997100Y-101582513D01*
X145951281Y-101424801D01*
X145867685Y-101283447D01*
X145862900Y-101277278D01*
X145865252Y-101275453D01*
X145838445Y-101226405D01*
X145843402Y-101156712D01*
X145864465Y-101123936D01*
X145862900Y-101122722D01*
X145867685Y-101116552D01*
X145951281Y-100975198D01*
X145997100Y-100817486D01*
X145997295Y-100815001D01*
X145997295Y-100815000D01*
X144775000Y-100815000D01*
X144775000Y-101585000D01*
X144275000Y-101585000D01*
X144275000Y-100815000D01*
X143052705Y-100815000D01*
X143052704Y-100815001D01*
X140839105Y-100815001D01*
X140850500Y-100772475D01*
X140850500Y-100627525D01*
X140812984Y-100487515D01*
X140799284Y-100463787D01*
X140797717Y-100457328D01*
X140793411Y-100452265D01*
X140789584Y-100423803D01*
X140782812Y-100395888D01*
X140784986Y-100389604D01*
X140784101Y-100383018D01*
X140796268Y-100357006D01*
X140805664Y-100329861D01*
X140811583Y-100324267D01*
X140813706Y-100319731D01*
X140833672Y-100303397D01*
X140840589Y-100296863D01*
X140842588Y-100295603D01*
X140938015Y-100240509D01*
X140951538Y-100226985D01*
X140963303Y-100219576D01*
X140984077Y-100213681D01*
X141003028Y-100203334D01*
X141029386Y-100200500D01*
X142402782Y-100200500D01*
X142402784Y-100200500D01*
X142504645Y-100173207D01*
X142595970Y-100120480D01*
X142680631Y-100035819D01*
X142707558Y-100021115D01*
X142733377Y-100004523D01*
X142739577Y-100003631D01*
X142741954Y-100002334D01*
X142768312Y-99999500D01*
X142978685Y-99999500D01*
X143045724Y-100019185D01*
X143091479Y-100071989D01*
X143101423Y-100141147D01*
X143097761Y-100158095D01*
X143052900Y-100312505D01*
X143052899Y-100312511D01*
X143052704Y-100314998D01*
X143052705Y-100315000D01*
X144275000Y-100315000D01*
X144307181Y-100282819D01*
X144368504Y-100249334D01*
X144394862Y-100246500D01*
X144655138Y-100246500D01*
X144722177Y-100266185D01*
X144742819Y-100282819D01*
X144775000Y-100315000D01*
X145997295Y-100315000D01*
X145997295Y-100314998D01*
X145997100Y-100312511D01*
X145997099Y-100312508D01*
X145985318Y-100271957D01*
X145985517Y-100202087D01*
X146016713Y-100149680D01*
X146379574Y-99786819D01*
X146440897Y-99753334D01*
X146467255Y-99750500D01*
X146472472Y-99750500D01*
X146472475Y-99750500D01*
X146612485Y-99712984D01*
X146726995Y-99646871D01*
X146794892Y-99630399D01*
X146860919Y-99653251D01*
X146904110Y-99708172D01*
X146910752Y-99777725D01*
X146908769Y-99786350D01*
X146899500Y-99820943D01*
X146899500Y-99979057D01*
X146940289Y-100131282D01*
X146940423Y-100131783D01*
X146940426Y-100131790D01*
X147019475Y-100268709D01*
X147019481Y-100268717D01*
X147129475Y-100378711D01*
X147162960Y-100440034D01*
X147157976Y-100509726D01*
X147129476Y-100554073D01*
X146879519Y-100804030D01*
X146826792Y-100895355D01*
X146826792Y-100895356D01*
X146822757Y-100910412D01*
X146822758Y-100910413D01*
X146799500Y-100997214D01*
X146799500Y-103582745D01*
X146790855Y-103612185D01*
X146784332Y-103642172D01*
X146780577Y-103647187D01*
X146779815Y-103649784D01*
X146763181Y-103670426D01*
X146670426Y-103763181D01*
X146609103Y-103796666D01*
X146582745Y-103799500D01*
X146000541Y-103799500D01*
X145933502Y-103779815D01*
X145887747Y-103727011D01*
X145877803Y-103657853D01*
X145893809Y-103612379D01*
X145951281Y-103515198D01*
X145997100Y-103357486D01*
X145997295Y-103355001D01*
X145997295Y-103355000D01*
X144775000Y-103355000D01*
X144775000Y-103905000D01*
X145415634Y-103905000D01*
X145415655Y-103904999D01*
X145420254Y-103904637D01*
X145488632Y-103918997D01*
X145538392Y-103968046D01*
X145553735Y-104036210D01*
X145529789Y-104101848D01*
X145517671Y-104115935D01*
X143270426Y-106363181D01*
X143209103Y-106396666D01*
X143182745Y-106399500D01*
X140139146Y-106399500D01*
X140139146Y-106398147D01*
X140078530Y-106388694D01*
X140026275Y-106342313D01*
X140016826Y-106323984D01*
X139998620Y-106280031D01*
X139972212Y-106240509D01*
X139924698Y-106169398D01*
X139924692Y-106169390D01*
X139830609Y-106075307D01*
X139830601Y-106075301D01*
X139719979Y-106001386D01*
X139719972Y-106001382D01*
X139719969Y-106001380D01*
X139719965Y-106001378D01*
X139719961Y-106001376D01*
X139597040Y-105950461D01*
X139597030Y-105950458D01*
X139466533Y-105924500D01*
X139466531Y-105924500D01*
X139333469Y-105924500D01*
X139333467Y-105924500D01*
X139202969Y-105950458D01*
X139202959Y-105950461D01*
X139080038Y-106001376D01*
X139080020Y-106001386D01*
X138969398Y-106075301D01*
X138969390Y-106075307D01*
X138875307Y-106169390D01*
X138875301Y-106169398D01*
X138801386Y-106280020D01*
X138801376Y-106280038D01*
X138750461Y-106402959D01*
X138750458Y-106402969D01*
X138724500Y-106533466D01*
X138724500Y-106533469D01*
X138724500Y-106666531D01*
X138724500Y-106666533D01*
X138724499Y-106666533D01*
X138750458Y-106797030D01*
X138750461Y-106797040D01*
X138801376Y-106919961D01*
X138801382Y-106919972D01*
X138875641Y-107031110D01*
X138896518Y-107097788D01*
X138878033Y-107165168D01*
X138875641Y-107168890D01*
X138801382Y-107280027D01*
X138801376Y-107280038D01*
X138750461Y-107402959D01*
X138750458Y-107402969D01*
X138724500Y-107533466D01*
X138724500Y-107533469D01*
X138724500Y-107666531D01*
X138724500Y-107666533D01*
X138724499Y-107666533D01*
X138750458Y-107797030D01*
X138750461Y-107797040D01*
X138801376Y-107919961D01*
X138801382Y-107919972D01*
X138875641Y-108031110D01*
X138896518Y-108097788D01*
X138878033Y-108165168D01*
X138875641Y-108168890D01*
X138801382Y-108280027D01*
X138801376Y-108280038D01*
X138750461Y-108402959D01*
X138750458Y-108402969D01*
X138724500Y-108533466D01*
X138724500Y-108672623D01*
X138722471Y-108672623D01*
X138711180Y-108732147D01*
X138675110Y-108774916D01*
X138617809Y-108817812D01*
X138531649Y-108932906D01*
X138531645Y-108932913D01*
X138481403Y-109067620D01*
X138481401Y-109067627D01*
X138475000Y-109127155D01*
X138475000Y-109350000D01*
X139350272Y-109350000D01*
X139258386Y-109388060D01*
X139188060Y-109458386D01*
X139150000Y-109550272D01*
X139150000Y-109649728D01*
X139188060Y-109741614D01*
X139258386Y-109811940D01*
X139350272Y-109850000D01*
X139449728Y-109850000D01*
X139541614Y-109811940D01*
X139611940Y-109741614D01*
X139650000Y-109649728D01*
X139650000Y-109550272D01*
X139611940Y-109458386D01*
X139541614Y-109388060D01*
X139449728Y-109350000D01*
X140325000Y-109350000D01*
X140325000Y-109124500D01*
X140344685Y-109057461D01*
X140397489Y-109011706D01*
X140449000Y-109000500D01*
X142652725Y-109000500D01*
X142652727Y-109000500D01*
X142754588Y-108973207D01*
X142845913Y-108920480D01*
X144187819Y-107578574D01*
X144249142Y-107545089D01*
X144318834Y-107550073D01*
X144374767Y-107591945D01*
X144399184Y-107657409D01*
X144399500Y-107666255D01*
X144399500Y-110747273D01*
X144399500Y-110852727D01*
X144403749Y-110868584D01*
X144426793Y-110954589D01*
X144445964Y-110987793D01*
X144479520Y-111045913D01*
X144479522Y-111045915D01*
X145763181Y-112329574D01*
X145796666Y-112390897D01*
X145799500Y-112417255D01*
X145799500Y-113053052D01*
X145779815Y-113120091D01*
X145727011Y-113165846D01*
X145657853Y-113175790D01*
X145594297Y-113146765D01*
X145568113Y-113115053D01*
X145500273Y-112997550D01*
X145435003Y-112912488D01*
X145356593Y-112810302D01*
X145356587Y-112810295D01*
X145189704Y-112643412D01*
X145189697Y-112643406D01*
X145002454Y-112499730D01*
X145002453Y-112499729D01*
X145002450Y-112499727D01*
X144920957Y-112452677D01*
X144798056Y-112381719D01*
X144798045Y-112381714D01*
X144579993Y-112291394D01*
X144352010Y-112230306D01*
X144118020Y-112199501D01*
X144118017Y-112199500D01*
X144118011Y-112199500D01*
X143881989Y-112199500D01*
X143881983Y-112199500D01*
X143881979Y-112199501D01*
X143647989Y-112230306D01*
X143420006Y-112291394D01*
X143201954Y-112381714D01*
X143201943Y-112381719D01*
X142997545Y-112499730D01*
X142810302Y-112643406D01*
X142810295Y-112643412D01*
X142643412Y-112810295D01*
X142643406Y-112810302D01*
X142499730Y-112997545D01*
X142499727Y-112997549D01*
X142499727Y-112997550D01*
X142494617Y-113006401D01*
X142381719Y-113201943D01*
X142381714Y-113201954D01*
X142291394Y-113420006D01*
X142230306Y-113647989D01*
X142199501Y-113881979D01*
X142199500Y-113881995D01*
X142199500Y-114118004D01*
X142199501Y-114118020D01*
X142230306Y-114352010D01*
X142291394Y-114579993D01*
X142381714Y-114798045D01*
X142381719Y-114798056D01*
X142444267Y-114906391D01*
X142499727Y-115002450D01*
X142499729Y-115002453D01*
X142499730Y-115002454D01*
X142643406Y-115189697D01*
X142643412Y-115189704D01*
X142810295Y-115356587D01*
X142810301Y-115356592D01*
X142997550Y-115500273D01*
X143128918Y-115576118D01*
X143201943Y-115618280D01*
X143201948Y-115618282D01*
X143201951Y-115618284D01*
X143420007Y-115708606D01*
X143647986Y-115769693D01*
X143881989Y-115800500D01*
X143881996Y-115800500D01*
X144118004Y-115800500D01*
X144118011Y-115800500D01*
X144352014Y-115769693D01*
X144579993Y-115708606D01*
X144798049Y-115618284D01*
X145002450Y-115500273D01*
X145189699Y-115356592D01*
X145356592Y-115189699D01*
X145500273Y-115002450D01*
X145568113Y-114884946D01*
X145618680Y-114836731D01*
X145687287Y-114823508D01*
X145752152Y-114849477D01*
X145792680Y-114906391D01*
X145799500Y-114946947D01*
X145799500Y-115852726D01*
X145826793Y-115954589D01*
X145851855Y-115997997D01*
X145879520Y-116045913D01*
X146694087Y-116860480D01*
X146785412Y-116913207D01*
X146887273Y-116940500D01*
X147035500Y-116940500D01*
X147102539Y-116960185D01*
X147148294Y-117012989D01*
X147158233Y-117058679D01*
X147158903Y-117058614D01*
X147159468Y-117064354D01*
X147159500Y-117064500D01*
X147159500Y-117064678D01*
X147174032Y-117137735D01*
X147174033Y-117137739D01*
X147174034Y-117137740D01*
X147229399Y-117220601D01*
X147312260Y-117275966D01*
X147312264Y-117275967D01*
X147385321Y-117290499D01*
X147385324Y-117290500D01*
X147385326Y-117290500D01*
X149434676Y-117290500D01*
X149434677Y-117290499D01*
X149507740Y-117275966D01*
X149590601Y-117220601D01*
X149645966Y-117137740D01*
X149660500Y-117064674D01*
X149660500Y-116015326D01*
X149660500Y-116015323D01*
X149660499Y-116015321D01*
X149645967Y-115942264D01*
X149645966Y-115942260D01*
X149644685Y-115940343D01*
X149590601Y-115859399D01*
X149507740Y-115804034D01*
X149507739Y-115804033D01*
X149507735Y-115804032D01*
X149434677Y-115789500D01*
X149434674Y-115789500D01*
X147385326Y-115789500D01*
X147385323Y-115789500D01*
X147312264Y-115804032D01*
X147312260Y-115804033D01*
X147229399Y-115859399D01*
X147174033Y-115942260D01*
X147169360Y-115953544D01*
X147166703Y-115952443D01*
X147142873Y-115997997D01*
X147082155Y-116032568D01*
X147012386Y-116028825D01*
X146965964Y-115999571D01*
X146636819Y-115670426D01*
X146603334Y-115609103D01*
X146600500Y-115582745D01*
X146600500Y-112147275D01*
X146600500Y-112147273D01*
X146573207Y-112045413D01*
X146573207Y-112045412D01*
X146520480Y-111954087D01*
X145236819Y-110670426D01*
X145203334Y-110609103D01*
X145200500Y-110582745D01*
X145200500Y-110425411D01*
X145220185Y-110358372D01*
X145272989Y-110312617D01*
X145342147Y-110302673D01*
X145405703Y-110331698D01*
X145431887Y-110363411D01*
X145479517Y-110445909D01*
X145479519Y-110445911D01*
X145479520Y-110445913D01*
X146814087Y-111780480D01*
X146905412Y-111833207D01*
X147007273Y-111860500D01*
X147035500Y-111860500D01*
X147102539Y-111880185D01*
X147148294Y-111932989D01*
X147158233Y-111978679D01*
X147158903Y-111978614D01*
X147159468Y-111984354D01*
X147159500Y-111984500D01*
X147159500Y-111984678D01*
X147174032Y-112057735D01*
X147174033Y-112057739D01*
X147174034Y-112057740D01*
X147229399Y-112140601D01*
X147312260Y-112195966D01*
X147312264Y-112195967D01*
X147315735Y-112196658D01*
X147322599Y-112200248D01*
X147323544Y-112200640D01*
X147323508Y-112200724D01*
X147377646Y-112229043D01*
X147412220Y-112289758D01*
X147408481Y-112359528D01*
X147398931Y-112380275D01*
X147337017Y-112487511D01*
X147337016Y-112487515D01*
X147299500Y-112627525D01*
X147299500Y-112772475D01*
X147337016Y-112912485D01*
X147337017Y-112912488D01*
X147340059Y-112919831D01*
X147341686Y-112928010D01*
X147344477Y-112932353D01*
X147349500Y-112967288D01*
X147349500Y-113172871D01*
X147329815Y-113239910D01*
X147294391Y-113275973D01*
X147229399Y-113319398D01*
X147174033Y-113402260D01*
X147174032Y-113402264D01*
X147159500Y-113475321D01*
X147159500Y-114524678D01*
X147174032Y-114597735D01*
X147174033Y-114597739D01*
X147174034Y-114597740D01*
X147229399Y-114680601D01*
X147283908Y-114717022D01*
X147312260Y-114735966D01*
X147312264Y-114735967D01*
X147385321Y-114750499D01*
X147385324Y-114750500D01*
X147385326Y-114750500D01*
X149434676Y-114750500D01*
X149434677Y-114750499D01*
X149507740Y-114735966D01*
X149507744Y-114735963D01*
X149519021Y-114731293D01*
X149519816Y-114733212D01*
X149571519Y-114717022D01*
X149638899Y-114735504D01*
X149685591Y-114787482D01*
X149695353Y-114816807D01*
X149696686Y-114823508D01*
X149697431Y-114827251D01*
X149745052Y-114984236D01*
X149794418Y-115146977D01*
X149922278Y-115455656D01*
X149922280Y-115455661D01*
X150079769Y-115750303D01*
X150079780Y-115750321D01*
X150265393Y-116028109D01*
X150265403Y-116028123D01*
X150477361Y-116286395D01*
X150713604Y-116522638D01*
X150713609Y-116522642D01*
X150713610Y-116522643D01*
X150971882Y-116734601D01*
X151249685Y-116920224D01*
X151249694Y-116920229D01*
X151249696Y-116920230D01*
X151544338Y-117077719D01*
X151544340Y-117077719D01*
X151544346Y-117077723D01*
X151853024Y-117205582D01*
X152172749Y-117302569D01*
X152172755Y-117302570D01*
X152172758Y-117302571D01*
X152172769Y-117302574D01*
X152378243Y-117343444D01*
X152500441Y-117367751D01*
X152832944Y-117400500D01*
X152832947Y-117400500D01*
X153167053Y-117400500D01*
X153167056Y-117400500D01*
X153499559Y-117367751D01*
X153661757Y-117335487D01*
X153827230Y-117302574D01*
X153827241Y-117302571D01*
X153827241Y-117302570D01*
X153827251Y-117302569D01*
X154146976Y-117205582D01*
X154455654Y-117077723D01*
X154750315Y-116920224D01*
X155028118Y-116734601D01*
X155286390Y-116522643D01*
X155522643Y-116286390D01*
X155734601Y-116028118D01*
X155743152Y-116015321D01*
X156339500Y-116015321D01*
X156339500Y-117064678D01*
X156354032Y-117137735D01*
X156354033Y-117137739D01*
X156354034Y-117137740D01*
X156409399Y-117220601D01*
X156492260Y-117275966D01*
X156492264Y-117275967D01*
X156565321Y-117290499D01*
X156565324Y-117290500D01*
X156565326Y-117290500D01*
X158614676Y-117290500D01*
X158614677Y-117290499D01*
X158687740Y-117275966D01*
X158770601Y-117220601D01*
X158825966Y-117137740D01*
X158840500Y-117064674D01*
X158840500Y-116015326D01*
X158840500Y-116015323D01*
X158840499Y-116015321D01*
X158825967Y-115942264D01*
X158825966Y-115942260D01*
X158824685Y-115940343D01*
X158770601Y-115859399D01*
X158687740Y-115804034D01*
X158687739Y-115804033D01*
X158687735Y-115804032D01*
X158614677Y-115789500D01*
X158614674Y-115789500D01*
X156565326Y-115789500D01*
X156565323Y-115789500D01*
X156492264Y-115804032D01*
X156492260Y-115804033D01*
X156409399Y-115859399D01*
X156354033Y-115942260D01*
X156354032Y-115942264D01*
X156339500Y-116015321D01*
X155743152Y-116015321D01*
X155783732Y-115954589D01*
X155793251Y-115940343D01*
X155851795Y-115852726D01*
X155920224Y-115750315D01*
X156077723Y-115455654D01*
X156205582Y-115146976D01*
X156237222Y-115042671D01*
X156275517Y-114984236D01*
X156339329Y-114955779D01*
X156399216Y-114962488D01*
X156482619Y-114993596D01*
X156482627Y-114993598D01*
X156542155Y-114999999D01*
X156542172Y-115000000D01*
X157340000Y-115000000D01*
X157840000Y-115000000D01*
X158637828Y-115000000D01*
X158637844Y-114999999D01*
X158697372Y-114993598D01*
X158697379Y-114993596D01*
X158832086Y-114943354D01*
X158832093Y-114943350D01*
X158947187Y-114857190D01*
X158947190Y-114857187D01*
X159033350Y-114742093D01*
X159033354Y-114742086D01*
X159083596Y-114607379D01*
X159083598Y-114607372D01*
X159089999Y-114547844D01*
X159090000Y-114547827D01*
X159090000Y-114250000D01*
X157840000Y-114250000D01*
X157840000Y-115000000D01*
X157340000Y-115000000D01*
X157340000Y-113881995D01*
X160199500Y-113881995D01*
X160199500Y-114118004D01*
X160199501Y-114118020D01*
X160230306Y-114352010D01*
X160291394Y-114579993D01*
X160381714Y-114798045D01*
X160381719Y-114798056D01*
X160444267Y-114906391D01*
X160499727Y-115002450D01*
X160499729Y-115002453D01*
X160499730Y-115002454D01*
X160643406Y-115189697D01*
X160643412Y-115189704D01*
X160810295Y-115356587D01*
X160810301Y-115356592D01*
X160997550Y-115500273D01*
X161128918Y-115576118D01*
X161201943Y-115618280D01*
X161201948Y-115618282D01*
X161201951Y-115618284D01*
X161420007Y-115708606D01*
X161647986Y-115769693D01*
X161881989Y-115800500D01*
X161881996Y-115800500D01*
X162118004Y-115800500D01*
X162118011Y-115800500D01*
X162352014Y-115769693D01*
X162579993Y-115708606D01*
X162798049Y-115618284D01*
X163002450Y-115500273D01*
X163189699Y-115356592D01*
X163356592Y-115189699D01*
X163500273Y-115002450D01*
X163618284Y-114798049D01*
X163708606Y-114579993D01*
X163769693Y-114352014D01*
X163800500Y-114118011D01*
X163800500Y-113881989D01*
X163769693Y-113647986D01*
X163708606Y-113420007D01*
X163618284Y-113201951D01*
X163618282Y-113201948D01*
X163618280Y-113201943D01*
X163547301Y-113079005D01*
X163500273Y-112997550D01*
X163435000Y-112912485D01*
X163356593Y-112810302D01*
X163356587Y-112810295D01*
X163189704Y-112643412D01*
X163189697Y-112643406D01*
X163002454Y-112499730D01*
X163002453Y-112499729D01*
X163002450Y-112499727D01*
X162920957Y-112452677D01*
X162798056Y-112381719D01*
X162798045Y-112381714D01*
X162579993Y-112291394D01*
X162352010Y-112230306D01*
X162118020Y-112199501D01*
X162118017Y-112199500D01*
X162118011Y-112199500D01*
X161881989Y-112199500D01*
X161881983Y-112199500D01*
X161881979Y-112199501D01*
X161647989Y-112230306D01*
X161420006Y-112291394D01*
X161201954Y-112381714D01*
X161201943Y-112381719D01*
X160997545Y-112499730D01*
X160810302Y-112643406D01*
X160810295Y-112643412D01*
X160643412Y-112810295D01*
X160643406Y-112810302D01*
X160499730Y-112997545D01*
X160499727Y-112997549D01*
X160499727Y-112997550D01*
X160494617Y-113006401D01*
X160381719Y-113201943D01*
X160381714Y-113201954D01*
X160291394Y-113420006D01*
X160230306Y-113647989D01*
X160199501Y-113881979D01*
X160199500Y-113881995D01*
X157340000Y-113881995D01*
X157340000Y-113750000D01*
X157840000Y-113750000D01*
X159090000Y-113750000D01*
X159090000Y-113452172D01*
X159089999Y-113452155D01*
X159083598Y-113392627D01*
X159083596Y-113392620D01*
X159033354Y-113257913D01*
X159033350Y-113257906D01*
X158947190Y-113142812D01*
X158947187Y-113142809D01*
X158832093Y-113056649D01*
X158832086Y-113056645D01*
X158697379Y-113006403D01*
X158697372Y-113006401D01*
X158637844Y-113000000D01*
X157840000Y-113000000D01*
X157840000Y-113750000D01*
X157340000Y-113750000D01*
X157340000Y-113000000D01*
X156542155Y-113000000D01*
X156482627Y-113006401D01*
X156482616Y-113006403D01*
X156399213Y-113037511D01*
X156329522Y-113042495D01*
X156268199Y-113009009D01*
X156237221Y-112957327D01*
X156205582Y-112853024D01*
X156077723Y-112544346D01*
X156053875Y-112499730D01*
X155920230Y-112249696D01*
X155920229Y-112249694D01*
X155920224Y-112249685D01*
X155788389Y-112052382D01*
X155767512Y-111985706D01*
X155785996Y-111918325D01*
X155837975Y-111871635D01*
X155899146Y-111861722D01*
X155899146Y-111860500D01*
X155906692Y-111860500D01*
X155906945Y-111860459D01*
X155907263Y-111860500D01*
X155907273Y-111860500D01*
X156012727Y-111860500D01*
X156215500Y-111860500D01*
X156282539Y-111880185D01*
X156328294Y-111932989D01*
X156338233Y-111978679D01*
X156338903Y-111978614D01*
X156339468Y-111984354D01*
X156339500Y-111984500D01*
X156339500Y-111984678D01*
X156354032Y-112057735D01*
X156354033Y-112057739D01*
X156354034Y-112057740D01*
X156409399Y-112140601D01*
X156492260Y-112195966D01*
X156492264Y-112195967D01*
X156565321Y-112210499D01*
X156565324Y-112210500D01*
X156565326Y-112210500D01*
X158614676Y-112210500D01*
X158614677Y-112210499D01*
X158687740Y-112195966D01*
X158770601Y-112140601D01*
X158825966Y-112057740D01*
X158840500Y-111984674D01*
X158840500Y-110935326D01*
X158840500Y-110935323D01*
X158840499Y-110935321D01*
X158825967Y-110862264D01*
X158825966Y-110862260D01*
X158819162Y-110852077D01*
X158770601Y-110779399D01*
X158687740Y-110724034D01*
X158687739Y-110724033D01*
X158687735Y-110724032D01*
X158614677Y-110709500D01*
X158614674Y-110709500D01*
X156565326Y-110709500D01*
X156565323Y-110709500D01*
X156492264Y-110724032D01*
X156492260Y-110724033D01*
X156409399Y-110779399D01*
X156354033Y-110862260D01*
X156354032Y-110862264D01*
X156339500Y-110935321D01*
X156339500Y-110935500D01*
X156339473Y-110935589D01*
X156338903Y-110941386D01*
X156337803Y-110941277D01*
X156336949Y-110944185D01*
X156338238Y-110953147D01*
X156327259Y-110977187D01*
X156319815Y-111002539D01*
X156312974Y-111008466D01*
X156309213Y-111016703D01*
X156286978Y-111030992D01*
X156267011Y-111048294D01*
X156256496Y-111050581D01*
X156250435Y-111054477D01*
X156215500Y-111059500D01*
X156177255Y-111059500D01*
X156110216Y-111039815D01*
X156089574Y-111023181D01*
X154945915Y-109879522D01*
X154945913Y-109879520D01*
X154882640Y-109842989D01*
X154854589Y-109826793D01*
X154799155Y-109811940D01*
X154752727Y-109799500D01*
X153675948Y-109799500D01*
X153608909Y-109779815D01*
X153563154Y-109727011D01*
X153553210Y-109657853D01*
X153582235Y-109594297D01*
X153624747Y-109563642D01*
X153624746Y-109563641D01*
X153624763Y-109563631D01*
X153628498Y-109560938D01*
X153631781Y-109559577D01*
X153631784Y-109559577D01*
X153631786Y-109559575D01*
X153631788Y-109559575D01*
X153768709Y-109480524D01*
X153768708Y-109480524D01*
X153768716Y-109480520D01*
X153880520Y-109368716D01*
X153959577Y-109231784D01*
X153997428Y-109090521D01*
X154033791Y-109030865D01*
X154096637Y-109000335D01*
X154166013Y-109008629D01*
X154166641Y-109008947D01*
X154166647Y-109008934D01*
X154173804Y-109012031D01*
X154329089Y-109057145D01*
X154350000Y-109058789D01*
X154850000Y-109058789D01*
X154870910Y-109057145D01*
X155026195Y-109012031D01*
X155165374Y-108929721D01*
X155165383Y-108929714D01*
X155279714Y-108815383D01*
X155279721Y-108815374D01*
X155362031Y-108676195D01*
X155404504Y-108530000D01*
X154850000Y-108530000D01*
X154850000Y-109058789D01*
X154350000Y-109058789D01*
X154350000Y-108404000D01*
X154369685Y-108336961D01*
X154388171Y-108320943D01*
X155999500Y-108320943D01*
X155999500Y-108479057D01*
X156013330Y-108530669D01*
X156040423Y-108631783D01*
X156040426Y-108631790D01*
X156119475Y-108768709D01*
X156119479Y-108768714D01*
X156119480Y-108768716D01*
X156231284Y-108880520D01*
X156231286Y-108880521D01*
X156231290Y-108880524D01*
X156353852Y-108951284D01*
X156368216Y-108959577D01*
X156520943Y-109000500D01*
X156520945Y-109000500D01*
X156679055Y-109000500D01*
X156679057Y-109000500D01*
X156831784Y-108959577D01*
X156968716Y-108880520D01*
X157080520Y-108768716D01*
X157159577Y-108631784D01*
X157200500Y-108479057D01*
X157200500Y-108320943D01*
X157159577Y-108168216D01*
X157156670Y-108163181D01*
X157080524Y-108031290D01*
X157080518Y-108031282D01*
X156968717Y-107919481D01*
X156968709Y-107919475D01*
X156831790Y-107840426D01*
X156831786Y-107840424D01*
X156831784Y-107840423D01*
X156679057Y-107799500D01*
X156520943Y-107799500D01*
X156368216Y-107840423D01*
X156368209Y-107840426D01*
X156231290Y-107919475D01*
X156231282Y-107919481D01*
X156119481Y-108031282D01*
X156119475Y-108031290D01*
X156040426Y-108168209D01*
X156040423Y-108168216D01*
X155999500Y-108320943D01*
X154388171Y-108320943D01*
X154422489Y-108291206D01*
X154474000Y-108280000D01*
X154600000Y-108280000D01*
X154600000Y-108154000D01*
X154619685Y-108086961D01*
X154672489Y-108041206D01*
X154724000Y-108030000D01*
X155404504Y-108030000D01*
X155362031Y-107883804D01*
X155279721Y-107744625D01*
X155279717Y-107744620D01*
X155186762Y-107651666D01*
X155153277Y-107590343D01*
X155151970Y-107544589D01*
X155160500Y-107490735D01*
X155160499Y-107149266D01*
X155160499Y-107149260D01*
X155146018Y-107057829D01*
X155146018Y-107057828D01*
X155146017Y-107057826D01*
X155146017Y-107057825D01*
X155089859Y-106947609D01*
X155089857Y-106947607D01*
X155089854Y-106947603D01*
X155002396Y-106860145D01*
X155002393Y-106860143D01*
X155002391Y-106860141D01*
X154892175Y-106803983D01*
X154892174Y-106803982D01*
X154892171Y-106803981D01*
X154800735Y-106789500D01*
X154658124Y-106789500D01*
X154642882Y-106785464D01*
X154629607Y-106786176D01*
X154597618Y-106773480D01*
X154596763Y-106773254D01*
X154596492Y-106773099D01*
X154559588Y-106751793D01*
X154558621Y-106751533D01*
X154550970Y-106747177D01*
X154531880Y-106727393D01*
X154510479Y-106710148D01*
X154507970Y-106702613D01*
X154502455Y-106696897D01*
X154497092Y-106669938D01*
X154488410Y-106643856D01*
X154490374Y-106636158D01*
X154488825Y-106628370D01*
X154498888Y-106602793D01*
X154505686Y-106576155D01*
X154513150Y-106566545D01*
X154514407Y-106563352D01*
X154517190Y-106561344D01*
X154524650Y-106551742D01*
X154609573Y-106466819D01*
X154670896Y-106433334D01*
X154697254Y-106430500D01*
X154821577Y-106430500D01*
X154821582Y-106430500D01*
X154896518Y-106419582D01*
X154959700Y-106388694D01*
X155012099Y-106363078D01*
X155012102Y-106363076D01*
X155103076Y-106272102D01*
X155103078Y-106272099D01*
X155138232Y-106200190D01*
X155159582Y-106156518D01*
X155170500Y-106081582D01*
X155170500Y-105738418D01*
X155159582Y-105663482D01*
X155130174Y-105603327D01*
X155103078Y-105547900D01*
X155103076Y-105547897D01*
X155042860Y-105487681D01*
X155009375Y-105426358D01*
X155014359Y-105356666D01*
X155042860Y-105312319D01*
X155103076Y-105252102D01*
X155103078Y-105252099D01*
X155136930Y-105182853D01*
X155159582Y-105136518D01*
X155170500Y-105061582D01*
X155170500Y-104718418D01*
X155163888Y-104673038D01*
X155173700Y-104603863D01*
X155198905Y-104567486D01*
X155350085Y-104416308D01*
X155378754Y-104366650D01*
X155398453Y-104340976D01*
X155510125Y-104229305D01*
X155589182Y-104092373D01*
X155630105Y-103939646D01*
X155630105Y-103781532D01*
X155589182Y-103628805D01*
X155579587Y-103612185D01*
X155510129Y-103491879D01*
X155510123Y-103491871D01*
X155398322Y-103380070D01*
X155398314Y-103380064D01*
X155261395Y-103301015D01*
X155261391Y-103301013D01*
X155261389Y-103301012D01*
X155108662Y-103260089D01*
X154950548Y-103260089D01*
X154797821Y-103301012D01*
X154797814Y-103301015D01*
X154660895Y-103380064D01*
X154660887Y-103380070D01*
X154549086Y-103491871D01*
X154549080Y-103491879D01*
X154470031Y-103628798D01*
X154470028Y-103628805D01*
X154429105Y-103781532D01*
X154429105Y-103875500D01*
X154409420Y-103942539D01*
X154356616Y-103988294D01*
X154305105Y-103999500D01*
X153793112Y-103999500D01*
X153726073Y-103979815D01*
X153705435Y-103963185D01*
X153652391Y-103910141D01*
X153542175Y-103853983D01*
X153542174Y-103853982D01*
X153542171Y-103853981D01*
X153450735Y-103839500D01*
X153109266Y-103839500D01*
X153055413Y-103848030D01*
X152986119Y-103839074D01*
X152948335Y-103813237D01*
X152855383Y-103720285D01*
X152855374Y-103720278D01*
X152756403Y-103661747D01*
X152708719Y-103610678D01*
X152696216Y-103541936D01*
X152722861Y-103477347D01*
X152731834Y-103467343D01*
X154600500Y-101598678D01*
X154666392Y-101484550D01*
X154700500Y-101357256D01*
X154700500Y-101225471D01*
X154700500Y-100867334D01*
X154702086Y-100859312D01*
X154701181Y-100854361D01*
X154705993Y-100839552D01*
X154709831Y-100820143D01*
X154712977Y-100812496D01*
X154759577Y-100731784D01*
X154784548Y-100638586D01*
X154787587Y-100631204D01*
X154793671Y-100623618D01*
X154797841Y-100615165D01*
X154796436Y-100614354D01*
X154852845Y-100516650D01*
X154866392Y-100493186D01*
X154900500Y-100365892D01*
X154900500Y-100234107D01*
X154900500Y-99656060D01*
X154913100Y-99601600D01*
X154944470Y-99537427D01*
X154959582Y-99506518D01*
X154970500Y-99431582D01*
X154970500Y-99394993D01*
X154990185Y-99327954D01*
X155042989Y-99282199D01*
X155112147Y-99272255D01*
X155126573Y-99275213D01*
X155220943Y-99300500D01*
X155220946Y-99300500D01*
X155379055Y-99300500D01*
X155379057Y-99300500D01*
X155531784Y-99259577D01*
X155668716Y-99180520D01*
X155780520Y-99068716D01*
X155859577Y-98931784D01*
X155886850Y-98830000D01*
X156695496Y-98830000D01*
X156737968Y-98976195D01*
X156820278Y-99115374D01*
X156820285Y-99115383D01*
X156934616Y-99229714D01*
X156934625Y-99229721D01*
X157073804Y-99312031D01*
X157229089Y-99357145D01*
X157250000Y-99358789D01*
X157250000Y-98830000D01*
X156695496Y-98830000D01*
X155886850Y-98830000D01*
X155900500Y-98779057D01*
X155900500Y-98620943D01*
X155859577Y-98468216D01*
X155819904Y-98399500D01*
X155780524Y-98331290D01*
X155780518Y-98331282D01*
X155668716Y-98219480D01*
X155668712Y-98219477D01*
X155533794Y-98141583D01*
X155485579Y-98091016D01*
X155472355Y-98022409D01*
X155498323Y-97957545D01*
X155555237Y-97917016D01*
X155563672Y-97914429D01*
X155581784Y-97909577D01*
X155718716Y-97830520D01*
X155830520Y-97718716D01*
X155909577Y-97581784D01*
X155950500Y-97429057D01*
X155950500Y-97416429D01*
X155970185Y-97349390D01*
X156022989Y-97303635D01*
X156092147Y-97293691D01*
X156106584Y-97296652D01*
X156120943Y-97300500D01*
X156120945Y-97300500D01*
X156279055Y-97300500D01*
X156279057Y-97300500D01*
X156431784Y-97259577D01*
X156568716Y-97180520D01*
X156680520Y-97068716D01*
X156750047Y-96948289D01*
X156768140Y-96931037D01*
X156783123Y-96911024D01*
X156792989Y-96907343D01*
X156800612Y-96900076D01*
X156825162Y-96895343D01*
X156848587Y-96886607D01*
X156858876Y-96888845D01*
X156869219Y-96886852D01*
X156892431Y-96896144D01*
X156916860Y-96901459D01*
X156929682Y-96911057D01*
X156934084Y-96912820D01*
X156945114Y-96922610D01*
X156963181Y-96940677D01*
X156996666Y-97002000D01*
X156999500Y-97028358D01*
X156999500Y-97238722D01*
X156985985Y-97295016D01*
X156953982Y-97357824D01*
X156953981Y-97357828D01*
X156939500Y-97449264D01*
X156939500Y-97790733D01*
X156948030Y-97844587D01*
X156939074Y-97913881D01*
X156913237Y-97951665D01*
X156820285Y-98044616D01*
X156820278Y-98044625D01*
X156737968Y-98183804D01*
X156695496Y-98330000D01*
X157826068Y-98330000D01*
X157893107Y-98349685D01*
X157916797Y-98371479D01*
X157917313Y-98370964D01*
X157923060Y-98376711D01*
X158034864Y-98488515D01*
X158034866Y-98488516D01*
X158034870Y-98488519D01*
X158132005Y-98544599D01*
X158171796Y-98567572D01*
X158324523Y-98608495D01*
X158324525Y-98608495D01*
X158482635Y-98608495D01*
X158482637Y-98608495D01*
X158635364Y-98567572D01*
X158749611Y-98501611D01*
X158811610Y-98485000D01*
X161097295Y-98485000D01*
X161097295Y-98484998D01*
X161097100Y-98482513D01*
X161051281Y-98324801D01*
X160967685Y-98183447D01*
X160967678Y-98183438D01*
X160851561Y-98067321D01*
X160851553Y-98067315D01*
X160808507Y-98041858D01*
X160760824Y-97990789D01*
X160748320Y-97922048D01*
X160773152Y-97861852D01*
X160772311Y-97861241D01*
X160774841Y-97857758D01*
X160774965Y-97857458D01*
X160775460Y-97856906D01*
X160778042Y-97853349D01*
X160778050Y-97853342D01*
X160835646Y-97740304D01*
X160835646Y-97740302D01*
X160835647Y-97740301D01*
X160850499Y-97646524D01*
X160850500Y-97646519D01*
X160850499Y-97283482D01*
X160835646Y-97189696D01*
X160778050Y-97076658D01*
X160778046Y-97076654D01*
X160778045Y-97076652D01*
X160688347Y-96986954D01*
X160688343Y-96986951D01*
X160688342Y-96986950D01*
X160668806Y-96976996D01*
X160597147Y-96940483D01*
X160546352Y-96892509D01*
X160529557Y-96824687D01*
X160552095Y-96758553D01*
X160597145Y-96719517D01*
X160688342Y-96673050D01*
X160778050Y-96583342D01*
X160790016Y-96559856D01*
X160837989Y-96509062D01*
X160905810Y-96492267D01*
X160971945Y-96514804D01*
G37*
%TD.AperFunction*%
%TA.AperFunction,Conductor*%
G36*
X147367539Y-107545185D02*
G01*
X147413294Y-107597989D01*
X147424500Y-107649500D01*
X147424500Y-107935636D01*
X147435134Y-108008625D01*
X147435134Y-108008626D01*
X147435135Y-108008628D01*
X147490172Y-108121210D01*
X147578789Y-108209827D01*
X147686572Y-108262518D01*
X147691375Y-108264866D01*
X147764364Y-108275500D01*
X147963000Y-108275500D01*
X148030039Y-108295185D01*
X148075794Y-108347989D01*
X148087000Y-108399500D01*
X148087000Y-108634773D01*
X148087000Y-108740227D01*
X148094634Y-108768717D01*
X148114293Y-108842089D01*
X148136481Y-108880518D01*
X148167020Y-108933413D01*
X148679519Y-109445912D01*
X148679520Y-109445913D01*
X148754087Y-109520480D01*
X148845413Y-109573207D01*
X148947273Y-109600500D01*
X149573959Y-109600500D01*
X149640998Y-109620185D01*
X149661640Y-109636819D01*
X149727897Y-109703076D01*
X149727900Y-109703078D01*
X149806728Y-109741614D01*
X149843482Y-109759582D01*
X149918418Y-109770500D01*
X149918423Y-109770500D01*
X150261577Y-109770500D01*
X150261582Y-109770500D01*
X150336518Y-109759582D01*
X150403143Y-109727011D01*
X150452099Y-109703078D01*
X150452102Y-109703076D01*
X150512319Y-109642860D01*
X150573642Y-109609375D01*
X150643334Y-109614359D01*
X150687681Y-109642860D01*
X150747897Y-109703076D01*
X150747900Y-109703078D01*
X150826728Y-109741614D01*
X150863482Y-109759582D01*
X150938418Y-109770500D01*
X150938423Y-109770500D01*
X150963745Y-109770500D01*
X151030784Y-109790185D01*
X151076539Y-109842989D01*
X151086483Y-109912147D01*
X151057458Y-109975703D01*
X151051426Y-109982181D01*
X150010426Y-111023181D01*
X149983498Y-111037884D01*
X149957680Y-111054477D01*
X149951479Y-111055368D01*
X149949103Y-111056666D01*
X149922745Y-111059500D01*
X149784500Y-111059500D01*
X149717461Y-111039815D01*
X149671706Y-110987011D01*
X149661766Y-110941320D01*
X149661097Y-110941386D01*
X149660531Y-110935645D01*
X149660500Y-110935500D01*
X149660500Y-110935323D01*
X149660499Y-110935321D01*
X149645967Y-110862264D01*
X149645966Y-110862260D01*
X149639162Y-110852077D01*
X149590601Y-110779399D01*
X149507740Y-110724034D01*
X149507739Y-110724033D01*
X149507735Y-110724032D01*
X149434677Y-110709500D01*
X149434674Y-110709500D01*
X147385326Y-110709500D01*
X147385323Y-110709500D01*
X147312264Y-110724032D01*
X147312260Y-110724033D01*
X147229398Y-110779400D01*
X147199745Y-110823779D01*
X147146132Y-110868584D01*
X147076807Y-110877291D01*
X147013780Y-110847136D01*
X147008962Y-110842569D01*
X146236819Y-110070426D01*
X146203334Y-110009103D01*
X146200500Y-109982745D01*
X146200500Y-109240943D01*
X146679500Y-109240943D01*
X146679500Y-109399057D01*
X146701328Y-109480518D01*
X146720423Y-109551783D01*
X146720426Y-109551790D01*
X146799475Y-109688709D01*
X146799479Y-109688714D01*
X146799480Y-109688716D01*
X146911284Y-109800520D01*
X146911286Y-109800521D01*
X146911290Y-109800524D01*
X147048117Y-109879520D01*
X147048216Y-109879577D01*
X147200943Y-109920500D01*
X147200945Y-109920500D01*
X147359055Y-109920500D01*
X147359057Y-109920500D01*
X147511784Y-109879577D01*
X147648716Y-109800520D01*
X147760520Y-109688716D01*
X147839577Y-109551784D01*
X147880500Y-109399057D01*
X147880500Y-109240943D01*
X147839577Y-109088216D01*
X147827686Y-109067620D01*
X147760524Y-108951290D01*
X147760518Y-108951282D01*
X147648717Y-108839481D01*
X147648709Y-108839475D01*
X147511790Y-108760426D01*
X147511786Y-108760424D01*
X147511784Y-108760423D01*
X147359057Y-108719500D01*
X147200943Y-108719500D01*
X147048216Y-108760423D01*
X147048209Y-108760426D01*
X146911290Y-108839475D01*
X146911282Y-108839481D01*
X146799481Y-108951282D01*
X146799475Y-108951290D01*
X146720426Y-109088209D01*
X146720423Y-109088216D01*
X146679500Y-109240943D01*
X146200500Y-109240943D01*
X146200500Y-108217255D01*
X146220185Y-108150216D01*
X146236819Y-108129574D01*
X146804574Y-107561819D01*
X146865897Y-107528334D01*
X146892255Y-107525500D01*
X147300500Y-107525500D01*
X147367539Y-107545185D01*
G37*
%TD.AperFunction*%
%TA.AperFunction,Conductor*%
G36*
X149895144Y-106110868D02*
G01*
X149925363Y-106115123D01*
X149930249Y-106118505D01*
X149933609Y-106119236D01*
X149961863Y-106140387D01*
X150061985Y-106240509D01*
X150061986Y-106240510D01*
X150061988Y-106240511D01*
X150187511Y-106312982D01*
X150187512Y-106312982D01*
X150187515Y-106312984D01*
X150327525Y-106350500D01*
X150327528Y-106350500D01*
X150472474Y-106350500D01*
X150472475Y-106350500D01*
X150530752Y-106334884D01*
X150600602Y-106336545D01*
X150650528Y-106366977D01*
X150863181Y-106579630D01*
X150896666Y-106640953D01*
X150899500Y-106667311D01*
X150899500Y-106717521D01*
X150933608Y-106844817D01*
X150951323Y-106875500D01*
X150999500Y-106958944D01*
X151472868Y-107432312D01*
X151472870Y-107432314D01*
X151566056Y-107525500D01*
X151587499Y-107537880D01*
X151635715Y-107588445D01*
X151649500Y-107645267D01*
X151649500Y-107935636D01*
X151660134Y-108008625D01*
X151660134Y-108008626D01*
X151660135Y-108008628D01*
X151715172Y-108121210D01*
X151803789Y-108209827D01*
X151911572Y-108262518D01*
X151916375Y-108264866D01*
X151989364Y-108275500D01*
X152188000Y-108275500D01*
X152196685Y-108278050D01*
X152205647Y-108276762D01*
X152229687Y-108287740D01*
X152255039Y-108295185D01*
X152260966Y-108302025D01*
X152269203Y-108305787D01*
X152283492Y-108328021D01*
X152300794Y-108347989D01*
X152303081Y-108358503D01*
X152306977Y-108364565D01*
X152312000Y-108399500D01*
X152312000Y-108470245D01*
X152292315Y-108537284D01*
X152275681Y-108557926D01*
X152070426Y-108763181D01*
X152009103Y-108796666D01*
X151982745Y-108799500D01*
X151626041Y-108799500D01*
X151559002Y-108779815D01*
X151538360Y-108763181D01*
X151472102Y-108696923D01*
X151472099Y-108696921D01*
X151356521Y-108640419D01*
X151356519Y-108640418D01*
X151356518Y-108640418D01*
X151281582Y-108629500D01*
X150938418Y-108629500D01*
X150863482Y-108640418D01*
X150863480Y-108640418D01*
X150863478Y-108640419D01*
X150747900Y-108696921D01*
X150747897Y-108696923D01*
X150687681Y-108757140D01*
X150626358Y-108790625D01*
X150556666Y-108785641D01*
X150512319Y-108757140D01*
X150452102Y-108696923D01*
X150452099Y-108696921D01*
X150336521Y-108640419D01*
X150336519Y-108640418D01*
X150336518Y-108640418D01*
X150261582Y-108629500D01*
X149918418Y-108629500D01*
X149843482Y-108640418D01*
X149843480Y-108640418D01*
X149843478Y-108640419D01*
X149727900Y-108696921D01*
X149727897Y-108696923D01*
X149661640Y-108763181D01*
X149600317Y-108796666D01*
X149573959Y-108799500D01*
X149217255Y-108799500D01*
X149150216Y-108779815D01*
X149129574Y-108763181D01*
X148924319Y-108557926D01*
X148909615Y-108530998D01*
X148893023Y-108505180D01*
X148892131Y-108498979D01*
X148890834Y-108496603D01*
X148888000Y-108470245D01*
X148888000Y-108399500D01*
X148907685Y-108332461D01*
X148960489Y-108286706D01*
X149012000Y-108275500D01*
X149210630Y-108275500D01*
X149210636Y-108275500D01*
X149283625Y-108264866D01*
X149341118Y-108236759D01*
X149396210Y-108209827D01*
X149484827Y-108121210D01*
X149524666Y-108039717D01*
X149539866Y-108008625D01*
X149550500Y-107935636D01*
X149550500Y-107614364D01*
X149539866Y-107541375D01*
X149521819Y-107504461D01*
X149510059Y-107435590D01*
X149521819Y-107395540D01*
X149539866Y-107358625D01*
X149550500Y-107285636D01*
X149550500Y-106964364D01*
X149539866Y-106891375D01*
X149521819Y-106854461D01*
X149510059Y-106785590D01*
X149521819Y-106745540D01*
X149539866Y-106708625D01*
X149550500Y-106635636D01*
X149550500Y-106509745D01*
X149570185Y-106442706D01*
X149586819Y-106422063D01*
X149672770Y-106336112D01*
X149672773Y-106336108D01*
X149753154Y-106200190D01*
X149755103Y-106193482D01*
X149757660Y-106189476D01*
X149758000Y-106184734D01*
X149776284Y-106160309D01*
X149792705Y-106134593D01*
X149797024Y-106132605D01*
X149799872Y-106128801D01*
X149828454Y-106118140D01*
X149856176Y-106105382D01*
X149860883Y-106106044D01*
X149865336Y-106104384D01*
X149895144Y-106110868D01*
G37*
%TD.AperFunction*%
%TA.AperFunction,Conductor*%
G36*
X161016099Y-106003504D02*
G01*
X161043794Y-106106865D01*
X161097298Y-106199536D01*
X161172963Y-106275201D01*
X161265634Y-106328705D01*
X161368995Y-106356400D01*
X161369652Y-106356400D01*
X160796518Y-106929531D01*
X160797364Y-106940275D01*
X160797364Y-106959734D01*
X160796518Y-106970468D01*
X161369653Y-107543601D01*
X161368995Y-107543601D01*
X161265634Y-107571296D01*
X161172963Y-107624800D01*
X161097298Y-107700465D01*
X161043794Y-107793136D01*
X161016099Y-107896497D01*
X161016099Y-107897153D01*
X160442967Y-107324021D01*
X160442964Y-107324021D01*
X160430042Y-107341809D01*
X160430035Y-107341819D01*
X160388338Y-107423654D01*
X160340363Y-107474449D01*
X160272542Y-107491244D01*
X160206407Y-107468706D01*
X160174752Y-107436249D01*
X160130042Y-107369335D01*
X160003168Y-107242461D01*
X160003164Y-107242458D01*
X159853979Y-107142775D01*
X159853969Y-107142770D01*
X159830129Y-107132895D01*
X159830110Y-107132887D01*
X159688200Y-107074107D01*
X159665295Y-107069550D01*
X159655397Y-107065747D01*
X159635719Y-107050710D01*
X159613773Y-107039230D01*
X159608441Y-107029866D01*
X159599881Y-107023325D01*
X159591455Y-107000034D01*
X159579201Y-106978513D01*
X159579777Y-106967755D01*
X159576112Y-106957622D01*
X159581615Y-106933473D01*
X159582942Y-106908744D01*
X159589244Y-106900004D01*
X159591639Y-106889499D01*
X159609323Y-106872161D01*
X159623810Y-106852073D01*
X159635047Y-106846941D01*
X159641531Y-106840585D01*
X159655143Y-106837764D01*
X159675688Y-106828382D01*
X159688200Y-106825894D01*
X159853973Y-106757229D01*
X160003165Y-106657542D01*
X160130042Y-106530665D01*
X160174752Y-106463750D01*
X160228363Y-106418947D01*
X160297688Y-106410239D01*
X160360716Y-106440393D01*
X160388339Y-106476347D01*
X160430034Y-106558178D01*
X160442966Y-106575978D01*
X161016099Y-106002845D01*
X161016099Y-106003504D01*
G37*
%TD.AperFunction*%
%TA.AperFunction,Conductor*%
G36*
X162402030Y-106575978D02*
G01*
X162414965Y-106558176D01*
X162456659Y-106476347D01*
X162504633Y-106425551D01*
X162572454Y-106408755D01*
X162638589Y-106431292D01*
X162670246Y-106463750D01*
X162714957Y-106530664D01*
X162714960Y-106530668D01*
X162841831Y-106657539D01*
X162841835Y-106657542D01*
X162991020Y-106757225D01*
X162991033Y-106757232D01*
X163156795Y-106825892D01*
X163156800Y-106825894D01*
X163169311Y-106828382D01*
X163231222Y-106860766D01*
X163265797Y-106921482D01*
X163262058Y-106991251D01*
X163221193Y-107047924D01*
X163169317Y-107071616D01*
X163156809Y-107074104D01*
X163156795Y-107074108D01*
X162991033Y-107142768D01*
X162991020Y-107142775D01*
X162841835Y-107242458D01*
X162841831Y-107242461D01*
X162714960Y-107369332D01*
X162714955Y-107369338D01*
X162670245Y-107436251D01*
X162616633Y-107481055D01*
X162547308Y-107489762D01*
X162484280Y-107459607D01*
X162456659Y-107423654D01*
X162414961Y-107341818D01*
X162402030Y-107324021D01*
X162402030Y-107324020D01*
X161828899Y-107897152D01*
X161828899Y-107896497D01*
X161801204Y-107793136D01*
X161747700Y-107700465D01*
X161672035Y-107624800D01*
X161579364Y-107571296D01*
X161476003Y-107543601D01*
X161475346Y-107543601D01*
X162048477Y-106970469D01*
X162047632Y-106959734D01*
X162047632Y-106940275D01*
X162048477Y-106929531D01*
X161475347Y-106356400D01*
X161476003Y-106356400D01*
X161579364Y-106328705D01*
X161672035Y-106275201D01*
X161747700Y-106199536D01*
X161801204Y-106106865D01*
X161828899Y-106003504D01*
X161828899Y-106002847D01*
X162402030Y-106575978D01*
G37*
%TD.AperFunction*%
%TA.AperFunction,Conductor*%
G36*
X148540629Y-103643640D02*
G01*
X148542147Y-103643422D01*
X148543837Y-103643677D01*
X148618481Y-103655500D01*
X149358819Y-103655499D01*
X149425857Y-103675183D01*
X149471612Y-103727987D01*
X149481556Y-103797146D01*
X149465550Y-103842620D01*
X149387968Y-103973803D01*
X149387966Y-103973809D01*
X149342855Y-104129081D01*
X149342854Y-104129087D01*
X149341209Y-104149999D01*
X149341210Y-104150000D01*
X149996000Y-104150000D01*
X150063039Y-104169685D01*
X150108794Y-104222489D01*
X150120000Y-104274000D01*
X150120000Y-104526000D01*
X150100315Y-104593039D01*
X150047511Y-104638794D01*
X149996000Y-104650000D01*
X149341210Y-104650000D01*
X149342854Y-104670910D01*
X149387968Y-104826195D01*
X149431941Y-104900549D01*
X149449124Y-104968273D01*
X149426964Y-105034535D01*
X149372498Y-105078299D01*
X149303018Y-105085668D01*
X149290616Y-105082747D01*
X149273550Y-105077789D01*
X149273547Y-105077788D01*
X149238118Y-105075000D01*
X148737500Y-105075000D01*
X148737500Y-105701000D01*
X148717815Y-105768039D01*
X148665011Y-105813794D01*
X148613500Y-105825000D01*
X148487500Y-105825000D01*
X148487500Y-105850500D01*
X148467815Y-105917539D01*
X148415011Y-105963294D01*
X148363500Y-105974500D01*
X147764364Y-105974500D01*
X147691375Y-105985134D01*
X147691373Y-105985134D01*
X147691371Y-105985135D01*
X147578789Y-106040172D01*
X147570425Y-106046145D01*
X147569238Y-106044483D01*
X147519458Y-106071666D01*
X147493100Y-106074500D01*
X146819387Y-106074500D01*
X146752348Y-106054815D01*
X146706593Y-106002011D01*
X146696649Y-105932853D01*
X146725674Y-105869297D01*
X146757383Y-105843114D01*
X146794856Y-105821480D01*
X147022620Y-105593715D01*
X147083941Y-105560232D01*
X147153632Y-105565216D01*
X147166721Y-105575000D01*
X148237500Y-105575000D01*
X148237500Y-105075000D01*
X147840697Y-105075000D01*
X147773658Y-105055315D01*
X147727903Y-105002511D01*
X147717959Y-104933353D01*
X147746984Y-104869797D01*
X147753002Y-104863333D01*
X148320480Y-104295856D01*
X148354421Y-104237068D01*
X148373207Y-104204530D01*
X148400500Y-104102670D01*
X148400500Y-103766160D01*
X148405766Y-103748222D01*
X148406034Y-103729528D01*
X148415407Y-103715391D01*
X148420185Y-103699121D01*
X148434312Y-103686879D01*
X148444645Y-103671296D01*
X148460173Y-103664470D01*
X148472989Y-103653366D01*
X148491491Y-103650705D01*
X148508609Y-103643182D01*
X148540629Y-103643640D01*
G37*
%TD.AperFunction*%
%TA.AperFunction,Conductor*%
G36*
X166494125Y-98848325D02*
G01*
X166520484Y-98850211D01*
X166529537Y-98856029D01*
X166536578Y-98857561D01*
X166564832Y-98878712D01*
X166588181Y-98902061D01*
X166621666Y-98963384D01*
X166624500Y-98989742D01*
X166624500Y-99088072D01*
X166604815Y-99155111D01*
X166554321Y-99199783D01*
X166522695Y-99215020D01*
X166522691Y-99215022D01*
X166430598Y-99288484D01*
X166430590Y-99288493D01*
X166357149Y-99380609D01*
X166306038Y-99486769D01*
X166279833Y-99601633D01*
X166279832Y-99601636D01*
X166279838Y-99660486D01*
X166279838Y-99969633D01*
X166279901Y-99970611D01*
X166279900Y-99974652D01*
X166279901Y-99974667D01*
X166306086Y-100089526D01*
X166306088Y-100089532D01*
X166357176Y-100195687D01*
X166430611Y-100287816D01*
X166496547Y-100340423D01*
X166522707Y-100361294D01*
X166554326Y-100376529D01*
X166606174Y-100423360D01*
X166624500Y-100488237D01*
X166624500Y-100978455D01*
X166604815Y-101045494D01*
X166588181Y-101066136D01*
X166036680Y-101617637D01*
X165975357Y-101651122D01*
X165905665Y-101646138D01*
X165849732Y-101604266D01*
X165825315Y-101538802D01*
X165824999Y-101529956D01*
X165824999Y-101400658D01*
X165824998Y-101400636D01*
X165822266Y-101365921D01*
X165779093Y-101217318D01*
X165779092Y-101217315D01*
X165700317Y-101084114D01*
X165700311Y-101084105D01*
X165590894Y-100974688D01*
X165590885Y-100974682D01*
X165457684Y-100895907D01*
X165457683Y-100895906D01*
X165325000Y-100857357D01*
X165325000Y-101576000D01*
X165305315Y-101643039D01*
X165252511Y-101688794D01*
X165201000Y-101700000D01*
X165100000Y-101700000D01*
X165100000Y-101801000D01*
X165080315Y-101868039D01*
X165027511Y-101913794D01*
X164976000Y-101925000D01*
X164375001Y-101925000D01*
X164375001Y-101999363D01*
X164377733Y-102034078D01*
X164420906Y-102182681D01*
X164420907Y-102182684D01*
X164499682Y-102315885D01*
X164499688Y-102315894D01*
X164609105Y-102425311D01*
X164609114Y-102425317D01*
X164742315Y-102504092D01*
X164742318Y-102504093D01*
X164857048Y-102537426D01*
X164915934Y-102575032D01*
X164945140Y-102638505D01*
X164935394Y-102707691D01*
X164910134Y-102744183D01*
X164591136Y-103063181D01*
X164529813Y-103096666D01*
X164503456Y-103099500D01*
X164303049Y-103099500D01*
X164232493Y-103109779D01*
X164123650Y-103162989D01*
X164037988Y-103248651D01*
X163984780Y-103357488D01*
X163984198Y-103361483D01*
X163974500Y-103428051D01*
X163974500Y-103428055D01*
X163974500Y-103428056D01*
X163974500Y-103971950D01*
X163984779Y-104042506D01*
X163984779Y-104042507D01*
X163984780Y-104042509D01*
X164037988Y-104151347D01*
X164037989Y-104151349D01*
X164123650Y-104237010D01*
X164126772Y-104239239D01*
X164130021Y-104243381D01*
X164130918Y-104244278D01*
X164130809Y-104244386D01*
X164169895Y-104294213D01*
X164176451Y-104363775D01*
X164144359Y-104425838D01*
X164142402Y-104427839D01*
X163917030Y-104653211D01*
X163917026Y-104653216D01*
X163870886Y-104733134D01*
X163870885Y-104733137D01*
X163846999Y-104822281D01*
X163846999Y-104955082D01*
X163827314Y-105022121D01*
X163774510Y-105067876D01*
X163705352Y-105077820D01*
X163692361Y-105074933D01*
X163512218Y-105039100D01*
X163512216Y-105039100D01*
X163332784Y-105039100D01*
X163332782Y-105039100D01*
X163156805Y-105074104D01*
X163156795Y-105074107D01*
X162991033Y-105142767D01*
X162991020Y-105142774D01*
X162841835Y-105242457D01*
X162841831Y-105242460D01*
X162714960Y-105369331D01*
X162714955Y-105369337D01*
X162670245Y-105436250D01*
X162616633Y-105481054D01*
X162547308Y-105489761D01*
X162484280Y-105459606D01*
X162456659Y-105423653D01*
X162414961Y-105341817D01*
X162402030Y-105324020D01*
X162402030Y-105324019D01*
X161828899Y-105897151D01*
X161828899Y-105896496D01*
X161801204Y-105793135D01*
X161747700Y-105700464D01*
X161672035Y-105624799D01*
X161579364Y-105571295D01*
X161476003Y-105543600D01*
X161475344Y-105543600D01*
X162048477Y-104970467D01*
X162030677Y-104957535D01*
X161867942Y-104874616D01*
X161694227Y-104818172D01*
X161513829Y-104789600D01*
X161462698Y-104789600D01*
X161395659Y-104769915D01*
X161349904Y-104717111D01*
X161339960Y-104647953D01*
X161363431Y-104591289D01*
X161381255Y-104567479D01*
X161418796Y-104517331D01*
X161469091Y-104382483D01*
X161475500Y-104322873D01*
X161475499Y-102656553D01*
X161495184Y-102589515D01*
X161547987Y-102543760D01*
X161617146Y-102533816D01*
X161662620Y-102549822D01*
X161700805Y-102572404D01*
X161840000Y-102612844D01*
X161840000Y-101924000D01*
X161859685Y-101856961D01*
X161912489Y-101811206D01*
X161964000Y-101800000D01*
X162216000Y-101800000D01*
X162283039Y-101819685D01*
X162328794Y-101872489D01*
X162340000Y-101924000D01*
X162340000Y-102612843D01*
X162479194Y-102572404D01*
X162617285Y-102490738D01*
X162617290Y-102490734D01*
X162723612Y-102384412D01*
X162784935Y-102350927D01*
X162854627Y-102355911D01*
X162862372Y-102359239D01*
X162863475Y-102359580D01*
X162863479Y-102359580D01*
X162863482Y-102359582D01*
X162938418Y-102370500D01*
X162938423Y-102370500D01*
X163281577Y-102370500D01*
X163281582Y-102370500D01*
X163356518Y-102359582D01*
X163445883Y-102315894D01*
X163472099Y-102303078D01*
X163472102Y-102303076D01*
X163563076Y-102212102D01*
X163563078Y-102212099D01*
X163608102Y-102120000D01*
X163619582Y-102096518D01*
X163630500Y-102021582D01*
X163630500Y-101578418D01*
X163619582Y-101503482D01*
X163618124Y-101500500D01*
X163597616Y-101458550D01*
X163597615Y-101458549D01*
X163569305Y-101400640D01*
X164375000Y-101400640D01*
X164375000Y-101475000D01*
X164875000Y-101475000D01*
X164875000Y-100857357D01*
X164742316Y-100895906D01*
X164742315Y-100895907D01*
X164609114Y-100974682D01*
X164609105Y-100974688D01*
X164499688Y-101084105D01*
X164499682Y-101084114D01*
X164420907Y-101217315D01*
X164420906Y-101217318D01*
X164377734Y-101365915D01*
X164377732Y-101365926D01*
X164375000Y-101400640D01*
X163569305Y-101400640D01*
X163563076Y-101387898D01*
X163536898Y-101361720D01*
X163529445Y-101349834D01*
X163523624Y-101329162D01*
X163513334Y-101310317D01*
X163510500Y-101283959D01*
X163510500Y-100667744D01*
X163530185Y-100600705D01*
X163582989Y-100554950D01*
X163652147Y-100545006D01*
X163653860Y-100545265D01*
X163718481Y-100555500D01*
X165431518Y-100555499D01*
X165525304Y-100540646D01*
X165638342Y-100483050D01*
X165728050Y-100393342D01*
X165785646Y-100280304D01*
X165785646Y-100280302D01*
X165785647Y-100280301D01*
X165800500Y-100186522D01*
X165800500Y-100186520D01*
X165800499Y-99823482D01*
X165796133Y-99795917D01*
X165785646Y-99729696D01*
X165728050Y-99616658D01*
X165728046Y-99616654D01*
X165728045Y-99616652D01*
X165638347Y-99526954D01*
X165638343Y-99526951D01*
X165638342Y-99526950D01*
X165616852Y-99516000D01*
X165547147Y-99480483D01*
X165496352Y-99432509D01*
X165479557Y-99364687D01*
X165502095Y-99298553D01*
X165547145Y-99259517D01*
X165638342Y-99213050D01*
X165675880Y-99175512D01*
X165729574Y-99121819D01*
X165790897Y-99088334D01*
X165817255Y-99085500D01*
X166083643Y-99085500D01*
X166083645Y-99085500D01*
X166172789Y-99061614D01*
X166252713Y-99015470D01*
X166389472Y-98878710D01*
X166397416Y-98874372D01*
X166402841Y-98867126D01*
X166427597Y-98857892D01*
X166450792Y-98845227D01*
X166459822Y-98845872D01*
X166468305Y-98842709D01*
X166494125Y-98848325D01*
G37*
%TD.AperFunction*%
%TA.AperFunction,Conductor*%
G36*
X146650726Y-104620185D02*
G01*
X146696481Y-104672989D01*
X146706425Y-104742147D01*
X146677400Y-104805703D01*
X146671368Y-104812181D01*
X146419369Y-105064181D01*
X146358046Y-105097666D01*
X146331688Y-105100500D01*
X145965255Y-105100500D01*
X145898216Y-105080815D01*
X145852461Y-105028011D01*
X145842517Y-104958853D01*
X145871542Y-104895297D01*
X145877574Y-104888819D01*
X146129574Y-104636819D01*
X146190897Y-104603334D01*
X146217255Y-104600500D01*
X146583687Y-104600500D01*
X146650726Y-104620185D01*
G37*
%TD.AperFunction*%
%TA.AperFunction,Conductor*%
G36*
X153717230Y-98909921D02*
G01*
X153748022Y-98909979D01*
X153751759Y-98912390D01*
X153756198Y-98912708D01*
X153780853Y-98931165D01*
X153806729Y-98947863D01*
X153808569Y-98951914D01*
X153812131Y-98954580D01*
X153822891Y-98983430D01*
X153835635Y-99011473D01*
X153835623Y-99017565D01*
X153836548Y-99020044D01*
X153835569Y-99046761D01*
X153829500Y-99088418D01*
X153829500Y-99431582D01*
X153840418Y-99506518D01*
X153840418Y-99506519D01*
X153840419Y-99506521D01*
X153886900Y-99601600D01*
X153899500Y-99656060D01*
X153899500Y-99908504D01*
X153879815Y-99975543D01*
X153837501Y-100015890D01*
X153831290Y-100019475D01*
X153831281Y-100019482D01*
X153719481Y-100131282D01*
X153719475Y-100131290D01*
X153640426Y-100268209D01*
X153640423Y-100268216D01*
X153599500Y-100420943D01*
X153599500Y-100579057D01*
X153630810Y-100695905D01*
X153640423Y-100731783D01*
X153640424Y-100731786D01*
X153682887Y-100805334D01*
X153687037Y-100820822D01*
X153694477Y-100832399D01*
X153699500Y-100867334D01*
X153699500Y-101032688D01*
X153679815Y-101099727D01*
X153663181Y-101120369D01*
X152395195Y-102388354D01*
X152333872Y-102421839D01*
X152264180Y-102416855D01*
X152208353Y-102375126D01*
X152204504Y-102370000D01*
X151524000Y-102370000D01*
X151456961Y-102350315D01*
X151411206Y-102297511D01*
X151400000Y-102246000D01*
X151400000Y-102120000D01*
X151274000Y-102120000D01*
X151206961Y-102100315D01*
X151161206Y-102047511D01*
X151150000Y-101996000D01*
X151150000Y-101870000D01*
X151650000Y-101870000D01*
X152204504Y-101870000D01*
X152162031Y-101723804D01*
X152079721Y-101584625D01*
X152079714Y-101584616D01*
X151965383Y-101470285D01*
X151965374Y-101470278D01*
X151826195Y-101387968D01*
X151826190Y-101387966D01*
X151670918Y-101342855D01*
X151670912Y-101342854D01*
X151650000Y-101341209D01*
X151650000Y-101870000D01*
X151150000Y-101870000D01*
X151150000Y-101341210D01*
X151149999Y-101341209D01*
X151129087Y-101342854D01*
X150985690Y-101384515D01*
X150915821Y-101384315D01*
X150857262Y-101346501D01*
X150705268Y-101170563D01*
X150692596Y-101142706D01*
X150677936Y-101115858D01*
X150678268Y-101111208D01*
X150676338Y-101106965D01*
X150680737Y-101076684D01*
X150682920Y-101046166D01*
X150685713Y-101042434D01*
X150686384Y-101037821D01*
X150706455Y-101014726D01*
X150724792Y-100990233D01*
X150729159Y-100988603D01*
X150732218Y-100985085D01*
X150761590Y-100976507D01*
X150790256Y-100965816D01*
X150799102Y-100965500D01*
X151487725Y-100965500D01*
X151487727Y-100965500D01*
X151589588Y-100938207D01*
X151680913Y-100885480D01*
X153625183Y-98941208D01*
X153652213Y-98926449D01*
X153678152Y-98909848D01*
X153682600Y-98909856D01*
X153686506Y-98907724D01*
X153717230Y-98909921D01*
G37*
%TD.AperFunction*%
%TA.AperFunction,Conductor*%
G36*
X156517941Y-81220185D02*
G01*
X156563696Y-81272989D01*
X156573640Y-81342147D01*
X156544615Y-81405703D01*
X156538583Y-81412181D01*
X156519481Y-81431282D01*
X156519475Y-81431290D01*
X156440426Y-81568209D01*
X156440423Y-81568216D01*
X156399500Y-81720943D01*
X156399500Y-81879057D01*
X156430283Y-81993939D01*
X156440423Y-82031783D01*
X156440426Y-82031790D01*
X156519475Y-82168709D01*
X156519479Y-82168714D01*
X156519480Y-82168716D01*
X156631284Y-82280520D01*
X156631286Y-82280521D01*
X156631290Y-82280524D01*
X156768209Y-82359573D01*
X156768216Y-82359577D01*
X156920943Y-82400500D01*
X156920945Y-82400500D01*
X157079055Y-82400500D01*
X157079057Y-82400500D01*
X157231784Y-82359577D01*
X157305334Y-82317112D01*
X157367334Y-82300500D01*
X158333745Y-82300500D01*
X158400784Y-82320185D01*
X158446539Y-82372989D01*
X158456483Y-82442147D01*
X158427458Y-82505703D01*
X158421426Y-82512181D01*
X154917181Y-86016426D01*
X154855858Y-86049911D01*
X154786166Y-86044927D01*
X154730233Y-86003055D01*
X154705816Y-85937591D01*
X154705500Y-85928745D01*
X154705500Y-85787154D01*
X154705500Y-85787149D01*
X154692969Y-85675294D01*
X154681634Y-85625337D01*
X154680830Y-85621792D01*
X154680827Y-85621785D01*
X154680826Y-85621777D01*
X154643853Y-85515462D01*
X154628541Y-85492547D01*
X154563916Y-85395831D01*
X154517228Y-85343855D01*
X154517219Y-85343846D01*
X154406823Y-85251587D01*
X154406814Y-85251582D01*
X154274904Y-85194165D01*
X154274787Y-85194133D01*
X154207517Y-85175679D01*
X154207519Y-85175679D01*
X154064766Y-85157748D01*
X154064765Y-85157748D01*
X153922737Y-85180763D01*
X153870046Y-85197261D01*
X153870039Y-85197264D01*
X153856062Y-85201641D01*
X153856058Y-85201642D01*
X153726268Y-85263739D01*
X153667990Y-85302677D01*
X153662029Y-85305788D01*
X153660040Y-85306181D01*
X153652127Y-85310411D01*
X153611918Y-85327067D01*
X153588656Y-85334124D01*
X153567143Y-85338403D01*
X153545958Y-85342617D01*
X153521769Y-85345000D01*
X153478230Y-85345000D01*
X153454039Y-85342617D01*
X153432692Y-85338371D01*
X153411347Y-85334125D01*
X153388085Y-85327068D01*
X153347861Y-85310406D01*
X153326424Y-85298948D01*
X153290224Y-85274760D01*
X153271434Y-85259339D01*
X153240658Y-85228563D01*
X153225241Y-85209778D01*
X153201044Y-85173564D01*
X153189592Y-85152136D01*
X153172933Y-85111919D01*
X153165875Y-85088655D01*
X153157382Y-85045955D01*
X153155000Y-85021765D01*
X153155000Y-84978232D01*
X153157382Y-84954042D01*
X153165875Y-84911342D01*
X153172933Y-84888078D01*
X153189592Y-84847861D01*
X153201042Y-84826437D01*
X153225244Y-84790213D01*
X153240653Y-84771439D01*
X153271439Y-84740653D01*
X153290213Y-84725244D01*
X153326437Y-84701042D01*
X153347861Y-84689592D01*
X153388078Y-84672933D01*
X153411338Y-84665875D01*
X153454042Y-84657381D01*
X153478232Y-84655000D01*
X153521770Y-84655000D01*
X153545953Y-84657381D01*
X153588660Y-84665876D01*
X153611916Y-84672931D01*
X153652132Y-84689590D01*
X153673566Y-84701047D01*
X153709768Y-84725235D01*
X153726268Y-84736260D01*
X153826233Y-84787984D01*
X153877477Y-84807620D01*
X153877481Y-84807621D01*
X153877484Y-84807622D01*
X153898805Y-84813165D01*
X153986417Y-84835943D01*
X154130297Y-84835942D01*
X154199455Y-84825998D01*
X154337504Y-84785463D01*
X154458543Y-84707675D01*
X154511347Y-84661920D01*
X154605567Y-84553186D01*
X154665338Y-84422309D01*
X154685023Y-84355270D01*
X154685024Y-84355266D01*
X154705500Y-84212850D01*
X154705500Y-83924000D01*
X154693947Y-83816544D01*
X154682741Y-83765033D01*
X154677794Y-83750169D01*
X154648616Y-83662502D01*
X154648613Y-83662496D01*
X154570825Y-83541457D01*
X154558746Y-83527517D01*
X154525076Y-83488659D01*
X154525072Y-83488656D01*
X154525070Y-83488653D01*
X154416336Y-83394433D01*
X154416333Y-83394431D01*
X154416331Y-83394430D01*
X154285465Y-83334664D01*
X154285460Y-83334662D01*
X154285459Y-83334662D01*
X154218420Y-83314977D01*
X154218422Y-83314977D01*
X154218417Y-83314976D01*
X154170944Y-83308150D01*
X154076000Y-83294500D01*
X154075998Y-83294500D01*
X148889529Y-83294500D01*
X148822490Y-83274815D01*
X148795381Y-83251198D01*
X148700847Y-83140908D01*
X147820920Y-82114327D01*
X147769166Y-82062155D01*
X147742057Y-82038538D01*
X147742051Y-82038533D01*
X147742047Y-82038530D01*
X147725446Y-82026069D01*
X147683304Y-81994433D01*
X147683300Y-81994431D01*
X147683298Y-81994429D01*
X147552433Y-81934664D01*
X147552428Y-81934662D01*
X147552427Y-81934662D01*
X147485388Y-81914977D01*
X147485390Y-81914977D01*
X147485385Y-81914976D01*
X147419608Y-81905519D01*
X147342968Y-81894500D01*
X144624000Y-81894500D01*
X144623991Y-81894500D01*
X144623990Y-81894501D01*
X144516549Y-81906052D01*
X144516537Y-81906054D01*
X144465027Y-81917260D01*
X144362502Y-81951383D01*
X144362496Y-81951386D01*
X144241462Y-82029171D01*
X144241451Y-82029179D01*
X144188659Y-82074923D01*
X144094433Y-82183664D01*
X144094430Y-82183668D01*
X144034664Y-82314534D01*
X144014976Y-82381582D01*
X143994500Y-82524001D01*
X143994500Y-82930731D01*
X144001898Y-82996676D01*
X143989810Y-83065492D01*
X143942436Y-83116848D01*
X143878671Y-83134500D01*
X142852129Y-83134500D01*
X142852123Y-83134501D01*
X142792516Y-83140908D01*
X142657671Y-83191202D01*
X142657664Y-83191206D01*
X142542455Y-83277452D01*
X142542452Y-83277455D01*
X142456206Y-83392664D01*
X142456202Y-83392671D01*
X142405908Y-83527517D01*
X142399501Y-83587116D01*
X142399500Y-83587135D01*
X142399500Y-83760619D01*
X142385985Y-83816913D01*
X142341119Y-83904967D01*
X142341116Y-83904974D01*
X142280290Y-84092173D01*
X142249500Y-84286577D01*
X142249500Y-86074422D01*
X142280290Y-86268826D01*
X142305585Y-86346673D01*
X142340192Y-86453182D01*
X142342187Y-86523021D01*
X142306107Y-86582854D01*
X142243406Y-86613683D01*
X142173992Y-86605719D01*
X142160262Y-86598887D01*
X142035734Y-86526992D01*
X141951113Y-86504318D01*
X141883007Y-86486069D01*
X141724893Y-86486069D01*
X141572166Y-86526992D01*
X141572159Y-86526995D01*
X141435240Y-86606044D01*
X141435232Y-86606050D01*
X141323431Y-86717851D01*
X141323425Y-86717859D01*
X141244376Y-86854778D01*
X141244373Y-86854785D01*
X141203450Y-87007512D01*
X141203450Y-87165626D01*
X141244373Y-87318353D01*
X141244374Y-87318355D01*
X141246364Y-87325781D01*
X141244701Y-87395631D01*
X141205539Y-87453494D01*
X141188594Y-87465259D01*
X141181284Y-87469480D01*
X141181281Y-87469482D01*
X141069481Y-87581282D01*
X141069475Y-87581290D01*
X140990426Y-87718209D01*
X140990423Y-87718216D01*
X140949500Y-87870943D01*
X140949500Y-88029057D01*
X140987788Y-88171948D01*
X140990423Y-88181783D01*
X140990426Y-88181790D01*
X141069475Y-88318709D01*
X141069479Y-88318714D01*
X141069480Y-88318716D01*
X141181284Y-88430520D01*
X141181286Y-88430521D01*
X141181290Y-88430524D01*
X141284688Y-88490220D01*
X141318216Y-88509577D01*
X141470943Y-88550500D01*
X141470945Y-88550500D01*
X141629055Y-88550500D01*
X141629057Y-88550500D01*
X141781784Y-88509577D01*
X141918716Y-88430520D01*
X142030520Y-88318716D01*
X142109577Y-88181784D01*
X142150500Y-88029057D01*
X142150500Y-87870943D01*
X142109577Y-87718216D01*
X142109576Y-87718215D01*
X142107586Y-87710786D01*
X142109249Y-87640936D01*
X142148412Y-87583074D01*
X142165361Y-87571306D01*
X142172666Y-87567089D01*
X142284470Y-87455285D01*
X142363527Y-87318353D01*
X142404450Y-87165626D01*
X142404450Y-87007512D01*
X142392971Y-86964672D01*
X142394634Y-86894827D01*
X142433796Y-86836964D01*
X142498024Y-86809459D01*
X142566926Y-86821045D01*
X142600427Y-86844901D01*
X143309354Y-87553828D01*
X143366226Y-87595148D01*
X143468590Y-87669521D01*
X143468591Y-87669521D01*
X143468595Y-87669524D01*
X143564146Y-87718209D01*
X143643969Y-87758881D01*
X143643971Y-87758881D01*
X143643974Y-87758883D01*
X143831173Y-87819709D01*
X143928378Y-87835104D01*
X144025578Y-87850500D01*
X144025583Y-87850500D01*
X144222421Y-87850500D01*
X144310784Y-87836504D01*
X144416826Y-87819709D01*
X144604026Y-87758883D01*
X144755330Y-87681790D01*
X144823997Y-87668895D01*
X144888738Y-87695171D01*
X144916731Y-87730944D01*
X144918133Y-87730043D01*
X145000712Y-87858537D01*
X145000720Y-87858548D01*
X145046464Y-87911340D01*
X145046467Y-87911343D01*
X145046471Y-87911347D01*
X145155205Y-88005567D01*
X145155208Y-88005568D01*
X145155209Y-88005569D01*
X145212919Y-88031925D01*
X145286082Y-88065338D01*
X145353121Y-88085023D01*
X145353125Y-88085024D01*
X145495541Y-88105500D01*
X149225500Y-88105500D01*
X149292539Y-88125185D01*
X149338294Y-88177989D01*
X149349500Y-88229500D01*
X149349500Y-89010365D01*
X149344082Y-89028813D01*
X149343639Y-89048037D01*
X149334441Y-89061646D01*
X149329815Y-89077404D01*
X149315285Y-89089994D01*
X149304518Y-89105927D01*
X149289423Y-89112403D01*
X149277011Y-89123159D01*
X149257978Y-89125895D01*
X149240309Y-89133477D01*
X149216856Y-89131808D01*
X149207853Y-89133103D01*
X149205025Y-89132663D01*
X149199156Y-89131680D01*
X149079057Y-89099500D01*
X149006946Y-89099500D01*
X148996780Y-89097798D01*
X148974242Y-89086870D01*
X148950216Y-89079815D01*
X148935899Y-89068278D01*
X148933911Y-89067314D01*
X148933144Y-89066057D01*
X148929574Y-89063181D01*
X148645915Y-88779522D01*
X148645913Y-88779520D01*
X148591893Y-88748331D01*
X148554589Y-88726793D01*
X148497337Y-88711453D01*
X148452727Y-88699500D01*
X147552727Y-88699500D01*
X147447273Y-88699500D01*
X147345410Y-88726793D01*
X147254087Y-88779520D01*
X147254084Y-88779522D01*
X146079522Y-89954084D01*
X146079518Y-89954090D01*
X146026792Y-90045412D01*
X146026793Y-90045413D01*
X145999500Y-90147273D01*
X145999500Y-90971109D01*
X145979815Y-91038148D01*
X145963181Y-91058790D01*
X145617091Y-91404879D01*
X145591806Y-91418685D01*
X145568068Y-91435018D01*
X145561518Y-91435224D01*
X145555768Y-91438364D01*
X145527032Y-91436308D01*
X145498233Y-91437215D01*
X145492611Y-91433847D01*
X145486076Y-91433380D01*
X145463013Y-91416115D01*
X145438296Y-91401307D01*
X145433760Y-91394215D01*
X145430143Y-91391508D01*
X145418291Y-91372230D01*
X145416447Y-91368507D01*
X145365084Y-91244505D01*
X145326256Y-91186395D01*
X145322697Y-91179208D01*
X145317974Y-91152382D01*
X145309836Y-91126391D01*
X145312006Y-91118478D01*
X145310584Y-91110396D01*
X145321114Y-91085276D01*
X145328320Y-91059010D01*
X145335049Y-91052036D01*
X145337597Y-91045959D01*
X145347464Y-91039170D01*
X145364924Y-91021075D01*
X145380601Y-91010601D01*
X145435966Y-90927740D01*
X145450500Y-90854674D01*
X145450500Y-89805326D01*
X145450500Y-89805323D01*
X145450499Y-89805321D01*
X145435967Y-89732264D01*
X145435966Y-89732260D01*
X145414744Y-89700499D01*
X145380601Y-89649399D01*
X145310107Y-89602297D01*
X145297739Y-89594033D01*
X145297735Y-89594032D01*
X145224677Y-89579500D01*
X145224674Y-89579500D01*
X144175326Y-89579500D01*
X144175323Y-89579500D01*
X144090281Y-89596416D01*
X144089494Y-89592460D01*
X144042384Y-89597520D01*
X143979908Y-89566238D01*
X143944262Y-89506145D01*
X143941011Y-89487645D01*
X143939019Y-89467425D01*
X143903675Y-89443809D01*
X143903673Y-89443808D01*
X143721693Y-89368430D01*
X143721681Y-89368427D01*
X143528495Y-89330000D01*
X143331504Y-89330000D01*
X143138318Y-89368427D01*
X143138310Y-89368429D01*
X142956325Y-89443809D01*
X142956318Y-89443813D01*
X142920979Y-89467426D01*
X143430000Y-89976446D01*
X143430001Y-89976446D01*
X143746957Y-89659488D01*
X143808280Y-89626003D01*
X143877971Y-89630987D01*
X143933905Y-89672858D01*
X143958322Y-89738323D01*
X143956256Y-89771359D01*
X143949500Y-89805326D01*
X143949500Y-90112691D01*
X143929815Y-90179730D01*
X143913181Y-90200372D01*
X143755000Y-90358553D01*
X143755000Y-90287213D01*
X143732851Y-90204555D01*
X143690064Y-90130446D01*
X143629554Y-90069936D01*
X143555445Y-90027149D01*
X143472787Y-90005000D01*
X143387213Y-90005000D01*
X143304555Y-90027149D01*
X143230446Y-90069936D01*
X143169936Y-90130446D01*
X143127149Y-90204555D01*
X143105000Y-90287213D01*
X143105000Y-90372787D01*
X143127149Y-90455445D01*
X143169936Y-90529554D01*
X143230446Y-90590064D01*
X143304555Y-90632851D01*
X143387213Y-90655000D01*
X143458554Y-90655000D01*
X143267677Y-90845875D01*
X143215997Y-90876852D01*
X143211087Y-90878341D01*
X143074507Y-90934914D01*
X143074498Y-90934919D01*
X142951584Y-91017048D01*
X142951580Y-91017051D01*
X142882681Y-91085951D01*
X142821358Y-91119436D01*
X142751666Y-91114452D01*
X142707319Y-91085951D01*
X142638419Y-91017051D01*
X142638415Y-91017048D01*
X142515501Y-90934919D01*
X142515488Y-90934912D01*
X142378917Y-90878343D01*
X142374004Y-90876853D01*
X142322321Y-90845874D01*
X142131446Y-90655000D01*
X142202787Y-90655000D01*
X142285445Y-90632851D01*
X142359554Y-90590064D01*
X142420064Y-90529554D01*
X142462851Y-90455445D01*
X142485000Y-90372787D01*
X142485000Y-90330000D01*
X142513553Y-90330000D01*
X142795000Y-90611446D01*
X142795001Y-90611446D01*
X143076446Y-90330001D01*
X143076446Y-90329999D01*
X142795001Y-90048553D01*
X142795000Y-90048553D01*
X142513553Y-90330000D01*
X142485000Y-90330000D01*
X142485000Y-90287213D01*
X142462851Y-90204555D01*
X142420064Y-90130446D01*
X142359554Y-90069936D01*
X142285445Y-90027149D01*
X142202787Y-90005000D01*
X142117213Y-90005000D01*
X142034555Y-90027149D01*
X141960446Y-90069936D01*
X141899936Y-90130446D01*
X141857149Y-90204555D01*
X141835000Y-90287213D01*
X141835000Y-90358553D01*
X141644126Y-90167679D01*
X141613147Y-90115996D01*
X141611656Y-90111082D01*
X141555087Y-89974511D01*
X141555080Y-89974498D01*
X141472951Y-89851584D01*
X141472948Y-89851580D01*
X141368419Y-89747051D01*
X141368415Y-89747048D01*
X141245501Y-89664919D01*
X141245488Y-89664912D01*
X141108917Y-89608343D01*
X141108907Y-89608340D01*
X140963920Y-89579500D01*
X140963918Y-89579500D01*
X140816082Y-89579500D01*
X140816080Y-89579500D01*
X140671092Y-89608340D01*
X140671082Y-89608343D01*
X140534511Y-89664912D01*
X140534498Y-89664919D01*
X140411584Y-89747048D01*
X140411580Y-89747051D01*
X140307051Y-89851580D01*
X140307048Y-89851584D01*
X140224919Y-89974498D01*
X140224914Y-89974507D01*
X140168341Y-90111087D01*
X140166852Y-90115997D01*
X140135875Y-90167677D01*
X139945000Y-90358553D01*
X139945000Y-90287213D01*
X139922851Y-90204555D01*
X139880064Y-90130446D01*
X139819554Y-90069936D01*
X139745445Y-90027149D01*
X139662787Y-90005000D01*
X139577213Y-90005000D01*
X139494555Y-90027149D01*
X139420446Y-90069936D01*
X139359936Y-90130446D01*
X139317149Y-90204555D01*
X139295000Y-90287213D01*
X139295000Y-90372787D01*
X139317149Y-90455445D01*
X139359936Y-90529554D01*
X139420446Y-90590064D01*
X139494555Y-90632851D01*
X139577213Y-90655000D01*
X139648554Y-90655000D01*
X139457677Y-90845875D01*
X139405997Y-90876852D01*
X139401087Y-90878341D01*
X139264507Y-90934914D01*
X139264498Y-90934919D01*
X139141584Y-91017048D01*
X139141580Y-91017051D01*
X139037051Y-91121580D01*
X139037048Y-91121584D01*
X138954919Y-91244498D01*
X138954912Y-91244511D01*
X138898343Y-91381082D01*
X138898340Y-91381092D01*
X138869500Y-91526079D01*
X138869500Y-91526082D01*
X138869500Y-91673918D01*
X138869500Y-91673920D01*
X138869499Y-91673920D01*
X138898340Y-91818907D01*
X138898343Y-91818917D01*
X138954912Y-91955488D01*
X138954919Y-91955501D01*
X139037048Y-92078415D01*
X139037051Y-92078419D01*
X139141580Y-92182948D01*
X139141584Y-92182951D01*
X139264498Y-92265080D01*
X139264511Y-92265087D01*
X139397009Y-92319969D01*
X139401087Y-92321658D01*
X139401091Y-92321658D01*
X139401092Y-92321659D01*
X139546079Y-92350500D01*
X139546082Y-92350500D01*
X139693919Y-92350500D01*
X139712241Y-92346855D01*
X139720818Y-92345149D01*
X139790410Y-92351375D01*
X139832692Y-92379085D01*
X140099780Y-92646172D01*
X140299518Y-92845910D01*
X140299520Y-92845913D01*
X140374087Y-92920480D01*
X140454962Y-92967173D01*
X140462543Y-92971550D01*
X140462547Y-92971553D01*
X140465409Y-92973205D01*
X140465410Y-92973205D01*
X140465413Y-92973207D01*
X140474542Y-92975653D01*
X140534203Y-93012017D01*
X140564733Y-93074863D01*
X140562224Y-93127521D01*
X140537193Y-93220942D01*
X140537193Y-93379056D01*
X140575277Y-93521185D01*
X140578116Y-93531782D01*
X140578119Y-93531789D01*
X140657168Y-93668708D01*
X140657172Y-93668713D01*
X140657173Y-93668715D01*
X140768977Y-93780519D01*
X140768979Y-93780520D01*
X140768983Y-93780523D01*
X140877238Y-93843023D01*
X140905909Y-93859576D01*
X141058636Y-93900499D01*
X141058638Y-93900499D01*
X141216748Y-93900499D01*
X141216750Y-93900499D01*
X141369477Y-93859576D01*
X141506409Y-93780519D01*
X141618213Y-93668715D01*
X141697270Y-93531783D01*
X141738193Y-93379056D01*
X141738193Y-93220942D01*
X141720950Y-93156590D01*
X141722613Y-93086744D01*
X141761775Y-93028881D01*
X141826003Y-93001377D01*
X141840725Y-93000500D01*
X142182745Y-93000500D01*
X142249784Y-93020185D01*
X142270426Y-93036819D01*
X142655087Y-93421480D01*
X142724403Y-93461500D01*
X142743673Y-93472626D01*
X142746412Y-93474207D01*
X142848273Y-93501500D01*
X142953727Y-93501500D01*
X143583745Y-93501500D01*
X143650784Y-93521185D01*
X143671426Y-93537819D01*
X144563181Y-94429574D01*
X144596666Y-94490897D01*
X144599500Y-94517255D01*
X144599500Y-97099902D01*
X144579815Y-97166941D01*
X144563181Y-97187583D01*
X144519481Y-97231282D01*
X144519475Y-97231290D01*
X144440426Y-97368209D01*
X144440423Y-97368216D01*
X144399500Y-97520943D01*
X144399500Y-97679057D01*
X144440423Y-97831782D01*
X144440423Y-97831783D01*
X144440426Y-97831790D01*
X144519475Y-97968709D01*
X144519479Y-97968714D01*
X144519480Y-97968716D01*
X144631284Y-98080520D01*
X144631286Y-98080521D01*
X144631290Y-98080524D01*
X144735040Y-98140423D01*
X144768216Y-98159577D01*
X144920943Y-98200500D01*
X144920945Y-98200500D01*
X145079055Y-98200500D01*
X145079057Y-98200500D01*
X145231784Y-98159577D01*
X145368716Y-98080520D01*
X145480520Y-97968716D01*
X145530687Y-97881823D01*
X146071728Y-97881823D01*
X146071728Y-97881824D01*
X146098514Y-97904702D01*
X146098516Y-97904703D01*
X146239114Y-97981998D01*
X146239120Y-97982000D01*
X146394508Y-98021897D01*
X146394516Y-98021898D01*
X146554950Y-98021898D01*
X146554955Y-98021897D01*
X146710344Y-97982000D01*
X146710348Y-97981998D01*
X146837368Y-97912168D01*
X146439376Y-97514177D01*
X146071728Y-97881823D01*
X145530687Y-97881823D01*
X145559577Y-97831784D01*
X145600500Y-97679057D01*
X145600500Y-97640079D01*
X145603008Y-97627800D01*
X145613731Y-97607553D01*
X145620185Y-97585575D01*
X145629771Y-97577268D01*
X145635710Y-97566056D01*
X145655677Y-97554820D01*
X145672989Y-97539820D01*
X145687374Y-97536985D01*
X145696602Y-97531793D01*
X145709792Y-97532567D01*
X145714880Y-97531564D01*
X146085822Y-97160623D01*
X145687830Y-96762631D01*
X145687829Y-96762631D01*
X145633162Y-96862072D01*
X145583616Y-96911336D01*
X145515301Y-96925993D01*
X145449907Y-96901390D01*
X145408195Y-96845337D01*
X145400500Y-96802335D01*
X145400500Y-95720943D01*
X145999500Y-95720943D01*
X145999500Y-95879057D01*
X146037266Y-96020000D01*
X146040423Y-96031783D01*
X146040426Y-96031790D01*
X146119475Y-96168709D01*
X146119481Y-96168717D01*
X146130092Y-96179328D01*
X146163577Y-96240651D01*
X146158593Y-96310343D01*
X146116721Y-96366276D01*
X146102149Y-96375671D01*
X146041383Y-96409077D01*
X146616153Y-96983847D01*
X147190920Y-97558615D01*
X147260750Y-97431596D01*
X147260752Y-97431592D01*
X147300649Y-97276203D01*
X147300650Y-97276198D01*
X147300650Y-97125834D01*
X147320335Y-97058795D01*
X147373139Y-97013040D01*
X147380960Y-97009920D01*
X147381986Y-97009377D01*
X147381994Y-97009375D01*
X147442702Y-96964107D01*
X147442708Y-96964102D01*
X147685350Y-96721460D01*
X147685355Y-96721454D01*
X147700898Y-96700609D01*
X147730623Y-96660746D01*
X147772397Y-96539060D01*
X147772397Y-96410403D01*
X147730623Y-96288717D01*
X147709082Y-96259829D01*
X147685355Y-96228008D01*
X147371991Y-95914644D01*
X147311285Y-95869378D01*
X147311283Y-95869377D01*
X147284235Y-95860091D01*
X147227221Y-95819706D01*
X147201091Y-95754906D01*
X147200500Y-95742811D01*
X147200500Y-95720945D01*
X147200500Y-95720943D01*
X147159577Y-95568216D01*
X147131437Y-95519475D01*
X147080524Y-95431290D01*
X147080518Y-95431282D01*
X146968717Y-95319481D01*
X146968709Y-95319475D01*
X146831790Y-95240426D01*
X146831786Y-95240424D01*
X146831784Y-95240423D01*
X146679057Y-95199500D01*
X146520943Y-95199500D01*
X146368216Y-95240423D01*
X146368209Y-95240426D01*
X146231290Y-95319475D01*
X146231282Y-95319481D01*
X146119481Y-95431282D01*
X146119475Y-95431290D01*
X146040426Y-95568209D01*
X146040423Y-95568216D01*
X145999500Y-95720943D01*
X145400500Y-95720943D01*
X145400500Y-94247275D01*
X145400499Y-94247271D01*
X145397385Y-94235646D01*
X145373207Y-94145412D01*
X145320480Y-94054087D01*
X145278969Y-94012576D01*
X145245484Y-93951253D01*
X145250468Y-93881561D01*
X145292340Y-93825628D01*
X145304643Y-93817511D01*
X145368716Y-93780520D01*
X145480520Y-93668716D01*
X145559577Y-93531784D01*
X145600500Y-93379057D01*
X145600500Y-93220943D01*
X145559577Y-93068216D01*
X145541450Y-93036819D01*
X145480524Y-92931290D01*
X145480518Y-92931282D01*
X145439676Y-92890440D01*
X145406191Y-92829117D01*
X145411175Y-92759425D01*
X145439672Y-92715083D01*
X145903659Y-92251096D01*
X147050000Y-92251096D01*
X147052897Y-92293824D01*
X147098831Y-92478523D01*
X147183390Y-92649022D01*
X147183392Y-92649025D01*
X147302632Y-92797366D01*
X147302633Y-92797367D01*
X147450974Y-92916607D01*
X147450977Y-92916609D01*
X147621476Y-93001168D01*
X147806175Y-93047102D01*
X147848903Y-93050000D01*
X148050000Y-93050000D01*
X148050000Y-91800000D01*
X147050000Y-91800000D01*
X147050000Y-92251096D01*
X145903659Y-92251096D01*
X146635703Y-91519051D01*
X146635708Y-91519048D01*
X146645911Y-91508844D01*
X146645913Y-91508844D01*
X146720480Y-91434277D01*
X146752094Y-91379520D01*
X146773207Y-91342952D01*
X146800500Y-91241091D01*
X146800500Y-91135637D01*
X146800500Y-90848903D01*
X147050000Y-90848903D01*
X147050000Y-91300000D01*
X148050000Y-91300000D01*
X148050000Y-90050000D01*
X147848903Y-90050000D01*
X147806175Y-90052897D01*
X147621476Y-90098831D01*
X147450977Y-90183390D01*
X147450974Y-90183392D01*
X147302633Y-90302632D01*
X147302632Y-90302633D01*
X147183392Y-90450974D01*
X147183390Y-90450977D01*
X147098831Y-90621476D01*
X147052897Y-90806175D01*
X147050000Y-90848903D01*
X146800500Y-90848903D01*
X146800500Y-90417255D01*
X146820185Y-90350216D01*
X146836819Y-90329574D01*
X147629574Y-89536819D01*
X147690897Y-89503334D01*
X147717255Y-89500500D01*
X148182745Y-89500500D01*
X148212185Y-89509144D01*
X148242172Y-89515668D01*
X148247187Y-89519422D01*
X148249784Y-89520185D01*
X148270426Y-89536819D01*
X148363181Y-89629574D01*
X148396666Y-89690897D01*
X148399500Y-89717255D01*
X148399500Y-89779057D01*
X148437127Y-89919481D01*
X148440423Y-89931783D01*
X148440426Y-89931790D01*
X148519475Y-90068710D01*
X148524373Y-90075092D01*
X148549570Y-90140260D01*
X148550000Y-90150582D01*
X148550000Y-93050000D01*
X148751097Y-93050000D01*
X148793824Y-93047102D01*
X148978523Y-93001168D01*
X149149022Y-92916609D01*
X149149025Y-92916607D01*
X149297366Y-92797367D01*
X149297367Y-92797366D01*
X149416607Y-92649025D01*
X149416609Y-92649022D01*
X149480219Y-92520764D01*
X149527640Y-92469451D01*
X149595275Y-92451921D01*
X149661650Y-92473741D01*
X149698039Y-92512737D01*
X149726828Y-92561417D01*
X149726834Y-92561425D01*
X149838574Y-92673165D01*
X149838583Y-92673172D01*
X149886624Y-92701583D01*
X149909442Y-92715078D01*
X149967255Y-92749268D01*
X150014938Y-92800337D01*
X150027442Y-92869079D01*
X150000797Y-92933668D01*
X149943461Y-92973598D01*
X149904134Y-92980000D01*
X149890864Y-92980000D01*
X149854876Y-92982832D01*
X149854870Y-92982833D01*
X149700811Y-93027592D01*
X149700808Y-93027593D01*
X149562714Y-93109261D01*
X149562705Y-93109268D01*
X149449268Y-93222705D01*
X149449261Y-93222714D01*
X149367593Y-93360808D01*
X149367592Y-93360811D01*
X149352215Y-93413740D01*
X149314609Y-93472626D01*
X149251137Y-93501832D01*
X149233139Y-93503145D01*
X149201127Y-93503145D01*
X149048400Y-93544068D01*
X149048393Y-93544071D01*
X148911474Y-93623120D01*
X148911466Y-93623126D01*
X148799665Y-93734927D01*
X148799661Y-93734932D01*
X148754492Y-93813168D01*
X148703925Y-93861384D01*
X148635318Y-93874606D01*
X148615012Y-93870943D01*
X148560676Y-93856384D01*
X148527748Y-93847561D01*
X148369634Y-93847561D01*
X148216907Y-93888484D01*
X148216900Y-93888487D01*
X148079981Y-93967536D01*
X148079973Y-93967542D01*
X147968172Y-94079343D01*
X147968166Y-94079351D01*
X147889117Y-94216270D01*
X147889114Y-94216277D01*
X147848191Y-94369004D01*
X147848191Y-94527118D01*
X147884528Y-94662727D01*
X147889114Y-94679844D01*
X147889117Y-94679851D01*
X147968166Y-94816770D01*
X147968170Y-94816775D01*
X147968171Y-94816777D01*
X148079975Y-94928581D01*
X148079977Y-94928582D01*
X148079981Y-94928585D01*
X148215097Y-95006593D01*
X148216907Y-95007638D01*
X148369634Y-95048561D01*
X148369636Y-95048561D01*
X148527746Y-95048561D01*
X148527748Y-95048561D01*
X148680475Y-95007638D01*
X148817407Y-94928581D01*
X148817416Y-94928571D01*
X148821696Y-94925288D01*
X148886863Y-94900087D01*
X148955309Y-94914118D01*
X149005304Y-94962927D01*
X149020974Y-95031017D01*
X149016968Y-95055748D01*
X148999500Y-95120941D01*
X148999500Y-95120943D01*
X148999500Y-95279057D01*
X149040289Y-95431282D01*
X149040423Y-95431783D01*
X149040426Y-95431790D01*
X149119475Y-95568709D01*
X149119479Y-95568714D01*
X149119480Y-95568716D01*
X149231284Y-95680520D01*
X149231286Y-95680521D01*
X149231290Y-95680524D01*
X149368209Y-95759573D01*
X149368216Y-95759577D01*
X149520943Y-95800500D01*
X149520945Y-95800500D01*
X149679055Y-95800500D01*
X149679057Y-95800500D01*
X149831784Y-95759577D01*
X149968716Y-95680520D01*
X150080520Y-95568716D01*
X150159577Y-95431784D01*
X150200500Y-95279057D01*
X150200500Y-95120943D01*
X150159577Y-94968216D01*
X150142393Y-94938452D01*
X150080524Y-94831290D01*
X150080518Y-94831282D01*
X149968717Y-94719481D01*
X149968712Y-94719477D01*
X149902000Y-94680961D01*
X149893716Y-94672273D01*
X149882797Y-94667287D01*
X149870052Y-94647455D01*
X149853784Y-94630394D01*
X149850568Y-94617137D01*
X149845023Y-94608509D01*
X149840000Y-94573574D01*
X149840000Y-94350862D01*
X149844225Y-94318769D01*
X149855684Y-94276003D01*
X149880684Y-94182702D01*
X149880684Y-94024588D01*
X149862331Y-93956093D01*
X149862926Y-93931098D01*
X149859368Y-93906353D01*
X149863743Y-93896772D01*
X149863994Y-93886243D01*
X149878006Y-93865539D01*
X149888393Y-93842797D01*
X149897254Y-93837102D01*
X149903157Y-93828381D01*
X149926137Y-93818540D01*
X149947171Y-93805023D01*
X149963028Y-93802743D01*
X149967386Y-93800877D01*
X149982106Y-93800000D01*
X150216000Y-93800000D01*
X150283039Y-93819685D01*
X150328794Y-93872489D01*
X150340000Y-93924000D01*
X150340000Y-94612843D01*
X150479194Y-94572404D01*
X150617285Y-94490738D01*
X150617290Y-94490734D01*
X150723612Y-94384412D01*
X150784935Y-94350927D01*
X150854627Y-94355911D01*
X150862372Y-94359239D01*
X150863475Y-94359580D01*
X150863479Y-94359580D01*
X150863482Y-94359582D01*
X150938418Y-94370500D01*
X150938423Y-94370500D01*
X151281577Y-94370500D01*
X151281582Y-94370500D01*
X151356518Y-94359582D01*
X151440002Y-94318769D01*
X151472099Y-94303078D01*
X151472102Y-94303076D01*
X151538360Y-94236819D01*
X151599683Y-94203334D01*
X151626041Y-94200500D01*
X152173959Y-94200500D01*
X152240998Y-94220185D01*
X152261640Y-94236819D01*
X152327897Y-94303076D01*
X152327900Y-94303078D01*
X152411410Y-94343903D01*
X152443482Y-94359582D01*
X152518418Y-94370500D01*
X152518423Y-94370500D01*
X152861577Y-94370500D01*
X152861582Y-94370500D01*
X152936518Y-94359582D01*
X153020002Y-94318769D01*
X153052099Y-94303078D01*
X153052102Y-94303076D01*
X153097819Y-94257360D01*
X153159142Y-94223875D01*
X153228834Y-94228859D01*
X153284767Y-94270731D01*
X153309184Y-94336195D01*
X153309500Y-94345041D01*
X153309500Y-94557273D01*
X153309500Y-94662727D01*
X153335427Y-94759491D01*
X153336794Y-94764591D01*
X153336795Y-94764593D01*
X153382886Y-94844423D01*
X153399500Y-94906424D01*
X153399500Y-94979057D01*
X153440423Y-95131784D01*
X153479518Y-95199500D01*
X153487602Y-95213501D01*
X153504074Y-95281401D01*
X153481221Y-95347428D01*
X153426299Y-95390618D01*
X153380214Y-95399500D01*
X153220943Y-95399500D01*
X153068216Y-95440423D01*
X153068209Y-95440426D01*
X152931290Y-95519475D01*
X152931282Y-95519481D01*
X152819481Y-95631282D01*
X152819475Y-95631290D01*
X152740426Y-95768209D01*
X152740423Y-95768216D01*
X152699500Y-95920943D01*
X152699500Y-96079057D01*
X152739412Y-96228009D01*
X152740423Y-96231783D01*
X152740426Y-96231790D01*
X152819475Y-96368709D01*
X152819481Y-96368717D01*
X152898583Y-96447819D01*
X152932068Y-96509142D01*
X152927084Y-96578834D01*
X152885212Y-96634767D01*
X152819748Y-96659184D01*
X152810902Y-96659500D01*
X152687273Y-96659500D01*
X152585413Y-96686793D01*
X152585410Y-96686794D01*
X152528737Y-96719515D01*
X152513396Y-96728372D01*
X152507658Y-96731684D01*
X152494087Y-96739519D01*
X152494085Y-96739521D01*
X150512235Y-98721370D01*
X150450912Y-98754855D01*
X150405156Y-98756162D01*
X150331524Y-98744500D01*
X150331519Y-98744500D01*
X149820926Y-98744500D01*
X149753887Y-98724815D01*
X149708132Y-98672011D01*
X149698188Y-98602853D01*
X149727213Y-98539297D01*
X149757805Y-98513768D01*
X149815374Y-98479721D01*
X149815383Y-98479714D01*
X149929714Y-98365383D01*
X149929721Y-98365374D01*
X150012031Y-98226195D01*
X150012033Y-98226190D01*
X150057144Y-98070918D01*
X150057145Y-98070912D01*
X150058790Y-98050000D01*
X149404000Y-98050000D01*
X149336961Y-98030315D01*
X149291206Y-97977511D01*
X149280000Y-97926000D01*
X149280000Y-97800000D01*
X149154000Y-97800000D01*
X149086961Y-97780315D01*
X149041206Y-97727511D01*
X149030000Y-97676000D01*
X149030000Y-96995494D01*
X149530000Y-96995494D01*
X149530000Y-97550000D01*
X150058790Y-97550000D01*
X150057145Y-97529089D01*
X150012031Y-97373804D01*
X150012031Y-97373803D01*
X149959816Y-97285512D01*
X149942633Y-97217788D01*
X149964793Y-97151525D01*
X150019259Y-97107762D01*
X150088739Y-97100393D01*
X150114007Y-97107833D01*
X150118212Y-97109574D01*
X150118216Y-97109577D01*
X150270943Y-97150500D01*
X150270945Y-97150500D01*
X150429055Y-97150500D01*
X150429057Y-97150500D01*
X150581784Y-97109577D01*
X150718716Y-97030520D01*
X150830520Y-96918716D01*
X150909577Y-96781784D01*
X150950500Y-96629057D01*
X150950500Y-96470943D01*
X150909577Y-96318216D01*
X150905032Y-96310343D01*
X150830524Y-96181290D01*
X150830518Y-96181282D01*
X150718717Y-96069481D01*
X150718709Y-96069475D01*
X150581790Y-95990426D01*
X150581786Y-95990424D01*
X150581784Y-95990423D01*
X150429057Y-95949500D01*
X150270943Y-95949500D01*
X150118216Y-95990423D01*
X150118209Y-95990426D01*
X149981290Y-96069475D01*
X149981282Y-96069481D01*
X149869481Y-96181282D01*
X149869475Y-96181290D01*
X149790426Y-96318209D01*
X149790423Y-96318216D01*
X149749500Y-96470943D01*
X149749500Y-96629057D01*
X149789693Y-96779057D01*
X149790423Y-96781783D01*
X149790426Y-96781790D01*
X149838164Y-96864476D01*
X149854637Y-96932376D01*
X149831784Y-96998403D01*
X149776863Y-97041593D01*
X149707309Y-97048234D01*
X149681531Y-97040277D01*
X149676190Y-97037966D01*
X149530001Y-96995493D01*
X149530000Y-96995494D01*
X149030000Y-96995494D01*
X149029998Y-96995493D01*
X148883809Y-97037965D01*
X148883806Y-97037967D01*
X148744625Y-97120278D01*
X148744616Y-97120285D01*
X148651665Y-97213237D01*
X148590342Y-97246722D01*
X148544587Y-97248029D01*
X148490735Y-97239500D01*
X148149260Y-97239500D01*
X148149260Y-97239501D01*
X148057829Y-97253981D01*
X148057828Y-97253981D01*
X147947607Y-97310142D01*
X147947603Y-97310145D01*
X147860145Y-97397603D01*
X147860142Y-97397608D01*
X147860141Y-97397609D01*
X147841421Y-97434347D01*
X147803981Y-97507827D01*
X147803981Y-97507828D01*
X147789500Y-97599264D01*
X147789500Y-98000739D01*
X147803981Y-98092170D01*
X147803981Y-98092171D01*
X147803982Y-98092174D01*
X147803983Y-98092175D01*
X147859177Y-98200500D01*
X147860142Y-98202392D01*
X147863929Y-98206179D01*
X147897417Y-98267500D01*
X147892436Y-98337192D01*
X147863933Y-98381545D01*
X147179522Y-99065956D01*
X147179517Y-99065962D01*
X147161508Y-99097155D01*
X147110940Y-99145370D01*
X147042332Y-99158591D01*
X146977468Y-99132622D01*
X146936941Y-99075707D01*
X146934355Y-99067274D01*
X146912984Y-98987515D01*
X146912967Y-98987486D01*
X146840511Y-98861988D01*
X146840506Y-98861982D01*
X146738017Y-98759493D01*
X146738011Y-98759488D01*
X146612488Y-98687017D01*
X146612489Y-98687017D01*
X146586980Y-98680182D01*
X146472475Y-98649500D01*
X146327525Y-98649500D01*
X146213020Y-98680182D01*
X146187511Y-98687017D01*
X146061988Y-98759488D01*
X146061979Y-98759495D01*
X146058886Y-98762589D01*
X146055636Y-98764363D01*
X146055539Y-98764438D01*
X146055527Y-98764422D01*
X145997561Y-98796071D01*
X145927870Y-98791082D01*
X145872467Y-98749603D01*
X145872463Y-98749607D01*
X145872450Y-98749591D01*
X145871939Y-98749208D01*
X145870619Y-98747229D01*
X145867678Y-98743438D01*
X145751561Y-98627321D01*
X145751552Y-98627314D01*
X145610196Y-98543717D01*
X145610193Y-98543716D01*
X145452495Y-98497900D01*
X145452489Y-98497899D01*
X145415649Y-98495000D01*
X144775000Y-98495000D01*
X144775000Y-99321500D01*
X144755315Y-99388539D01*
X144702511Y-99434294D01*
X144651000Y-99445500D01*
X144399000Y-99445500D01*
X144331961Y-99425815D01*
X144286206Y-99373011D01*
X144275000Y-99321500D01*
X144275000Y-98495000D01*
X143634350Y-98495000D01*
X143597510Y-98497899D01*
X143597504Y-98497900D01*
X143439806Y-98543716D01*
X143439803Y-98543717D01*
X143298447Y-98627314D01*
X143298438Y-98627321D01*
X143182321Y-98743438D01*
X143182314Y-98743447D01*
X143098717Y-98884803D01*
X143098716Y-98884806D01*
X143052900Y-99042504D01*
X143052899Y-99042510D01*
X143049809Y-99081785D01*
X143049201Y-99081737D01*
X143027698Y-99145584D01*
X142973138Y-99189230D01*
X142926095Y-99198500D01*
X142498330Y-99198500D01*
X142396465Y-99225794D01*
X142396463Y-99225795D01*
X142377374Y-99236816D01*
X142309473Y-99253287D01*
X142243447Y-99230434D01*
X142200257Y-99175512D01*
X142193617Y-99105958D01*
X142195591Y-99097376D01*
X142200500Y-99079057D01*
X142200500Y-98920943D01*
X142159577Y-98768216D01*
X142157387Y-98764422D01*
X142080523Y-98631288D01*
X142080518Y-98631282D01*
X141968717Y-98519481D01*
X141968709Y-98519475D01*
X141831790Y-98440426D01*
X141831786Y-98440424D01*
X141831784Y-98440423D01*
X141679057Y-98399500D01*
X141520943Y-98399500D01*
X141368216Y-98440423D01*
X141368209Y-98440426D01*
X141231290Y-98519475D01*
X141231282Y-98519481D01*
X141119481Y-98631282D01*
X141119477Y-98631288D01*
X141040426Y-98768209D01*
X141040423Y-98768216D01*
X140999500Y-98920943D01*
X140999500Y-99079057D01*
X141017326Y-99145584D01*
X141022166Y-99163647D01*
X141020503Y-99233497D01*
X140981340Y-99291359D01*
X140917112Y-99318863D01*
X140848210Y-99307276D01*
X140840391Y-99303127D01*
X140812488Y-99287017D01*
X140812489Y-99287017D01*
X140794508Y-99282199D01*
X140672475Y-99249500D01*
X140527525Y-99249500D01*
X140405492Y-99282199D01*
X140387511Y-99287017D01*
X140261988Y-99359488D01*
X140261982Y-99359493D01*
X140159493Y-99461982D01*
X140159487Y-99461991D01*
X140088022Y-99585769D01*
X140037455Y-99633984D01*
X139968848Y-99647206D01*
X139950848Y-99640000D01*
X139224000Y-99640000D01*
X139156961Y-99620315D01*
X139111206Y-99567511D01*
X139100000Y-99516000D01*
X139100000Y-99390000D01*
X138974000Y-99390000D01*
X138906961Y-99370315D01*
X138861206Y-99317511D01*
X138850000Y-99266000D01*
X138850000Y-99140000D01*
X139350000Y-99140000D01*
X139912844Y-99140000D01*
X139872404Y-99000805D01*
X139790738Y-98862714D01*
X139790731Y-98862705D01*
X139677294Y-98749268D01*
X139677285Y-98749261D01*
X139539191Y-98667593D01*
X139539188Y-98667592D01*
X139385130Y-98622834D01*
X139350000Y-98620068D01*
X139350000Y-99140000D01*
X138850000Y-99140000D01*
X138850000Y-98620068D01*
X138849999Y-98620068D01*
X138814869Y-98622834D01*
X138814868Y-98622834D01*
X138660811Y-98667592D01*
X138660808Y-98667593D01*
X138522714Y-98749261D01*
X138522705Y-98749268D01*
X138412181Y-98859793D01*
X138350858Y-98893278D01*
X138281166Y-98888294D01*
X138225233Y-98846422D01*
X138200816Y-98780958D01*
X138200500Y-98772112D01*
X138200500Y-96770943D01*
X140049500Y-96770943D01*
X140049500Y-96929057D01*
X140089050Y-97076658D01*
X140090423Y-97081783D01*
X140090426Y-97081790D01*
X140169475Y-97218709D01*
X140169479Y-97218714D01*
X140169480Y-97218716D01*
X140281284Y-97330520D01*
X140281286Y-97330521D01*
X140281290Y-97330524D01*
X140414610Y-97407495D01*
X140418216Y-97409577D01*
X140570943Y-97450500D01*
X140570945Y-97450500D01*
X140729055Y-97450500D01*
X140729057Y-97450500D01*
X140881784Y-97409577D01*
X141018716Y-97330520D01*
X141024335Y-97324900D01*
X141085655Y-97291414D01*
X141155346Y-97296395D01*
X141174015Y-97305190D01*
X141268216Y-97359577D01*
X141420943Y-97400500D01*
X141420945Y-97400500D01*
X141579055Y-97400500D01*
X141579057Y-97400500D01*
X141731784Y-97359577D01*
X141868716Y-97280520D01*
X141868724Y-97280511D01*
X141875006Y-97275692D01*
X141940173Y-97250493D01*
X142008619Y-97264526D01*
X142058612Y-97313335D01*
X142074500Y-97374062D01*
X142074500Y-97645480D01*
X142074501Y-97645490D01*
X142080587Y-97702114D01*
X142118598Y-97804021D01*
X142128372Y-97830226D01*
X142210313Y-97939687D01*
X142282986Y-97994089D01*
X142311586Y-98015499D01*
X142319774Y-98021628D01*
X142447886Y-98069412D01*
X142504515Y-98075500D01*
X143095484Y-98075499D01*
X143152114Y-98069412D01*
X143280226Y-98021628D01*
X143389687Y-97939687D01*
X143471628Y-97830226D01*
X143519412Y-97702114D01*
X143521891Y-97679056D01*
X143525499Y-97645501D01*
X143525499Y-97645490D01*
X143525500Y-97645485D01*
X143525499Y-97104516D01*
X143519763Y-97051149D01*
X143519412Y-97047885D01*
X143500956Y-96998403D01*
X143471628Y-96919774D01*
X143410558Y-96838194D01*
X143386143Y-96772734D01*
X143400994Y-96704461D01*
X143444731Y-96658348D01*
X143502731Y-96622573D01*
X143622572Y-96502732D01*
X143622575Y-96502728D01*
X143711542Y-96358492D01*
X143711547Y-96358481D01*
X143764855Y-96197606D01*
X143774999Y-96098322D01*
X143775000Y-96098309D01*
X143775000Y-96075000D01*
X141825001Y-96075000D01*
X141825001Y-96101470D01*
X141824022Y-96101470D01*
X141808702Y-96165496D01*
X141758287Y-96213870D01*
X141689722Y-96227308D01*
X141669032Y-96223608D01*
X141579057Y-96199500D01*
X141420943Y-96199500D01*
X141268216Y-96240423D01*
X141268209Y-96240426D01*
X141131290Y-96319475D01*
X141131280Y-96319482D01*
X141125658Y-96325105D01*
X141064334Y-96358587D01*
X140994642Y-96353600D01*
X140975982Y-96344807D01*
X140881790Y-96290425D01*
X140881784Y-96290423D01*
X140729057Y-96249500D01*
X140570943Y-96249500D01*
X140418216Y-96290423D01*
X140418209Y-96290426D01*
X140281290Y-96369475D01*
X140281282Y-96369481D01*
X140169481Y-96481282D01*
X140169475Y-96481290D01*
X140090426Y-96618209D01*
X140090423Y-96618216D01*
X140049500Y-96770943D01*
X138200500Y-96770943D01*
X138200500Y-95060354D01*
X141138911Y-95060354D01*
X141138911Y-95218468D01*
X141179589Y-95370278D01*
X141179834Y-95371194D01*
X141179837Y-95371201D01*
X141258886Y-95508120D01*
X141258890Y-95508125D01*
X141258891Y-95508127D01*
X141370695Y-95619931D01*
X141370697Y-95619932D01*
X141370701Y-95619935D01*
X141475639Y-95680520D01*
X141507627Y-95698988D01*
X141660354Y-95739911D01*
X141660356Y-95739911D01*
X141818466Y-95739911D01*
X141818468Y-95739911D01*
X141971195Y-95698988D01*
X142108127Y-95619931D01*
X142116739Y-95611319D01*
X142178062Y-95577834D01*
X142204420Y-95575000D01*
X142550000Y-95575000D01*
X143050000Y-95575000D01*
X143774999Y-95575000D01*
X143774999Y-95551692D01*
X143774998Y-95551677D01*
X143764855Y-95452392D01*
X143711547Y-95291518D01*
X143711542Y-95291507D01*
X143622575Y-95147271D01*
X143622572Y-95147267D01*
X143502732Y-95027427D01*
X143502728Y-95027424D01*
X143358492Y-94938457D01*
X143358481Y-94938452D01*
X143197606Y-94885144D01*
X143098322Y-94875000D01*
X143050000Y-94875000D01*
X143050000Y-95575000D01*
X142550000Y-95575000D01*
X142550000Y-94875000D01*
X142549999Y-94874999D01*
X142501693Y-94875000D01*
X142501675Y-94875001D01*
X142402393Y-94885144D01*
X142402383Y-94885146D01*
X142400573Y-94885746D01*
X142399392Y-94885786D01*
X142395769Y-94886562D01*
X142395630Y-94885915D01*
X142330744Y-94888142D01*
X142270705Y-94852405D01*
X142254191Y-94830036D01*
X142247060Y-94817684D01*
X142219931Y-94770695D01*
X142108127Y-94658891D01*
X142108125Y-94658890D01*
X142108120Y-94658886D01*
X141971201Y-94579837D01*
X141971197Y-94579835D01*
X141971195Y-94579834D01*
X141818468Y-94538911D01*
X141660354Y-94538911D01*
X141507627Y-94579834D01*
X141507620Y-94579837D01*
X141370701Y-94658886D01*
X141370693Y-94658892D01*
X141258892Y-94770693D01*
X141258886Y-94770701D01*
X141179837Y-94907620D01*
X141179834Y-94907627D01*
X141138911Y-95060354D01*
X138200500Y-95060354D01*
X138200500Y-90231504D01*
X138620000Y-90231504D01*
X138620000Y-90428495D01*
X138658427Y-90621681D01*
X138658430Y-90621693D01*
X138733808Y-90803673D01*
X138733809Y-90803675D01*
X138757425Y-90839019D01*
X139266446Y-90330000D01*
X139266446Y-90329999D01*
X138757426Y-89820978D01*
X138757426Y-89820979D01*
X138733813Y-89856318D01*
X138733809Y-89856325D01*
X138658429Y-90038310D01*
X138658427Y-90038318D01*
X138620000Y-90231504D01*
X138200500Y-90231504D01*
X138200500Y-89467426D01*
X139110978Y-89467426D01*
X139620000Y-89976446D01*
X139620001Y-89976446D01*
X140129020Y-89467426D01*
X141650978Y-89467426D01*
X142160000Y-89976446D01*
X142160001Y-89976446D01*
X142669019Y-89467425D01*
X142633675Y-89443809D01*
X142633673Y-89443808D01*
X142451693Y-89368430D01*
X142451681Y-89368427D01*
X142258495Y-89330000D01*
X142061504Y-89330000D01*
X141868318Y-89368427D01*
X141868310Y-89368429D01*
X141686325Y-89443809D01*
X141686318Y-89443813D01*
X141650979Y-89467426D01*
X141650978Y-89467426D01*
X140129020Y-89467426D01*
X140093675Y-89443809D01*
X140093673Y-89443808D01*
X139911693Y-89368430D01*
X139911681Y-89368427D01*
X139718495Y-89330000D01*
X139521504Y-89330000D01*
X139328318Y-89368427D01*
X139328310Y-89368429D01*
X139146325Y-89443809D01*
X139146318Y-89443813D01*
X139110979Y-89467426D01*
X139110978Y-89467426D01*
X138200500Y-89467426D01*
X138200500Y-87208500D01*
X138745050Y-87208500D01*
X138761849Y-87219725D01*
X138761855Y-87219728D01*
X138930182Y-87289451D01*
X138930194Y-87289454D01*
X139108890Y-87324999D01*
X139108894Y-87325000D01*
X139291106Y-87325000D01*
X139291109Y-87324999D01*
X139469805Y-87289454D01*
X139469813Y-87289452D01*
X139638151Y-87219724D01*
X139638154Y-87219723D01*
X139654947Y-87208500D01*
X139654948Y-87208500D01*
X139200001Y-86753553D01*
X139200000Y-86753553D01*
X138745050Y-87208500D01*
X138200500Y-87208500D01*
X138200500Y-86972949D01*
X138220185Y-86905910D01*
X138272989Y-86860155D01*
X138336654Y-86849546D01*
X138391498Y-86854947D01*
X138846446Y-86400000D01*
X138846446Y-86399999D01*
X138796719Y-86350272D01*
X138950000Y-86350272D01*
X138950000Y-86449728D01*
X138988060Y-86541614D01*
X139058386Y-86611940D01*
X139150272Y-86650000D01*
X139249728Y-86650000D01*
X139341614Y-86611940D01*
X139411940Y-86541614D01*
X139450000Y-86449728D01*
X139450000Y-86399999D01*
X139553553Y-86399999D01*
X139553553Y-86400001D01*
X140008500Y-86854948D01*
X140008500Y-86854947D01*
X140019723Y-86838154D01*
X140019724Y-86838151D01*
X140089452Y-86669813D01*
X140089454Y-86669805D01*
X140124999Y-86491109D01*
X140125000Y-86491106D01*
X140125000Y-86308894D01*
X140124999Y-86308890D01*
X140089454Y-86130194D01*
X140089451Y-86130182D01*
X140019728Y-85961855D01*
X140019725Y-85961849D01*
X140008500Y-85945050D01*
X139553553Y-86399999D01*
X139450000Y-86399999D01*
X139450000Y-86350272D01*
X139411940Y-86258386D01*
X139341614Y-86188060D01*
X139249728Y-86150000D01*
X139150272Y-86150000D01*
X139058386Y-86188060D01*
X138988060Y-86258386D01*
X138950000Y-86350272D01*
X138796719Y-86350272D01*
X138391498Y-85945050D01*
X138336654Y-85950452D01*
X138268008Y-85937433D01*
X138217298Y-85889368D01*
X138200500Y-85827049D01*
X138200500Y-84466533D01*
X138524499Y-84466533D01*
X138550458Y-84597030D01*
X138550461Y-84597040D01*
X138601376Y-84719961D01*
X138601382Y-84719972D01*
X138675641Y-84831110D01*
X138696518Y-84897788D01*
X138678033Y-84965168D01*
X138675641Y-84968890D01*
X138601382Y-85080027D01*
X138601376Y-85080038D01*
X138550461Y-85202959D01*
X138550458Y-85202969D01*
X138524500Y-85333466D01*
X138524500Y-85333469D01*
X138524500Y-85466531D01*
X138524500Y-85466533D01*
X138524499Y-85466533D01*
X138550458Y-85597030D01*
X138550461Y-85597040D01*
X138601376Y-85719961D01*
X138601386Y-85719979D01*
X138675301Y-85830601D01*
X138675307Y-85830609D01*
X138769390Y-85924692D01*
X138769398Y-85924698D01*
X138880020Y-85998613D01*
X138880023Y-85998614D01*
X138880031Y-85998620D01*
X139002964Y-86049540D01*
X139002968Y-86049540D01*
X139002969Y-86049541D01*
X139133466Y-86075500D01*
X139133469Y-86075500D01*
X139266533Y-86075500D01*
X139354325Y-86058035D01*
X139397036Y-86049540D01*
X139519969Y-85998620D01*
X139630606Y-85924695D01*
X139724695Y-85830606D01*
X139798620Y-85719969D01*
X139849540Y-85597036D01*
X139875500Y-85466531D01*
X139875500Y-85333469D01*
X139875500Y-85333466D01*
X139849541Y-85202969D01*
X139849540Y-85202968D01*
X139849540Y-85202964D01*
X139837365Y-85173571D01*
X139798623Y-85080038D01*
X139798622Y-85080037D01*
X139798620Y-85080031D01*
X139786426Y-85061781D01*
X139724359Y-84968890D01*
X139703481Y-84902213D01*
X139721966Y-84834833D01*
X139724359Y-84831110D01*
X139798613Y-84719979D01*
X139798620Y-84719969D01*
X139849540Y-84597036D01*
X139875500Y-84466531D01*
X139875500Y-84333469D01*
X139875500Y-84333466D01*
X139849541Y-84202969D01*
X139849540Y-84202968D01*
X139849540Y-84202964D01*
X139807622Y-84101765D01*
X139800154Y-84032298D01*
X139819081Y-83985426D01*
X139860966Y-83922740D01*
X139875500Y-83849674D01*
X139875500Y-82950326D01*
X139875500Y-82950323D01*
X139875499Y-82950321D01*
X139860967Y-82877264D01*
X139860966Y-82877260D01*
X139835802Y-82839599D01*
X139805601Y-82794399D01*
X139722740Y-82739034D01*
X139722739Y-82739033D01*
X139722735Y-82739032D01*
X139649677Y-82724500D01*
X139649674Y-82724500D01*
X138750326Y-82724500D01*
X138750323Y-82724500D01*
X138677264Y-82739032D01*
X138677260Y-82739033D01*
X138594399Y-82794399D01*
X138539033Y-82877260D01*
X138539032Y-82877264D01*
X138524500Y-82950321D01*
X138524500Y-83849678D01*
X138539032Y-83922735D01*
X138539033Y-83922739D01*
X138553805Y-83944847D01*
X138580918Y-83985425D01*
X138601795Y-84052101D01*
X138592377Y-84101765D01*
X138550460Y-84202964D01*
X138550458Y-84202969D01*
X138524500Y-84333466D01*
X138524500Y-84333469D01*
X138524500Y-84466531D01*
X138524500Y-84466533D01*
X138524499Y-84466533D01*
X138200500Y-84466533D01*
X138200500Y-82006092D01*
X138201097Y-81993939D01*
X138208874Y-81914976D01*
X138214665Y-81856173D01*
X138219403Y-81832349D01*
X138257816Y-81705719D01*
X138267113Y-81683278D01*
X138329485Y-81566587D01*
X138342982Y-81546387D01*
X138426924Y-81444103D01*
X138444103Y-81426924D01*
X138546387Y-81342982D01*
X138566587Y-81329485D01*
X138683278Y-81267113D01*
X138705719Y-81257816D01*
X138832349Y-81219403D01*
X138856173Y-81214665D01*
X138985170Y-81201960D01*
X138993939Y-81201097D01*
X139006092Y-81200500D01*
X139039882Y-81200500D01*
X156450902Y-81200500D01*
X156517941Y-81220185D01*
G37*
%TD.AperFunction*%
%TA.AperFunction,Conductor*%
G36*
X167713256Y-89971522D02*
G01*
X167771119Y-90010684D01*
X167798623Y-90074913D01*
X167799500Y-90089634D01*
X167799500Y-95174192D01*
X167779815Y-95241231D01*
X167727011Y-95286986D01*
X167657853Y-95296930D01*
X167633699Y-95290098D01*
X167633686Y-95290144D01*
X167627352Y-95288303D01*
X167626253Y-95287993D01*
X167626193Y-95287967D01*
X167470918Y-95242855D01*
X167470912Y-95242854D01*
X167450000Y-95241209D01*
X167450000Y-95896000D01*
X167430315Y-95963039D01*
X167377511Y-96008794D01*
X167326000Y-96020000D01*
X167200000Y-96020000D01*
X167200000Y-96146000D01*
X167180315Y-96213039D01*
X167127511Y-96258794D01*
X167076000Y-96270000D01*
X166381711Y-96270000D01*
X166357065Y-96288393D01*
X166287366Y-96293275D01*
X166226221Y-96259829D01*
X166190000Y-96223608D01*
X165840913Y-95874520D01*
X165749588Y-95821793D01*
X165748959Y-95821624D01*
X165743505Y-95818117D01*
X165741442Y-95815735D01*
X165722898Y-95801506D01*
X165691392Y-95770000D01*
X166395496Y-95770000D01*
X166950000Y-95770000D01*
X166950000Y-95241210D01*
X166949999Y-95241209D01*
X166929087Y-95242854D01*
X166929081Y-95242855D01*
X166773809Y-95287966D01*
X166773804Y-95287968D01*
X166634625Y-95370278D01*
X166634616Y-95370285D01*
X166520285Y-95484616D01*
X166520278Y-95484625D01*
X166437968Y-95623804D01*
X166395496Y-95770000D01*
X165691392Y-95770000D01*
X165638342Y-95716950D01*
X165580702Y-95687580D01*
X165525301Y-95659352D01*
X165431524Y-95644500D01*
X165431519Y-95644500D01*
X164793805Y-95644500D01*
X164726766Y-95624815D01*
X164681011Y-95572011D01*
X164671067Y-95502853D01*
X164686418Y-95458500D01*
X164712982Y-95412488D01*
X164712981Y-95412488D01*
X164712984Y-95412485D01*
X164750500Y-95272475D01*
X164750500Y-95127525D01*
X164712984Y-94987515D01*
X164703036Y-94970285D01*
X164640511Y-94861988D01*
X164640506Y-94861982D01*
X164538017Y-94759493D01*
X164538011Y-94759488D01*
X164412488Y-94687017D01*
X164412489Y-94687017D01*
X164321838Y-94662727D01*
X164272475Y-94649500D01*
X164272471Y-94649499D01*
X164264415Y-94648439D01*
X164264655Y-94646609D01*
X164207461Y-94629815D01*
X164161706Y-94577011D01*
X164152662Y-94535439D01*
X164151561Y-94535585D01*
X164150500Y-94527528D01*
X164150500Y-94527525D01*
X164112984Y-94387515D01*
X164087803Y-94343902D01*
X164071331Y-94276003D01*
X164084705Y-94225610D01*
X164158884Y-94080025D01*
X164209683Y-93923681D01*
X164223632Y-93903280D01*
X164233901Y-93880797D01*
X164243009Y-93874943D01*
X164249121Y-93866006D01*
X164271887Y-93856384D01*
X164292679Y-93843023D01*
X164309087Y-93840663D01*
X164313479Y-93838808D01*
X164327614Y-93838000D01*
X164386701Y-93838000D01*
X164453740Y-93857685D01*
X164499495Y-93910489D01*
X164509174Y-93942602D01*
X164514352Y-93975300D01*
X164514353Y-93975303D01*
X164514354Y-93975304D01*
X164571950Y-94088342D01*
X164571952Y-94088344D01*
X164571954Y-94088347D01*
X164661652Y-94178045D01*
X164661654Y-94178046D01*
X164661658Y-94178050D01*
X164761376Y-94228859D01*
X164774698Y-94235647D01*
X164868475Y-94250499D01*
X164868481Y-94250500D01*
X165231518Y-94250499D01*
X165255218Y-94246745D01*
X165324509Y-94255698D01*
X165362299Y-94281537D01*
X165448442Y-94367681D01*
X165448447Y-94367685D01*
X165589801Y-94451281D01*
X165747514Y-94497100D01*
X165747511Y-94497100D01*
X165749998Y-94497295D01*
X165750000Y-94497295D01*
X165750000Y-93461500D01*
X165769685Y-93394461D01*
X165822489Y-93348706D01*
X165874000Y-93337500D01*
X166126000Y-93337500D01*
X166193039Y-93357185D01*
X166238794Y-93409989D01*
X166250000Y-93461500D01*
X166250000Y-94497295D01*
X166250001Y-94497295D01*
X166252486Y-94497100D01*
X166410198Y-94451281D01*
X166551552Y-94367685D01*
X166551557Y-94367681D01*
X166637700Y-94281538D01*
X166699023Y-94248053D01*
X166744779Y-94246746D01*
X166768481Y-94250500D01*
X167131518Y-94250499D01*
X167225304Y-94235646D01*
X167338342Y-94178050D01*
X167428050Y-94088342D01*
X167485646Y-93975304D01*
X167485646Y-93975302D01*
X167485647Y-93975301D01*
X167499752Y-93886243D01*
X167500500Y-93881519D01*
X167500499Y-92793482D01*
X167485646Y-92699696D01*
X167428050Y-92586658D01*
X167428046Y-92586654D01*
X167428045Y-92586652D01*
X167338347Y-92496954D01*
X167338341Y-92496949D01*
X167330429Y-92492918D01*
X167279635Y-92444941D01*
X167279341Y-92444435D01*
X167270482Y-92429091D01*
X167270478Y-92429086D01*
X167028572Y-92187180D01*
X166995087Y-92125857D01*
X167000071Y-92056165D01*
X167041943Y-92000232D01*
X167107407Y-91975815D01*
X167116253Y-91975499D01*
X167131517Y-91975499D01*
X167131518Y-91975499D01*
X167225304Y-91960646D01*
X167338342Y-91903050D01*
X167428050Y-91813342D01*
X167485646Y-91700304D01*
X167485646Y-91700302D01*
X167485647Y-91700301D01*
X167500499Y-91606524D01*
X167500500Y-91606519D01*
X167500499Y-90518482D01*
X167485646Y-90424696D01*
X167485645Y-90424694D01*
X167485645Y-90424692D01*
X167464015Y-90382241D01*
X167460893Y-90369238D01*
X167455523Y-90360882D01*
X167450500Y-90325947D01*
X167450500Y-90116697D01*
X167470185Y-90049658D01*
X167522989Y-90003903D01*
X167542393Y-89996926D01*
X167643410Y-89969859D01*
X167713256Y-89971522D01*
G37*
%TD.AperFunction*%
%TA.AperFunction,Conductor*%
G36*
X158413753Y-83755153D02*
G01*
X158469686Y-83797025D01*
X158494103Y-83862489D01*
X158492037Y-83895523D01*
X158489102Y-83910280D01*
X158489102Y-83910283D01*
X158489102Y-84089715D01*
X158489102Y-84089717D01*
X158489101Y-84089717D01*
X158518444Y-84237226D01*
X158512217Y-84306818D01*
X158484508Y-84349099D01*
X157479522Y-85354085D01*
X157479520Y-85354088D01*
X157441852Y-85419331D01*
X157426793Y-85445413D01*
X157414164Y-85492546D01*
X157414164Y-85492547D01*
X157414163Y-85492546D01*
X157399500Y-85547272D01*
X157399500Y-86082745D01*
X157379815Y-86149784D01*
X157363181Y-86170426D01*
X156779522Y-86754084D01*
X156779518Y-86754090D01*
X156726792Y-86845412D01*
X156726793Y-86845413D01*
X156699500Y-86947273D01*
X156699500Y-88682745D01*
X156679815Y-88749784D01*
X156663181Y-88770426D01*
X155670426Y-89763181D01*
X155609103Y-89796666D01*
X155582745Y-89799500D01*
X155520943Y-89799500D01*
X155368216Y-89840423D01*
X155368209Y-89840426D01*
X155231290Y-89919475D01*
X155231282Y-89919481D01*
X155119481Y-90031282D01*
X155119475Y-90031290D01*
X155040426Y-90168209D01*
X155040423Y-90168216D01*
X154999500Y-90320943D01*
X154999500Y-90479057D01*
X155034974Y-90611446D01*
X155040423Y-90631783D01*
X155040426Y-90631790D01*
X155119475Y-90768709D01*
X155119479Y-90768714D01*
X155119480Y-90768716D01*
X155231284Y-90880520D01*
X155231285Y-90880521D01*
X155231287Y-90880522D01*
X155259503Y-90896812D01*
X155307720Y-90947378D01*
X155320944Y-91015985D01*
X155294977Y-91080850D01*
X155238063Y-91121379D01*
X155229600Y-91123974D01*
X155168220Y-91140421D01*
X155168209Y-91140426D01*
X155031290Y-91219475D01*
X155031282Y-91219481D01*
X154919481Y-91331282D01*
X154919475Y-91331290D01*
X154840426Y-91468209D01*
X154840423Y-91468216D01*
X154799500Y-91620943D01*
X154799500Y-91779057D01*
X154837799Y-91921989D01*
X154840423Y-91931783D01*
X154840426Y-91931790D01*
X154919475Y-92068709D01*
X154919479Y-92068714D01*
X154919480Y-92068716D01*
X155031284Y-92180520D01*
X155031286Y-92180521D01*
X155031290Y-92180524D01*
X155135963Y-92240956D01*
X155168216Y-92259577D01*
X155320943Y-92300500D01*
X155320945Y-92300500D01*
X155479055Y-92300500D01*
X155479057Y-92300500D01*
X155631784Y-92259577D01*
X155738500Y-92197964D01*
X155806401Y-92181492D01*
X155872427Y-92204345D01*
X155915618Y-92259266D01*
X155924500Y-92305352D01*
X155924500Y-93739343D01*
X155941795Y-93803890D01*
X155948385Y-93828483D01*
X155948387Y-93828488D01*
X155994527Y-93908406D01*
X155994529Y-93908409D01*
X155994530Y-93908410D01*
X156506589Y-94420469D01*
X156567112Y-94455412D01*
X156567113Y-94455413D01*
X156573579Y-94459146D01*
X156586514Y-94466614D01*
X156675658Y-94490500D01*
X159825258Y-94490500D01*
X159892297Y-94510185D01*
X159912939Y-94526819D01*
X160988181Y-95602061D01*
X161021666Y-95663384D01*
X161024500Y-95689742D01*
X161024500Y-95773846D01*
X161004815Y-95840885D01*
X160952011Y-95886640D01*
X160882853Y-95896584D01*
X160819297Y-95867559D01*
X160790016Y-95830142D01*
X160784698Y-95819706D01*
X160778050Y-95806658D01*
X160778047Y-95806655D01*
X160778045Y-95806652D01*
X160688347Y-95716954D01*
X160688344Y-95716952D01*
X160688342Y-95716950D01*
X160611517Y-95677805D01*
X160575301Y-95659352D01*
X160481524Y-95644500D01*
X158768482Y-95644500D01*
X158687519Y-95657323D01*
X158674696Y-95659354D01*
X158561658Y-95716950D01*
X158561657Y-95716951D01*
X158561652Y-95716954D01*
X158471954Y-95806652D01*
X158466217Y-95814550D01*
X158464070Y-95812990D01*
X158426205Y-95853088D01*
X158363689Y-95870000D01*
X157624000Y-95870000D01*
X157556961Y-95850315D01*
X157511206Y-95797511D01*
X157500000Y-95746000D01*
X157500000Y-95620000D01*
X157374000Y-95620000D01*
X157306961Y-95600315D01*
X157261206Y-95547511D01*
X157250000Y-95496000D01*
X157250000Y-95370000D01*
X157750000Y-95370000D01*
X158304504Y-95370000D01*
X158262031Y-95223804D01*
X158179721Y-95084625D01*
X158179714Y-95084616D01*
X158065383Y-94970285D01*
X158065374Y-94970278D01*
X157926195Y-94887968D01*
X157926190Y-94887966D01*
X157770918Y-94842855D01*
X157770912Y-94842854D01*
X157750000Y-94841209D01*
X157750000Y-95370000D01*
X157250000Y-95370000D01*
X157250000Y-94841210D01*
X157249999Y-94841209D01*
X157229087Y-94842854D01*
X157229081Y-94842855D01*
X157073809Y-94887966D01*
X157073804Y-94887968D01*
X156934625Y-94970278D01*
X156934616Y-94970285D01*
X156820285Y-95084616D01*
X156820276Y-95084627D01*
X156791087Y-95133984D01*
X156740018Y-95181667D01*
X156671276Y-95194170D01*
X156606687Y-95167524D01*
X156596675Y-95158543D01*
X156355818Y-94917686D01*
X156355817Y-94917685D01*
X156355816Y-94917684D01*
X156281887Y-94875001D01*
X156241689Y-94851792D01*
X156165143Y-94831282D01*
X156114394Y-94817684D01*
X154872322Y-94817684D01*
X154737667Y-94853764D01*
X154667817Y-94852101D01*
X154609955Y-94812938D01*
X154585801Y-94766086D01*
X154559577Y-94668216D01*
X154554190Y-94658886D01*
X154480524Y-94531290D01*
X154480518Y-94531282D01*
X154368717Y-94419481D01*
X154368712Y-94419477D01*
X154229509Y-94339109D01*
X154181294Y-94288542D01*
X154168070Y-94219935D01*
X154180109Y-94177261D01*
X154219581Y-94096520D01*
X154219580Y-94096520D01*
X154219582Y-94096518D01*
X154230500Y-94021582D01*
X154230500Y-93578418D01*
X154219582Y-93503482D01*
X154205270Y-93474206D01*
X154163078Y-93387900D01*
X154163076Y-93387897D01*
X154072102Y-93296923D01*
X154072099Y-93296921D01*
X153956521Y-93240419D01*
X153956519Y-93240418D01*
X153956518Y-93240418D01*
X153881582Y-93229500D01*
X153538418Y-93229500D01*
X153463482Y-93240418D01*
X153463480Y-93240418D01*
X153463478Y-93240419D01*
X153347900Y-93296921D01*
X153347897Y-93296923D01*
X153302181Y-93342640D01*
X153240858Y-93376125D01*
X153171166Y-93371141D01*
X153115233Y-93329269D01*
X153090816Y-93263805D01*
X153090500Y-93254959D01*
X153090500Y-92924499D01*
X153110185Y-92857460D01*
X153162989Y-92811705D01*
X153214500Y-92800499D01*
X153338150Y-92800499D01*
X153338162Y-92800499D01*
X153373627Y-92797709D01*
X153525390Y-92753618D01*
X153661420Y-92673170D01*
X153773170Y-92561420D01*
X153853618Y-92425390D01*
X153897709Y-92273627D01*
X153900500Y-92238163D01*
X153900499Y-90861838D01*
X153897709Y-90826373D01*
X153853618Y-90674610D01*
X153773170Y-90538580D01*
X153773168Y-90538578D01*
X153773165Y-90538574D01*
X153661425Y-90426834D01*
X153661416Y-90426827D01*
X153525390Y-90346382D01*
X153525385Y-90346380D01*
X153373633Y-90302292D01*
X153373620Y-90302290D01*
X153338163Y-90299500D01*
X152461849Y-90299500D01*
X152461824Y-90299501D01*
X152426372Y-90302291D01*
X152274614Y-90346380D01*
X152274609Y-90346382D01*
X152138583Y-90426827D01*
X152138574Y-90426834D01*
X152062181Y-90503228D01*
X152000858Y-90536713D01*
X151931166Y-90531729D01*
X151875233Y-90489857D01*
X151850816Y-90424393D01*
X151850500Y-90415547D01*
X151850500Y-89690918D01*
X151870185Y-89623879D01*
X151922989Y-89578124D01*
X151992147Y-89568180D01*
X152036498Y-89583530D01*
X152168216Y-89659577D01*
X152320943Y-89700500D01*
X152320945Y-89700500D01*
X152479055Y-89700500D01*
X152479057Y-89700500D01*
X152631784Y-89659577D01*
X152768716Y-89580520D01*
X152880520Y-89468716D01*
X152959577Y-89331784D01*
X153000500Y-89179057D01*
X153000500Y-89117254D01*
X153009144Y-89087813D01*
X153015668Y-89057827D01*
X153019422Y-89052811D01*
X153020185Y-89050215D01*
X153036810Y-89029582D01*
X153187427Y-88878965D01*
X153248746Y-88845483D01*
X153318437Y-88850467D01*
X153374371Y-88892338D01*
X153382491Y-88904650D01*
X153419475Y-88968709D01*
X153419479Y-88968714D01*
X153419480Y-88968716D01*
X153531284Y-89080520D01*
X153531286Y-89080521D01*
X153531290Y-89080524D01*
X153651628Y-89150000D01*
X153668216Y-89159577D01*
X153820943Y-89200500D01*
X153820945Y-89200500D01*
X153979055Y-89200500D01*
X153979057Y-89200500D01*
X154131784Y-89159577D01*
X154268716Y-89080520D01*
X154380520Y-88968716D01*
X154459577Y-88831784D01*
X154500500Y-88679057D01*
X154500500Y-88520943D01*
X154459577Y-88368216D01*
X154430999Y-88318717D01*
X154380524Y-88231290D01*
X154380518Y-88231282D01*
X154268717Y-88119481D01*
X154268709Y-88119475D01*
X154204650Y-88082491D01*
X154156434Y-88031925D01*
X154143210Y-87963318D01*
X154169178Y-87898453D01*
X154178958Y-87887433D01*
X154650822Y-87415570D01*
X154712144Y-87382086D01*
X154781836Y-87387070D01*
X154837769Y-87428942D01*
X154845889Y-87441252D01*
X154919477Y-87568712D01*
X154919479Y-87568715D01*
X154919480Y-87568716D01*
X155031284Y-87680520D01*
X155031286Y-87680521D01*
X155031290Y-87680524D01*
X155145001Y-87746174D01*
X155168216Y-87759577D01*
X155320943Y-87800500D01*
X155320945Y-87800500D01*
X155479055Y-87800500D01*
X155479057Y-87800500D01*
X155631784Y-87759577D01*
X155768716Y-87680520D01*
X155880520Y-87568716D01*
X155959577Y-87431784D01*
X156000500Y-87279057D01*
X156000500Y-87120943D01*
X155959577Y-86968216D01*
X155947486Y-86947273D01*
X155880524Y-86831290D01*
X155880518Y-86831282D01*
X155768717Y-86719481D01*
X155768712Y-86719477D01*
X155641252Y-86645889D01*
X155593037Y-86595323D01*
X155579813Y-86526716D01*
X155605781Y-86461851D01*
X155615563Y-86450829D01*
X158282740Y-83783652D01*
X158344061Y-83750169D01*
X158413753Y-83755153D01*
G37*
%TD.AperFunction*%
%TA.AperFunction,Conductor*%
G36*
X166297299Y-89958605D02*
G01*
X166316530Y-89967721D01*
X166337329Y-89972246D01*
X166356760Y-89986792D01*
X166360434Y-89988534D01*
X166365583Y-89993397D01*
X166413181Y-90040995D01*
X166446666Y-90102318D01*
X166449500Y-90128676D01*
X166449500Y-90325948D01*
X166435985Y-90382242D01*
X166414352Y-90424698D01*
X166399500Y-90518475D01*
X166399500Y-91606518D01*
X166407354Y-91656104D01*
X166398398Y-91725397D01*
X166353401Y-91778848D01*
X166286649Y-91799487D01*
X166284880Y-91799500D01*
X165715121Y-91799500D01*
X165648082Y-91779815D01*
X165602327Y-91727011D01*
X165592383Y-91657853D01*
X165592648Y-91656103D01*
X165600499Y-91606525D01*
X165600499Y-91606524D01*
X165600500Y-91606519D01*
X165600499Y-90518482D01*
X165585646Y-90424696D01*
X165568116Y-90390292D01*
X165555220Y-90321626D01*
X165581496Y-90256885D01*
X165638602Y-90216628D01*
X165678601Y-90209999D01*
X165724624Y-90209999D01*
X165724649Y-90209998D01*
X165760910Y-90207145D01*
X165916196Y-90162030D01*
X166055374Y-90079721D01*
X166055379Y-90079717D01*
X166148333Y-89986763D01*
X166209656Y-89953278D01*
X166255412Y-89951971D01*
X166297299Y-89958605D01*
G37*
%TD.AperFunction*%
%TA.AperFunction,Conductor*%
G36*
X166608363Y-82320185D02*
G01*
X166629005Y-82336819D01*
X166863181Y-82570995D01*
X166896666Y-82632318D01*
X166899500Y-82658676D01*
X166899500Y-87541324D01*
X166879815Y-87608363D01*
X166863181Y-87629005D01*
X166079502Y-88412683D01*
X166079500Y-88412686D01*
X166013608Y-88526813D01*
X166011712Y-88533890D01*
X165975346Y-88593549D01*
X165912498Y-88624077D01*
X165857343Y-88620869D01*
X165770001Y-88595493D01*
X165770000Y-88595494D01*
X165770000Y-89276000D01*
X165750315Y-89343039D01*
X165697511Y-89388794D01*
X165646000Y-89400000D01*
X165520000Y-89400000D01*
X165520000Y-89526000D01*
X165500315Y-89593039D01*
X165447511Y-89638794D01*
X165396000Y-89650000D01*
X164741210Y-89650000D01*
X164742854Y-89670910D01*
X164787968Y-89826195D01*
X164874252Y-89972093D01*
X164872562Y-89973092D01*
X164894302Y-90028462D01*
X164880623Y-90096979D01*
X164832072Y-90147224D01*
X164790186Y-90161900D01*
X164774700Y-90164352D01*
X164774699Y-90164352D01*
X164737336Y-90183390D01*
X164661658Y-90221950D01*
X164661657Y-90221951D01*
X164661652Y-90221954D01*
X164571954Y-90311652D01*
X164571951Y-90311657D01*
X164571950Y-90311658D01*
X164562605Y-90329999D01*
X164514352Y-90424698D01*
X164514352Y-90424699D01*
X164509174Y-90457397D01*
X164494589Y-90488161D01*
X164480414Y-90519203D01*
X164479638Y-90519701D01*
X164479245Y-90520532D01*
X164450317Y-90538544D01*
X164421636Y-90556977D01*
X164420439Y-90557148D01*
X164419934Y-90557464D01*
X164386701Y-90562000D01*
X164374500Y-90562000D01*
X164307461Y-90542315D01*
X164261706Y-90489511D01*
X164250500Y-90438000D01*
X164250500Y-89669336D01*
X164270185Y-89602297D01*
X164286819Y-89581655D01*
X164305788Y-89562686D01*
X164353828Y-89514646D01*
X164469523Y-89355406D01*
X164552761Y-89192040D01*
X164600735Y-89141244D01*
X164668556Y-89124449D01*
X164734691Y-89146986D01*
X164738132Y-89150000D01*
X165270000Y-89150000D01*
X165270000Y-88595494D01*
X165269998Y-88595493D01*
X165123809Y-88637965D01*
X165123806Y-88637967D01*
X164984625Y-88720278D01*
X164984616Y-88720285D01*
X164864764Y-88840138D01*
X164863150Y-88838524D01*
X164815837Y-88872694D01*
X164746070Y-88876484D01*
X164685329Y-88841953D01*
X164652900Y-88780065D01*
X164650500Y-88755787D01*
X164650500Y-88601578D01*
X164630196Y-88473386D01*
X164619709Y-88407174D01*
X164558883Y-88219974D01*
X164558881Y-88219971D01*
X164558881Y-88219969D01*
X164503734Y-88111738D01*
X164469523Y-88044595D01*
X164353828Y-87885355D01*
X164214645Y-87746172D01*
X164055405Y-87630477D01*
X164012004Y-87608363D01*
X163880030Y-87541118D01*
X163826703Y-87523791D01*
X163692826Y-87480291D01*
X163692820Y-87480290D01*
X163498421Y-87449500D01*
X163498416Y-87449500D01*
X163301583Y-87449500D01*
X163301578Y-87449500D01*
X163107178Y-87480290D01*
X163107176Y-87480290D01*
X163107173Y-87480291D01*
X163013573Y-87510704D01*
X162919969Y-87541118D01*
X162744593Y-87630477D01*
X162655551Y-87695171D01*
X162585354Y-87746172D01*
X162585352Y-87746174D01*
X162585351Y-87746174D01*
X162046174Y-88285351D01*
X162046174Y-88285352D01*
X162046172Y-88285354D01*
X162006533Y-88339912D01*
X161930476Y-88444594D01*
X161841115Y-88619973D01*
X161841114Y-88619976D01*
X161805859Y-88728484D01*
X161780290Y-88807176D01*
X161780290Y-88807177D01*
X161749500Y-89001577D01*
X161749500Y-90773422D01*
X161770356Y-90905102D01*
X161761401Y-90974396D01*
X161716405Y-91027848D01*
X161649654Y-91048487D01*
X161647883Y-91048500D01*
X159102703Y-91048500D01*
X159102687Y-91048499D01*
X159095091Y-91048499D01*
X158989637Y-91048499D01*
X158894140Y-91074088D01*
X158894139Y-91074087D01*
X158887779Y-91075791D01*
X158887777Y-91075792D01*
X158846715Y-91099500D01*
X158796451Y-91128520D01*
X158728956Y-91196015D01*
X158728955Y-91196014D01*
X158688659Y-91236311D01*
X158683496Y-91239130D01*
X158627338Y-91269796D01*
X158600978Y-91272630D01*
X158500098Y-91272630D01*
X158433059Y-91252945D01*
X158412417Y-91236311D01*
X158368717Y-91192611D01*
X158368709Y-91192605D01*
X158231790Y-91113556D01*
X158231786Y-91113554D01*
X158231784Y-91113553D01*
X158079057Y-91072630D01*
X158079056Y-91072630D01*
X158079052Y-91072629D01*
X158072902Y-91071819D01*
X158009008Y-91043547D01*
X157970541Y-90985220D01*
X157968205Y-90976469D01*
X157968165Y-90976299D01*
X157968165Y-90976293D01*
X157924228Y-90850703D01*
X157894685Y-90803675D01*
X157876104Y-90774097D01*
X157857111Y-90706858D01*
X157877485Y-90640025D01*
X157893418Y-90620459D01*
X158314515Y-90199363D01*
X159675001Y-90199363D01*
X159677733Y-90234078D01*
X159720906Y-90382681D01*
X159720907Y-90382684D01*
X159799682Y-90515885D01*
X159799688Y-90515894D01*
X159909105Y-90625311D01*
X159909114Y-90625317D01*
X160042315Y-90704092D01*
X160042318Y-90704093D01*
X160174998Y-90742641D01*
X160175000Y-90742640D01*
X160625000Y-90742640D01*
X160625001Y-90742641D01*
X160757681Y-90704093D01*
X160757684Y-90704092D01*
X160890885Y-90625317D01*
X160890894Y-90625311D01*
X161000311Y-90515894D01*
X161000317Y-90515885D01*
X161079092Y-90382684D01*
X161079093Y-90382681D01*
X161122265Y-90234084D01*
X161122267Y-90234073D01*
X161124999Y-90199359D01*
X161125000Y-90199346D01*
X161125000Y-90125000D01*
X160625000Y-90125000D01*
X160625000Y-90742640D01*
X160175000Y-90742640D01*
X160175000Y-90125000D01*
X159675001Y-90125000D01*
X159675001Y-90199363D01*
X158314515Y-90199363D01*
X158877061Y-89636819D01*
X158938384Y-89603334D01*
X158964742Y-89600500D01*
X159551000Y-89600500D01*
X159618039Y-89620185D01*
X159636208Y-89641153D01*
X159638681Y-89638681D01*
X159675000Y-89675000D01*
X161124999Y-89675000D01*
X161124999Y-89600658D01*
X161124998Y-89600636D01*
X161122266Y-89565921D01*
X161079093Y-89417318D01*
X161079092Y-89417315D01*
X161000317Y-89284114D01*
X161000311Y-89284105D01*
X160890894Y-89174688D01*
X160890883Y-89174679D01*
X160807490Y-89125362D01*
X160759806Y-89074294D01*
X160747302Y-89005552D01*
X160773947Y-88940962D01*
X160782907Y-88930971D01*
X160905470Y-88808409D01*
X160951615Y-88728485D01*
X160951616Y-88728484D01*
X160956178Y-88711453D01*
X160957287Y-88707315D01*
X160975501Y-88639341D01*
X160975501Y-88612505D01*
X160977800Y-88600733D01*
X160988586Y-88579936D01*
X160995186Y-88557460D01*
X161004372Y-88549500D01*
X161009969Y-88538709D01*
X161030286Y-88527044D01*
X161047990Y-88511705D01*
X161062509Y-88508546D01*
X161070563Y-88503923D01*
X161081291Y-88504460D01*
X161099501Y-88500499D01*
X161196950Y-88500499D01*
X161225172Y-88496387D01*
X161267509Y-88490220D01*
X161376347Y-88437012D01*
X161462012Y-88351347D01*
X161515220Y-88242509D01*
X161525500Y-88171949D01*
X161525499Y-87628052D01*
X161515220Y-87557491D01*
X161462012Y-87448653D01*
X161462010Y-87448651D01*
X161462010Y-87448650D01*
X161436819Y-87423459D01*
X161404834Y-87368274D01*
X161400500Y-87352314D01*
X161400500Y-87328855D01*
X161376614Y-87239711D01*
X161372037Y-87231784D01*
X161330470Y-87159787D01*
X161293264Y-87122581D01*
X161259779Y-87061258D01*
X161264763Y-86991566D01*
X161306635Y-86935633D01*
X161372099Y-86911216D01*
X161380945Y-86910900D01*
X161489718Y-86910900D01*
X161608110Y-86887349D01*
X161665700Y-86875894D01*
X161831473Y-86807229D01*
X161980665Y-86707542D01*
X162107542Y-86580665D01*
X162207229Y-86431473D01*
X162275894Y-86265700D01*
X162278382Y-86253188D01*
X162310766Y-86191278D01*
X162371480Y-86156702D01*
X162441250Y-86160440D01*
X162497923Y-86201305D01*
X162521617Y-86253184D01*
X162524106Y-86265696D01*
X162524108Y-86265704D01*
X162592768Y-86431466D01*
X162592775Y-86431479D01*
X162692458Y-86580664D01*
X162692461Y-86580668D01*
X162819332Y-86707539D01*
X162819336Y-86707542D01*
X162968521Y-86807225D01*
X162968534Y-86807232D01*
X163096303Y-86860155D01*
X163134301Y-86875894D01*
X163134305Y-86875894D01*
X163134306Y-86875895D01*
X163310282Y-86910900D01*
X163310285Y-86910900D01*
X163489719Y-86910900D01*
X163608111Y-86887349D01*
X163665701Y-86875894D01*
X163831474Y-86807229D01*
X163980666Y-86707542D01*
X164107543Y-86580665D01*
X164207230Y-86431473D01*
X164275895Y-86265700D01*
X164278382Y-86253193D01*
X164310765Y-86191283D01*
X164371480Y-86156707D01*
X164441250Y-86160445D01*
X164497923Y-86201310D01*
X164521617Y-86253189D01*
X164524105Y-86265696D01*
X164524107Y-86265704D01*
X164592767Y-86431466D01*
X164592774Y-86431479D01*
X164692457Y-86580664D01*
X164692460Y-86580668D01*
X164819331Y-86707539D01*
X164819335Y-86707542D01*
X164968520Y-86807225D01*
X164968533Y-86807232D01*
X165096302Y-86860155D01*
X165134300Y-86875894D01*
X165134304Y-86875894D01*
X165134305Y-86875895D01*
X165310281Y-86910900D01*
X165310284Y-86910900D01*
X165489718Y-86910900D01*
X165608110Y-86887349D01*
X165665700Y-86875894D01*
X165831473Y-86807229D01*
X165980665Y-86707542D01*
X166107542Y-86580665D01*
X166207229Y-86431473D01*
X166275894Y-86265700D01*
X166296832Y-86160440D01*
X166310900Y-86089718D01*
X166310900Y-85910281D01*
X166275895Y-85734305D01*
X166275894Y-85734304D01*
X166275894Y-85734300D01*
X166251453Y-85675293D01*
X166207232Y-85568533D01*
X166207225Y-85568520D01*
X166107542Y-85419335D01*
X166107539Y-85419331D01*
X165980668Y-85292460D01*
X165980664Y-85292457D01*
X165831479Y-85192774D01*
X165831466Y-85192767D01*
X165665704Y-85124107D01*
X165665696Y-85124105D01*
X165653184Y-85121616D01*
X165591273Y-85089229D01*
X165556701Y-85028512D01*
X165560442Y-84958743D01*
X165601310Y-84902072D01*
X165653188Y-84878381D01*
X165665700Y-84875893D01*
X165831473Y-84807228D01*
X165980665Y-84707541D01*
X166107542Y-84580664D01*
X166207229Y-84431472D01*
X166275894Y-84265699D01*
X166297574Y-84156708D01*
X166310900Y-84089717D01*
X166310900Y-83910280D01*
X166275895Y-83734304D01*
X166275894Y-83734303D01*
X166275894Y-83734299D01*
X166246155Y-83662502D01*
X166207232Y-83568532D01*
X166207225Y-83568519D01*
X166107542Y-83419334D01*
X166107539Y-83419330D01*
X165980668Y-83292459D01*
X165980664Y-83292456D01*
X165831479Y-83192773D01*
X165831466Y-83192766D01*
X165665704Y-83124106D01*
X165665694Y-83124103D01*
X165489718Y-83089099D01*
X165489716Y-83089099D01*
X165310284Y-83089099D01*
X165310282Y-83089099D01*
X165134305Y-83124103D01*
X165134295Y-83124106D01*
X164968533Y-83192766D01*
X164968520Y-83192773D01*
X164819335Y-83292456D01*
X164819331Y-83292459D01*
X164692460Y-83419330D01*
X164692455Y-83419336D01*
X164647746Y-83486247D01*
X164594133Y-83531052D01*
X164524808Y-83539758D01*
X164461781Y-83509602D01*
X164434160Y-83473650D01*
X164392463Y-83391816D01*
X164379532Y-83374019D01*
X164379532Y-83374018D01*
X163806401Y-83947150D01*
X163806401Y-83946495D01*
X163778706Y-83843134D01*
X163725202Y-83750463D01*
X163649537Y-83674798D01*
X163556866Y-83621294D01*
X163453505Y-83593599D01*
X163452848Y-83593599D01*
X164025979Y-83020466D01*
X164008179Y-83007534D01*
X163845444Y-82924615D01*
X163671729Y-82868171D01*
X163491331Y-82839599D01*
X163308671Y-82839599D01*
X163128272Y-82868171D01*
X162954557Y-82924615D01*
X162791814Y-83007538D01*
X162791809Y-83007542D01*
X162774021Y-83020464D01*
X162774021Y-83020467D01*
X163347155Y-83593599D01*
X163346497Y-83593599D01*
X163243136Y-83621294D01*
X163150465Y-83674798D01*
X163074800Y-83750463D01*
X163021296Y-83843134D01*
X162993601Y-83946495D01*
X162993601Y-83947151D01*
X162420469Y-83374019D01*
X162420466Y-83374019D01*
X162407544Y-83391807D01*
X162407537Y-83391818D01*
X162365839Y-83473653D01*
X162317864Y-83524449D01*
X162250043Y-83541243D01*
X162183908Y-83518705D01*
X162152253Y-83486248D01*
X162107542Y-83419334D01*
X162107539Y-83419330D01*
X161980668Y-83292459D01*
X161980664Y-83292456D01*
X161831479Y-83192773D01*
X161831469Y-83192768D01*
X161806163Y-83182286D01*
X161806161Y-83182285D01*
X161665704Y-83124106D01*
X161665694Y-83124103D01*
X161489718Y-83089099D01*
X161489716Y-83089099D01*
X161310284Y-83089099D01*
X161310282Y-83089099D01*
X161162772Y-83118441D01*
X161093180Y-83112214D01*
X161050899Y-83084505D01*
X160478575Y-82512181D01*
X160445090Y-82450858D01*
X160450074Y-82381166D01*
X160491946Y-82325233D01*
X160557410Y-82300816D01*
X160566256Y-82300500D01*
X166541324Y-82300500D01*
X166608363Y-82320185D01*
G37*
%TD.AperFunction*%
%TA.AperFunction,Conductor*%
G36*
X162993601Y-84053503D02*
G01*
X163021296Y-84156864D01*
X163074800Y-84249535D01*
X163150465Y-84325200D01*
X163243136Y-84378704D01*
X163346497Y-84406399D01*
X163347154Y-84406399D01*
X162774020Y-84979530D01*
X162791818Y-84992461D01*
X162873654Y-85034159D01*
X162924450Y-85082134D01*
X162941245Y-85149955D01*
X162918708Y-85216090D01*
X162886251Y-85247745D01*
X162819338Y-85292455D01*
X162819332Y-85292460D01*
X162692461Y-85419331D01*
X162692458Y-85419335D01*
X162592775Y-85568520D01*
X162592768Y-85568533D01*
X162524108Y-85734295D01*
X162524104Y-85734309D01*
X162521616Y-85746817D01*
X162489229Y-85808727D01*
X162428512Y-85843298D01*
X162358743Y-85839556D01*
X162302072Y-85798688D01*
X162278382Y-85746810D01*
X162275894Y-85734300D01*
X162251453Y-85675293D01*
X162207232Y-85568533D01*
X162207225Y-85568520D01*
X162107542Y-85419335D01*
X162107539Y-85419331D01*
X161980668Y-85292460D01*
X161980664Y-85292457D01*
X161831479Y-85192774D01*
X161831466Y-85192767D01*
X161665704Y-85124107D01*
X161665696Y-85124105D01*
X161653184Y-85121616D01*
X161591273Y-85089229D01*
X161556701Y-85028512D01*
X161560442Y-84958743D01*
X161601310Y-84902072D01*
X161653188Y-84878381D01*
X161665700Y-84875893D01*
X161831473Y-84807228D01*
X161980665Y-84707541D01*
X162107542Y-84580664D01*
X162152253Y-84513748D01*
X162205864Y-84468944D01*
X162275189Y-84460237D01*
X162338217Y-84490391D01*
X162365839Y-84526345D01*
X162407531Y-84608169D01*
X162407534Y-84608174D01*
X162420468Y-84625977D01*
X162993601Y-84052844D01*
X162993601Y-84053503D01*
G37*
%TD.AperFunction*%
%TA.AperFunction,Conductor*%
G36*
X164379532Y-84625977D02*
G01*
X164392467Y-84608175D01*
X164434160Y-84526348D01*
X164482134Y-84475552D01*
X164549955Y-84458756D01*
X164616090Y-84481293D01*
X164647747Y-84513750D01*
X164692460Y-84580667D01*
X164819331Y-84707538D01*
X164819335Y-84707541D01*
X164968520Y-84807224D01*
X164968533Y-84807231D01*
X165066624Y-84847861D01*
X165134300Y-84875893D01*
X165146811Y-84878381D01*
X165208722Y-84910765D01*
X165243297Y-84971481D01*
X165239558Y-85041250D01*
X165198693Y-85097923D01*
X165146817Y-85121615D01*
X165134309Y-85124103D01*
X165134295Y-85124107D01*
X164968533Y-85192767D01*
X164968520Y-85192774D01*
X164819335Y-85292457D01*
X164819331Y-85292460D01*
X164692460Y-85419331D01*
X164692457Y-85419335D01*
X164592774Y-85568520D01*
X164592767Y-85568533D01*
X164524107Y-85734295D01*
X164524103Y-85734309D01*
X164521616Y-85746812D01*
X164489229Y-85808722D01*
X164428512Y-85843293D01*
X164358743Y-85839551D01*
X164302072Y-85798683D01*
X164278382Y-85746806D01*
X164275895Y-85734300D01*
X164251454Y-85675293D01*
X164207233Y-85568533D01*
X164207226Y-85568520D01*
X164107543Y-85419335D01*
X164107540Y-85419331D01*
X163980669Y-85292460D01*
X163980665Y-85292457D01*
X163913751Y-85247746D01*
X163868946Y-85194133D01*
X163860239Y-85124808D01*
X163890394Y-85061781D01*
X163926348Y-85034159D01*
X164008177Y-84992465D01*
X164025980Y-84979530D01*
X163452849Y-84406399D01*
X163453505Y-84406399D01*
X163556866Y-84378704D01*
X163649537Y-84325200D01*
X163725202Y-84249535D01*
X163778706Y-84156864D01*
X163806401Y-84053503D01*
X163806401Y-84052846D01*
X164379532Y-84625977D01*
G37*
%TD.AperFunction*%
%TD*%
M02*
